<?xml version="1.0" encoding="UTF-8"?>
<svg id="Layer_2" xmlns="http://www.w3.org/2000/svg" viewBox="0 0 611 533.4">
  <defs>
    <style>
      .cls-1 {
        fill: #949caa;
      }

      .cls-2 {
        fill: #c1c6ce;
      }

      .cls-3 {
        fill: #bdc2cb;
      }

      .cls-4 {
        fill: #e7e9eb;
      }
    </style>
  </defs>
  <g id="Layer_1-2" data-name="Layer_1">
    <g>
      <path class="cls-1" d="M0,533.4c5.78-25.62,17.55-47.21,39.02-63.54,18.25-13.88,35.29-29.36,52.95-44.03,2.92-2.42,4.15-5.05,4.12-8.94-.15-19.3-.51-38.62.95-57.89.45-5.96,1.32-11.88,1.94-17.83.14-1.34.66-2.22,2-2.46,10.01-1.84,15.88-9.27,21.75-16.48,7.04-8.64,13.48-17.77,20.61-26.33,8.06-9.67,8.26-9.46,19.36-4.35,18.58,8.55,37.21,16.99,55.75,25.61,3.75,1.74,6.68,2.36,9.22-1.91,2.36-3.96,6.13-4.42,10.49-3.45,8.67,1.94,12.66.11,15.33-8.38,5.86-18.62,6.4-37.55,1.47-56.53-.28-1.09-.94-2.07-1.37-3.01-2.59-.18-.56,3.59-2.94,3.12-1.76-.35-2.45-2.17-3.33-3.55-3.14-4.96-5.41-10.29-6.5-16.09,0-3.04,0-6.08,0-9.41-2.02,1.64-1.89,3.56-1.71,5.49-.36,1.08-.49,2.59-1.91,2.58-1.39-.01-1.81-1.58-1.9-2.6-.23-2.64-.18-5.3-.11-7.96.11-3.96-1.3-6.94-3.63-10.37-3.57-5.25-9.84-9.74-7-18.14,1.08-3.18,2.49-8.21-2.46-10.9-.28-.15-.45-1.05-.27-1.4,4.11-8.23-3.9-17.36,3.39-26.55-3.84,1.84-5.68,2.34-4.8-1.52,1.15-5.06,4.98-8.07,8.37-11.58-.6-.26-.88-.5-1.12-.48-1.73.2-3.92,1.95-5.07.14-1.1-1.75,1.2-3.13,2.3-4.48,2.94-3.61,7.02-6.74,8.64-10.86,1.55-3.92-2.04-8.6.21-14.09-1.98,1.28-2.73,1.76-3.75,2.42-.15-7.49,2.52-14.01,4.7-20.6,4.19-12.61,5.44-25.06-1.21-37.24-2.23-4.09-4.99-7.89-7.19-11.99-3.78-7.03-2.98-12.84,1.78-18.45,2.01-2.38,2.94-1.89,4.16.55,2.45,4.92,4.94,9.82,7.64,14.6.93,1.65,2.19,4.1,4.36,3.47,2.54-.74,2.78-3.57,2.61-5.9-.36-5.07-3.03-9.46-4.6-14.18-2.48-7.47-.66-12.39,5.88-16.62,3.08-1.99,4.98-1.94,7.21,1.41,5.58,8.39,9.72,17.49,13.36,26.76,3.32,8.46,8.17,14.49,17.25,17.11,8.61,2.48,10.17,10.8,10.65,17.69.69,9.92,5.78,15.54,13.17,20.85,6.59,4.73,12.75,10.15,18.11,16.39,2.15,2.51,1.81,3.33-1.29,4.15-6.26,1.67-12.38,3.84-18.66,5.44-2.58.66-3.25,1.86-2.82,4.19,5.13,27.53,16.66,50.84,43.98,62.39,9.7,4.1,20.38,5.94,30.66,8.61,13.76,3.58,26.82,9.01,39.5,15.23,8.88,4.36,14.6,12.53,20.45,20.19,2.53,3.31,4.76,7.04,8,9.47,8.08,6.07,12.7,14.49,16.67,23.27,9.55,21.08,24.2,37.7,43.11,50.75,10.07,6.95,20.59,12.81,33.01,14.62,4.49.65,8.56-.15,12.73-1.36,1.69-.49,3.31-1.72,5.47-.73-1.83,3.44-5.83,4.33-8.23,7.05,5.4,2.29,5.55,3.15,1.54,7.36-2.96,3.11-6.49,5.1-10.69,6.04-2.78.62-6.61-.63-7.2,4.2-.14,1.12-2.28,1.07-3.61,1.06-3.17-.02-6.33-.09-9.49-.14-1.57-1.46-3.25-.84-5-.06,1.37.34,2.74.68,4.12,1.02.16.04.34.05.49.11.45.19.89.84.31.87-9.87.46-25.97-.05-32.4-11.96-.23-.43-.64-.75-1.12-1.29-.24,2.41.78,4.79-.77,6.89-1.63-.07-1.82-1.66-2.67-2.56-.46-.49-.52-1.55-1.71-1.14-3.32,1.13-3.77,1.06-5.04-1.79-1.28-2.87-2.23-5.89-3.33-8.84-.2-1.01-.56-1.89-1.8-2.49-.08,1.43-.25,2.53.83,3.33v5.04c-5.1-3.35-7.11-8.17-8.73-13.08-1.07-3.23-2.17-3.08-3.88-.26-3.11-7.32-2.98-15.01-5.88-23.23-.38,2.78-.59,4.29-.93,6.8-2.82-5.76-2.95-11.03-3.33-16.26-.37-5.08.78-10.32-1.67-15.79-3.63,13.89-3.85,27.01,1.88,39.86,1.62,3.64,3.4,7.24,4.72,10.99,2,5.67,1.5,11.12-2.41,15.97-3.55,4.41-7.06,8.84-10.68,13.19-1.27,1.52-1.69,2.41.4,3.75,15.39,9.9,27.9,23.16,40.73,35.93,37.89,37.71,73.75,77.29,107.79,118.51,7.05,8.54,14.72,16.68,20.05,26.55H0ZM305.39,267.68c-.55-.1-1.1-.19-1.66-.29,1.53,4.2,1.2,7.34-3.27,8.38-.33.08-.41,1.5-.5,2.31-.63,5.64-2.06,11.1-3.61,16.53-2.04,7.18-4.25,14.17-8.83,20.42-4.54,6.2-3.16,9.67,2.97,10.32,24.33,2.55,48.38,6.63,71.95,13.31,1.5.42,2.75,1.04,3.9-.69,4.36-6.56,10.61-6.4,17.36-4.95,5.87,1.26,10.07-1.71,11.32-7.63.83-3.94.17-7.55-2.2-10.9-3.31-4.68-7.74-8.23-11.84-12.13-6.28-5.98-11.44-12.62-11.77-21.79-.11-3.02,2.47-6.84.29-8.81-2-1.8-5.96-1.44-9.06-1.99-.95-.17-1.93-.19-2.81-.27-.94,1.94,2.31,3.21.67,4.56-1.46,1.2-3.49.31-5.23-.31-3.13-1.13-6.27-2.22-9.41-3.32-.3.44-.6.89-.9,1.33,1.4,1.13,2.79,2.26,4.91,3.97-5.34-1.09-9.48-2.73-13.55-4.61-2.15-.99-2.7-.76-2.38.72.77,3.63-1.16,1.98-2.66,1.67-3.31-.69-6.01-3.64-9.75-2.82-.4,2.24,1.92,3.44,1.83,5.6-2.77.36-4.54-1-6.27-2.68-1.56-1.52-1.91-4.22-4.69-5-.14,1.87-.26,3.43-.46,5.99-1.8-2.86-3.08-4.89-4.36-6.92ZM411,343.29c2.22.02,4.33-.56,6.23-1.58,4.73-2.54,9.41-5.04,15.07-4.35,1.52.19,2.36-.96,3.23-2,4.74-5.68,4.04-12.19-2.63-17.33-5.65-4.36-11.84-8.02-17.81-11.96-.89-.58-1.6-2.09-2.93-1.12-1.27.92-1.05,2.31-.52,3.63.61,1.54,1.1,3.15,1.8,4.65,2.38,5.14,2.1,9.88-1.54,14.45-2.17,2.72-3.97,5.76-5.83,8.71-3.36,5.33-2.94,6.12,3.43,6.82.5.05,1,.05,1.5.08Z"/>
      <path class="cls-4" d="M239.11,223.48c-.19-1.94-.31-3.86,1.71-5.49,0,3.33,0,6.37,0,9.41-.57-1.31-1.14-2.61-1.7-3.92Z"/>
      <path class="cls-2" d="M520.14,344.29c-1.37-.34-2.74-.68-4.12-1.02,1.74-.78,3.43-1.4,5,.06-.29.32-.59.64-.88.96Z"/>
      <path class="cls-3" d="M472.93,325.42c-1.08-.8-.91-1.9-.83-3.33,1.24.6,1.6,1.48,1.8,2.49-.32.28-.65.56-.97.84Z"/>
    </g>
  </g>
</svg>