<?xml version="1.0" encoding="UTF-8"?>
<svg id="Layer_2" xmlns="http://www.w3.org/2000/svg" viewBox="0 0 1262.15 410.4">
  <defs>
    <style>
      .cls-1 {
        fill: #1f4b76;
      }

      .cls-2 {
        fill: rgba(110, 150, 175, .58);
      }

      .cls-3 {
        fill: rgba(30, 55, 71, .58);
      }

      .cls-4 {
        fill: #6e96af;
      }

      .cls-5 {
        fill: rgba(31, 75, 118, .44);
      }
    </style>
  </defs>
  <g id="Layer_1-2" data-name="Layer_1">
    <path class="cls-3" d="M39.84,6.24c.16-.48.24-.88.24-1.2.16-.48.32-.88.48-1.2H14.16c.32-.48.64-.88.96-1.2.32-.48.64-.88.96-1.2h27.84c1.28-.96,2.64-1.44,4.08-1.44h48c1.76,0,3.12.48,4.08,1.44h-27.84c.32.32.64.72.96,1.2.48.32.8.72.96,1.2h26.16c.32.96.48,1.76.48,2.4h13.44c.16,0,.24.08.24.24v2.16h-32.4v4.8h13.44v3.6h-1.44v4.8h-8.64v4.8h19.44v1.2h1.44v4.8h.96v4.8h-1.68v4.8h-1.2v6h4.08v4.8h-4.56v4.8h.96v1.2h17.04v4.8h8.88v2.4h-36.96v2.4h12.24v4.8h-10.08v4.8h8.64v2.4h1.68v3.6h32.16v2.4h22.32v4.8h-60.96v-4.8h-22.32v-2.4h-32.16v-3.6h-1.68v-2.4h-8.64v-4.8h10.08v-4.8h-12.24v-2.4h36.96v-2.4h-8.88v-4.8h-17.04v-1.2h-.96v-4.8h4.56v-4.8h-4.08v-6h1.2v-4.8h1.68v-4.8h-.96v-4.8h-1.44v-1.2h-19.44v-4.8h8.64v-4.8h1.44v-3.6h-13.44v-4.8h32.4v-2.4h-13.68ZM199.44,135.84h-65.52v1.2h4.8v3.6h34.08v1.2h-10.56v4.8h16.8v3.6h2.4v1.2h-1.68v1.2h-.72v4.8h.48v3.6h-.96v1.2h-1.2c-.16.32-.24.72-.24,1.2h2.64c-.48,1.6-1.36,2.8-2.64,3.6h-2.64c-.8.64-1.92.96-3.36.96H50.16c-1.44,0-2.56-.32-3.36-.96h2.4c-1.44-.8-2.4-2-2.88-3.6h-2.64c0-.32-.08-.56-.24-.72v-.48h1.2v-1.2h.96v-3.6h-.48v-4.8h.72v-1.2h1.68v-1.2h-2.4v-3.6h-16.8v-4.8h10.56v-1.2H4.8v-3.6H0v-1.2h65.52v-3.6h-26.64v-3.6h25.92v-1.2H8.16v-3.6h8.16v-1.2h31.2v-1.2h-11.04v-3.6h18.72v-4.8h-18.96v-2.4h15.6v-1.2h-7.2v-3.6h6.96v-2.4h-8.88v-2.4h20.88v-3.6h6v-2.4h-32.88v-3.6h60.96v3.6h32.88v2.4h-6v3.6h-20.88v2.4h8.88v2.4h-6.96v3.6h7.2v1.2h-15.6v2.4h18.96v4.8h-18.72v.96h66.48c2.24,0,4,.88,5.28,2.64h11.04l.72,1.2h-31.2l.48,1.2h-8.4c.16.32.24.8.24,1.44v2.16h56.64v1.2h-25.92v3.6h26.64v3.6ZM348.23,98.64c.16.8.24,1.6.24,2.4v2.4h-17.04v2.4h-9.84v2.4h9.36v1.2h-10.8v3.6h-6v1.2h13.44c0,.48-.08.88-.24,1.2h-.72v1.2h2.16v.24c0,.64-.08,1.36-.24,2.16,0,.8-.08,1.6-.24,2.4h-1.68l-.72,4.8h3.6c0,.64-.16,1.44-.48,2.4h-.72c-.16.64-.32,1.28-.48,1.92-.16.48-.32,1.04-.48,1.68h1.92c-.16.8-.4,1.6-.72,2.4-.32.8-.64,1.6-.96,2.4h-3.6l-.96,2.4h.48c-.32.64-.48,1.04-.48,1.2h-.96c-.64,1.6-1.52,3.2-2.64,4.8h.48c-.16.32-.4.72-.72,1.2s-.64.88-.96,1.2h-.24l-2.88,3.6c-.16.16-.32.32-.48.48s-.4.4-.72.72h-1.2c-.64.64-1.28,1.28-1.92,1.92-.64.48-1.36,1.04-2.16,1.68h-7.2l-5.04,3.6h.96c-.32.16-.64.32-.96.48-.32.16-.64.4-.96.72h-1.68c-.32.16-.72.32-1.2.48-.48.16-.88.4-1.2.72h12.96c-.8.48-1.68.96-2.64,1.44-.96.32-1.92.64-2.88.96h-4.08c-1.12.48-2.32.96-3.6,1.44l-3.84.96h.96c-1.92.48-3.92.88-6,1.2-2.08.48-4.24.88-6.48,1.2h7.44c-2.56.32-5.2.56-7.92.72-2.72.16-5.52.24-8.4.24-3.04,0-5.92-.08-8.64-.24-2.56-.16-5.2-.4-7.92-.72h-7.68c-2.08-.32-4.24-.72-6.48-1.2-2.08-.32-4.08-.72-6-1.2h-.72l-3.84-.96c-1.12-.48-2.32-.96-3.6-1.44h3.84c-.8-.32-1.68-.64-2.64-.96-.96-.48-1.84-.96-2.64-1.44h-12.96l-2.16-1.2h1.68l-2.16-1.2h-.96c-1.92-1.28-3.6-2.48-5.04-3.6h7.2c-.64-.64-1.28-1.2-1.92-1.68-.64-.64-1.28-1.28-1.92-1.92h1.2c-.16-.32-.32-.56-.48-.72-.16-.16-.4-.32-.72-.48l-2.88-3.6h.24l-1.68-2.4h-.48c-1.12-1.6-2-3.2-2.64-4.8h.72c-.32-.64-.48-1.04-.48-1.2h-.72l-.96-2.4h3.6c-.16-.8-.4-1.6-.72-2.4-.32-.8-.64-1.6-.96-2.4h-1.92c-.16-.64-.32-1.2-.48-1.68l-.48-1.92h-1.44l-.72-2.4h-2.4l-.72-4.8h2.4l-.48-2.4v-2.4h-4.32v-1.2h-1.2c0-.32-.08-.56-.24-.72v-.48h13.44c0-.48-.08-.88-.24-1.2h-13.44v-3.6h5.76v-1.2h2.88v-2.4h5.04v-2.4h-14.64v-2.4c0-.8.08-1.6.24-2.4h-3.12v-2.4h23.76c.16-.48.24-1.12.24-1.92v-1.68h-6.48v-1.68c.16-.64.24-1.28.24-1.92h2.4l.72-4.8h-7.92c.16-.64.32-1.2.48-1.68.16-.64.32-1.28.48-1.92h-1.68c.32-.8.56-1.6.72-2.4.32-.96.64-1.76.96-2.4h.24c.16-.32.32-.72.48-1.2s.32-.88.48-1.2h-.24c0-.16.16-.56.48-1.2h1.2c.64-1.6,1.52-3.2,2.64-4.8h-4.8l1.44-2.4h8.88c.16-.32.48-.72.96-1.2h-17.52c.32-.64.72-1.2,1.2-1.68.64-.64,1.2-1.28,1.68-1.92h5.52l2.4-2.4c.96-.96,1.84-1.76,2.64-2.4h11.04c1.44-1.28,3.12-2.48,5.04-3.6h4.56c.64-.48,1.28-.88,1.92-1.2.8-.48,1.52-.88,2.16-1.2h-14.16c1.44-.8,3.2-1.6,5.28-2.4h6.48c3.68-1.44,7.52-2.64,11.52-3.6h-7.2c7.84-1.76,16.16-2.64,24.96-2.64s17.12.88,24.96,2.64h7.44c4,.96,7.76,2.16,11.28,3.6h-6.72c2.08.8,3.84,1.6,5.28,2.4h14.16c.8.32,1.52.72,2.16,1.2.8.32,1.52.72,2.16,1.2h-4.56l5.04,3.6h-11.04c.96.64,1.84,1.44,2.64,2.4.96.8,1.84,1.6,2.64,2.4h-5.52c.48.64.96,1.28,1.44,1.92.64.48,1.12,1.04,1.44,1.68h17.76l.72,1.2h-8.64l1.44,2.4h4.8c1.12,1.6,2,3.2,2.64,4.8h-1.2c.32.64.48,1.04.48,1.2h.48l.96,2.4h-.24c.32.64.64,1.44.96,2.4.32.8.56,1.6.72,2.4h2.4l.72,3.6h-1.44c.32.64.48,1.44.48,2.4.16.8.32,1.6.48,2.4h1.92c.16.64.24,1.28.24,1.92,0,.48.08,1.04.24,1.68h-9.36v1.68c0,.8.08,1.44.24,1.92h-4.8v2.4h30.96ZM256.07,89.04c-.16.64-.32,1.28-.48,1.92v1.68h6.72c-.16.48-.24.96-.24,1.44v2.16h.96v-.72c0-.48-.08-.96-.24-1.44v-1.44h9.36c0-.64-.08-1.2-.24-1.68v-1.92h-1.92c-.16-.96-.4-1.84-.72-2.64-.16-.8-.4-1.52-.72-2.16h1.68c-.64-1.44-1.6-2.64-2.88-3.6h-2.4c-1.6-.96-3.68-1.44-6.24-1.44s-4.56.48-6,1.44h1.68c-.64.48-1.2,1.04-1.68,1.68-.48.48-.88,1.12-1.2,1.92h7.92c-.16.64-.4,1.36-.72,2.16-.16.8-.32,1.68-.48,2.64h-2.16ZM272.39,103.44h17.04v-4.8h-30.96c-.16-.64-.24-1.44-.24-2.4h-19.92c0,.96-.08,1.76-.24,2.4h3.12v4.8h14.64v2.4h-5.28v2.4h-2.88v1.2h-5.76v1.92c.16.48.24,1.04.24,1.68h18.96v-3.6h10.8v-1.2h-9.36v-2.4h9.84v-2.4ZM268.55,115.44v-1.2h-26.16v1.2h1.2v.72c.16.16.24.32.24.48h4.08c.16.8.24,1.6.24,2.4s.08,1.6.24,2.4h-2.4c.32,2.08.64,3.68.96,4.8h2.64c.32.96.64,1.76.96,2.4h1.68c1.44,2.24,4.16,3.36,8.16,3.36s6.72-1.12,8.16-3.36h.96c.16-.32.32-.64.48-.96l.48-1.44h-3.6c.16-.8.32-1.52.48-2.16.16-.8.32-1.68.48-2.64h1.68c.16-.8.24-1.6.24-2.4s.08-1.6.24-2.4h-2.16v-1.2h.72ZM486.86,150.24h35.76v4.8h-20.4v3.6h-3.36v2.4h-14.88v1.2h7.44c-.32,2.24-1.28,3.84-2.88,4.8h-5.28c-.8.64-2,.96-3.6.96h-45.84c-1.44,0-2.56-.32-3.36-.96h5.28c-1.6-.96-2.56-2.56-2.88-4.8h-7.68v-1.2h14.88v-2.4h3.36v-3.6h20.4v-4.8h-35.76v-4.8h8.88v-1.2h-7.92v-2.4h.24v-2.4h-3.84v-4.8h3.12v-4.8h-9.84v-4.8h2.4v-4.8h11.04v-4.8h-2.64v-2.4h-.96v-1.2h-.96v-3.6h1.44v-1.2h1.2v-2.4h-.24v-2.4h-.72v-2.4h-10.08v-2.4h2.64v-.48c0-.64-.08-1.2-.24-1.68v-1.44h4.8c-.16-.8-.32-1.44-.48-1.92-.16-.64-.32-1.2-.48-1.68h4.32c-.96-2.08-2.32-3.68-4.08-4.8h-7.68c-1.76-1.12-4.08-1.68-6.96-1.68s-5.12.56-6.72,1.68h5.76c-.8.64-1.6,1.36-2.4,2.16-.64.64-1.12,1.52-1.44,2.64h-7.2c-.32.64-.64,1.84-.96,3.6h1.2c-.16.64-.24,1.68-.24,3.12v.48h-1.68v2.4h7.92v2.4h.48v2.4h-.72v2.4h-1.68v1.2h-1.68v3.6h2.64v1.2h1.68v2.4h-.96v4.8h6.24v4.8h-6.72v4.8h1.2v4.8h-2.64v4.8h2.88v2.4h-.24v1.2h.72v1.2h13.2v1.2h5.52v4.8h-14.88v4.8h.48v3.6h-9.12v2.4h10.32v1.2h2.64c-.32,2.24-1.36,3.84-3.12,4.8h-11.04c-.8.64-1.92.96-3.36.96h-45.6c-1.44,0-2.56-.32-3.36-.96h11.04c-1.76-.96-2.8-2.56-3.12-4.8h-2.64v-1.2h-10.32v-2.4h9.12v-3.6h-.48v-4.8h14.88v-4.8h-5.52v-1.2h-13.2v-1.2h-.72v-1.2h.24v-2.4h-2.88v-4.8h2.64v-4.8h-1.2v-4.8h6.72v-4.8h-6.24v-4.8h.96v-2.4h-1.68v-1.2h-2.64v-3.6h1.68v-1.2h1.68v-2.4h.72v-2.4h-.48v-2.4h-7.92v-2.4h1.68v-3.6h-1.2v-3.6h7.2v-4.8h-6v-3.6h5.28v-2.4h1.44v-3.6h-.96v-3.6h.24v-6h1.2v-2.4h-.24v-3.6h3.12v-1.2h-1.92v-3.6h2.88v-1.2h-9.6v-2.4h6.96v-3.6h12.96c.32-.96.64-1.76.96-2.4h-7.68c1.28-1.76,3.04-2.64,5.28-2.64h42c2.24,0,4,.88,5.28,2.64h4.08c3.52-1.6,7.28-2.8,11.28-3.6,4-.96,8.16-1.44,12.48-1.44,8,0,15.2,1.68,21.6,5.04h2.64c.8.32,1.52.72,2.16,1.2.64.32,1.28.72,1.92,1.2h-3.36c.8.48,1.6,1.04,2.4,1.68.8.48,1.52,1.12,2.16,1.92h18.72c.96.64,1.76,1.44,2.4,2.4h-13.2c.16.16.32.32.48.48s.32.4.48.72h3.36c.48.64.96,1.28,1.44,1.92.48.48.88,1.04,1.2,1.68h2.16l.72,1.2h-3.12l2.16,3.6h.24c.32.8.72,1.6,1.2,2.4h-1.2c.8,1.76,1.44,3.36,1.92,4.8,0,.16.16.56.48,1.2h-.24c.32.64.48,1.28.48,1.92.16.48.32,1.04.48,1.68h.96c.32.64.48,1.28.48,1.92.16.48.32,1.04.48,1.68h-1.68c.32.96.48,1.76.48,2.4h-5.04c.16.64.24,1.28.24,1.92,0,.48.08,1.04.24,1.68h7.68c.16.64.24,1.44.24,2.4.16.8.24,1.6.24,2.4h-4.32v3.6h-4.56v3.6h-2.64v2.4h10.08v2.4h.72v2.4h.24v2.4h-1.2v1.2h-1.44v3.6h.96v1.2h.96v2.4h2.64v4.8h-11.04v4.8h-2.4v4.8h9.84v4.8h-3.12v4.8h3.84v2.4h-.24v2.4h7.92v1.2h-8.88v4.8ZM406.22,48.24h-2.64v.72c.16.16.24.4.24.72v.24c.32-.32.72-.64,1.2-.96.48-.32.88-.56,1.2-.72ZM396.86,51.84v2.4h19.92l2.88-2.4h-22.8ZM403.58,55.44v2.16c.32-.48.96-1.2,1.92-2.16h-1.92ZM630.34,102.24v2.4h30.48v2.4h-18.48v2.4h-8.64v2.4h7.44v1.44c0,.96-.08,1.68-.24,2.16h3.36c-1.12,2.88-3.2,4.32-6.24,4.32h-71.52v.48h9.6v2.88c0,.64.08,1.28.24,1.92h-12.96v1.44c.16.32.24.64.24.96h-1.44c0,.64.16,1.44.48,2.4h.96c.8,2.24,2.08,3.84,3.84,4.8h-6.48c1.12.64,2.64.96,4.56.96,1.28,0,2.32-.32,3.12-.96h11.28c.64-.32,1.2-.8,1.68-1.44.64-.64,1.36-1.28,2.16-1.92l1.44-1.44h-4.56c1.44-1.28,3.6-1.92,6.48-1.92h45.36c1.92,0,3.36.64,4.32,1.92h4.32c.8,1.12,1.2,2.24,1.2,3.36-.16.32-.24.8-.24,1.44h-11.28c-.32,1.6-.8,3.2-1.44,4.8h-11.76c-.48.8-.88,1.6-1.2,2.4h29.76c-.32.8-.8,1.6-1.44,2.4-.48.8-1.04,1.6-1.68,2.4h-7.2c-.64.96-1.28,1.76-1.92,2.4h1.68c-.16.16-.32.32-.48.48-.16.16-.32.4-.48.72h-13.44l-1.2,1.2h4.08c-.16.16-.4.32-.72.48-.16.16-.32.4-.48.72h7.44c-1.12,1.12-2.56,2.32-4.32,3.6h-3.6c-.16.16-.4.32-.72.48s-.64.4-.96.72h-2.64c-2.56,1.76-5.36,3.36-8.4,4.8h-3.12c-1.92.96-4,1.84-6.24,2.64-2.08.8-4.32,1.52-6.72,2.16h-3.84c-1.76.48-3.6.88-5.52,1.2-1.92.48-4,.88-6.24,1.2h10.08c-2.24.32-4.56.56-6.96.72s-4.96.24-7.68.24c-2.56,0-5.12-.08-7.68-.24s-5.04-.4-7.44-.72h-10.08c-2.08-.32-4.08-.72-6-1.2-1.92-.32-3.84-.72-5.76-1.2h3.84c-4.32-1.12-8.4-2.72-12.24-4.8h3.12c-2.88-1.6-5.36-3.2-7.44-4.8h2.64c-.32-.32-.64-.56-.96-.72-.16-.16-.4-.32-.72-.48h3.6c-.64-.64-1.28-1.2-1.92-1.68l-1.92-1.92h-7.68l-1.2-1.2h-4.08c-.16-.32-.32-.56-.48-.72-.16-.16-.32-.32-.48-.48h13.2c-.16-.32-.48-.72-.96-1.2h-1.68c-.32-.32-.64-.72-.96-1.2-.32-.48-.64-.88-.96-1.2h7.2c-.48-.8-.96-1.6-1.44-2.4-.48-.8-.96-1.6-1.44-2.4h-30c-.48-.8-.88-1.6-1.2-2.4h11.76l-2.16-4.8h6.48c-.32-.8-.64-1.6-.96-2.4-.16-.8-.4-1.6-.72-2.4h-.72l-.72-2.4h1.68l-.72-2.4h12.96c-.16-.8-.32-1.6-.48-2.4-.16-.8-.32-1.6-.48-2.4h-9.6l-.48-4.8h-3.36c0-.64-.08-1.2-.24-1.68v-1.92h-7.44v-2.4h8.4v-2.4h18.48v-2.4h-30.48v-.48c0-.8.08-1.44.24-1.92h41.52v-1.68c.16-.64.24-1.28.24-1.92h-38.16v-.72c.16-.16.24-.32.24-.48h15.84c0-.48.08-.88.24-1.2h17.76v-1.2h-33.84c.16-.8.32-1.6.48-2.4.16-.8.32-1.6.48-2.4h9.12c0-.64.16-1.44.48-2.4h-7.92v-.72c.16-.16.24-.32.24-.48h5.76v-.72c.16-.16.24-.32.24-.48h-6l.48-1.2h5.76l.72-2.4h4.56l1.44-3.6h-4.32l.96-2.4c.32-.96.72-1.76,1.2-2.4h-.72l.48-1.2h-6c.32-.64.48-1.04.48-1.2h-5.52l1.44-2.4h11.76c.16-.32.48-.72.96-1.2h4.32c.64-.8,1.2-1.6,1.68-2.4.64-.96,1.28-1.76,1.92-2.4h-4.32c.48-.64.96-1.2,1.44-1.68.64-.64,1.28-1.28,1.92-1.92h9.36l2.4-2.4h-14.16c2.08-1.76,4.16-3.36,6.24-4.8h13.2l1.92-1.2h-4.32c1.28-.8,2.8-1.6,4.56-2.4h9.36c4.32-2.08,8.8-3.68,13.44-4.8h-13.44c3.52-.8,7.2-1.44,11.04-1.92,3.84-.48,7.84-.72,12-.72s8.08.24,11.76.72c3.68.48,7.2,1.12,10.56,1.92h13.2c2.4.64,4.64,1.36,6.72,2.16,2.24.8,4.4,1.68,6.48,2.64h-9.36c.8.32,1.52.72,2.16,1.2.8.32,1.52.72,2.16,1.2h4.32c.32.16.64.32.96.48.32.16.64.4.96.72h-13.2c2.08,1.44,4.16,3.04,6.24,4.8h14.4l2.4,2.4h-9.36c.64.64,1.2,1.28,1.68,1.92.64.48,1.2,1.04,1.68,1.68h4.32c.64.64,1.2,1.44,1.68,2.4l1.92,2.4h-4.56c.16.32.48.72.96,1.2h-12l1.44,2.4h5.52l.72,1.2h6.24c0,.16.16.56.48,1.2h.72l2.16,4.8,1.44,3.6h.24l.72,2.4h-2.88l.48,1.2h2.16l.48,1.2h3.84v.48c.16.16.24.4.24.72h-1.92l.72,2.4h-9.12l.72,4.8h33.84v1.2h-17.76v.48c.16.16.24.4.24.72h-16.08c.16.32.24.72.24,1.2h38.16v1.92c0,.48.08,1.04.24,1.68h-41.76ZM557.38,86.64v1.2h7.68v1.92h19.2v-1.92h1.68v-1.2h-3.84v-1.2h-2.4c0-.48-.08-.88-.24-1.2h2.88c0-.64-.16-1.44-.48-2.4h-.24c-.16-1.44-.64-2.64-1.44-3.6-1.6-2.56-4.08-3.84-7.44-3.84s-5.6,1.28-7.2,3.84h4.32c-.64.96-1.12,2.16-1.44,3.6h-4.8c0,.32-.08.72-.24,1.2,0,.32-.08.72-.24,1.2h-5.76c0,.48-.08.88-.24,1.2h6v1.2h-5.76ZM196.32,299.64l-.72,3.6h39.6l-.48,2.4h-36.48l-.24,1.2h15.12l-.72,4.8h5.04l-.48,3.6h2.88l-.72,3.6h.24l-.48,3.6h.96v1.2h-.48l-.72,4.8h-.72l-.72,4.8-.48,4.8h4.56l-.24,1.2h-2.64v1.2h4.8v1.2h-7.68l-.24,1.2h-2.64l-.48,3.6h7.92l-.72,4.8h9.12l-.48,3.6h-7.2l-.24,1.2h-3.6l-.72,4.8h1.92l-.24,2.4h2.16l-.48,3.6h-3.6l-.48,3.6h-7.92l-.24,2.4h8.16l-.72,4.8h-5.28l-.48,4.8h4.8l-.48,3.6h-18.48l-.48,2.4h6.96l-.24,1.44v.96h6.48c-.16.32-.32.72-.48,1.2,0,.48-.16.88-.48,1.2h-2.64c-.8,1.44-1.84,2.64-3.12,3.6h2.16c-.96.64-1.68,1.04-2.16,1.2h1.92c-1.28.64-2.88.96-4.8.96h-34.32c-.96,0-1.84-.08-2.64-.24-.64-.32-1.28-.56-1.92-.72h-1.92c-.48-.16-.88-.32-1.2-.48-.32-.32-.64-.56-.96-.72h-1.92c-.64-.64-1.2-1.28-1.68-1.92-.48-.64-.88-1.2-1.2-1.68h2.64c-.16-.16-.24-.4-.24-.72l-.72-1.68h-6.48l-.96-2.4h-6.96l-.96-2.4h18.48l-1.44-3.6h-5.04l-1.92-4.8h5.28l-1.92-4.8h-8.16l-.96-2.4h7.68l-1.44-3.6h3.6l-1.44-3.6h-2.16l-.96-2.4h-1.92l-1.92-4.8h3.6l-.48-1.2h7.2l-1.44-3.6h-9.12l-1.92-4.8h-7.92l-1.2-3.12-1.2,3.12h-.96l-1.92,4.8h14.88l-1.44,3.6h-11.76l-.48,1.2h2.16l-1.92,4.8h4.32l-.96,2.4h-12l-1.44,3.6h6.48l-1.44,3.6h-7.92l-.96,2.4h3.84l-1.92,4.8h.24l-1.92,4.8h-15.84l-1.44,3.6h25.2l-.96,2.4h-5.28l-.96,2.4h-.48l-.72,1.68-.48.72h-7.44c-.32.48-.72,1.04-1.2,1.68-.32.64-.88,1.28-1.68,1.92h1.44c-.48.48-1.12.88-1.92,1.2h6.48c-.64.16-1.36.4-2.16.72-.8.16-1.68.24-2.64.24h-34.32c-1.92,0-3.52-.32-4.8-.96h-6.24c-.48-.16-1.2-.56-2.16-1.2h-1.68c-1.44-1.12-2.48-2.32-3.12-3.6h7.68c-.16-.32-.32-.72-.48-1.2-.16-.48-.32-.88-.48-1.2h.72l-.24-.96-.24-1.44h5.28l-.48-2.4h-24.96l-.48-3.6h15.6l-.48-4.8h-.24l-.72-4.8h-3.84l-.24-2.4h7.68l-.48-3.6h-6.24l-.48-3.6h12l-.48-2.4h-4.32l-.72-4.8h-2.16l-.24-1.2h11.76l-.48-3.6h-14.88l-.72-4.8h.96l-.72-3.6h2.64v-1.2h7.68l-.24-1.2h-5.04l-.24-1.2h2.64v-1.2h-4.8l-.24-2.4h-.24l-.24-2.4-.72-4.8h.72l-.72-4.8h.48l-.24-1.2h-.96l-.48-3.6h-.24l-.48-3.6h-2.88l-.48-3.6h-5.04l-.72-4.8h-15.12v-1.2h36.48l-.24-2.4h-14.4l-.48-3.6h-15.12l-.24-2.4h21.84l-.72-4.8h-5.76v-1.2h3.36l-.24-1.2h5.04l-.48-3.6h-8.16l-.24-1.2h-18.72l-.48-4.8h20.88l-.72-4.8h-5.28l-.24-2.4h2.16l-.48-3.6h.72l-.24-1.2h-7.44l-.24-2.4h5.04l-.48-3.6h.48l-.48-3.6h4.08l-.48-2.4h-12.96l-.24-2.4h10.32l-.24-2.4h-6l-.24-2.4h7.44l-.48-3.6h-2.4l-.72-4.8h2.64l-.24-1.2-.48-2.64v-.96h-3.6c.32-3.36,2.08-5.04,5.28-5.04h44.64c4.96,0,7.76,1.68,8.4,5.04h3.6c.16.32.24.8.24,1.44l.24,2.16.24,1.2h-2.4l.48,4.8h2.4l.48,3.6h-7.68l.48,2.4h5.76l.24,2.4h-10.32l.24,2.4h12.96l.48,2.4h-4.08l.24,3.6h-.24l.24,3.6h-5.28l.48,2.4h7.2l.24,1.2h-.72l.48,3.6h-2.16l.24,2.4h5.28l.72,4.8h-21.12l.48,4.8h18.72l.24,1.2h8.16l.48,3.6h-5.04v1.2h-3.36l.24,1.2h5.04l.48-1.2h2.4l.48-1.2h10.08l1.2-3.6h-11.04l.24-1.2h18.48l1.68-4.8h-19.44l1.44-4.8h-2.16v-.48l.72-1.92h4.56c.32-.64.64-1.28.96-1.92.48-.64,1.04-1.2,1.68-1.68h-1.44c.8-.64,1.68-1.04,2.64-1.2h2.16c.48-.16,1.2-.24,2.16-.24h24.48c.96,0,1.6.08,1.92.24h-2.16c.64.16,1.12.32,1.44.48.48.16.88.4,1.2.72h1.44c.8.48,1.36,1.04,1.68,1.68.48.64.8,1.28.96,1.92h-4.32c.48.64.72,1.28.72,1.92l.24.48h2.4l1.44,4.8h9.36l.72-4.8h-1.44l.24-2.4h11.28l.24-3.6h-10.56l.24-1.2h-1.92l.48-2.4h4.08l.48-3.6h-1.44l.48-3.6h3.36l.24-2.4h-14.64l.24-2.4h4.32l.24-2.4h8.16l.24-2.4h-.24l.48-3.6.48-4.8h-4.8l.24-1.2h5.76l.48-2.16v-1.44h4.56c.64-3.36,3.44-5.04,8.4-5.04h44.64c1.28,0,2.4.48,3.36,1.44,1.12.96,1.76,2.16,1.92,3.6h-4.32v.96l-.48,2.64h-6l-.24,1.2h5.04l-.72,4.8-.48,3.6h.24l-.48,2.4h-8.16l-.24,2.4h-4.32l-.48,2.4h14.88l-.24,2.4h-3.36l-.48,3.6h1.2l-.48,3.6h-4.08l-.48,2.4h1.92l-.24,1.2h10.56l-.48,3.6h-11.04l-.48,2.4h1.44l-.72,4.8h-8.64l-.72,4.8h10.56l-.24,1.2h-12.24l-.48,3.6h11.28v1.2h-.72l-.24,1.2h.72l-.72,4.8h3.84l-.48,2.4h-29.28ZM167.52,285.24h-8.16l.24,1.2h7.68l.24-1.2ZM161.76,290.04l.48,1.2h-2.4l.48,1.2,1.68,4.8h-25.92l.72,2.4h31.92l.24-2.4h-3.84l.72-4.8h-.72l.24-1.2h.48l.24-1.2h-4.32ZM118.08,303.24h-.72l.24,1.92.48-1.92ZM178.08,304.92l.24-1.68h-.96l.72,1.68ZM399.8,329.64c.16.8.24,1.6.24,2.4v2.4h-17.04v2.4h-9.84v2.4h9.36v1.2h-10.8v3.6h-6v1.2h13.44c0,.48-.08.88-.24,1.2h-.72v1.2h2.16v.24c0,.64-.08,1.36-.24,2.16,0,.8-.08,1.6-.24,2.4h-1.68l-.72,4.8h3.6c0,.64-.16,1.44-.48,2.4h-.72c-.16.64-.32,1.28-.48,1.92-.16.48-.32,1.04-.48,1.68h1.92c-.16.8-.4,1.6-.72,2.4-.32.8-.64,1.6-.96,2.4h-3.6l-.96,2.4h.48c-.32.64-.48,1.04-.48,1.2h-.96c-.64,1.6-1.52,3.2-2.64,4.8h.48c-.16.32-.4.72-.72,1.2-.32.48-.64.88-.96,1.2h-.24l-2.88,3.6-.48.48c-.16.16-.4.4-.72.72h-1.2c-.64.64-1.28,1.28-1.92,1.92-.64.48-1.36,1.04-2.16,1.68h-7.2l-5.04,3.6h.96c-.32.16-.64.32-.96.48s-.64.4-.96.72h-1.68c-.32.16-.72.32-1.2.48s-.88.4-1.2.72h12.96c-.8.48-1.68.96-2.64,1.44-.96.32-1.92.64-2.88.96h-4.08c-1.12.48-2.32.96-3.6,1.44l-3.84.96h.96c-1.92.48-3.92.88-6,1.2-2.08.48-4.24.88-6.48,1.2h7.44c-2.56.32-5.2.56-7.92.72s-5.52.24-8.4.24c-3.04,0-5.92-.08-8.64-.24-2.56-.16-5.2-.4-7.92-.72h-7.68c-2.08-.32-4.24-.72-6.48-1.2-2.08-.32-4.08-.72-6-1.2h-.72l-3.84-.96c-1.12-.48-2.32-.96-3.6-1.44h3.84c-.8-.32-1.68-.64-2.64-.96-.96-.48-1.84-.96-2.64-1.44h-12.96l-2.16-1.2h1.68l-2.16-1.2h-.96c-1.92-1.28-3.6-2.48-5.04-3.6h7.2c-.64-.64-1.28-1.2-1.92-1.68l-1.92-1.92h1.2c-.16-.32-.32-.56-.48-.72s-.4-.32-.72-.48l-2.88-3.6h.24l-1.68-2.4h-.48c-1.12-1.6-2-3.2-2.64-4.8h.72c-.32-.64-.48-1.04-.48-1.2h-.72l-.96-2.4h3.6c-.16-.8-.4-1.6-.72-2.4-.32-.8-.64-1.6-.96-2.4h-1.92c-.16-.64-.32-1.2-.48-1.68-.16-.64-.32-1.28-.48-1.92h-1.44l-.72-2.4h-2.4l-.72-4.8h2.4c-.16-.8-.32-1.6-.48-2.4v-2.4h-4.32v-1.2h-1.2c0-.32-.08-.56-.24-.72v-.48h13.44c0-.48-.08-.88-.24-1.2h-13.44v-3.6h5.76v-1.2h2.88v-2.4h5.04v-2.4h-14.64v-2.4c0-.8.08-1.6.24-2.4h-3.12v-2.4h23.76c.16-.48.24-1.12.24-1.92v-1.68h-6.48v-1.68c.16-.64.24-1.28.24-1.92h2.4l.72-4.8h-7.92c.16-.64.32-1.2.48-1.68.16-.64.32-1.28.48-1.92h-1.68c.32-.8.56-1.6.72-2.4.32-.96.64-1.76.96-2.4h.24c.16-.32.32-.72.48-1.2.16-.48.32-.88.48-1.2h-.24c0-.16.16-.56.48-1.2h1.2c.64-1.6,1.52-3.2,2.64-4.8h-4.8l1.44-2.4h8.88c.16-.32.48-.72.96-1.2h-17.52c.32-.64.72-1.2,1.2-1.68.64-.64,1.2-1.28,1.68-1.92h5.52c.8-.8,1.6-1.6,2.4-2.4.96-.96,1.84-1.76,2.64-2.4h11.04c1.44-1.28,3.12-2.48,5.04-3.6h4.56c.64-.48,1.28-.88,1.92-1.2.8-.48,1.52-.88,2.16-1.2h-14.16c1.44-.8,3.2-1.6,5.28-2.4h6.48c3.68-1.44,7.52-2.64,11.52-3.6h-7.2c7.84-1.76,16.16-2.64,24.96-2.64s17.12.88,24.96,2.64h7.44c4,.96,7.76,2.16,11.28,3.6h-6.72c2.08.8,3.84,1.6,5.28,2.4h14.16c.8.32,1.52.72,2.16,1.2.8.32,1.52.72,2.16,1.2h-4.56l5.04,3.6h-11.04c.96.64,1.84,1.44,2.64,2.4.96.8,1.84,1.6,2.64,2.4h-5.52c.48.64.96,1.28,1.44,1.92.64.48,1.12,1.04,1.44,1.68h17.76l.72,1.2h-8.64l1.44,2.4h4.8c1.12,1.6,2,3.2,2.64,4.8h-1.2c.32.64.48,1.04.48,1.2h.48l.96,2.4h-.24c.32.64.64,1.44.96,2.4.32.8.56,1.6.72,2.4h2.4l.72,3.6h-1.44c.32.64.48,1.44.48,2.4.16.8.32,1.6.48,2.4h1.92c.16.64.24,1.28.24,1.92,0,.48.08,1.04.24,1.68h-9.36v1.68c0,.8.08,1.44.24,1.92h-4.8v2.4h30.96ZM307.64,320.04c-.16.64-.32,1.28-.48,1.92v1.68h6.72c-.16.48-.24.96-.24,1.44v2.16h.96v-.72c0-.48-.08-.96-.24-1.44v-1.44h9.36c0-.64-.08-1.2-.24-1.68v-1.92h-1.92c-.16-.96-.4-1.84-.72-2.64-.16-.8-.4-1.52-.72-2.16h1.68c-.64-1.44-1.6-2.64-2.88-3.6h-2.4c-1.6-.96-3.68-1.44-6.24-1.44s-4.56.48-6,1.44h1.68c-.64.48-1.2,1.04-1.68,1.68-.48.48-.88,1.12-1.2,1.92h7.92c-.16.64-.4,1.36-.72,2.16-.16.8-.32,1.68-.48,2.64h-2.16ZM323.96,334.44h17.04v-4.8h-30.96c-.16-.64-.24-1.44-.24-2.4h-19.92c0,.96-.08,1.76-.24,2.4h3.12v4.8h14.64v2.4h-5.28v2.4h-2.88v1.2h-5.76v1.92c.16.48.24,1.04.24,1.68h18.96v-3.6h10.8v-1.2h-9.36v-2.4h9.84v-2.4ZM320.12,346.44v-1.2h-26.16v1.2h1.2v.72c.16.16.24.32.24.48h4.08c.16.8.24,1.6.24,2.4s.08,1.6.24,2.4h-2.4c.32,2.08.64,3.68.96,4.8h2.64c.32.96.64,1.76.96,2.4h1.68c1.44,2.24,4.16,3.36,8.16,3.36s6.72-1.12,8.16-3.36h.96l.48-.96c.16-.48.32-.96.48-1.44h-3.6c.16-.8.32-1.52.48-2.16.16-.8.32-1.68.48-2.64h1.68c.16-.8.24-1.6.24-2.4s.08-1.6.24-2.4h-2.16v-1.2h.72ZM478.42,305.64h-19.68v1.2h1.44v4.8h6.24v2.4h-16.08v3.6h3.84v1.2h.24v3.6h1.2v1.2h-2.64v1.2h2.88v1.2h-1.92v2.4h-1.44v3.6h1.2v1.2h.96v1.2h-6.48v2.4h-2.64v1.2h-2.16v3.6h5.52v1.2h-4.08v2.4h12.24v4.8h-11.28v4.8h10.08v4.8h-1.68v1.2h2.4v4.8h-8.4v2.4h16.32v4.8h-14.16v1.2h6.48v3.6h-3.12v4.8h-.96v4.8h1.2v3.6h-2.64v1.68c0,.8-.08,1.44-.24,1.92h6.48c-.64,1.76-1.6,2.96-2.88,3.6h-7.92c-.8.64-1.92.96-3.36.96h-42.96c-1.44,0-2.56-.32-3.36-.96h7.92c-1.28-.64-2.24-1.84-2.88-3.6h-6.48c-.16-.48-.24-1.12-.24-1.92v-1.68h2.64v-3.6h-1.2v-4.8h.96v-4.8h3.12v-3.6h-6.48v-1.2h14.16v-4.8h-16.32v-2.4h8.4v-4.8h-2.4v-1.2h1.68v-4.8h-10.08v-4.8h11.28v-4.8h-12.24v-2.4h4.08v-1.2h-5.52v-3.6h2.16v-1.2h2.64v-2.4h6.48v-1.2h-.96v-1.2h-1.2v-3.6h1.44v-2.4h1.92v-1.2h-2.88v-1.2h2.64v-1.2h-1.2v-3.6h-.24v-1.2h-3.84v-3.6h16.08v-2.4h-6.24v-4.8h-1.44v-1.2h19.68v-1.2h-20.88v-3.6h12.24v-3.6h-9.84v-1.2h-9.6v-4.8h6.72v-1.2h-3.12v-1.2h-3.36v-3.6h1.2v-1.2h3.84v-4.8h-1.68v-2.4h3.36v-8.4h10.08v-1.2h-6.72v-3.6h-9.12v-1.2h-.48v-2.4h2.16v-2.4h.48v-1.2h.24v-3.6h-.48v-1.2h.48v-1.2h.72v-3.6h-1.68v-3.6h1.68v-1.2h-.48v-4.8h-.24v-1.2h-.24v-.96c0-.8.16-1.68.48-2.64h.24c1.12-2.56,3.12-3.84,6-3.84h42.96c2.56,0,4.56,1.28,6,3.84h-.24c.32.96.48,1.84.48,2.64v.96h.24v1.2h.24v4.8h.48v1.2h-1.68v3.6h1.68v3.6h-.72v1.2h-.48v1.2h.48v3.6h-.24v1.2h-.48v2.4h-2.16v2.4h.48v1.2h9.12v3.6h6.72v1.2h-10.08v8.4h-3.36v2.4h1.68v4.8h-3.84v1.2h-1.2v3.6h3.36v1.2h3.12v1.2h-6.72v4.8h9.6v1.2h9.84v3.6h-12.24v3.6h20.88v1.2ZM576.4,287.64v3.6h10.32v2.4h-10.8v2.4h4.56v4.8h.72v4.8h4.56v2.4h-6.48v1.68c0,.8-.08,1.44-.24,1.92h-1.2c-.64,1.76-1.6,2.96-2.88,3.6h2.16c-.8.64-1.92.96-3.36.96h-27.36v2.64h-.96v4.8h-1.68v2.4h3.12v2.4h-.48v2.4h-4.32v4.8h15.84v4.8h18v4.8h-18.96v2.4h24.48v3.6h-32.64v1.2h-7.44v4.8h11.76v2.4h4.56v1.2h2.4v4.8h-9.84v3.6h10.56v4.8h.48v4.8h-10.08v3.6h-.96v1.2h-3.84v4.8h-8.4v4.8h6c-.32,2.24-1.28,3.84-2.88,4.8h2.16c-.8.64-1.92.96-3.36.96h-42c-1.44,0-2.56-.32-3.36-.96h-2.4c-1.6-.96-2.56-2.56-2.88-4.8h-6.24v-4.8h8.4v-4.8h3.84v-1.2h.96v-3.6h10.08v-4.8h-.48v-4.8h-10.56v-3.6h9.84v-4.8h-2.4v-1.2h-4.56v-2.4h-11.76v-4.8h7.44v-1.2h32.64v-3.6h-24.48v-2.4h18.96v-4.8h-18v-4.8h-15.84v-4.8h4.32v-2.4h.48v-2.4h-3.12v-2.4h1.68v-4.8h.96v-2.64h-16.56c-1.44,0-2.56-.32-3.36-.96h-2.16c-1.28-.64-2.24-1.84-2.88-3.6h1.44l-.48-.96v-2.64h6.48v-2.4h-4.56v-4.8h-.72v-4.8h-4.56v-2.4h10.8v-2.4h-10.32v-3.6h4.08v-2.4h-.24v-3.6h1.92v-.96c0-1.12.24-2,.72-2.64h11.76c1.12-2.56,3.04-3.84,5.76-3.84h16.56v-.96h3.84v-4.8h-26.16v-2.4h11.76c.16-.32.24-.72.24-1.2h-2.16v-1.68c.16-.64.32-1.28.48-1.92h-1.92c.16-.8.32-1.6.48-2.4.16-.96.32-1.76.48-2.4h-.48v-.72c.16-.16.24-.32.24-.48h1.68v-.72c.16-.16.24-.32.24-.48h-.48c.16-.64.32-1.2.48-1.68.16-.64.32-1.28.48-1.92h.24c.32-.8.64-1.6.96-2.4.32-.96.72-1.76,1.2-2.4h.96c.32-.8.72-1.6,1.2-2.4h-4.8c.96-1.6,2.08-3.2,3.36-4.8h-3.12l3.6-3.6h4.8c.8-.64,1.52-1.2,2.16-1.68.8-.64,1.6-1.28,2.4-1.92h-1.44c2.24-1.6,4.48-2.8,6.72-3.6h-.24c.48-.32.96-.56,1.44-.72.48-.16.96-.32,1.44-.48h-3.84c5.12-1.92,10.64-3.2,16.56-3.84,5.92-.8,12.08-1.2,18.48-1.2h22.32c3.52,0,5.68,1.68,6.48,5.04h3.6c.16.32.24.72.24,1.2h.24v3.6h1.44v3.6h-4.8v3.6h3.12v4.8h4.8v2.4h-.96v4.8h-.24v3.6h.48v1.2h-1.44v1.2h.24v.48c0,1.76-.56,3.2-1.68,4.32h1.92c-1.12,1.44-2.8,2.16-5.04,2.16h-19.44c-3.04,0-5.28.48-6.72,1.44h1.92c-.32.16-.8.56-1.44,1.2h-11.76c-.8.8-1.28,1.6-1.44,2.4h26.16c-.16.48-.32.96-.48,1.44v3.36h-3.84v.96h27.36c2.88,0,4.88,1.28,6,3.84h-11.76c.32.96.48,1.84.48,2.64v.96h-1.92v3.6h.24v2.4h-4.08Z"/>
    <path class="cls-4" d="M56.84,15.24c.16-.48.24-.88.24-1.2.16-.48.32-.88.48-1.2h-26.4c.32-.48.64-.88.96-1.2.32-.48.64-.88.96-1.2h27.84c1.28-.96,2.64-1.44,4.08-1.44h48c1.76,0,3.12.48,4.08,1.44h-27.84c.32.32.64.72.96,1.2.48.32.8.72.96,1.2h26.16c.32.96.48,1.76.48,2.4h13.44c.16,0,.24.08.24.24v2.16h-32.4v4.8h13.44v3.6h-1.44v4.8h-8.64v4.8h19.44v1.2h1.44v4.8h.96v4.8h-1.68v4.8h-1.2v6h4.08v4.8h-4.56v4.8h.96v1.2h17.04v4.8h8.88v2.4h-36.96v2.4h12.24v4.8h-10.08v4.8h8.64v2.4h1.68v3.6h32.16v2.4h22.32v4.8h-60.96v-4.8h-22.32v-2.4h-32.16v-3.6h-1.68v-2.4h-8.64v-4.8h10.08v-4.8h-12.24v-2.4h36.96v-2.4h-8.88v-4.8h-17.04v-1.2h-.96v-4.8h4.56v-4.8h-4.08v-6h1.2v-4.8h1.68v-4.8h-.96v-4.8h-1.44v-1.2h-19.44v-4.8h8.64v-4.8h1.44v-3.6h-13.44v-4.8h32.4v-2.4h-13.68ZM216.44,144.84h-65.52v1.2h4.8v3.6h34.08v1.2h-10.56v4.8h16.8v3.6h2.4v1.2h-1.68v1.2h-.72v4.8h.48v3.6h-.96v1.2h-1.2c-.16.32-.24.72-.24,1.2h2.64c-.48,1.6-1.36,2.8-2.64,3.6h-2.64c-.8.64-1.92.96-3.36.96h-120.96c-1.44,0-2.56-.32-3.36-.96h2.4c-1.44-.8-2.4-2-2.88-3.6h-2.64c0-.32-.08-.56-.24-.72v-.48h1.2v-1.2h.96v-3.6h-.48v-4.8h.72v-1.2h1.68v-1.2h-2.4v-3.6h-16.8v-4.8h10.56v-1.2H21.8v-3.6h-4.8v-1.2h65.52v-3.6h-26.64v-3.6h25.92v-1.2H25.16v-3.6h8.16v-1.2h31.2v-1.2h-11.04v-3.6h18.72v-4.8h-18.96v-2.4h15.6v-1.2h-7.2v-3.6h6.96v-2.4h-8.88v-2.4h20.88v-3.6h6v-2.4h-32.88v-3.6h60.96v3.6h32.88v2.4h-6v3.6h-20.88v2.4h8.88v2.4h-6.96v3.6h7.2v1.2h-15.6v2.4h18.96v4.8h-18.72v.96h66.48c2.24,0,4,.88,5.28,2.64h11.04l.72,1.2h-31.2l.48,1.2h-8.4c.16.32.24.8.24,1.44v2.16h56.64v1.2h-25.92v3.6h26.64v3.6ZM365.23,107.64c.16.8.24,1.6.24,2.4v2.4h-17.04v2.4h-9.84v2.4h9.36v1.2h-10.8v3.6h-6v1.2h13.44c0,.48-.08.88-.24,1.2h-.72v1.2h2.16v.24c0,.64-.08,1.36-.24,2.16,0,.8-.08,1.6-.24,2.4h-1.68l-.72,4.8h3.6c0,.64-.16,1.44-.48,2.4h-.72c-.16.64-.32,1.28-.48,1.92-.16.48-.32,1.04-.48,1.68h1.92c-.16.8-.4,1.6-.72,2.4-.32.8-.64,1.6-.96,2.4h-3.6l-.96,2.4h.48c-.32.64-.48,1.04-.48,1.2h-.96c-.64,1.6-1.52,3.2-2.64,4.8h.48c-.16.32-.4.72-.72,1.2s-.64.88-.96,1.2h-.24l-2.88,3.6c-.16.16-.32.32-.48.48-.16.16-.4.4-.72.72h-1.2l-1.92,1.92c-.64.48-1.36,1.04-2.16,1.68h-7.2l-5.04,3.6h.96c-.32.16-.64.32-.96.48-.32.16-.64.4-.96.72h-1.68c-.32.16-.72.32-1.2.48-.48.16-.88.4-1.2.72h12.96c-.8.48-1.68.96-2.64,1.44-.96.32-1.92.64-2.88.96h-4.08c-1.12.48-2.32.96-3.6,1.44l-3.84.96h.96c-1.92.48-3.92.88-6,1.2-2.08.48-4.24.88-6.48,1.2h7.44c-2.56.32-5.2.56-7.92.72-2.72.16-5.52.24-8.4.24-3.04,0-5.92-.08-8.64-.24-2.56-.16-5.2-.4-7.92-.72h-7.68c-2.08-.32-4.24-.72-6.48-1.2-2.08-.32-4.08-.72-6-1.2h-.72l-3.84-.96c-1.12-.48-2.32-.96-3.6-1.44h3.84c-.8-.32-1.68-.64-2.64-.96-.96-.48-1.84-.96-2.64-1.44h-12.96l-2.16-1.2h1.68l-2.16-1.2h-.96c-1.92-1.28-3.6-2.48-5.04-3.6h7.2c-.64-.64-1.28-1.2-1.92-1.68-.64-.64-1.28-1.28-1.92-1.92h1.2c-.16-.32-.32-.56-.48-.72-.16-.16-.4-.32-.72-.48l-2.88-3.6h.24l-1.68-2.4h-.48c-1.12-1.6-2-3.2-2.64-4.8h.72c-.32-.64-.48-1.04-.48-1.2h-.72l-.96-2.4h3.6c-.16-.8-.4-1.6-.72-2.4-.32-.8-.64-1.6-.96-2.4h-1.92c-.16-.64-.32-1.2-.48-1.68l-.48-1.92h-1.44l-.72-2.4h-2.4l-.72-4.8h2.4l-.48-2.4v-2.4h-4.32v-1.2h-1.2c0-.32-.08-.56-.24-.72v-.48h13.44c0-.48-.08-.88-.24-1.2h-13.44v-3.6h5.76v-1.2h2.88v-2.4h5.04v-2.4h-14.64v-2.4c0-.8.08-1.6.24-2.4h-3.12v-2.4h23.76c.16-.48.24-1.12.24-1.92v-1.68h-6.48v-1.68c.16-.64.24-1.28.24-1.92h2.4l.72-4.8h-7.92c.16-.64.32-1.2.48-1.68.16-.64.32-1.28.48-1.92h-1.68c.32-.8.56-1.6.72-2.4.32-.96.64-1.76.96-2.4h.24c.16-.32.32-.72.48-1.2s.32-.88.48-1.2h-.24c0-.16.16-.56.48-1.2h1.2c.64-1.6,1.52-3.2,2.64-4.8h-4.8l1.44-2.4h8.88c.16-.32.48-.72.96-1.2h-17.52c.32-.64.72-1.2,1.2-1.68.64-.64,1.2-1.28,1.68-1.92h5.52l2.4-2.4c.96-.96,1.84-1.76,2.64-2.4h11.04c1.44-1.28,3.12-2.48,5.04-3.6h4.56c.64-.48,1.28-.88,1.92-1.2.8-.48,1.52-.88,2.16-1.2h-14.16c1.44-.8,3.2-1.6,5.28-2.4h6.48c3.68-1.44,7.52-2.64,11.52-3.6h-7.2c7.84-1.76,16.16-2.64,24.96-2.64s17.12.88,24.96,2.64h7.44c4,.96,7.76,2.16,11.28,3.6h-6.72c2.08.8,3.84,1.6,5.28,2.4h14.16c.8.32,1.52.72,2.16,1.2.8.32,1.52.72,2.16,1.2h-4.56l5.04,3.6h-11.04c.96.64,1.84,1.44,2.64,2.4.96.8,1.84,1.6,2.64,2.4h-5.52c.48.64.96,1.28,1.44,1.92.64.48,1.12,1.04,1.44,1.68h17.76l.72,1.2h-8.64l1.44,2.4h4.8c1.12,1.6,2,3.2,2.64,4.8h-1.2c.32.64.48,1.04.48,1.2h.48l.96,2.4h-.24c.32.64.64,1.44.96,2.4.32.8.56,1.6.72,2.4h2.4l.72,3.6h-1.44c.32.64.48,1.44.48,2.4.16.8.32,1.6.48,2.4h1.92c.16.64.24,1.28.24,1.92,0,.48.08,1.04.24,1.68h-9.36v1.68c0,.8.08,1.44.24,1.92h-4.8v2.4h30.96ZM273.07,98.04c-.16.64-.32,1.28-.48,1.92v1.68h6.72c-.16.48-.24.96-.24,1.44v2.16h.96v-.72c0-.48-.08-.96-.24-1.44v-1.44h9.36c0-.64-.08-1.2-.24-1.68v-1.92h-1.92c-.16-.96-.4-1.84-.72-2.64-.16-.8-.4-1.52-.72-2.16h1.68c-.64-1.44-1.6-2.64-2.88-3.6h-2.4c-1.6-.96-3.68-1.44-6.24-1.44s-4.56.48-6,1.44h1.68c-.64.48-1.2,1.04-1.68,1.68-.48.48-.88,1.12-1.2,1.92h7.92c-.16.64-.4,1.36-.72,2.16-.16.8-.32,1.68-.48,2.64h-2.16ZM289.39,112.44h17.04v-4.8h-30.96c-.16-.64-.24-1.44-.24-2.4h-19.92c0,.96-.08,1.76-.24,2.4h3.12v4.8h14.64v2.4h-5.28v2.4h-2.88v1.2h-5.76v1.92c.16.48.24,1.04.24,1.68h18.96v-3.6h10.8v-1.2h-9.36v-2.4h9.84v-2.4ZM285.55,124.44v-1.2h-26.16v1.2h1.2v.72c.16.16.24.32.24.48h4.08c.16.8.24,1.6.24,2.4s.08,1.6.24,2.4h-2.4c.32,2.08.64,3.68.96,4.8h2.64c.32.96.64,1.76.96,2.4h1.68c1.44,2.24,4.16,3.36,8.16,3.36s6.72-1.12,8.16-3.36h.96c.16-.32.32-.64.48-.96l.48-1.44h-3.6c.16-.8.32-1.52.48-2.16.16-.8.32-1.68.48-2.64h1.68c.16-.8.24-1.6.24-2.4s.08-1.6.24-2.4h-2.16v-1.2h.72ZM503.86,159.24h35.76v4.8h-20.4v3.6h-3.36v2.4h-14.88v1.2h7.44c-.32,2.24-1.28,3.84-2.88,4.8h-5.28c-.8.64-2,.96-3.6.96h-45.84c-1.44,0-2.56-.32-3.36-.96h5.28c-1.6-.96-2.56-2.56-2.88-4.8h-7.68v-1.2h14.88v-2.4h3.36v-3.6h20.4v-4.8h-35.76v-4.8h8.88v-1.2h-7.92v-2.4h.24v-2.4h-3.84v-4.8h3.12v-4.8h-9.84v-4.8h2.4v-4.8h11.04v-4.8h-2.64v-2.4h-.96v-1.2h-.96v-3.6h1.44v-1.2h1.2v-2.4h-.24v-2.4h-.72v-2.4h-10.08v-2.4h2.64v-.48c0-.64-.08-1.2-.24-1.68v-1.44h4.8c-.16-.8-.32-1.44-.48-1.92-.16-.64-.32-1.2-.48-1.68h4.32c-.96-2.08-2.32-3.68-4.08-4.8h-7.68c-1.76-1.12-4.08-1.68-6.96-1.68s-5.12.56-6.72,1.68h5.76c-.8.64-1.6,1.36-2.4,2.16-.64.64-1.12,1.52-1.44,2.64h-7.2c-.32.64-.64,1.84-.96,3.6h1.2c-.16.64-.24,1.68-.24,3.12v.48h-1.68v2.4h7.92v2.4h.48v2.4h-.72v2.4h-1.68v1.2h-1.68v3.6h2.64v1.2h1.68v2.4h-.96v4.8h6.24v4.8h-6.72v4.8h1.2v4.8h-2.64v4.8h2.88v2.4h-.24v1.2h.72v1.2h13.2v1.2h5.52v4.8h-14.88v4.8h.48v3.6h-9.12v2.4h10.32v1.2h2.64c-.32,2.24-1.36,3.84-3.12,4.8h-11.04c-.8.64-1.92.96-3.36.96h-45.6c-1.44,0-2.56-.32-3.36-.96h11.04c-1.76-.96-2.8-2.56-3.12-4.8h-2.64v-1.2h-10.32v-2.4h9.12v-3.6h-.48v-4.8h14.88v-4.8h-5.52v-1.2h-13.2v-1.2h-.72v-1.2h.24v-2.4h-2.88v-4.8h2.64v-4.8h-1.2v-4.8h6.72v-4.8h-6.24v-4.8h.96v-2.4h-1.68v-1.2h-2.64v-3.6h1.68v-1.2h1.68v-2.4h.72v-2.4h-.48v-2.4h-7.92v-2.4h1.68v-3.6h-1.2v-3.6h7.2v-4.8h-6v-3.6h5.28v-2.4h1.44v-3.6h-.96v-3.6h.24v-6h1.2v-2.4h-.24v-3.6h3.12v-1.2h-1.92v-3.6h2.88v-1.2h-9.6v-2.4h6.96v-3.6h12.96c.32-.96.64-1.76.96-2.4h-7.68c1.28-1.76,3.04-2.64,5.28-2.64h42c2.24,0,4,.88,5.28,2.64h4.08c3.52-1.6,7.28-2.8,11.28-3.6,4-.96,8.16-1.44,12.48-1.44,8,0,15.2,1.68,21.6,5.04h2.64c.8.32,1.52.72,2.16,1.2.64.32,1.28.72,1.92,1.2h-3.36c.8.48,1.6,1.04,2.4,1.68.8.48,1.52,1.12,2.16,1.92h18.72c.96.64,1.76,1.44,2.4,2.4h-13.2c.16.16.32.32.48.48s.32.4.48.72h3.36c.48.64.96,1.28,1.44,1.92.48.48.88,1.04,1.2,1.68h2.16l.72,1.2h-3.12l2.16,3.6h.24c.32.8.72,1.6,1.2,2.4h-1.2c.8,1.76,1.44,3.36,1.92,4.8,0,.16.16.56.48,1.2h-.24c.32.64.48,1.28.48,1.92.16.48.32,1.04.48,1.68h.96c.32.64.48,1.28.48,1.92.16.48.32,1.04.48,1.68h-1.68c.32.96.48,1.76.48,2.4h-5.04c.16.64.24,1.28.24,1.92,0,.48.08,1.04.24,1.68h7.68c.16.64.24,1.44.24,2.4.16.8.24,1.6.24,2.4h-4.32v3.6h-4.56v3.6h-2.64v2.4h10.08v2.4h.72v2.4h.24v2.4h-1.2v1.2h-1.44v3.6h.96v1.2h.96v2.4h2.64v4.8h-11.04v4.8h-2.4v4.8h9.84v4.8h-3.12v4.8h3.84v2.4h-.24v2.4h7.92v1.2h-8.88v4.8ZM423.22,57.24h-2.64v.72c.16.16.24.4.24.72v.24c.32-.32.72-.64,1.2-.96.48-.32.88-.56,1.2-.72ZM413.86,60.84v2.4h19.92l2.88-2.4h-22.8ZM420.58,64.44v2.16c.32-.48.96-1.2,1.92-2.16h-1.92ZM647.34,111.24v2.4h30.48v2.4h-18.48v2.4h-8.64v2.4h7.44v1.44c0,.96-.08,1.68-.24,2.16h3.36c-1.12,2.88-3.2,4.32-6.24,4.32h-71.52v.48h9.6v2.88c0,.64.08,1.28.24,1.92h-12.96v1.44c.16.32.24.64.24.96h-1.44c0,.64.16,1.44.48,2.4h.96c.8,2.24,2.08,3.84,3.84,4.8h-6.48c1.12.64,2.64.96,4.56.96,1.28,0,2.32-.32,3.12-.96h11.28c.64-.32,1.2-.8,1.68-1.44.64-.64,1.36-1.28,2.16-1.92l1.44-1.44h-4.56c1.44-1.28,3.6-1.92,6.48-1.92h45.36c1.92,0,3.36.64,4.32,1.92h4.32c.8,1.12,1.2,2.24,1.2,3.36-.16.32-.24.8-.24,1.44h-11.28c-.32,1.6-.8,3.2-1.44,4.8h-11.76c-.48.8-.88,1.6-1.2,2.4h29.76c-.32.8-.8,1.6-1.44,2.4-.48.8-1.04,1.6-1.68,2.4h-7.2c-.64.96-1.28,1.76-1.92,2.4h1.68c-.16.16-.32.32-.48.48-.16.16-.32.4-.48.72h-13.44l-1.2,1.2h4.08c-.16.16-.4.32-.72.48-.16.16-.32.4-.48.72h7.44c-1.12,1.12-2.56,2.32-4.32,3.6h-3.6c-.16.16-.4.32-.72.48s-.64.4-.96.72h-2.64c-2.56,1.76-5.36,3.36-8.4,4.8h-3.12c-1.92.96-4,1.84-6.24,2.64-2.08.8-4.32,1.52-6.72,2.16h-3.84c-1.76.48-3.6.88-5.52,1.2-1.92.48-4,.88-6.24,1.2h10.08c-2.24.32-4.56.56-6.96.72s-4.96.24-7.68.24c-2.56,0-5.12-.08-7.68-.24s-5.04-.4-7.44-.72h-10.08c-2.08-.32-4.08-.72-6-1.2-1.92-.32-3.84-.72-5.76-1.2h3.84c-4.32-1.12-8.4-2.72-12.24-4.8h3.12c-2.88-1.6-5.36-3.2-7.44-4.8h2.64c-.32-.32-.64-.56-.96-.72-.16-.16-.4-.32-.72-.48h3.6c-.64-.64-1.28-1.2-1.92-1.68-.64-.64-1.28-1.28-1.92-1.92h-7.68l-1.2-1.2h-4.08c-.16-.32-.32-.56-.48-.72-.16-.16-.32-.32-.48-.48h13.2c-.16-.32-.48-.72-.96-1.2h-1.68c-.32-.32-.64-.72-.96-1.2-.32-.48-.64-.88-.96-1.2h7.2c-.48-.8-.96-1.6-1.44-2.4-.48-.8-.96-1.6-1.44-2.4h-30c-.48-.8-.88-1.6-1.2-2.4h11.76l-2.16-4.8h6.48c-.32-.8-.64-1.6-.96-2.4-.16-.8-.4-1.6-.72-2.4h-.72l-.72-2.4h1.68l-.72-2.4h12.96c-.16-.8-.32-1.6-.48-2.4-.16-.8-.32-1.6-.48-2.4h-9.6l-.48-4.8h-3.36c0-.64-.08-1.2-.24-1.68v-1.92h-7.44v-2.4h8.4v-2.4h18.48v-2.4h-30.48v-.48c0-.8.08-1.44.24-1.92h41.52v-1.68c.16-.64.24-1.28.24-1.92h-38.16v-.72c.16-.16.24-.32.24-.48h15.84c0-.48.08-.88.24-1.2h17.76v-1.2h-33.84c.16-.8.32-1.6.48-2.4.16-.8.32-1.6.48-2.4h9.12c0-.64.16-1.44.48-2.4h-7.92v-.72c.16-.16.24-.32.24-.48h5.76v-.72c.16-.16.24-.32.24-.48h-6l.48-1.2h5.76l.72-2.4h4.56l1.44-3.6h-4.32l.96-2.4c.32-.96.72-1.76,1.2-2.4h-.72l.48-1.2h-6c.32-.64.48-1.04.48-1.2h-5.52l1.44-2.4h11.76c.16-.32.48-.72.96-1.2h4.32c.64-.8,1.2-1.6,1.68-2.4.64-.96,1.28-1.76,1.92-2.4h-4.32c.48-.64.96-1.2,1.44-1.68.64-.64,1.28-1.28,1.92-1.92h9.36l2.4-2.4h-14.16c2.08-1.76,4.16-3.36,6.24-4.8h13.2l1.92-1.2h-4.32c1.28-.8,2.8-1.6,4.56-2.4h9.36c4.32-2.08,8.8-3.68,13.44-4.8h-13.44c3.52-.8,7.2-1.44,11.04-1.92,3.84-.48,7.84-.72,12-.72s8.08.24,11.76.72c3.68.48,7.2,1.12,10.56,1.92h13.2c2.4.64,4.64,1.36,6.72,2.16,2.24.8,4.4,1.68,6.48,2.64h-9.36c.8.32,1.52.72,2.16,1.2.8.32,1.52.72,2.16,1.2h4.32c.32.16.64.32.96.48.32.16.64.4.96.72h-13.2c2.08,1.44,4.16,3.04,6.24,4.8h14.4l2.4,2.4h-9.36c.64.64,1.2,1.28,1.68,1.92.64.48,1.2,1.04,1.68,1.68h4.32c.64.64,1.2,1.44,1.68,2.4l1.92,2.4h-4.56c.16.32.48.72.96,1.2h-12l1.44,2.4h5.52l.72,1.2h6.24c0,.16.16.56.48,1.2h.72l2.16,4.8,1.44,3.6h.24l.72,2.4h-2.88l.48,1.2h2.16l.48,1.2h3.84v.48c.16.16.24.4.24.72h-1.92l.72,2.4h-9.12l.72,4.8h33.84v1.2h-17.76v.48c.16.16.24.4.24.72h-16.08c.16.32.24.72.24,1.2h38.16v1.92c0,.48.08,1.04.24,1.68h-41.76ZM574.38,95.64v1.2h7.68v1.92h19.2v-1.92h1.68v-1.2h-3.84v-1.2h-2.4c0-.48-.08-.88-.24-1.2h2.88c0-.64-.16-1.44-.48-2.4h-.24c-.16-1.44-.64-2.64-1.44-3.6-1.6-2.56-4.08-3.84-7.44-3.84s-5.6,1.28-7.2,3.84h4.32c-.64.96-1.12,2.16-1.44,3.6h-4.8c0,.32-.08.72-.24,1.2,0,.32-.08.72-.24,1.2h-5.76c0,.48-.08.88-.24,1.2h6v1.2h-5.76ZM213.32,308.64l-.72,3.6h39.6l-.48,2.4h-36.48l-.24,1.2h15.12l-.72,4.8h5.04l-.48,3.6h2.88l-.72,3.6h.24l-.48,3.6h.96v1.2h-.48l-.72,4.8h-.72l-.72,4.8-.48,4.8h4.56l-.24,1.2h-2.64v1.2h4.8v1.2h-7.68l-.24,1.2h-2.64l-.48,3.6h7.92l-.72,4.8h9.12l-.48,3.6h-7.2l-.24,1.2h-3.6l-.72,4.8h1.92l-.24,2.4h2.16l-.48,3.6h-3.6l-.48,3.6h-7.92l-.24,2.4h8.16l-.72,4.8h-5.28l-.48,4.8h4.8l-.48,3.6h-18.48l-.48,2.4h6.96l-.24,1.44v.96h6.48c-.16.32-.32.72-.48,1.2,0,.48-.16.88-.48,1.2h-2.64c-.8,1.44-1.84,2.64-3.12,3.6h2.16c-.96.64-1.68,1.04-2.16,1.2h1.92c-1.28.64-2.88.96-4.8.96h-34.32c-.96,0-1.84-.08-2.64-.24-.64-.32-1.28-.56-1.92-.72h-1.92c-.48-.16-.88-.32-1.2-.48-.32-.32-.64-.56-.96-.72h-1.92c-.64-.64-1.2-1.28-1.68-1.92-.48-.64-.88-1.2-1.2-1.68h2.64c-.16-.16-.24-.4-.24-.72l-.72-1.68h-6.48l-.96-2.4h-6.96l-.96-2.4h18.48l-1.44-3.6h-5.04l-1.92-4.8h5.28l-1.92-4.8h-8.16l-.96-2.4h7.68l-1.44-3.6h3.6l-1.44-3.6h-2.16l-.96-2.4h-1.92l-1.92-4.8h3.6l-.48-1.2h7.2l-1.44-3.6h-9.12l-1.92-4.8h-7.92l-1.2-3.12-1.2,3.12h-.96l-1.92,4.8h14.88l-1.44,3.6h-11.76l-.48,1.2h2.16l-1.92,4.8h4.32l-.96,2.4h-12l-1.44,3.6h6.48l-1.44,3.6h-7.92l-.96,2.4h3.84l-1.92,4.8h.24l-1.92,4.8h-15.84l-1.44,3.6h25.2l-.96,2.4h-5.28l-.96,2.4h-.48l-.72,1.68-.48.72h-7.44c-.32.48-.72,1.04-1.2,1.68-.32.64-.88,1.28-1.68,1.92h1.44c-.48.48-1.12.88-1.92,1.2h6.48c-.64.16-1.36.4-2.16.72-.8.16-1.68.24-2.64.24h-34.32c-1.92,0-3.52-.32-4.8-.96h-6.24c-.48-.16-1.2-.56-2.16-1.2h-1.68c-1.44-1.12-2.48-2.32-3.12-3.6h7.68c-.16-.32-.32-.72-.48-1.2-.16-.48-.32-.88-.48-1.2h.72l-.24-.96-.24-1.44h5.28l-.48-2.4h-24.96l-.48-3.6h15.6l-.48-4.8h-.24l-.72-4.8h-3.84l-.24-2.4h7.68l-.48-3.6h-6.24l-.48-3.6h12l-.48-2.4h-4.32l-.72-4.8h-2.16l-.24-1.2h11.76l-.48-3.6h-14.88l-.72-4.8h.96l-.72-3.6h2.64v-1.2h7.68l-.24-1.2h-5.04l-.24-1.2h2.64v-1.2h-4.8l-.24-2.4h-.24l-.24-2.4-.72-4.8h.72l-.72-4.8h.48l-.24-1.2h-.96l-.48-3.6h-.24l-.48-3.6h-2.88l-.48-3.6h-5.04l-.72-4.8h-15.12v-1.2h36.48l-.24-2.4h-14.4l-.48-3.6h-15.12l-.24-2.4h21.84l-.72-4.8h-5.76v-1.2h3.36l-.24-1.2h5.04l-.48-3.6h-8.16l-.24-1.2h-18.72l-.48-4.8h20.88l-.72-4.8h-5.28l-.24-2.4h2.16l-.48-3.6h.72l-.24-1.2h-7.44l-.24-2.4h5.04l-.48-3.6h.48l-.48-3.6h4.08l-.48-2.4h-12.96l-.24-2.4h10.32l-.24-2.4h-6l-.24-2.4h7.44l-.48-3.6h-2.4l-.72-4.8h2.64l-.24-1.2-.48-2.64v-.96h-3.6c.32-3.36,2.08-5.04,5.28-5.04h44.64c4.96,0,7.76,1.68,8.4,5.04h3.6c.16.32.24.8.24,1.44l.24,2.16.24,1.2h-2.4l.48,4.8h2.4l.48,3.6h-7.68l.48,2.4h5.76l.24,2.4h-10.32l.24,2.4h12.96l.48,2.4h-4.08l.24,3.6h-.24l.24,3.6h-5.28l.48,2.4h7.2l.24,1.2h-.72l.48,3.6h-2.16l.24,2.4h5.28l.72,4.8h-21.12l.48,4.8h18.72l.24,1.2h8.16l.48,3.6h-5.04v1.2h-3.36l.24,1.2h5.04l.48-1.2h2.4l.48-1.2h10.08l1.2-3.6h-11.04l.24-1.2h18.48l1.68-4.8h-19.44l1.44-4.8h-2.16v-.48l.72-1.92h4.56c.32-.64.64-1.28.96-1.92.48-.64,1.04-1.2,1.68-1.68h-1.44c.8-.64,1.68-1.04,2.64-1.2h2.16c.48-.16,1.2-.24,2.16-.24h24.48c.96,0,1.6.08,1.92.24h-2.16c.64.16,1.12.32,1.44.48.48.16.88.4,1.2.72h1.44c.8.48,1.36,1.04,1.68,1.68.48.64.8,1.28.96,1.92h-4.32c.48.64.72,1.28.72,1.92l.24.48h2.4l1.44,4.8h9.36l.72-4.8h-1.44l.24-2.4h11.28l.24-3.6h-10.56l.24-1.2h-1.92l.48-2.4h4.08l.48-3.6h-1.44l.48-3.6h3.36l.24-2.4h-14.64l.24-2.4h4.32l.24-2.4h8.16l.24-2.4h-.24l.48-3.6.48-4.8h-4.8l.24-1.2h5.76l.48-2.16v-1.44h4.56c.64-3.36,3.44-5.04,8.4-5.04h44.64c1.28,0,2.4.48,3.36,1.44,1.12.96,1.76,2.16,1.92,3.6h-4.32v.96l-.48,2.64h-6l-.24,1.2h5.04l-.72,4.8-.48,3.6h.24l-.48,2.4h-8.16l-.24,2.4h-4.32l-.48,2.4h14.88l-.24,2.4h-3.36l-.48,3.6h1.2l-.48,3.6h-4.08l-.48,2.4h1.92l-.24,1.2h10.56l-.48,3.6h-11.04l-.48,2.4h1.44l-.72,4.8h-8.64l-.72,4.8h10.56l-.24,1.2h-12.24l-.48,3.6h11.28v1.2h-.72l-.24,1.2h.72l-.72,4.8h3.84l-.48,2.4h-29.28ZM184.52,294.24h-8.16l.24,1.2h7.68l.24-1.2ZM178.76,299.04l.48,1.2h-2.4l.48,1.2,1.68,4.8h-25.92l.72,2.4h31.92l.24-2.4h-3.84l.72-4.8h-.72l.24-1.2h.48l.24-1.2h-4.32ZM135.08,312.24h-.72l.24,1.92.48-1.92ZM195.08,313.92l.24-1.68h-.96l.72,1.68ZM416.8,338.64c.16.8.24,1.6.24,2.4v2.4h-17.04v2.4h-9.84v2.4h9.36v1.2h-10.8v3.6h-6v1.2h13.44c0,.48-.08.88-.24,1.2h-.72v1.2h2.16v.24c0,.64-.08,1.36-.24,2.16,0,.8-.08,1.6-.24,2.4h-1.68l-.72,4.8h3.6c0,.64-.16,1.44-.48,2.4h-.72c-.16.64-.32,1.28-.48,1.92-.16.48-.32,1.04-.48,1.68h1.92c-.16.8-.4,1.6-.72,2.4-.32.8-.64,1.6-.96,2.4h-3.6l-.96,2.4h.48c-.32.64-.48,1.04-.48,1.2h-.96c-.64,1.6-1.52,3.2-2.64,4.8h.48c-.16.32-.4.72-.72,1.2-.32.48-.64.88-.96,1.2h-.24l-2.88,3.6-.48.48c-.16.16-.4.4-.72.72h-1.2c-.64.64-1.28,1.28-1.92,1.92-.64.48-1.36,1.04-2.16,1.68h-7.2l-5.04,3.6h.96c-.32.16-.64.32-.96.48s-.64.4-.96.72h-1.68c-.32.16-.72.32-1.2.48s-.88.4-1.2.72h12.96c-.8.48-1.68.96-2.64,1.44-.96.32-1.92.64-2.88.96h-4.08c-1.12.48-2.32.96-3.6,1.44l-3.84.96h.96c-1.92.48-3.92.88-6,1.2-2.08.48-4.24.88-6.48,1.2h7.44c-2.56.32-5.2.56-7.92.72s-5.52.24-8.4.24c-3.04,0-5.92-.08-8.64-.24-2.56-.16-5.2-.4-7.92-.72h-7.68c-2.08-.32-4.24-.72-6.48-1.2-2.08-.32-4.08-.72-6-1.2h-.72l-3.84-.96c-1.12-.48-2.32-.96-3.6-1.44h3.84c-.8-.32-1.68-.64-2.64-.96-.96-.48-1.84-.96-2.64-1.44h-12.96l-2.16-1.2h1.68l-2.16-1.2h-.96c-1.92-1.28-3.6-2.48-5.04-3.6h7.2c-.64-.64-1.28-1.2-1.92-1.68l-1.92-1.92h1.2c-.16-.32-.32-.56-.48-.72s-.4-.32-.72-.48l-2.88-3.6h.24l-1.68-2.4h-.48c-1.12-1.6-2-3.2-2.64-4.8h.72c-.32-.64-.48-1.04-.48-1.2h-.72l-.96-2.4h3.6c-.16-.8-.4-1.6-.72-2.4-.32-.8-.64-1.6-.96-2.4h-1.92c-.16-.64-.32-1.2-.48-1.68-.16-.64-.32-1.28-.48-1.92h-1.44l-.72-2.4h-2.4l-.72-4.8h2.4c-.16-.8-.32-1.6-.48-2.4v-2.4h-4.32v-1.2h-1.2c0-.32-.08-.56-.24-.72v-.48h13.44c0-.48-.08-.88-.24-1.2h-13.44v-3.6h5.76v-1.2h2.88v-2.4h5.04v-2.4h-14.64v-2.4c0-.8.08-1.6.24-2.4h-3.12v-2.4h23.76c.16-.48.24-1.12.24-1.92v-1.68h-6.48v-1.68c.16-.64.24-1.28.24-1.92h2.4l.72-4.8h-7.92c.16-.64.32-1.2.48-1.68.16-.64.32-1.28.48-1.92h-1.68c.32-.8.56-1.6.72-2.4.32-.96.64-1.76.96-2.4h.24c.16-.32.32-.72.48-1.2.16-.48.32-.88.48-1.2h-.24c0-.16.16-.56.48-1.2h1.2c.64-1.6,1.52-3.2,2.64-4.8h-4.8l1.44-2.4h8.88c.16-.32.48-.72.96-1.2h-17.52c.32-.64.72-1.2,1.2-1.68.64-.64,1.2-1.28,1.68-1.92h5.52c.8-.8,1.6-1.6,2.4-2.4.96-.96,1.84-1.76,2.64-2.4h11.04c1.44-1.28,3.12-2.48,5.04-3.6h4.56c.64-.48,1.28-.88,1.92-1.2.8-.48,1.52-.88,2.16-1.2h-14.16c1.44-.8,3.2-1.6,5.28-2.4h6.48c3.68-1.44,7.52-2.64,11.52-3.6h-7.2c7.84-1.76,16.16-2.64,24.96-2.64s17.12.88,24.96,2.64h7.44c4,.96,7.76,2.16,11.28,3.6h-6.72c2.08.8,3.84,1.6,5.28,2.4h14.16c.8.32,1.52.72,2.16,1.2.8.32,1.52.72,2.16,1.2h-4.56l5.04,3.6h-11.04c.96.64,1.84,1.44,2.64,2.4.96.8,1.84,1.6,2.64,2.4h-5.52c.48.64.96,1.28,1.44,1.92.64.48,1.12,1.04,1.44,1.68h17.76l.72,1.2h-8.64l1.44,2.4h4.8c1.12,1.6,2,3.2,2.64,4.8h-1.2c.32.64.48,1.04.48,1.2h.48l.96,2.4h-.24c.32.64.64,1.44.96,2.4.32.8.56,1.6.72,2.4h2.4l.72,3.6h-1.44c.32.64.48,1.44.48,2.4.16.8.32,1.6.48,2.4h1.92c.16.64.24,1.28.24,1.92,0,.48.08,1.04.24,1.68h-9.36v1.68c0,.8.08,1.44.24,1.92h-4.8v2.4h30.96ZM324.64,329.04c-.16.64-.32,1.28-.48,1.92v1.68h6.72c-.16.48-.24.96-.24,1.44v2.16h.96v-.72c0-.48-.08-.96-.24-1.44v-1.44h9.36c0-.64-.08-1.2-.24-1.68v-1.92h-1.92c-.16-.96-.4-1.84-.72-2.64-.16-.8-.4-1.52-.72-2.16h1.68c-.64-1.44-1.6-2.64-2.88-3.6h-2.4c-1.6-.96-3.68-1.44-6.24-1.44s-4.56.48-6,1.44h1.68c-.64.48-1.2,1.04-1.68,1.68-.48.48-.88,1.12-1.2,1.92h7.92c-.16.64-.4,1.36-.72,2.16-.16.8-.32,1.68-.48,2.64h-2.16ZM340.96,343.44h17.04v-4.8h-30.96c-.16-.64-.24-1.44-.24-2.4h-19.92c0,.96-.08,1.76-.24,2.4h3.12v4.8h14.64v2.4h-5.28v2.4h-2.88v1.2h-5.76v1.92c.16.48.24,1.04.24,1.68h18.96v-3.6h10.8v-1.2h-9.36v-2.4h9.84v-2.4ZM337.12,355.44v-1.2h-26.16v1.2h1.2v.72c.16.16.24.32.24.48h4.08c.16.8.24,1.6.24,2.4s.08,1.6.24,2.4h-2.4c.32,2.08.64,3.68.96,4.8h2.64c.32.96.64,1.76.96,2.4h1.68c1.44,2.24,4.16,3.36,8.16,3.36s6.72-1.12,8.16-3.36h.96l.48-.96c.16-.48.32-.96.48-1.44h-3.6c.16-.8.32-1.52.48-2.16.16-.8.32-1.68.48-2.64h1.68c.16-.8.24-1.6.24-2.4s.08-1.6.24-2.4h-2.16v-1.2h.72ZM495.42,314.64h-19.68v1.2h1.44v4.8h6.24v2.4h-16.08v3.6h3.84v1.2h.24v3.6h1.2v1.2h-2.64v1.2h2.88v1.2h-1.92v2.4h-1.44v3.6h1.2v1.2h.96v1.2h-6.48v2.4h-2.64v1.2h-2.16v3.6h5.52v1.2h-4.08v2.4h12.24v4.8h-11.28v4.8h10.08v4.8h-1.68v1.2h2.4v4.8h-8.4v2.4h16.32v4.8h-14.16v1.2h6.48v3.6h-3.12v4.8h-.96v4.8h1.2v3.6h-2.64v1.68c0,.8-.08,1.44-.24,1.92h6.48c-.64,1.76-1.6,2.96-2.88,3.6h-7.92c-.8.64-1.92.96-3.36.96h-42.96c-1.44,0-2.56-.32-3.36-.96h7.92c-1.28-.64-2.24-1.84-2.88-3.6h-6.48c-.16-.48-.24-1.12-.24-1.92v-1.68h2.64v-3.6h-1.2v-4.8h.96v-4.8h3.12v-3.6h-6.48v-1.2h14.16v-4.8h-16.32v-2.4h8.4v-4.8h-2.4v-1.2h1.68v-4.8h-10.08v-4.8h11.28v-4.8h-12.24v-2.4h4.08v-1.2h-5.52v-3.6h2.16v-1.2h2.64v-2.4h6.48v-1.2h-.96v-1.2h-1.2v-3.6h1.44v-2.4h1.92v-1.2h-2.88v-1.2h2.64v-1.2h-1.2v-3.6h-.24v-1.2h-3.84v-3.6h16.08v-2.4h-6.24v-4.8h-1.44v-1.2h19.68v-1.2h-20.88v-3.6h12.24v-3.6h-9.84v-1.2h-9.6v-4.8h6.72v-1.2h-3.12v-1.2h-3.36v-3.6h1.2v-1.2h3.84v-4.8h-1.68v-2.4h3.36v-8.4h10.08v-1.2h-6.72v-3.6h-9.12v-1.2h-.48v-2.4h2.16v-2.4h.48v-1.2h.24v-3.6h-.48v-1.2h.48v-1.2h.72v-3.6h-1.68v-3.6h1.68v-1.2h-.48v-4.8h-.24v-1.2h-.24v-.96c0-.8.16-1.68.48-2.64h.24c1.12-2.56,3.12-3.84,6-3.84h42.96c2.56,0,4.56,1.28,6,3.84h-.24c.32.96.48,1.84.48,2.64v.96h.24v1.2h.24v4.8h.48v1.2h-1.68v3.6h1.68v3.6h-.72v1.2h-.48v1.2h.48v3.6h-.24v1.2h-.48v2.4h-2.16v2.4h.48v1.2h9.12v3.6h6.72v1.2h-10.08v8.4h-3.36v2.4h1.68v4.8h-3.84v1.2h-1.2v3.6h3.36v1.2h3.12v1.2h-6.72v4.8h9.6v1.2h9.84v3.6h-12.24v3.6h20.88v1.2ZM593.4,296.64v3.6h10.32v2.4h-10.8v2.4h4.56v4.8h.72v4.8h4.56v2.4h-6.48v1.68c0,.8-.08,1.44-.24,1.92h-1.2c-.64,1.76-1.6,2.96-2.88,3.6h2.16c-.8.64-1.92.96-3.36.96h-27.36v2.64h-.96v4.8h-1.68v2.4h3.12v2.4h-.48v2.4h-4.32v4.8h15.84v4.8h18v4.8h-18.96v2.4h24.48v3.6h-32.64v1.2h-7.44v4.8h11.76v2.4h4.56v1.2h2.4v4.8h-9.84v3.6h10.56v4.8h.48v4.8h-10.08v3.6h-.96v1.2h-3.84v4.8h-8.4v4.8h6c-.32,2.24-1.28,3.84-2.88,4.8h2.16c-.8.64-1.92.96-3.36.96h-42c-1.44,0-2.56-.32-3.36-.96h-2.4c-1.6-.96-2.56-2.56-2.88-4.8h-6.24v-4.8h8.4v-4.8h3.84v-1.2h.96v-3.6h10.08v-4.8h-.48v-4.8h-10.56v-3.6h9.84v-4.8h-2.4v-1.2h-4.56v-2.4h-11.76v-4.8h7.44v-1.2h32.64v-3.6h-24.48v-2.4h18.96v-4.8h-18v-4.8h-15.84v-4.8h4.32v-2.4h.48v-2.4h-3.12v-2.4h1.68v-4.8h.96v-2.64h-16.56c-1.44,0-2.56-.32-3.36-.96h-2.16c-1.28-.64-2.24-1.84-2.88-3.6h1.44l-.48-.96v-2.64h6.48v-2.4h-4.56v-4.8h-.72v-4.8h-4.56v-2.4h10.8v-2.4h-10.32v-3.6h4.08v-2.4h-.24v-3.6h1.92v-.96c0-1.12.24-2,.72-2.64h11.76c1.12-2.56,3.04-3.84,5.76-3.84h16.56v-.96h3.84v-4.8h-26.16v-2.4h11.76c.16-.32.24-.72.24-1.2h-2.16v-1.68c.16-.64.32-1.28.48-1.92h-1.92c.16-.8.32-1.6.48-2.4.16-.96.32-1.76.48-2.4h-.48v-.72c.16-.16.24-.32.24-.48h1.68v-.72c.16-.16.24-.32.24-.48h-.48c.16-.64.32-1.2.48-1.68.16-.64.32-1.28.48-1.92h.24c.32-.8.64-1.6.96-2.4.32-.96.72-1.76,1.2-2.4h.96c.32-.8.72-1.6,1.2-2.4h-4.8c.96-1.6,2.08-3.2,3.36-4.8h-3.12l3.6-3.6h4.8c.8-.64,1.52-1.2,2.16-1.68.8-.64,1.6-1.28,2.4-1.92h-1.44c2.24-1.6,4.48-2.8,6.72-3.6h-.24c.48-.32.96-.56,1.44-.72.48-.16.96-.32,1.44-.48h-3.84c5.12-1.92,10.64-3.2,16.56-3.84,5.92-.8,12.08-1.2,18.48-1.2h22.32c3.52,0,5.68,1.68,6.48,5.04h3.6c.16.32.24.72.24,1.2h.24v3.6h1.44v3.6h-4.8v3.6h3.12v4.8h4.8v2.4h-.96v4.8h-.24v3.6h.48v1.2h-1.44v1.2h.24v.48c0,1.76-.56,3.2-1.68,4.32h1.92c-1.12,1.44-2.8,2.16-5.04,2.16h-19.44c-3.04,0-5.28.48-6.72,1.44h1.92c-.32.16-.8.56-1.44,1.2h-11.76c-.8.8-1.28,1.6-1.44,2.4h26.16c-.16.48-.32.96-.48,1.44v3.36h-3.84v.96h27.36c2.88,0,4.88,1.28,6,3.84h-11.76c.32.96.48,1.84.48,2.64v.96h-1.92v3.6h.24v2.4h-4.08Z"/>
    <path class="cls-1" d="M527.09,276.73h26.62v107.92h76.34v23.35h-102.96v-131.27ZM652.81,308.81h24.78v48.38c0,4.59.5,8.79,1.51,12.6,1.01,3.75,2.72,6.97,5.12,9.66,2.46,2.69,5.71,4.79,9.74,6.3,4.09,1.46,9.16,2.18,15.2,2.18,2.85,0,5.74-.31,8.65-.92,2.97-.62,5.8-1.46,8.48-2.52,2.69-1.12,5.18-2.43,7.48-3.95,2.35-1.51,4.37-3.16,6.05-4.95v-66.77h24.86v99.19h-24.86v-8.48c-6.1,3.64-12.23,6.24-18.39,7.81-6.16,1.57-12.01,2.35-17.55,2.35-9.07,0-16.85-1.09-23.35-3.28-6.44-2.18-11.73-5.35-15.87-9.49-4.09-4.2-7.08-9.32-8.99-15.37-1.9-6.1-2.86-13.05-2.86-20.83v-51.9ZM844.04,329.56h-50.81v-20.66h96.92l-61.14,78.44h57.78v20.66h-103.47l60.72-78.44ZM906.11,358.11c0-6.72,1.37-13.13,4.11-19.23,2.74-6.16,6.69-11.59,11.84-16.29,5.15-4.7,11.45-8.46,18.9-11.25,7.5-2.8,16.01-4.2,25.53-4.2s17.97,1.43,25.53,4.28c7.62,2.8,14.06,6.66,19.32,11.59,5.32,4.93,9.38,10.72,12.18,17.39,2.85,6.66,4.28,13.8,4.28,21.42,0,.95-.03,1.99-.08,3.11,0,1.06-.06,2.04-.17,2.94h-93.73c1.06,2.97,2.77,5.68,5.12,8.15,2.41,2.46,5.4,4.59,8.99,6.38,3.58,1.79,7.73,3.19,12.43,4.2,4.7.95,9.91,1.43,15.62,1.43s11.39-.59,17.05-1.76c5.65-1.23,11.06-2.77,16.21-4.62l8.4,18.98c-3.25,1.51-6.55,2.86-9.91,4.03-3.31,1.12-6.78,2.07-10.42,2.86-3.58.73-7.36,1.29-11.33,1.68-3.92.39-8.07.59-12.43.59-11.14,0-20.91-1.34-29.31-4.03-8.4-2.69-15.42-6.35-21.08-11-5.66-4.65-9.91-10.11-12.77-16.38-2.85-6.27-4.28-13.02-4.28-20.24ZM1001.43,348.45c-.9-2.74-2.3-5.29-4.2-7.64-1.85-2.41-4.17-4.48-6.97-6.21-2.8-1.79-6.05-3.19-9.74-4.2-3.7-1.01-7.75-1.51-12.18-1.51-4.7,0-8.99.53-12.85,1.6-3.86,1.06-7.25,2.49-10.16,4.28-2.91,1.79-5.35,3.86-7.31,6.21-1.9,2.35-3.3,4.84-4.2,7.47h67.61ZM1054.59,308.9h24.86v14.28c5.49-4.09,11.28-7.61,17.38-10.58,6.11-2.97,12.18-5.23,18.23-6.8l7.31,22.76c-9.58.95-18,3.11-25.28,6.47-7.23,3.3-13.11,7.98-17.64,14.02v58.96h-24.86v-99.1ZM1140.93,308.9h24.86v8.4c6.6-3.75,12.9-6.38,18.89-7.89,6.05-1.51,11.96-2.27,17.72-2.27,7.56,0,14.56,1.12,21,3.36,6.44,2.18,12.01,5.46,16.71,9.83,4.71,4.37,8.37,9.83,11,16.38,2.69,6.49,4.04,14.03,4.04,22.59v48.71h-24.78v-44.68c0-5.43-.78-10.27-2.35-14.53-1.51-4.31-3.73-7.92-6.64-10.83-2.85-2.97-6.35-5.21-10.49-6.72-4.09-1.57-8.68-2.35-13.78-2.35-2.69,0-5.46.28-8.31.84-2.8.56-5.57,1.37-8.32,2.43-2.68,1.01-5.29,2.3-7.81,3.86-2.52,1.51-4.81,3.25-6.88,5.21v66.77h-24.86v-99.1Z"/>
    <path class="cls-2" d="M65.84,15.24c.16-.48.24-.88.24-1.2.16-.48.32-.88.48-1.2h-26.4c.32-.48.64-.88.96-1.2.32-.48.64-.88.96-1.2h27.84c1.28-.96,2.64-1.44,4.08-1.44h48c1.76,0,3.12.48,4.08,1.44h-27.84c.32.32.64.72.96,1.2.48.32.8.72.96,1.2h26.16c.32.96.48,1.76.48,2.4h13.44c.16,0,.24.08.24.24v2.16h-32.4v4.8h13.44v3.6h-1.44v4.8h-8.64v4.8h19.44v1.2h1.44v4.8h.96v4.8h-1.68v4.8h-1.2v6h4.08v4.8h-4.56v4.8h.96v1.2h17.04v4.8h8.88v2.4h-36.96v2.4h12.24v4.8h-10.08v4.8h8.64v2.4h1.68v3.6h32.16v2.4h22.32v4.8h-60.96v-4.8h-22.32v-2.4h-32.16v-3.6h-1.68v-2.4h-8.64v-4.8h10.08v-4.8h-12.24v-2.4h36.96v-2.4h-8.88v-4.8h-17.04v-1.2h-.96v-4.8h4.56v-4.8h-4.08v-6h1.2v-4.8h1.68v-4.8h-.96v-4.8h-1.44v-1.2h-19.44v-4.8h8.64v-4.8h1.44v-3.6h-13.44v-4.8h32.4v-2.4h-13.68ZM225.44,144.84h-65.52v1.2h4.8v3.6h34.08v1.2h-10.56v4.8h16.8v3.6h2.4v1.2h-1.68v1.2h-.72v4.8h.48v3.6h-.96v1.2h-1.2c-.16.32-.24.72-.24,1.2h2.64c-.48,1.6-1.36,2.8-2.64,3.6h-2.64c-.8.64-1.92.96-3.36.96h-120.96c-1.44,0-2.56-.32-3.36-.96h2.4c-1.44-.8-2.4-2-2.88-3.6h-2.64c0-.32-.08-.56-.24-.72v-.48h1.2v-1.2h.96v-3.6h-.48v-4.8h.72v-1.2h1.68v-1.2h-2.4v-3.6h-16.8v-4.8h10.56v-1.2H30.8v-3.6h-4.8v-1.2h65.52v-3.6h-26.64v-3.6h25.92v-1.2h-56.64v-3.6h8.16v-1.2h31.2v-1.2h-11.04v-3.6h18.72v-4.8h-18.96v-2.4h15.6v-1.2h-7.2v-3.6h6.96v-2.4h-8.88v-2.4h20.88v-3.6h6v-2.4h-32.88v-3.6h60.96v3.6h32.88v2.4h-6v3.6h-20.88v2.4h8.88v2.4h-6.96v3.6h7.2v1.2h-15.6v2.4h18.96v4.8h-18.72v.96h66.48c2.24,0,4,.88,5.28,2.64h11.04l.72,1.2h-31.2l.48,1.2h-8.4c.16.32.24.8.24,1.44v2.16h56.64v1.2h-25.92v3.6h26.64v3.6ZM374.23,107.64c.16.8.24,1.6.24,2.4v2.4h-17.04v2.4h-9.84v2.4h9.36v1.2h-10.8v3.6h-6v1.2h13.44c0,.48-.08.88-.24,1.2h-.72v1.2h2.16v.24c0,.64-.08,1.36-.24,2.16,0,.8-.08,1.6-.24,2.4h-1.68l-.72,4.8h3.6c0,.64-.16,1.44-.48,2.4h-.72c-.16.64-.32,1.28-.48,1.92-.16.48-.32,1.04-.48,1.68h1.92c-.16.8-.4,1.6-.72,2.4-.32.8-.64,1.6-.96,2.4h-3.6l-.96,2.4h.48c-.32.64-.48,1.04-.48,1.2h-.96c-.64,1.6-1.52,3.2-2.64,4.8h.48c-.16.32-.4.72-.72,1.2s-.64.88-.96,1.2h-.24l-2.88,3.6c-.16.16-.32.32-.48.48-.16.16-.4.4-.72.72h-1.2l-1.92,1.92c-.64.48-1.36,1.04-2.16,1.68h-7.2l-5.04,3.6h.96c-.32.16-.64.32-.96.48-.32.16-.64.4-.96.72h-1.68c-.32.16-.72.32-1.2.48-.48.16-.88.4-1.2.72h12.96c-.8.48-1.68.96-2.64,1.44-.96.32-1.92.64-2.88.96h-4.08c-1.12.48-2.32.96-3.6,1.44l-3.84.96h.96c-1.92.48-3.92.88-6,1.2-2.08.48-4.24.88-6.48,1.2h7.44c-2.56.32-5.2.56-7.92.72-2.72.16-5.52.24-8.4.24-3.04,0-5.92-.08-8.64-.24-2.56-.16-5.2-.4-7.92-.72h-7.68c-2.08-.32-4.24-.72-6.48-1.2-2.08-.32-4.08-.72-6-1.2h-.72l-3.84-.96c-1.12-.48-2.32-.96-3.6-1.44h3.84c-.8-.32-1.68-.64-2.64-.96-.96-.48-1.84-.96-2.64-1.44h-12.96l-2.16-1.2h1.68l-2.16-1.2h-.96c-1.92-1.28-3.6-2.48-5.04-3.6h7.2c-.64-.64-1.28-1.2-1.92-1.68-.64-.64-1.28-1.28-1.92-1.92h1.2c-.16-.32-.32-.56-.48-.72-.16-.16-.4-.32-.72-.48l-2.88-3.6h.24l-1.68-2.4h-.48c-1.12-1.6-2-3.2-2.64-4.8h.72c-.32-.64-.48-1.04-.48-1.2h-.72l-.96-2.4h3.6c-.16-.8-.4-1.6-.72-2.4-.32-.8-.64-1.6-.96-2.4h-1.92c-.16-.64-.32-1.2-.48-1.68l-.48-1.92h-1.44l-.72-2.4h-2.4l-.72-4.8h2.4l-.48-2.4v-2.4h-4.32v-1.2h-1.2c0-.32-.08-.56-.24-.72v-.48h13.44c0-.48-.08-.88-.24-1.2h-13.44v-3.6h5.76v-1.2h2.88v-2.4h5.04v-2.4h-14.64v-2.4c0-.8.08-1.6.24-2.4h-3.12v-2.4h23.76c.16-.48.24-1.12.24-1.92v-1.68h-6.48v-1.68c.16-.64.24-1.28.24-1.92h2.4l.72-4.8h-7.92c.16-.64.32-1.2.48-1.68.16-.64.32-1.28.48-1.92h-1.68c.32-.8.56-1.6.72-2.4.32-.96.64-1.76.96-2.4h.24c.16-.32.32-.72.48-1.2s.32-.88.48-1.2h-.24c0-.16.16-.56.48-1.2h1.2c.64-1.6,1.52-3.2,2.64-4.8h-4.8l1.44-2.4h8.88c.16-.32.48-.72.96-1.2h-17.52c.32-.64.72-1.2,1.2-1.68.64-.64,1.2-1.28,1.68-1.92h5.52l2.4-2.4c.96-.96,1.84-1.76,2.64-2.4h11.04c1.44-1.28,3.12-2.48,5.04-3.6h4.56c.64-.48,1.28-.88,1.92-1.2.8-.48,1.52-.88,2.16-1.2h-14.16c1.44-.8,3.2-1.6,5.28-2.4h6.48c3.68-1.44,7.52-2.64,11.52-3.6h-7.2c7.84-1.76,16.16-2.64,24.96-2.64s17.12.88,24.96,2.64h7.44c4,.96,7.76,2.16,11.28,3.6h-6.72c2.08.8,3.84,1.6,5.28,2.4h14.16c.8.32,1.52.72,2.16,1.2.8.32,1.52.72,2.16,1.2h-4.56l5.04,3.6h-11.04c.96.64,1.84,1.44,2.64,2.4.96.8,1.84,1.6,2.64,2.4h-5.52c.48.64.96,1.28,1.44,1.92.64.48,1.12,1.04,1.44,1.68h17.76l.72,1.2h-8.64l1.44,2.4h4.8c1.12,1.6,2,3.2,2.64,4.8h-1.2c.32.64.48,1.04.48,1.2h.48l.96,2.4h-.24c.32.64.64,1.44.96,2.4.32.8.56,1.6.72,2.4h2.4l.72,3.6h-1.44c.32.64.48,1.44.48,2.4.16.8.32,1.6.48,2.4h1.92c.16.64.24,1.28.24,1.92,0,.48.08,1.04.24,1.68h-9.36v1.68c0,.8.08,1.44.24,1.92h-4.8v2.4h30.96ZM282.07,98.04c-.16.64-.32,1.28-.48,1.92v1.68h6.72c-.16.48-.24.96-.24,1.44v2.16h.96v-.72c0-.48-.08-.96-.24-1.44v-1.44h9.36c0-.64-.08-1.2-.24-1.68v-1.92h-1.92c-.16-.96-.4-1.84-.72-2.64-.16-.8-.4-1.52-.72-2.16h1.68c-.64-1.44-1.6-2.64-2.88-3.6h-2.4c-1.6-.96-3.68-1.44-6.24-1.44s-4.56.48-6,1.44h1.68c-.64.48-1.2,1.04-1.68,1.68-.48.48-.88,1.12-1.2,1.92h7.92c-.16.64-.4,1.36-.72,2.16-.16.8-.32,1.68-.48,2.64h-2.16ZM298.39,112.44h17.04v-4.8h-30.96c-.16-.64-.24-1.44-.24-2.4h-19.92c0,.96-.08,1.76-.24,2.4h3.12v4.8h14.64v2.4h-5.28v2.4h-2.88v1.2h-5.76v1.92c.16.48.24,1.04.24,1.68h18.96v-3.6h10.8v-1.2h-9.36v-2.4h9.84v-2.4ZM294.55,124.44v-1.2h-26.16v1.2h1.2v.72c.16.16.24.32.24.48h4.08c.16.8.24,1.6.24,2.4s.08,1.6.24,2.4h-2.4c.32,2.08.64,3.68.96,4.8h2.64c.32.96.64,1.76.96,2.4h1.68c1.44,2.24,4.16,3.36,8.16,3.36s6.72-1.12,8.16-3.36h.96c.16-.32.32-.64.48-.96l.48-1.44h-3.6c.16-.8.32-1.52.48-2.16.16-.8.32-1.68.48-2.64h1.68c.16-.8.24-1.6.24-2.4s.08-1.6.24-2.4h-2.16v-1.2h.72ZM512.86,159.24h35.76v4.8h-20.4v3.6h-3.36v2.4h-14.88v1.2h7.44c-.32,2.24-1.28,3.84-2.88,4.8h-5.28c-.8.64-2,.96-3.6.96h-45.84c-1.44,0-2.56-.32-3.36-.96h5.28c-1.6-.96-2.56-2.56-2.88-4.8h-7.68v-1.2h14.88v-2.4h3.36v-3.6h20.4v-4.8h-35.76v-4.8h8.88v-1.2h-7.92v-2.4h.24v-2.4h-3.84v-4.8h3.12v-4.8h-9.84v-4.8h2.4v-4.8h11.04v-4.8h-2.64v-2.4h-.96v-1.2h-.96v-3.6h1.44v-1.2h1.2v-2.4h-.24v-2.4h-.72v-2.4h-10.08v-2.4h2.64v-.48c0-.64-.08-1.2-.24-1.68v-1.44h4.8c-.16-.8-.32-1.44-.48-1.92-.16-.64-.32-1.2-.48-1.68h4.32c-.96-2.08-2.32-3.68-4.08-4.8h-7.68c-1.76-1.12-4.08-1.68-6.96-1.68s-5.12.56-6.72,1.68h5.76c-.8.64-1.6,1.36-2.4,2.16-.64.64-1.12,1.52-1.44,2.64h-7.2c-.32.64-.64,1.84-.96,3.6h1.2c-.16.64-.24,1.68-.24,3.12v.48h-1.68v2.4h7.92v2.4h.48v2.4h-.72v2.4h-1.68v1.2h-1.68v3.6h2.64v1.2h1.68v2.4h-.96v4.8h6.24v4.8h-6.72v4.8h1.2v4.8h-2.64v4.8h2.88v2.4h-.24v1.2h.72v1.2h13.2v1.2h5.52v4.8h-14.88v4.8h.48v3.6h-9.12v2.4h10.32v1.2h2.64c-.32,2.24-1.36,3.84-3.12,4.8h-11.04c-.8.64-1.92.96-3.36.96h-45.6c-1.44,0-2.56-.32-3.36-.96h11.04c-1.76-.96-2.8-2.56-3.12-4.8h-2.64v-1.2h-10.32v-2.4h9.12v-3.6h-.48v-4.8h14.88v-4.8h-5.52v-1.2h-13.2v-1.2h-.72v-1.2h.24v-2.4h-2.88v-4.8h2.64v-4.8h-1.2v-4.8h6.72v-4.8h-6.24v-4.8h.96v-2.4h-1.68v-1.2h-2.64v-3.6h1.68v-1.2h1.68v-2.4h.72v-2.4h-.48v-2.4h-7.92v-2.4h1.68v-3.6h-1.2v-3.6h7.2v-4.8h-6v-3.6h5.28v-2.4h1.44v-3.6h-.96v-3.6h.24v-6h1.2v-2.4h-.24v-3.6h3.12v-1.2h-1.92v-3.6h2.88v-1.2h-9.6v-2.4h6.96v-3.6h12.96c.32-.96.64-1.76.96-2.4h-7.68c1.28-1.76,3.04-2.64,5.28-2.64h42c2.24,0,4,.88,5.28,2.64h4.08c3.52-1.6,7.28-2.8,11.28-3.6,4-.96,8.16-1.44,12.48-1.44,8,0,15.2,1.68,21.6,5.04h2.64c.8.32,1.52.72,2.16,1.2.64.32,1.28.72,1.92,1.2h-3.36c.8.48,1.6,1.04,2.4,1.68.8.48,1.52,1.12,2.16,1.92h18.72c.96.64,1.76,1.44,2.4,2.4h-13.2c.16.16.32.32.48.48.16.16.32.4.48.72h3.36c.48.64.96,1.28,1.44,1.92.48.48.88,1.04,1.2,1.68h2.16l.72,1.2h-3.12l2.16,3.6h.24c.32.8.72,1.6,1.2,2.4h-1.2c.8,1.76,1.44,3.36,1.92,4.8,0,.16.16.56.48,1.2h-.24c.32.64.48,1.28.48,1.92.16.48.32,1.04.48,1.68h.96c.32.64.48,1.28.48,1.92.16.48.32,1.04.48,1.68h-1.68c.32.96.48,1.76.48,2.4h-5.04c.16.64.24,1.28.24,1.92,0,.48.08,1.04.24,1.68h7.68c.16.64.24,1.44.24,2.4.16.8.24,1.6.24,2.4h-4.32v3.6h-4.56v3.6h-2.64v2.4h10.08v2.4h.72v2.4h.24v2.4h-1.2v1.2h-1.44v3.6h.96v1.2h.96v2.4h2.64v4.8h-11.04v4.8h-2.4v4.8h9.84v4.8h-3.12v4.8h3.84v2.4h-.24v2.4h7.92v1.2h-8.88v4.8ZM432.22,57.24h-2.64v.72c.16.16.24.4.24.72v.24c.32-.32.72-.64,1.2-.96.48-.32.88-.56,1.2-.72ZM422.86,60.84v2.4h19.92l2.88-2.4h-22.8ZM429.58,64.44v2.16c.32-.48.96-1.2,1.92-2.16h-1.92ZM656.34,111.24v2.4h30.48v2.4h-18.48v2.4h-8.64v2.4h7.44v1.44c0,.96-.08,1.68-.24,2.16h3.36c-1.12,2.88-3.2,4.32-6.24,4.32h-71.52v.48h9.6v2.88c0,.64.08,1.28.24,1.92h-12.96v1.44c.16.32.24.64.24.96h-1.44c0,.64.16,1.44.48,2.4h.96c.8,2.24,2.08,3.84,3.84,4.8h-6.48c1.12.64,2.64.96,4.56.96,1.28,0,2.32-.32,3.12-.96h11.28c.64-.32,1.2-.8,1.68-1.44.64-.64,1.36-1.28,2.16-1.92l1.44-1.44h-4.56c1.44-1.28,3.6-1.92,6.48-1.92h45.36c1.92,0,3.36.64,4.32,1.92h4.32c.8,1.12,1.2,2.24,1.2,3.36-.16.32-.24.8-.24,1.44h-11.28c-.32,1.6-.8,3.2-1.44,4.8h-11.76c-.48.8-.88,1.6-1.2,2.4h29.76c-.32.8-.8,1.6-1.44,2.4-.48.8-1.04,1.6-1.68,2.4h-7.2c-.64.96-1.28,1.76-1.92,2.4h1.68c-.16.16-.32.32-.48.48-.16.16-.32.4-.48.72h-13.44l-1.2,1.2h4.08c-.16.16-.4.32-.72.48-.16.16-.32.4-.48.72h7.44c-1.12,1.12-2.56,2.32-4.32,3.6h-3.6c-.16.16-.4.32-.72.48s-.64.4-.96.72h-2.64c-2.56,1.76-5.36,3.36-8.4,4.8h-3.12c-1.92.96-4,1.84-6.24,2.64-2.08.8-4.32,1.52-6.72,2.16h-3.84c-1.76.48-3.6.88-5.52,1.2-1.92.48-4,.88-6.24,1.2h10.08c-2.24.32-4.56.56-6.96.72s-4.96.24-7.68.24c-2.56,0-5.12-.08-7.68-.24s-5.04-.4-7.44-.72h-10.08c-2.08-.32-4.08-.72-6-1.2-1.92-.32-3.84-.72-5.76-1.2h3.84c-4.32-1.12-8.4-2.72-12.24-4.8h3.12c-2.88-1.6-5.36-3.2-7.44-4.8h2.64c-.32-.32-.64-.56-.96-.72-.16-.16-.4-.32-.72-.48h3.6c-.64-.64-1.28-1.2-1.92-1.68-.64-.64-1.28-1.28-1.92-1.92h-7.68l-1.2-1.2h-4.08c-.16-.32-.32-.56-.48-.72-.16-.16-.32-.32-.48-.48h13.2c-.16-.32-.48-.72-.96-1.2h-1.68c-.32-.32-.64-.72-.96-1.2-.32-.48-.64-.88-.96-1.2h7.2c-.48-.8-.96-1.6-1.44-2.4-.48-.8-.96-1.6-1.44-2.4h-30c-.48-.8-.88-1.6-1.2-2.4h11.76l-2.16-4.8h6.48c-.32-.8-.64-1.6-.96-2.4-.16-.8-.4-1.6-.72-2.4h-.72l-.72-2.4h1.68l-.72-2.4h12.96c-.16-.8-.32-1.6-.48-2.4-.16-.8-.32-1.6-.48-2.4h-9.6l-.48-4.8h-3.36c0-.64-.08-1.2-.24-1.68v-1.92h-7.44v-2.4h8.4v-2.4h18.48v-2.4h-30.48v-.48c0-.8.08-1.44.24-1.92h41.52v-1.68c.16-.64.24-1.28.24-1.92h-38.16v-.72c.16-.16.24-.32.24-.48h15.84c0-.48.08-.88.24-1.2h17.76v-1.2h-33.84c.16-.8.32-1.6.48-2.4.16-.8.32-1.6.48-2.4h9.12c0-.64.16-1.44.48-2.4h-7.92v-.72c.16-.16.24-.32.24-.48h5.76v-.72c.16-.16.24-.32.24-.48h-6l.48-1.2h5.76l.72-2.4h4.56l1.44-3.6h-4.32l.96-2.4c.32-.96.72-1.76,1.2-2.4h-.72l.48-1.2h-6c.32-.64.48-1.04.48-1.2h-5.52l1.44-2.4h11.76c.16-.32.48-.72.96-1.2h4.32c.64-.8,1.2-1.6,1.68-2.4.64-.96,1.28-1.76,1.92-2.4h-4.32c.48-.64.96-1.2,1.44-1.68.64-.64,1.28-1.28,1.92-1.92h9.36l2.4-2.4h-14.16c2.08-1.76,4.16-3.36,6.24-4.8h13.2l1.92-1.2h-4.32c1.28-.8,2.8-1.6,4.56-2.4h9.36c4.32-2.08,8.8-3.68,13.44-4.8h-13.44c3.52-.8,7.2-1.44,11.04-1.92,3.84-.48,7.84-.72,12-.72s8.08.24,11.76.72c3.68.48,7.2,1.12,10.56,1.92h13.2c2.4.64,4.64,1.36,6.72,2.16,2.24.8,4.4,1.68,6.48,2.64h-9.36c.8.32,1.52.72,2.16,1.2.8.32,1.52.72,2.16,1.2h4.32c.32.16.64.32.96.48.32.16.64.4.96.72h-13.2c2.08,1.44,4.16,3.04,6.24,4.8h14.4l2.4,2.4h-9.36c.64.64,1.2,1.28,1.68,1.92.64.48,1.2,1.04,1.68,1.68h4.32c.64.64,1.2,1.44,1.68,2.4l1.92,2.4h-4.56c.16.32.48.72.96,1.2h-12l1.44,2.4h5.52l.72,1.2h6.24c0,.16.16.56.48,1.2h.72l2.16,4.8,1.44,3.6h.24l.72,2.4h-2.88l.48,1.2h2.16l.48,1.2h3.84v.48c.16.16.24.4.24.72h-1.92l.72,2.4h-9.12l.72,4.8h33.84v1.2h-17.76v.48c.16.16.24.4.24.72h-16.08c.16.32.24.72.24,1.2h38.16v1.92c0,.48.08,1.04.24,1.68h-41.76ZM583.38,95.64v1.2h7.68v1.92h19.2v-1.92h1.68v-1.2h-3.84v-1.2h-2.4c0-.48-.08-.88-.24-1.2h2.88c0-.64-.16-1.44-.48-2.4h-.24c-.16-1.44-.64-2.64-1.44-3.6-1.6-2.56-4.08-3.84-7.44-3.84s-5.6,1.28-7.2,3.84h4.32c-.64.96-1.12,2.16-1.44,3.6h-4.8c0,.32-.08.72-.24,1.2,0,.32-.08.72-.24,1.2h-5.76c0,.48-.08.88-.24,1.2h6v1.2h-5.76ZM222.32,308.64l-.72,3.6h39.6l-.48,2.4h-36.48l-.24,1.2h15.12l-.72,4.8h5.04l-.48,3.6h2.88l-.72,3.6h.24l-.48,3.6h.96v1.2h-.48l-.72,4.8h-.72l-.72,4.8-.48,4.8h4.56l-.24,1.2h-2.64v1.2h4.8v1.2h-7.68l-.24,1.2h-2.64l-.48,3.6h7.92l-.72,4.8h9.12l-.48,3.6h-7.2l-.24,1.2h-3.6l-.72,4.8h1.92l-.24,2.4h2.16l-.48,3.6h-3.6l-.48,3.6h-7.92l-.24,2.4h8.16l-.72,4.8h-5.28l-.48,4.8h4.8l-.48,3.6h-18.48l-.48,2.4h6.96l-.24,1.44v.96h6.48c-.16.32-.32.72-.48,1.2,0,.48-.16.88-.48,1.2h-2.64c-.8,1.44-1.84,2.64-3.12,3.6h2.16c-.96.64-1.68,1.04-2.16,1.2h1.92c-1.28.64-2.88.96-4.8.96h-34.32c-.96,0-1.84-.08-2.64-.24-.64-.32-1.28-.56-1.92-.72h-1.92c-.48-.16-.88-.32-1.2-.48-.32-.32-.64-.56-.96-.72h-1.92c-.64-.64-1.2-1.28-1.68-1.92-.48-.64-.88-1.2-1.2-1.68h2.64c-.16-.16-.24-.4-.24-.72l-.72-1.68h-6.48l-.96-2.4h-6.96l-.96-2.4h18.48l-1.44-3.6h-5.04l-1.92-4.8h5.28l-1.92-4.8h-8.16l-.96-2.4h7.68l-1.44-3.6h3.6l-1.44-3.6h-2.16l-.96-2.4h-1.92l-1.92-4.8h3.6l-.48-1.2h7.2l-1.44-3.6h-9.12l-1.92-4.8h-7.92l-1.2-3.12-1.2,3.12h-.96l-1.92,4.8h14.88l-1.44,3.6h-11.76l-.48,1.2h2.16l-1.92,4.8h4.32l-.96,2.4h-12l-1.44,3.6h6.48l-1.44,3.6h-7.92l-.96,2.4h3.84l-1.92,4.8h.24l-1.92,4.8h-15.84l-1.44,3.6h25.2l-.96,2.4h-5.28l-.96,2.4h-.48l-.72,1.68-.48.72h-7.44c-.32.48-.72,1.04-1.2,1.68-.32.64-.88,1.28-1.68,1.92h1.44c-.48.48-1.12.88-1.92,1.2h6.48c-.64.16-1.36.4-2.16.72-.8.16-1.68.24-2.64.24h-34.32c-1.92,0-3.52-.32-4.8-.96h-6.24c-.48-.16-1.2-.56-2.16-1.2h-1.68c-1.44-1.12-2.48-2.32-3.12-3.6h7.68c-.16-.32-.32-.72-.48-1.2-.16-.48-.32-.88-.48-1.2h.72l-.24-.96-.24-1.44h5.28l-.48-2.4h-24.96l-.48-3.6h15.6l-.48-4.8h-.24l-.72-4.8h-3.84l-.24-2.4h7.68l-.48-3.6h-6.24l-.48-3.6h12l-.48-2.4h-4.32l-.72-4.8h-2.16l-.24-1.2h11.76l-.48-3.6h-14.88l-.72-4.8h.96l-.72-3.6h2.64v-1.2h7.68l-.24-1.2h-5.04l-.24-1.2h2.64v-1.2h-4.8l-.24-2.4h-.24l-.24-2.4-.72-4.8h.72l-.72-4.8h.48l-.24-1.2h-.96l-.48-3.6h-.24l-.48-3.6h-2.88l-.48-3.6h-5.04l-.72-4.8h-15.12v-1.2h36.48l-.24-2.4h-14.4l-.48-3.6h-15.12l-.24-2.4h21.84l-.72-4.8h-5.76v-1.2h3.36l-.24-1.2h5.04l-.48-3.6h-8.16l-.24-1.2h-18.72l-.48-4.8h20.88l-.72-4.8h-5.28l-.24-2.4h2.16l-.48-3.6h.72l-.24-1.2h-7.44l-.24-2.4h5.04l-.48-3.6h.48l-.48-3.6h4.08l-.48-2.4h-12.96l-.24-2.4h10.32l-.24-2.4h-6l-.24-2.4h7.44l-.48-3.6h-2.4l-.72-4.8h2.64l-.24-1.2-.48-2.64v-.96h-3.6c.32-3.36,2.08-5.04,5.28-5.04h44.64c4.96,0,7.76,1.68,8.4,5.04h3.6c.16.32.24.8.24,1.44l.24,2.16.24,1.2h-2.4l.48,4.8h2.4l.48,3.6h-7.68l.48,2.4h5.76l.24,2.4h-10.32l.24,2.4h12.96l.48,2.4h-4.08l.24,3.6h-.24l.24,3.6h-5.28l.48,2.4h7.2l.24,1.2h-.72l.48,3.6h-2.16l.24,2.4h5.28l.72,4.8h-21.12l.48,4.8h18.72l.24,1.2h8.16l.48,3.6h-5.04v1.2h-3.36l.24,1.2h5.04l.48-1.2h2.4l.48-1.2h10.08l1.2-3.6h-11.04l.24-1.2h18.48l1.68-4.8h-19.44l1.44-4.8h-2.16v-.48l.72-1.92h4.56c.32-.64.64-1.28.96-1.92.48-.64,1.04-1.2,1.68-1.68h-1.44c.8-.64,1.68-1.04,2.64-1.2h2.16c.48-.16,1.2-.24,2.16-.24h24.48c.96,0,1.6.08,1.92.24h-2.16c.64.16,1.12.32,1.44.48.48.16.88.4,1.2.72h1.44c.8.48,1.36,1.04,1.68,1.68.48.64.8,1.28.96,1.92h-4.32c.48.64.72,1.28.72,1.92l.24.48h2.4l1.44,4.8h9.36l.72-4.8h-1.44l.24-2.4h11.28l.24-3.6h-10.56l.24-1.2h-1.92l.48-2.4h4.08l.48-3.6h-1.44l.48-3.6h3.36l.24-2.4h-14.64l.24-2.4h4.32l.24-2.4h8.16l.24-2.4h-.24l.48-3.6.48-4.8h-4.8l.24-1.2h5.76l.48-2.16v-1.44h4.56c.64-3.36,3.44-5.04,8.4-5.04h44.64c1.28,0,2.4.48,3.36,1.44,1.12.96,1.76,2.16,1.92,3.6h-4.32v.96l-.48,2.64h-6l-.24,1.2h5.04l-.72,4.8-.48,3.6h.24l-.48,2.4h-8.16l-.24,2.4h-4.32l-.48,2.4h14.88l-.24,2.4h-3.36l-.48,3.6h1.2l-.48,3.6h-4.08l-.48,2.4h1.92l-.24,1.2h10.56l-.48,3.6h-11.04l-.48,2.4h1.44l-.72,4.8h-8.64l-.72,4.8h10.56l-.24,1.2h-12.24l-.48,3.6h11.28v1.2h-.72l-.24,1.2h.72l-.72,4.8h3.84l-.48,2.4h-29.28ZM193.52,294.24h-8.16l.24,1.2h7.68l.24-1.2ZM187.76,299.04l.48,1.2h-2.4l.48,1.2,1.68,4.8h-25.92l.72,2.4h31.92l.24-2.4h-3.84l.72-4.8h-.72l.24-1.2h.48l.24-1.2h-4.32ZM144.08,312.24h-.72l.24,1.92.48-1.92ZM204.08,313.92l.24-1.68h-.96l.72,1.68ZM425.8,338.64c.16.8.24,1.6.24,2.4v2.4h-17.04v2.4h-9.84v2.4h9.36v1.2h-10.8v3.6h-6v1.2h13.44c0,.48-.08.88-.24,1.2h-.72v1.2h2.16v.24c0,.64-.08,1.36-.24,2.16,0,.8-.08,1.6-.24,2.4h-1.68l-.72,4.8h3.6c0,.64-.16,1.44-.48,2.4h-.72c-.16.64-.32,1.28-.48,1.92-.16.48-.32,1.04-.48,1.68h1.92c-.16.8-.4,1.6-.72,2.4-.32.8-.64,1.6-.96,2.4h-3.6l-.96,2.4h.48c-.32.64-.48,1.04-.48,1.2h-.96c-.64,1.6-1.52,3.2-2.64,4.8h.48c-.16.32-.4.72-.72,1.2-.32.48-.64.88-.96,1.2h-.24l-2.88,3.6-.48.48c-.16.16-.4.4-.72.72h-1.2c-.64.64-1.28,1.28-1.92,1.92-.64.48-1.36,1.04-2.16,1.68h-7.2l-5.04,3.6h.96c-.32.16-.64.32-.96.48s-.64.4-.96.72h-1.68c-.32.16-.72.32-1.2.48s-.88.4-1.2.72h12.96c-.8.48-1.68.96-2.64,1.44-.96.32-1.92.64-2.88.96h-4.08c-1.12.48-2.32.96-3.6,1.44l-3.84.96h.96c-1.92.48-3.92.88-6,1.2-2.08.48-4.24.88-6.48,1.2h7.44c-2.56.32-5.2.56-7.92.72s-5.52.24-8.4.24c-3.04,0-5.92-.08-8.64-.24-2.56-.16-5.2-.4-7.92-.72h-7.68c-2.08-.32-4.24-.72-6.48-1.2-2.08-.32-4.08-.72-6-1.2h-.72l-3.84-.96c-1.12-.48-2.32-.96-3.6-1.44h3.84c-.8-.32-1.68-.64-2.64-.96-.96-.48-1.84-.96-2.64-1.44h-12.96l-2.16-1.2h1.68l-2.16-1.2h-.96c-1.92-1.28-3.6-2.48-5.04-3.6h7.2c-.64-.64-1.28-1.2-1.92-1.68l-1.92-1.92h1.2c-.16-.32-.32-.56-.48-.72s-.4-.32-.72-.48l-2.88-3.6h.24l-1.68-2.4h-.48c-1.12-1.6-2-3.2-2.64-4.8h.72c-.32-.64-.48-1.04-.48-1.2h-.72l-.96-2.4h3.6c-.16-.8-.4-1.6-.72-2.4-.32-.8-.64-1.6-.96-2.4h-1.92c-.16-.64-.32-1.2-.48-1.68-.16-.64-.32-1.28-.48-1.92h-1.44l-.72-2.4h-2.4l-.72-4.8h2.4c-.16-.8-.32-1.6-.48-2.4v-2.4h-4.32v-1.2h-1.2c0-.32-.08-.56-.24-.72v-.48h13.44c0-.48-.08-.88-.24-1.2h-13.44v-3.6h5.76v-1.2h2.88v-2.4h5.04v-2.4h-14.64v-2.4c0-.8.08-1.6.24-2.4h-3.12v-2.4h23.76c.16-.48.24-1.12.24-1.92v-1.68h-6.48v-1.68c.16-.64.24-1.28.24-1.92h2.4l.72-4.8h-7.92c.16-.64.32-1.2.48-1.68.16-.64.32-1.28.48-1.92h-1.68c.32-.8.56-1.6.72-2.4.32-.96.64-1.76.96-2.4h.24c.16-.32.32-.72.48-1.2.16-.48.32-.88.48-1.2h-.24c0-.16.16-.56.48-1.2h1.2c.64-1.6,1.52-3.2,2.64-4.8h-4.8l1.44-2.4h8.88c.16-.32.48-.72.96-1.2h-17.52c.32-.64.72-1.2,1.2-1.68.64-.64,1.2-1.28,1.68-1.92h5.52c.8-.8,1.6-1.6,2.4-2.4.96-.96,1.84-1.76,2.64-2.4h11.04c1.44-1.28,3.12-2.48,5.04-3.6h4.56c.64-.48,1.28-.88,1.92-1.2.8-.48,1.52-.88,2.16-1.2h-14.16c1.44-.8,3.2-1.6,5.28-2.4h6.48c3.68-1.44,7.52-2.64,11.52-3.6h-7.2c7.84-1.76,16.16-2.64,24.96-2.64s17.12.88,24.96,2.64h7.44c4,.96,7.76,2.16,11.28,3.6h-6.72c2.08.8,3.84,1.6,5.28,2.4h14.16c.8.32,1.52.72,2.16,1.2.8.32,1.52.72,2.16,1.2h-4.56l5.04,3.6h-11.04c.96.64,1.84,1.44,2.64,2.4.96.8,1.84,1.6,2.64,2.4h-5.52c.48.64.96,1.28,1.44,1.92.64.48,1.12,1.04,1.44,1.68h17.76l.72,1.2h-8.64l1.44,2.4h4.8c1.12,1.6,2,3.2,2.64,4.8h-1.2c.32.64.48,1.04.48,1.2h.48l.96,2.4h-.24c.32.64.64,1.44.96,2.4.32.8.56,1.6.72,2.4h2.4l.72,3.6h-1.44c.32.64.48,1.44.48,2.4.16.8.32,1.6.48,2.4h1.92c.16.64.24,1.28.24,1.92,0,.48.08,1.04.24,1.68h-9.36v1.68c0,.8.08,1.44.24,1.92h-4.8v2.4h30.96ZM333.64,329.04c-.16.64-.32,1.28-.48,1.92v1.68h6.72c-.16.48-.24.96-.24,1.44v2.16h.96v-.72c0-.48-.08-.96-.24-1.44v-1.44h9.36c0-.64-.08-1.2-.24-1.68v-1.92h-1.92c-.16-.96-.4-1.84-.72-2.64-.16-.8-.4-1.52-.72-2.16h1.68c-.64-1.44-1.6-2.64-2.88-3.6h-2.4c-1.6-.96-3.68-1.44-6.24-1.44s-4.56.48-6,1.44h1.68c-.64.48-1.2,1.04-1.68,1.68-.48.48-.88,1.12-1.2,1.92h7.92c-.16.64-.4,1.36-.72,2.16-.16.8-.32,1.68-.48,2.64h-2.16ZM349.96,343.44h17.04v-4.8h-30.96c-.16-.64-.24-1.44-.24-2.4h-19.92c0,.96-.08,1.76-.24,2.4h3.12v4.8h14.64v2.4h-5.28v2.4h-2.88v1.2h-5.76v1.92c.16.48.24,1.04.24,1.68h18.96v-3.6h10.8v-1.2h-9.36v-2.4h9.84v-2.4ZM346.12,355.44v-1.2h-26.16v1.2h1.2v.72c.16.16.24.32.24.48h4.08c.16.8.24,1.6.24,2.4s.08,1.6.24,2.4h-2.4c.32,2.08.64,3.68.96,4.8h2.64c.32.96.64,1.76.96,2.4h1.68c1.44,2.24,4.16,3.36,8.16,3.36s6.72-1.12,8.16-3.36h.96l.48-.96c.16-.48.32-.96.48-1.44h-3.6c.16-.8.32-1.52.48-2.16.16-.8.32-1.68.48-2.64h1.68c.16-.8.24-1.6.24-2.4s.08-1.6.24-2.4h-2.16v-1.2h.72ZM504.42,314.64h-19.68v1.2h1.44v4.8h6.24v2.4h-16.08v3.6h3.84v1.2h.24v3.6h1.2v1.2h-2.64v1.2h2.88v1.2h-1.92v2.4h-1.44v3.6h1.2v1.2h.96v1.2h-6.48v2.4h-2.64v1.2h-2.16v3.6h5.52v1.2h-4.08v2.4h12.24v4.8h-11.28v4.8h10.08v4.8h-1.68v1.2h2.4v4.8h-8.4v2.4h16.32v4.8h-14.16v1.2h6.48v3.6h-3.12v4.8h-.96v4.8h1.2v3.6h-2.64v1.68c0,.8-.08,1.44-.24,1.92h6.48c-.64,1.76-1.6,2.96-2.88,3.6h-7.92c-.8.64-1.92.96-3.36.96h-42.96c-1.44,0-2.56-.32-3.36-.96h7.92c-1.28-.64-2.24-1.84-2.88-3.6h-6.48c-.16-.48-.24-1.12-.24-1.92v-1.68h2.64v-3.6h-1.2v-4.8h.96v-4.8h3.12v-3.6h-6.48v-1.2h14.16v-4.8h-16.32v-2.4h8.4v-4.8h-2.4v-1.2h1.68v-4.8h-10.08v-4.8h11.28v-4.8h-12.24v-2.4h4.08v-1.2h-5.52v-3.6h2.16v-1.2h2.64v-2.4h6.48v-1.2h-.96v-1.2h-1.2v-3.6h1.44v-2.4h1.92v-1.2h-2.88v-1.2h2.64v-1.2h-1.2v-3.6h-.24v-1.2h-3.84v-3.6h16.08v-2.4h-6.24v-4.8h-1.44v-1.2h19.68v-1.2h-20.88v-3.6h12.24v-3.6h-9.84v-1.2h-9.6v-4.8h6.72v-1.2h-3.12v-1.2h-3.36v-3.6h1.2v-1.2h3.84v-4.8h-1.68v-2.4h3.36v-8.4h10.08v-1.2h-6.72v-3.6h-9.12v-1.2h-.48v-2.4h2.16v-2.4h.48v-1.2h.24v-3.6h-.48v-1.2h.48v-1.2h.72v-3.6h-1.68v-3.6h1.68v-1.2h-.48v-4.8h-.24v-1.2h-.24v-.96c0-.8.16-1.68.48-2.64h.24c1.12-2.56,3.12-3.84,6-3.84h42.96c2.56,0,4.56,1.28,6,3.84h-.24c.32.96.48,1.84.48,2.64v.96h.24v1.2h.24v4.8h.48v1.2h-1.68v3.6h1.68v3.6h-.72v1.2h-.48v1.2h.48v3.6h-.24v1.2h-.48v2.4h-2.16v2.4h.48v1.2h9.12v3.6h6.72v1.2h-10.08v8.4h-3.36v2.4h1.68v4.8h-3.84v1.2h-1.2v3.6h3.36v1.2h3.12v1.2h-6.72v4.8h9.6v1.2h9.84v3.6h-12.24v3.6h20.88v1.2ZM602.4,296.64v3.6h10.32v2.4h-10.8v2.4h4.56v4.8h.72v4.8h4.56v2.4h-6.48v1.68c0,.8-.08,1.44-.24,1.92h-1.2c-.64,1.76-1.6,2.96-2.88,3.6h2.16c-.8.64-1.92.96-3.36.96h-27.36v2.64h-.96v4.8h-1.68v2.4h3.12v2.4h-.48v2.4h-4.32v4.8h15.84v4.8h18v4.8h-18.96v2.4h24.48v3.6h-32.64v1.2h-7.44v4.8h11.76v2.4h4.56v1.2h2.4v4.8h-9.84v3.6h10.56v4.8h.48v4.8h-10.08v3.6h-.96v1.2h-3.84v4.8h-8.4v4.8h6c-.32,2.24-1.28,3.84-2.88,4.8h2.16c-.8.64-1.92.96-3.36.96h-42c-1.44,0-2.56-.32-3.36-.96h-2.4c-1.6-.96-2.56-2.56-2.88-4.8h-6.24v-4.8h8.4v-4.8h3.84v-1.2h.96v-3.6h10.08v-4.8h-.48v-4.8h-10.56v-3.6h9.84v-4.8h-2.4v-1.2h-4.56v-2.4h-11.76v-4.8h7.44v-1.2h32.64v-3.6h-24.48v-2.4h18.96v-4.8h-18v-4.8h-15.84v-4.8h4.32v-2.4h.48v-2.4h-3.12v-2.4h1.68v-4.8h.96v-2.64h-16.56c-1.44,0-2.56-.32-3.36-.96h-2.16c-1.28-.64-2.24-1.84-2.88-3.6h1.44l-.48-.96v-2.64h6.48v-2.4h-4.56v-4.8h-.72v-4.8h-4.56v-2.4h10.8v-2.4h-10.32v-3.6h4.08v-2.4h-.24v-3.6h1.92v-.96c0-1.12.24-2,.72-2.64h11.76c1.12-2.56,3.04-3.84,5.76-3.84h16.56v-.96h3.84v-4.8h-26.16v-2.4h11.76c.16-.32.24-.72.24-1.2h-2.16v-1.68c.16-.64.32-1.28.48-1.92h-1.92c.16-.8.32-1.6.48-2.4.16-.96.32-1.76.48-2.4h-.48v-.72c.16-.16.24-.32.24-.48h1.68v-.72c.16-.16.24-.32.24-.48h-.48c.16-.64.32-1.2.48-1.68.16-.64.32-1.28.48-1.92h.24c.32-.8.64-1.6.96-2.4.32-.96.72-1.76,1.2-2.4h.96c.32-.8.72-1.6,1.2-2.4h-4.8c.96-1.6,2.08-3.2,3.36-4.8h-3.12l3.6-3.6h4.8c.8-.64,1.52-1.2,2.16-1.68.8-.64,1.6-1.28,2.4-1.92h-1.44c2.24-1.6,4.48-2.8,6.72-3.6h-.24c.48-.32.96-.56,1.44-.72.48-.16.96-.32,1.44-.48h-3.84c5.12-1.92,10.64-3.2,16.56-3.84,5.92-.8,12.08-1.2,18.48-1.2h22.32c3.52,0,5.68,1.68,6.48,5.04h3.6c.16.32.24.72.24,1.2h.24v3.6h1.44v3.6h-4.8v3.6h3.12v4.8h4.8v2.4h-.96v4.8h-.24v3.6h.48v1.2h-1.44v1.2h.24v.48c0,1.76-.56,3.2-1.68,4.32h1.92c-1.12,1.44-2.8,2.16-5.04,2.16h-19.44c-3.04,0-5.28.48-6.72,1.44h1.92c-.32.16-.8.56-1.44,1.2h-11.76c-.8.8-1.28,1.6-1.44,2.4h26.16c-.16.48-.32.96-.48,1.44v3.36h-3.84v.96h27.36c2.88,0,4.88,1.28,6,3.84h-11.76c.32.96.48,1.84.48,2.64v.96h-1.92v3.6h.24v2.4h-4.08Z"/>
    <path class="cls-5" d="M534.09,276.73h26.62v107.92h76.34v23.35h-102.96v-131.27ZM659.81,308.81h24.78v48.38c0,4.59.5,8.79,1.51,12.6,1.01,3.75,2.72,6.97,5.12,9.66,2.46,2.69,5.71,4.79,9.74,6.3,4.09,1.46,9.16,2.18,15.2,2.18,2.85,0,5.74-.31,8.65-.92,2.97-.62,5.8-1.46,8.48-2.52,2.69-1.12,5.18-2.43,7.48-3.95,2.35-1.51,4.37-3.16,6.05-4.95v-66.77h24.86v99.19h-24.86v-8.48c-6.1,3.64-12.23,6.24-18.39,7.81-6.16,1.57-12.01,2.35-17.55,2.35-9.07,0-16.85-1.09-23.35-3.28-6.44-2.18-11.73-5.35-15.87-9.49-4.09-4.2-7.08-9.32-8.99-15.37-1.9-6.1-2.86-13.05-2.86-20.83v-51.9ZM851.04,329.56h-50.81v-20.66h96.92l-61.14,78.44h57.78v20.66h-103.47l60.72-78.44ZM913.11,358.11c0-6.72,1.37-13.13,4.11-19.23,2.74-6.16,6.69-11.59,11.84-16.29,5.15-4.7,11.45-8.46,18.9-11.25,7.5-2.8,16.01-4.2,25.53-4.2s17.97,1.43,25.53,4.28c7.62,2.8,14.06,6.66,19.32,11.59,5.32,4.93,9.38,10.72,12.18,17.39,2.85,6.66,4.28,13.8,4.28,21.42,0,.95-.03,1.99-.08,3.11,0,1.06-.06,2.04-.17,2.94h-93.73c1.06,2.97,2.77,5.68,5.12,8.15,2.41,2.46,5.4,4.59,8.99,6.38,3.58,1.79,7.73,3.19,12.43,4.2,4.7.95,9.91,1.43,15.62,1.43s11.39-.59,17.05-1.76c5.65-1.23,11.06-2.77,16.21-4.62l8.4,18.98c-3.25,1.51-6.55,2.86-9.91,4.03-3.31,1.12-6.78,2.07-10.42,2.86-3.58.73-7.36,1.29-11.33,1.68-3.92.39-8.07.59-12.43.59-11.14,0-20.91-1.34-29.31-4.03-8.4-2.69-15.42-6.35-21.08-11-5.66-4.65-9.91-10.11-12.77-16.38-2.85-6.27-4.28-13.02-4.28-20.24ZM1008.43,348.45c-.9-2.74-2.3-5.29-4.2-7.64-1.85-2.41-4.17-4.48-6.97-6.21-2.8-1.79-6.05-3.19-9.74-4.2-3.7-1.01-7.76-1.51-12.18-1.51-4.7,0-8.99.53-12.85,1.6-3.86,1.06-7.25,2.49-10.16,4.28-2.91,1.79-5.35,3.86-7.31,6.21-1.9,2.35-3.3,4.84-4.2,7.47h67.61ZM1061.59,308.9h24.86v14.28c5.49-4.09,11.28-7.61,17.38-10.58,6.11-2.97,12.18-5.23,18.23-6.8l7.31,22.76c-9.58.95-18,3.11-25.28,6.47-7.23,3.3-13.11,7.98-17.64,14.02v58.96h-24.86v-99.1ZM1147.93,308.9h24.86v8.4c6.6-3.75,12.9-6.38,18.89-7.89,6.05-1.51,11.96-2.27,17.72-2.27,7.56,0,14.56,1.12,21,3.36,6.44,2.18,12.01,5.46,16.71,9.83,4.71,4.37,8.37,9.83,11,16.38,2.69,6.49,4.04,14.03,4.04,22.59v48.71h-24.78v-44.68c0-5.43-.78-10.27-2.35-14.53-1.51-4.31-3.73-7.92-6.64-10.83-2.85-2.97-6.35-5.21-10.49-6.72-4.09-1.57-8.68-2.35-13.78-2.35-2.69,0-5.46.28-8.31.84-2.8.56-5.57,1.37-8.32,2.43-2.68,1.01-5.29,2.3-7.81,3.86-2.52,1.51-4.81,3.25-6.88,5.21v66.77h-24.86v-99.1Z"/>
  </g>
</svg>