<?xml version="1.0" encoding="UTF-8"?>
<svg id="Layer_2" xmlns="http://www.w3.org/2000/svg" viewBox="0 0 227.47 228.89">
  <defs>
    <style>
      .cls-1 {
        fill: #4e7188;
      }

      .cls-2 {
        fill: #455470;
      }

      .cls-3 {
        fill: #c9beb5;
      }

      .cls-4 {
        fill: #5b93b1;
      }

      .cls-5 {
        fill: #6faabf;
      }

      .cls-6 {
        fill: #4f86a7;
      }

      .cls-7 {
        fill: #a2d1df;
      }

      .cls-8 {
        fill: #689eb7;
      }

      .cls-9 {
        fill: #82b3c2;
      }

      .cls-10 {
        fill: #f5f3f3;
      }

      .cls-11 {
        fill: #70a8bb;
      }

      .cls-12 {
        fill: #94c6d6;
      }

      .cls-13 {
        fill: #77b2c4;
      }

      .cls-14 {
        fill: #341e26;
      }

      .cls-15 {
        fill: #a1d1df;
      }

      .cls-16 {
        fill: #dea359;
      }

      .cls-17 {
        fill: #9d5b60;
      }

      .cls-18 {
        fill: #a8d6e2;
      }

      .cls-19 {
        fill: #6ea9bf;
      }

      .cls-20 {
        fill: #284c74;
      }

      .cls-21 {
        fill: #5186a6;
      }

      .cls-22 {
        fill: #7d2f17;
      }

      .cls-23 {
        fill: #2c4e74;
      }

      .cls-24 {
        fill: #4d7ba0;
      }

      .cls-25 {
        fill: #af5756;
      }

      .cls-26 {
        fill: #345479;
      }

      .cls-27 {
        fill: #5b9ab3;
      }

      .cls-28 {
        fill: #5797b1;
      }

      .cls-29 {
        fill: #2c5076;
      }

      .cls-30 {
        fill: #5e262a;
      }

      .cls-31 {
        fill: #346792;
      }

      .cls-32 {
        fill: #5897b0;
      }

      .cls-33 {
        fill: #f5aa90;
      }

      .cls-34 {
        fill: #6097af;
      }

      .cls-35 {
        fill: #f4f1f2;
      }

      .cls-36 {
        fill: #aaaaaf;
      }

      .cls-37 {
        fill: #7497aa;
      }

      .cls-38 {
        fill: #49789d;
      }

      .cls-39 {
        fill: #2f425f;
      }

      .cls-40 {
        fill: #5992ad;
      }

      .cls-41 {
        fill: #c9bdb4;
      }

      .cls-42 {
        fill: #211b2e;
      }

      .cls-43 {
        fill: #622a1d;
      }

      .cls-44 {
        fill: #98baca;
      }

      .cls-45 {
        fill: #316590;
      }

      .cls-46 {
        fill: #4b6d85;
      }

      .cls-47 {
        fill: #326590;
      }

      .cls-48 {
        fill: #af6632;
      }

      .cls-49 {
        fill: #40779e;
      }

      .cls-50 {
        fill: #8391a3;
      }

      .cls-51 {
        fill: #68a3bb;
      }

      .cls-52 {
        fill: #8a8eaa;
      }

      .cls-53 {
        fill: #7389a3;
      }

      .cls-54 {
        fill: #4b799d;
      }

      .cls-55 {
        fill: #726770;
      }

      .cls-56 {
        fill: #989ca4;
      }

      .cls-57 {
        fill: #8b90ac;
      }

      .cls-58 {
        fill: #d0d0ce;
      }

      .cls-59 {
        fill: #bfc6cb;
      }

      .cls-60 {
        fill: #f9d219;
      }

      .cls-61 {
        fill: #396891;
      }

      .cls-62 {
        fill: #5390ae;
      }

      .cls-63 {
        fill: #959dab;
      }

      .cls-64 {
        fill: #4f8cab;
      }

      .cls-65 {
        fill: #241829;
      }

      .cls-66 {
        fill: #c76e64;
      }

      .cls-67 {
        fill: #f9d415;
      }

      .cls-68 {
        fill: #c8bdb4;
      }

      .cls-69 {
        fill: #8ebcc8;
      }

      .cls-70 {
        fill: #65a1b9;
      }

      .cls-71 {
        fill: #69a4bb;
      }

      .cls-72 {
        fill: #457ea3;
      }

      .cls-73 {
        fill: #b5b2c4;
      }

      .cls-74 {
        fill: #e2d2bf;
      }

      .cls-75 {
        fill: #a9d6e3;
      }

      .cls-76 {
        fill: #cd867f;
      }

      .cls-77 {
        fill: #ac929a;
      }

      .cls-78 {
        fill: #311b23;
      }

      .cls-79 {
        fill: #c56e2c;
      }

      .cls-80 {
        fill: #4f89ab;
      }

      .cls-81 {
        fill: #4f87a7;
      }

      .cls-82 {
        fill: #fa9973;
      }

      .cls-83 {
        fill: #e9e3db;
      }

      .cls-84 {
        fill: #40171c;
      }

      .cls-85 {
        fill: #612a1d;
      }

      .cls-86 {
        fill: #1f2e4d;
      }

      .cls-87 {
        fill: #4b566f;
      }

      .cls-88 {
        fill: #193356;
      }

      .cls-89 {
        fill: #4681a4;
      }

      .cls-90 {
        fill: #5796b0;
      }

      .cls-91 {
        fill: #a5d3e0;
      }

      .cls-92 {
        fill: #336691;
      }

      .cls-93 {
        fill: #7dafc0;
      }

      .cls-94 {
        fill: #1f3759;
      }

      .cls-95 {
        fill: #173155;
      }

      .cls-96 {
        fill: #274c74;
      }

      .cls-97 {
        fill: #b4b1c2;
      }

      .cls-98 {
        fill: #a9d7e3;
      }

      .cls-99 {
        fill: #bdd2d0;
      }

      .cls-100 {
        fill: #326691;
      }

      .cls-101 {
        fill: #72a6bb;
      }

      .cls-102 {
        fill: #5086a7;
      }

      .cls-103 {
        fill: #588eaa;
      }

      .cls-104 {
        fill: #38668e;
      }

      .cls-105 {
        fill: #5d515b;
      }

      .cls-106 {
        fill: #7c2e17;
      }

      .cls-107 {
        fill: #ebe4cd;
      }

      .cls-108 {
        fill: #7498ac;
      }

      .cls-109 {
        fill: #649ab5;
      }

      .cls-110 {
        fill: #ef8770;
      }

      .cls-111 {
        fill: #3e688f;
      }

      .cls-112 {
        fill: #4c6c84;
      }

      .cls-113 {
        fill: #deecf3;
      }

      .cls-114 {
        fill: #326793;
      }

      .cls-115 {
        fill: #969eac;
      }

      .cls-116 {
        fill: #326692;
      }

      .cls-117 {
        fill: #3b739c;
      }

      .cls-118 {
        fill: #a05f63;
      }
    </style>
  </defs>
  <g id="Layer_1-2" data-name="Layer_1">
    <g>
      <path class="cls-69" d="M225.36,118.36c1.35,2.45.24,5.55,2.11,7.86v14.94c-2.18,3.81-2.19,8.47-4.76,12.13-.68-1.22-1.47-.43-2.24-.13-2.26-2.99-6.59-1.46-9-4.1,6.08-5.93,10.24-12.71,11.29-21.43.37-3.03-.36-6.79,2.6-9.27Z"/>
      <path class="cls-13" d="M68.51,34.73c.18-2.9,1.96-2.91,4.69-1.75-2.96-5.57.76-4.14,3.42-4.61,1.88-.33,7.17,4.48,5.48-2.92-.21-.9,1.13-1.02,1.9-.6,1.36.74,2.09,2.03,2.84,3.35,3.47,6.13,8.78,7.93,15.61,5.4,4.16,2.05,9.08,1.42,13.15,3.78.23.11.48.17.74.2,2.33,3.09,5.11,5.72,8.18,8.05.97.96,1.95,1.92,2.92,2.88,1.62,2.02,3.23,4.03,4.85,6.05,1.81,3.45,3.36,7.04,6.06,9.95.4.96.79,1.92,1.19,2.88.34,2.4,2.95,4.45,1.11,7.19-.93-.41-1.18-1.23-1.29-2.13-1.17-2.71-2.32-5.42-3.52-8.12-.61-1.38-1.36-2.62-3.12-2.8-3.09-.31-6.18-.69-9.27-1.04-4.78-3.82-9.81-7.08-16.33-6.32-1.35.16-3.46-.26-3.82,1.5-.43,2.06,1.71,2.4,3.13,3.08-.34,2.77-2.51,2.33-4.46,2.81-10.38,2.59-20.85-1.9-31.3.77-4.89,1.25-10.23-.48-15.35.89-1.79.48-3.6-.56-3.92-2.86.68-.44,1.35-.91,2.04-1.33,1.5-.92,4.11-1.6,3.55-3.49-.57-1.9-3.15-1.85-5.14-1.62-6.33.73-11.87,2.89-15.44,8.57-3.2,1.42-6.73,1.22-10.06,1.95,4.42-11.54,12.53-19.33,23.97-23.99,5.92-2.41,12.46-2.75,18.17-5.72ZM73.08,46.83c5.7-1.78,12.75-.4,16.32-6.87-4.27,5.2-12.73.23-16.32,6.87Z"/>
      <path class="cls-107" d="M159.51,136.26c5.21-7.09,12.79-11.37,19.72-16.39,4.95-3.59,9.9-7.17,14.2-11.53,5.76-5.84,9.17-12.88,9.98-21.06.3-2.99,1.23-3.3,3.77-1.81,3.3,1.94,5.41,4.78,7.26,7.95-1.7,1.49.19,2.25.69,3.26,5.1,10.24,7.29,20.76,3.38,31.97-1.93,5.56-5.48,10.08-8.95,14.68-2.84,3.4-6.03,6.28-11.02,7.55,1.04-4.53,2.68-8.5,1.62-13.1-4.57,5.26-10.31,8.01-16.16,10.87-.56-2.25,1.54-3.83.77-5.86-4.51,1.94-8.94,3.8-13.33,5.74-1.58.7-2.61.86-2.07-1.41,1.56-3.48,3.12-6.95,5.29-11.8-4.43,1.99-7.45,3.35-10.39,4.67-1.53-2,1.1-3.74-.37-5.45-1.78-.32-2.66,1.81-4.39,1.7Z"/>
      <path class="cls-90" d="M36.5,164.04c1.3-3.29-.43-6.48-.34-9.75.14-5.4.37-10.77,1.14-16.11,2.42.21,4.99-.74,7.22.93-4.35.22-3.28,3.06-2.49,5.47.42,1.29,1.53,2.35,2.33,3.51.1.37.2.75.29,1.12-.1.97-.19,1.94-.29,2.91-2.55,4.87,1.18,8.77,1.81,13.13,1.45,9.98,7.04,16.67,14.97,21.66,3.71,2.33,6.47,4.72,7.25,9.05.96,8.34,2.02,16.68-.92,24.88,0,0,0,0,0,0-3.93,1.24-7.96,1.02-11.99.92-.09-.66-.6-1.73-.94-1.45-2.76,2.3-5.97,1.31-9.02,1.47-.3-.26-.6-.52-.9-.78-5.07-.79-5.64-2.9-2.18-8.11,4.38.26,8.46-2.09,13.21-1.42-5.01.13-4.28-3.89-5.1-6.43-4.08-12.63-7.99-25.32-11.93-38-.63-2.01-.95-1.07-1.32.08l-1.09-2.72.27-.34Z"/>
      <path class="cls-5" d="M51.42,60.37c.32,2.3,2.13,3.34,3.92,2.86,5.12-1.37,10.47.36,15.35-.89,10.45-2.67,20.92,1.82,31.3-.77,1.95-.49,4.11-.04,4.46-2.82,5.8,2.67,11.45,5.82,18.6,5.68-.62-1.55-1.1-2.74-1.58-3.93,3.09.35,6.18.73,9.27,1.04,1.77.18,2.51,1.42,3.12,2.8,1.2,2.7,2.35,5.41,3.52,8.12-5.3.25-10.68-.75-15.89.99-1.21-2.31-3.33-3.63-5.46-4.91-6.98-4.2-12.73-2.46-15.58,4.66-.22.21-.48.31-.79.33-4.53.21-8.98-.13-13.17-2.06,0-.33,0-.67-.01-1-.15-1.55.58-3.59-1.83-4.01-4.23-.74-8.13-7.18-12.86-.72-.49.67-1.96-1.19-2.98-.18.51,3.09,1.87,5.84,1.65,8.89-2.83,4.15-6.19,7.28-11.81,5.97-.11-.58-.22-1.16-.34-1.74-.49-1.04-.99-2.09-1.48-3.13-.49-.96-.97-1.92-1.46-2.88-.57-3.92-3.42-5.78-6.84-6.03-4.76-.35-8.69,1.64-10.95,6.14-2.71,2.8-4.36,6.29-6.22,9.64-4.93,0-9.85.01-14.78.02.27-1.57.55-3.14.82-4.71.08-1.17-.17-2.44.99-3.29,3.16-1.29,2.18-4.95,4.02-6.99.65-.99,1.3-1.99,1.95-2.98,3.34-.73,6.86-.53,10.06-1.95.29,2.25,1.68,1.95,3.25,1.45,3.9-1.23,7.82-2.39,11.73-3.57Z"/>
      <path class="cls-44" d="M44.52,139.1c-2.23-1.67-4.8-.72-7.22-.93-10.13-4.87-21.44-7.34-30.36-14.69-.51-.42-1.13-.7-1.66-1.1q-6.98-5.18-.32-10.64c.3-.25.25-.91.36-1.38,1.61.87,1.16,2.85,2.19,4.03,3.73,4,8.81.64,13.05,2.28-1.95,3.29-6.39,2.38-8.71,5.1,32.7,20.09,107.92,19.62,136.37-.98-4.55-.93-9.06-1.31-12.89-4.17,5.25-1.4,10.75,1.56,15.22-2.38,1.38-.57,2.28-2.12,4.02-1.97,2.62.38,4.98,1.51,5.58,4.15.62,2.71-1.99,4.06-3.75,5.3-7.97,5.63-16.84,9.62-25.85,13.3-1.5.61-3.22.79-4.27,2.25-.62-.02-1.23-.03-1.85-.05-1.67.31-3.35.62-5.02.93-6.96,1.17-13.86,2.79-20.95,3.11-10.62,1.74-21.32.52-31.97.92-6.99-1.04-14.11-1.25-21-2.98-.33-.02-.65-.06-.97-.1Z"/>
      <path class="cls-90" d="M124.43,137.23c.62.02,1.23.03,1.85.05,1.6,7.3,1.19,14.71,1.15,22.09,0,1.64-.37,3.31,1.14,4.55-1.69,1.69-1.83,3.93-2.2,6.09-3.05,1.9-4.08,5.06-5.08,8.2-3.32,10.47-6.6,20.95-9.89,31.43-1.2.51-2.78-.25-4.11,1.14,3.97.4,7.65-.09,11.19,1.09,3.86,1.29,6.36,3.47,5.9,7.91-1.49,1-3.17,1.11-4.89,1.06-3.14,1.68-7.4-.41-10.02,2.98-1.27-1.88-3.13-2.11-5.22-2.05-2.3.07-4.68.38-6.8-.93,0,0,0,0,0,0-.79-1.5-.83-3.13-1.01-4.79-.81-7.38-.37-14.73.13-22.09,1.3-1.93,1.19-4.48,4.08-5.72,13.64-5.85,18.66-17.35,19.79-31.19,1.97-6.48,3.17-13.12,3.99-19.83Z"/>
      <path class="cls-93" d="M169.37,147.14c-.54,2.26.48,2.11,2.07,1.41,4.39-1.94,8.82-3.8,13.33-5.74.77,2.02-1.33,3.61-.77,5.86,5.86-2.86,11.59-5.61,16.16-10.87,1.06,4.6-.58,8.56-1.62,13.1,4.99-1.26,8.18-4.15,11.02-7.55,1.31.91.73,1.99.31,3.08-.61,1.56-.33,2.61,1.6,2.65,2.42,2.64,6.75,1.11,9,4.09-1.13,2.68-4.65,3.64-5.01,6.87-1.65,1.02-3.3,2.04-4.96,3.05-5.46-1.3-10.87-3.07-16.41-3.75-4.49-.55-9.01-4.16-13.75-.5-.67.52-1.56-.26-1.83-1.15-.45-1.48-1.69-2.11-2.96-2.38-8.56-1.77-17.15-3.45-25.72-5.15.55-2.38,1.89-4.3,3.52-6.05,5.63-.49,10.77,1.55,16.02,3.03Z"/>
      <path class="cls-101" d="M149.83,150.15c8.58,1.71,17.16,3.38,25.72,5.15,1.28.26,2.51.9,2.96,2.38.27.89,1.16,1.67,1.83,1.15,4.74-3.66,9.26-.05,13.75.5,5.54.68,10.95,2.45,16.41,3.75-2.88,3.5-5.76,6.99-10.02,8.96-7.33-3.32-14.93-5.4-23.07-4.98h-1.89c-3.27-2.7-6.82-3.92-10.94-1.99-1.04-1.6-2.08-.42-3.13-.02-5.19-1.18-10.15-4.14-15.77-2.01.49-4.58,2.19-8.78,4.14-12.89Z"/>
      <path class="cls-11" d="M14.41,71.56c-8.47-10.7-7.73-23.21-6.52-35.57,1.08-11.04,4.51-21.6,8.52-31.97,1.64-4.24,3.56-5.02,7.31-2.64,13.59,8.63,25.04,19.54,34.9,32.17-2.85,1.61-5.96,2.03-9.16,2.05-3.77-2.12-5.47-6.81-10.02-7.95-4.54-7.41-9.78-14.31-15.55-20.81-1.13-1.27-2.17-3.39-4.27-2.76-1.97.59-2.03,2.76-2.37,4.51-2.72,5.64-4.22,11.69-5.4,17.75-1.83,9.37-2.55,18.83.71,28.12-1.81,1.83-.68,3.92-.69,5.98-.04,3.96,3.55,7.01,2.55,11.12Z"/>
      <path class="cls-21" d="M200.49,172.04c4.26-1.97,7.14-5.46,10.02-8.96,1.65-1.02,3.3-2.04,4.96-3.05-.33,2-.67,4-1,6.01,0,0,0,0,0,0-1.05.04-2.03.36-2.63,1.21-6.29,8.92-12.59,17.83-18.75,26.84-1.21,1.78-.91,3.55,1.77,3.93-5.21,4.82-11.6,7.13-18.38,8.63,0-.28-.01-.55-.03-.83-1.04-1.43-2.59-.8-3.94-.96.65-3.01,3.29-4.73,4.72-7.23,2.78-4.87,7.57-8.63,8.26-14.66,1.33-.99,2.66-1.99,4-2.98,3.86-2.39,8.16-4.18,11.02-7.94Z"/>
      <path class="cls-51" d="M7.51,114.39c-1.03-1.18-.58-3.16-2.19-4.03-4.05-4-4.17-5.31.16-7.87,7.75-4.59,11.45-11.62,13.11-20.07,4.93,0,9.85-.01,14.78-.02.22.75-.03,1.73.99,2.11-1.24,3.27-1.46,6.57-.13,9.88.06.64.12,1.29.18,1.93-10.87-1.83-16.49,9.22-26.89,9.78,2.77,2.86,5.59,2.94,8.75,3.53-3.03,2.36-5.75,3.8-8.75,4.75Z"/>
      <path class="cls-70" d="M154.56,112.27c-1.74-.15-2.64,1.4-4.02,1.97-2.4-1.41-5.11-2.4-7.52-4.95,3.81.14,6.67-.49,9.62-2.97-7.2-2.3-13.19-5.4-19.05-8.79-2.26-1.3-4.66-1.65-7.19-.85,1-4.02.98-8.12.84-12.22,5.08.37,10.05-.72,15.08-1.05,1.83,8.83,6.24,15.84,14.64,19.76,2.68,1.25,2.27,2.43,1.01,4.46-1.03,1.65-3.26,2.39-3.4,4.63Z"/>
      <path class="cls-90" d="M115.62,37.4c-4.07-2.36-8.99-1.73-13.15-3.78,9.79-12.92,21.53-23.7,35.29-32.33,3.47-2.17,5.35-1.74,6.24,2.45.5,2.39,1.56,4.67,2.37,6.99-.38.02-.75.04-1.13.06-.35-.65-.71-1.3-1.06-1.96-2.4-6.04-2.18-5.79-6.83-1.77-7.32,6.32-11.78,14.61-16.7,22.62-3.33,1.5-6.82,2.91-5.03,7.72Z"/>
      <path class="cls-114" d="M172.5,204.86c1.35.16,2.9-.47,3.94.96-2.95-.1-5.94.02-8.86-.34-7.16-.9-14.16.88-21.25.98-1.51.02-1.77,1.22-1.85,2.44-4.38.24-8.7-.24-13-1.02,2.15-4.32,6.47-7.19,8-11.91,7.32-1.33,14.65-2.66,21.97-3.98-.2,2.21-1.38,4.03-2.52,5.79-2.15,3.31-.96,4.49,2.54,5.2,3.67.74,7.52.39,11.04,1.9Z"/>
      <path class="cls-103" d="M194.84,198.03c-2.68-.38-2.98-2.16-1.77-3.93,6.16-9.01,12.47-17.92,18.75-26.84.6-.85,1.58-1.17,2.63-1.21-2.25,2.68-2.13,4.14,1.89,4.11,1.78-.01,3.56.63,5.67,1.03-3.86,9.19-11.6,13.5-19.63,17.6-1.25.64-5.98-.6-2.81,4.06.77,1.13-2.78,3.66-4.74,5.18Z"/>
      <path class="cls-102" d="M145.24,10.8c.38-.02.75-.04,1.13-.06,5.97,14.85,9.11,30.09,6.11,46.09-1.36,7.25-4.16,13.93-9.03,19.61-1.32-.03-2.36-.48-2.79-1.84,1.84-2.73-.76-4.79-1.11-7.19,1.58-1.75,5.39-1.32,4.96-5.03,3.05-3.38.96-7.37,1.1-11.15,1.6.39.92,2.64,2.83,2.64,1.43-6.42,2.65-12.85,1.71-19.49-1.13-7.96-2.71-15.83-4.92-23.57Z"/>
      <path class="cls-96" d="M126.38,170.01c.37-2.16.51-4.4,2.2-6.09.31-.02.61.03.9.16-.01,2.97-.02,5.93-.03,8.9-1.39,5.23-1.89,10.57-1.99,15.95-2.29,7.16-1.99,14.54-1.95,21.9-3.16.5-6.12-.66-9.16-1.1.22-1.3.38-2.61.66-3.89,2.62-12.07,7.54-23.55,9.38-35.82Z"/>
      <path class="cls-72" d="M37.22,210.71c-5.82-6.17-11.04-12.69-12.89-20.5,1.06-2.94,2.48,4.74,2.99-1.04,1.16-1.58,2.8-2.16,4.7-2.22,3.23-.09,4.85-1.63,4.45-4.96,2.58,8.1,3.21,16.43,3.05,24.86-.28,1.57.7,3.89-2.3,3.85Z"/>
      <path class="cls-62" d="M36.47,182c.4,3.33-1.22,4.87-4.45,4.96-1.89.06-3.53.64-4.7,2.22-4.02-7.24-4.16-14.49.72-21.28,1.86-2.58,4.22-5.7,8.46-3.86,0,0-.27.34-.27.34-2.36,5.9.43,11.74.24,17.61Z"/>
      <path class="cls-109" d="M145.7,163.04c5.62-2.12,10.58.83,15.77,2.01-1.36,3.01-2.73,6.02-4.09,9.02-4.92,2.6-9,8.54-15.75,3.97-.49-1.81,1.7-2.55,1.68-4.18.8-3.61,1.6-7.22,2.4-10.83Z"/>
      <path class="cls-99" d="M211.47,149.07c-1.93-.05-2.21-1.1-1.6-2.65.42-1.08,1-2.17-.31-3.08,3.47-4.6,7.01-9.13,8.95-14.68,3.9-11.21,1.72-21.73-3.38-31.97-.51-1.01-2.39-1.77-.69-3.26,5.67,7.43,10.03,15.43,10.93,24.94-2.96,2.48-2.23,6.24-2.6,9.27-1.05,8.73-5.22,15.5-11.29,21.43Z"/>
      <path class="cls-19" d="M140.66,74.59c.43,1.36,1.47,1.81,2.79,1.84-2.62,1.97-.55,4.69-1.13,6.99-5.03.32-10,1.41-15.07,1.05-.29-.26-.59-.52-.88-.78.1-.89.08-1.74-.82-2.27.63-1.84-.71-3.22-1.14-4.81l-.91-3.16c5.21-1.74,10.59-.74,15.89-.99.11.9.35,1.72,1.28,2.13Z"/>
      <path class="cls-88" d="M99.36,227.98c-3.65-.32-6.71-1.74-10.02-3.5-3.99-2.12-9.43-2.54-13.7,0-3.57,2.13-7.09,3.35-11.13,3.48-.03-.38-.05-.76-.08-1.14,4.13-.43,2.76-3.64,3.06-6,0,0,0,0,0,0,2.88.17,5.25-1.63,7.97-2.08,4.99.02,9.97.03,14.96.05,2.22,1.14,4.4,2.36,7.04,2.05,0,0,0,0,0,0-.84,2.77,1.77,4.63,1.91,7.15Z"/>
      <path class="cls-117" d="M125.5,210.83c-.04-7.36-.34-14.75,1.95-21.9-.26,4.55,3.52,4.15,6.24,5.05.08.57-.54,1.96.84,1.22,2.04-1.09,2.9-3.34,4.16-5.18,3.89,1.51-.34,4.07.78,5.94-1.53,4.73-5.85,7.6-8,11.91-.66.64-1.31,1.28-1.97,1.92-.04.4-.08.8-.12,1.19-1.29-.05-2.58-.11-3.87-.16,0,0,0,0,0,0Z"/>
      <path class="cls-18" d="M49.46,35.6c3.2-.03,6.32-.45,9.16-2.05,3.13,1.83,6.63.51,9.89,1.18-5.71,2.98-12.25,3.32-18.17,5.72-11.44,4.66-19.55,12.46-23.97,23.99-.65.99-1.3,1.99-1.95,2.98-.36-.35-.72-.71-1.07-1.06-.02-.29-.04-.58-.07-.86,2.97-7.57,7.23-14.3,13.18-19.92,2.15-1.24,4.24-2.6,6.46-3.69,1.99-.97,2.99-2.07,1.55-4.19,1.66-.7,3.33-1.4,4.99-2.1Z"/>
      <path class="cls-113" d="M46.46,227.82c-5.69,2.6-11.23-.3-16.83-.6-3.04-.17-6.02-1.49-9-2.39-.93-.28-1.85-.91-1.78-2.09.07-1.16,1.04-1.52,1.99-1.89,2.72-1.07,6.29-.49,7.83-3.91-.02.95-.03,1.91-.05,2.86.15,2.93,2.19,2.08,3.89,1.92.25.13.52.2.81.22,1.99,1.69,5.02-.3,6.87,1.91,1.32,2.56,3.82,2.83,6.27,3.23-.07.25-.06.49.01.74Z"/>
      <path class="cls-32" d="M23.28,65.51c.03.29.05.58.07.86-1.86,2.36-2.54,5.16-2.95,8.05-1.16.85-.91,2.12-.99,3.29-2.28-1.55-4.26-3.35-5-6.15,1-4.11-2.59-7.16-2.55-11.12.02-2.06-1.12-4.15.69-5.97,1.71-.8,1.17-3.12,2.9-4.26-.17,4.1-2.2,8.09.22,11.47,3.1.81-.12-4.5,3.61-2.9.54,2.71,1.36,5.26,4,6.73Z"/>
      <path class="cls-9" d="M169.37,147.14c-5.25-1.48-10.39-3.52-16.02-3.03,1.34-3.17,3.95-5.35,6.15-7.85,1.73.11,2.62-2.03,4.39-1.7,1.47,1.71-1.15,3.45.37,5.45,2.94-1.32,5.97-2.68,10.39-4.67-2.17,4.85-3.73,8.33-5.29,11.8Z"/>
      <path class="cls-64" d="M129.44,172.97c.01-2.97.02-5.93.03-8.9.96.05,1.92.09,2.88.14,5.79,4.69,8.69,10.38,6.22,17.91-.63-1.29-1.61-2.22-3.1-2.09-5.41.48-6.54-2.58-6.04-7.06Z"/>
      <path class="cls-24" d="M144.47,208.89c.08-1.22.35-2.42,1.85-2.44,7.09-.09,14.09-1.87,21.25-.98,2.92.37,5.9.24,8.86.34.02.28.03.55.03.83-10.55,2.41-21.14,4.19-31.99,2.24Z"/>
      <path class="cls-46" d="M40.19,223.85c-1.85-2.2-4.87-.22-6.87-1.91,1.06-2.77,2.11-5.55,3.17-8.32.54-.89.56-1.79.03-2.69.2-.17.43-.24.7-.22,2.99.03,2.02-2.28,2.3-3.85,1.12,2.04,1.61,4.86,5.04,4.06-.7.65-1.4,1.3-2.1,1.95-3.46,5.2-2.89,7.32,2.18,8.1.38,3.82-1.76,3.77-4.45,2.87Z"/>
      <path class="cls-54" d="M129.38,210.99c.04-.4.08-.8.13-1.19,3.67.63,7.51-.22,11.09,1.23,1.98.8,3.84,1.77,4.85,3.81-2.75,4.14-3.47,4.1-7.54-.71.78,5.3-2.34,2.96-4.43,2.71-.82-2.32-2.55-4.02-4.1-5.84Z"/>
      <path class="cls-75" d="M138.58,182.13c2.47-7.53-.43-13.22-6.22-17.91,3.85-.43,5.84,1.84,7.63,4.82.99,1.65.57,4.37,3.31,4.84.02,1.62-2.17,2.36-1.68,4.17.35,4.31-1.39,8.12-2.93,11.98-1.27,1.83-2.12,4.08-4.16,5.18-1.38.74-.75-.66-.84-1.22,3.15-3.33,4.88-7.24,4.88-11.85Z"/>
      <path class="cls-26" d="M133.48,216.83c2.09.24,5.21,2.59,4.43-2.71,4.07,4.82,4.79,4.85,7.54.71.89,2.49,5.55,5.35-.72,7.11-3.81-.1-7.62-.21-11.43-.31.05-1.25.1-2.51.15-3.76.01-.35.02-.7.03-1.05Z"/>
      <path class="cls-47" d="M99.36,227.98c-.14-2.51-2.75-4.37-1.91-7.15,2.13,1.32,4.5,1,6.8.93,2.09-.06,3.95.17,5.22,2.05,0,.98.01,1.95.02,2.93-2.37,1.93-5.55.18-8,1.73-.76.06-1.55.23-2.13-.49Z"/>
      <path class="cls-112" d="M109.49,226.74c0-.98-.01-1.95-.02-2.93,2.62-3.39,6.89-1.3,10.02-2.98.02,2.04.03,4.07.05,6.11-2.17,1.43-4.66,1.49-7.13,1.62-.98-.61-1.95-1.21-2.93-1.82Z"/>
      <path class="cls-46" d="M46.46,227.82c-.08-.25-.08-.49-.01-.74-.62-1.72-1.33-3.42-.91-5.32,3.05-.15,6.26.83,9.02-1.47.34-.28.85.79.94,1.45.01,1.71.05,3.43-1.04,4.92-3.06.61,0,1.29-.02,1.93-2.66-.26-5.31-.52-7.97-.78Z"/>
      <path class="cls-104" d="M119.55,226.95c-.02-2.04-.03-4.07-.05-6.11,1.72.05,3.4-.06,4.89-1.06,2.36,3.52,5.9,1.41,8.9,1.86,3.81.1,7.62.21,11.43.31-4.02,1.53-8.19.51-12.28.64-3.63.12-7.21-.31-9.73,3.23-.53.75-2.08.77-3.16,1.13Z"/>
      <path class="cls-103" d="M214.47,166.04c.33-2,.67-4,1-6.01.36-3.24,3.88-4.19,5.01-6.87.77-.29,1.56-1.08,2.24.13-1.43,5.09-4.31,9.26-8.25,12.74Z"/>
      <path class="cls-34" d="M36.52,210.93c.53.9.51,1.8-.03,2.69-2.72.06-2.96,2.53-4.08,4.15-1.8-.32-2.82.79-3.78,2.03.02-.95.03-1.91.05-2.86,1.83-3.01,3.77-5.89,7.84-6.01Z"/>
      <path class="cls-87" d="M54.43,228.59c.03-.64-3.04-1.32.02-1.93,3.3,1.74,6.62,1.55,9.97.17.03.38.05.76.08,1.14-3.28,1.48-6.7.71-10.07.62Z"/>
      <path class="cls-2" d="M109.49,226.74c.98.61,1.95,1.21,2.93,1.82-3.65.3-7.29.45-10.93-.1,2.46-1.55,5.63.2,8-1.73Z"/>
      <path class="cls-100" d="M123.47,60.51c.48,1.19.95,2.38,1.58,3.93-7.15.13-12.8-3.01-18.6-5.68-1.42-.67-3.56-1.02-3.13-3.08.37-1.76,2.48-1.34,3.82-1.5,6.52-.76,11.55,2.5,16.33,6.32Z"/>
      <path class="cls-116" d="M51.42,60.37c-3.91,1.19-7.83,2.35-11.73,3.57-1.58.5-2.96.8-3.25-1.45,3.57-5.67,9.1-7.84,15.44-8.57,1.99-.23,4.57-.28,5.14,1.62.56,1.9-2.05,2.57-3.55,3.49-.69.43-1.36.89-2.04,1.33Z"/>
      <path class="cls-66" d="M138.37,64.52c-2.7-2.91-4.26-6.5-6.06-9.95.56-3.8-2.6-5.11-4.79-7.07.56-1.34,2.13-2.18,1.93-3.89,2.15-3.62-2.39-2.33-2.94-3.97,5.85.37,6.68,1.39,4.73,5.89-.45,1.04.25,1.61.84,2.07,3.84,2.98,5.86,7.48,9.24,10.84.14,2.57-1.86,4.1-2.94,6.08Z"/>
      <path class="cls-77" d="M126.51,39.65c.55,1.64,5.09.35,2.94,3.97-1.92,0-4.02-.44-4.91,2.03-3.07-2.34-5.86-4.96-8.18-8.05.41-.34.82-.69,1.23-1.03,2.11,1.18,4.34,1.98,6.78,2.11.5.8,1.32.89,2.15.97Z"/>
      <path class="cls-27" d="M73.08,46.83c3.59-6.63,12.05-1.67,16.32-6.87-3.57,6.47-10.62,5.09-16.32,6.87Z"/>
      <path class="cls-61" d="M138.37,64.52c1.08-1.98,3.09-3.51,2.94-6.08.35-.94.87-2.04,1.71-.5.74,1.35,1.02,2.94,1.5,4.43.43,3.71-3.38,3.29-4.96,5.03-.4-.96-.79-1.92-1.19-2.88Z"/>
      <path class="cls-111" d="M117.58,36.57c-.41.34-.82.69-1.23,1.03-.26-.02-.51-.09-.74-.2-1.78-4.81,1.7-6.21,5.03-7.72-.09,2.71-1.83,4.68-3.07,6.89Z"/>
      <path class="cls-17" d="M124.54,45.65c.89-2.46,2.99-2.03,4.91-2.03.2,1.71-1.37,2.55-1.93,3.89-.02.34-.04.68-.06,1.02-.97-.96-1.95-1.92-2.92-2.88Z"/>
      <path class="cls-118" d="M127.46,48.53c.02-.34.04-.68.06-1.02,2.19,1.95,5.35,3.26,4.79,7.06-1.62-2.02-3.23-4.03-4.85-6.05Z"/>
      <path class="cls-74" d="M44.66,149.21c-.1-.37-.2-.75-.29-1.12.34-.68.67-1.37,1.01-2.05,8.2,3.06,17.18,4.79,24.26,9.9,8.33,6.01,15.43,6.11,22.78-.83.35-.33.72-.65,1.08-.98,1.99-.67,3.98-1.34,5.97-2,1.91,2.62.07,5.12-.44,7.57-.42,2.01-.94,3.92.18,5.75,2.02,3.3,1.23,6.31-.63,9.31-3.32,5.35-7.01,10.42-11.4,14.95-4.91,5.06-5,5-9.74-.71,1.58-1.6,1.46-3.27-.31-4.44-1.25-.82-1.49.54-1.73,1.46-6.54-4.65-10.39-11.43-14.15-19.07-1.23,2.97-.75,5.08-.73,7.13.03,2.31,2.19,4.63-.07,6.92-4.31-3.38-5.59-8.21-6.26-13.41-1.54,1-.12,3.56-2.6,3.95-4.03-5.74-3.42-12.03-2.21-18.4.82-1.97-1.32-1.18-1.82-1.93-.07-1.98-1.37-2.18-2.93-2.01ZM60.52,157.97c-.96-1.49-.16-4.42-2.76-5.39-1.14-.43-1.39,1.2-1.24,2.13.36,2.21.32,4.86,2.72,5.88,1.17.5,1.13-1.19,1.28-2.62Z"/>
      <path class="cls-96" d="M44.56,210.92c-3.43.8-3.92-2.02-5.04-4.06.16-8.43-.46-16.77-3.05-24.86.19-5.87-2.6-11.71-.24-17.61.36.91.73,1.81,1.09,2.72.25,1.46.34,2.96.76,4.36,3.42,11.33,6.78,22.67,10.42,33.92,1.31,4.04.71,6.04-3.94,5.53Z"/>
      <path class="cls-81" d="M49.4,153.14c-1.22,6.37-1.82,12.66,2.21,18.4,2.49-.39,1.06-2.94,2.6-3.95.67,5.19,1.96,10.02,6.26,13.41,1.93,1.63,3.86,3.25,5.8,4.88,1.86,1.2.83,3.66,2.22,5.07-.03,1.67-.06,3.34-.09,5.01-.78-4.33-3.55-6.72-7.25-9.05-7.94-4.99-13.53-11.68-14.97-21.66-.63-4.35-4.36-8.26-1.81-13.13.34.42.67.84,1.01,1.26.16.93-.12,2.28,1.24,2.34,1.6.07,1.71-1.85,2.79-2.57Z"/>
      <path class="cls-45" d="M68.41,195.95c.03-1.67.06-3.34.09-5.01,1.37.56,2.22,2.14,3.96,2,.24,4.92.8,9.83,1.31,14.7.38,3.65-.14,7.61,1.69,11.1-2.72.45-5.08,2.25-7.97,2.08,2.94-8.2,1.89-16.54.92-24.88Z"/>
      <path class="cls-91" d="M44.56,210.92c4.65.51,5.25-1.48,3.94-5.53-3.64-11.26-7-22.6-10.42-33.92-.42-1.4-.51-2.91-.76-4.36.37-1.15.7-2.09,1.32-.08,3.94,12.68,7.85,25.37,11.93,38,.82,2.54.09,6.56,5.1,6.43-4.75-.67-8.83,1.67-13.21,1.42.7-.65,1.4-1.3,2.1-1.95Z"/>
      <path class="cls-45" d="M64.43,226.83c-3.35,1.38-6.68,1.57-9.97-.17,1.09-1.48,1.05-3.2,1.04-4.92,4.03.11,8.07.32,11.99-.92-.3,2.37,1.07,5.57-3.06,6Z"/>
      <path class="cls-92" d="M45.38,146.03c-.34.68-.67,1.37-1.01,2.05-.8-1.16-1.91-2.23-2.33-3.51-.79-2.41-1.86-5.25,2.49-5.47.32.04.65.08.97.1-.04,2.28-.08,4.55-.12,6.83Z"/>
      <path class="cls-86" d="M45.54,221.76c-.41,1.9.3,3.6.91,5.32-2.44-.39-4.95-.67-6.27-3.23,2.69.9,4.83.95,4.45-2.87.3.26.6.52.9.78Z"/>
      <path class="cls-71" d="M60.65,80.42c5.62,1.31,8.97-1.82,11.81-5.97-.55,4.37-1.09,8.75-1.76,14.08,5.01-4.73,4.63-11.29,8.57-15.61,4.3,3.88,5.44,9.46,9.08,14.08.11-3.14.12-5.53-.43-8.01-.62-2.8-1.32-5.8.55-8.53,0,.33,0,.67.01,1,.13,7.96,1.37,8.97,10.94,8.96.06,1.63.13,3.25.19,4.88l.02,6.13c-.43,2.92.72,5.43,2.06,7.89-1.24,3.3-2.24.25-2.87-.28-7.68-6.43-16.2-9.24-26.17-6.58-4.27,1.14-7.8,3.49-11,6.39-2.33,2.12-2.18.26-2.26-1.32.77-2.56,1.31-5.15.91-7.85.04-1.76.08-3.52.12-5.29.08-1.33.15-2.66.23-3.98Z"/>
      <path class="cls-28" d="M88.47,70.46c-1.87,2.73-1.18,5.73-.55,8.53.55,2.48.54,4.87.43,8.01-3.63-4.62-4.77-10.2-9.08-14.08-3.94,4.31-3.55,10.87-8.57,15.61.67-5.34,1.21-9.71,1.76-14.08.22-3.05-1.14-5.79-1.65-8.89,1.02-1.01,2.49.85,2.98.18,4.73-6.46,8.63-.02,12.86.72,2.41.42,1.67,2.46,1.83,4.01Z"/>
      <path class="cls-19" d="M99.43,80.42c-9.58.01-10.81-1-10.94-8.96,4.19,1.93,8.64,2.27,13.17,2.06-.06.67-.11,1.34-.17,2.01-.69,1.63-1.37,3.26-2.06,4.89Z"/>
      <path class="cls-42" d="M34.35,84.52c-1.02-.39-.76-1.36-.99-2.11,1.86-3.35,3.51-6.83,6.22-9.64,5.91-4,11.83-5.17,17.79-.11.49.96.97,1.92,1.46,2.88-1.32,1.65-1.91-.15-2.7-.63-2.11-1.29-4.09-2.57-6.8-2.49-7.61.21-11.98,4.48-14.69,11.04-.1.36-.2.71-.29,1.07Z"/>
      <path class="cls-52" d="M34.65,83.46c2.72-6.55,7.09-10.83,14.69-11.04,2.71-.07,4.69,1.21,6.8,2.49.79.48,1.37,2.28,2.7.63.49,1.04.99,2.09,1.48,3.13-4.85-1.87-9.59-4.83-14.97-1.5-2.56-.59-4.47.51-6.31,2.18-1.49,1.35-1.76,4-4.39,4.11Z"/>
      <path class="cls-42" d="M101.49,75.53c.06-.67.11-1.34.17-2.01.3-.01.57-.12.79-.33,4.88-4.48,10.24-5.11,15.85-1.6,2.22,1.39,4.08,3.33,6.11,5.02.43,1.59,1.77,2.97,1.14,4.81-1.13-1.35-2.17-2.78-3.4-4.04-6.36-6.56-14.25-6.53-20.12.01-.18-.62-.35-1.24-.53-1.86Z"/>
      <path class="cls-108" d="M124.4,76.61c-2.03-1.69-3.89-3.63-6.11-5.02-5.61-3.51-10.97-2.87-15.85,1.6,2.85-7.12,8.6-8.85,15.58-4.66,2.13,1.28,4.26,2.6,5.46,4.91.3,1.05.61,2.11.91,3.16Z"/>
      <path class="cls-78" d="M45.35,77.17c5.38-3.33,10.12-.36,14.97,1.5.11.58.22,1.16.34,1.74-.08,1.33-.15,2.66-.23,3.98-2.76-3.76-5.83-6.94-11.16-5.8-1.59-.07-3.18-.14-4.78-.22.29-.41.57-.81.86-1.22Z"/>
      <path class="cls-37" d="M57.37,72.66c-5.96-5.06-11.88-3.89-17.79.11,2.26-4.5,6.19-6.49,10.95-6.14,3.42.25,6.26,2.11,6.84,6.03Z"/>
      <path class="cls-12" d="M20.4,74.42c.41-2.89,1.09-5.68,2.95-8.05.36.35.72.71,1.07,1.06-1.85,2.04-.86,5.7-4.02,6.99Z"/>
      <path class="cls-107" d="M59.39,97.54c.08,1.58-.07,3.43,2.26,1.32,3.2-2.91,6.74-5.25,11-6.39,9.97-2.67,18.5.14,26.17,6.58.63.53,1.63,3.58,2.87.28,4.11,2.11,8.32,2.76,12.71.88.44.96,1.35,1.08,2.24,1.27-1.61,1.4-3.87,1.82-5.27,3.59-2.78,3.5-1.68,7.85,2.65,8.9,3.18.77,6.58,1,9.74-.45,3.2-1.46,5.91-3.81,5.33-7.49-.61-3.93-4.01-4.83-7.64-4.69-.99.04-1.98-.06-2.98-.09,2.17-1.34,4.8-1.89,6.66-3.79.43-.25.85-.51,1.28-.76,2.52-.8,4.93-.46,7.19.85,5.86,3.39,11.85,6.49,19.05,8.79-2.95,2.48-5.81,3.11-9.62,2.97,2.42,2.56,5.12,3.54,7.52,4.95-4.48,3.94-9.98.98-15.22,2.38,3.84,2.86,8.34,3.23,12.89,4.17-28.44,20.6-103.66,21.07-136.37.98,2.32-2.72,6.75-1.81,8.71-5.1-4.23-1.64-9.31,1.72-13.05-2.28,3-.94,5.72-2.38,8.75-4.75-3.16-.59-5.98-.67-8.75-3.53,10.4-.56,16.02-11.61,26.89-9.78,1.59,1.74,3,3.68,5.16,4.81-1.44.36-2.86.79-4.31,1.07-2.32.45-4.11,1.63-4.54,3.96-.43,2.33.97,4.17,2.74,5.46,3.85,2.79,8.05,3.6,12.61,1.64,1.79-.77,3.1-1.85,3.38-3.87.3-2.26-.86-3.78-2.62-4.92-1.51-.98-3.35-1.46-4.47-3.02,1.02-.3,2.27.14,3.03-.97,4.63,1.47,8.62.26,12.18-2.83.61-.04,1.22-.08,1.84-.11ZM62.42,121.28c-1.85-.85-1.88-3.46-3.96-4.09.12-2.94-.14-5.76-2.95-9.14,0,3.54-.23,5.96.04,8.32,1.31,11.39,9.05,16.96,19.38,13.31,3.65-1.29,6.19-.74,9.25.82,6.74,3.45,12.79,2.11,18.32-3.79,4.66-4.98,5.35-12.46,1.73-18.58-2.51,2.67-.58,6.17-1.74,9.09-1.73.64-1.89,2.55-3.03,3.7-3.21,3.24-8.28,4.27-12.85,2.24-3.69-1.64-5.8-4.31-4.82-8.61,4.46-.97,7.8-3.6,10.24-7.28,1.5-2.27,2.42-4.83-.52-6.92-6.48-3.98-18.96-3.45-23.89,1.02-1.87,1.87-.72,3.76.18,5.45,1.51,2.85,4.13,4.69,6.69,6.53,1.57,3.99-.75,6.04-3.85,7.77-2.73,1.52-5.47-.12-8.2.16Z"/>
      <path class="cls-56" d="M45.38,146.03c.04-2.28.08-4.55.12-6.83,6.89,1.73,14.01,1.94,21,2.98.94,2.22,3.02,2.75,5.04,3.51,7.35,2.74,14.98,4.78,21.97,8.43-.36.33-.73.64-1.08.98-7.36,6.94-14.45,6.84-22.78.83-7.08-5.11-16.06-6.83-24.26-9.9Z"/>
      <path class="cls-50" d="M93.5,154.13c-7-3.66-14.62-5.7-21.97-8.43-2.02-.75-4.1-1.28-5.04-3.51,10.66-.4,21.36.82,31.97-.92-1.76,3.41,2.44,2.26,3.01,3.9,0,1.94,0,3.88,0,5.81l-2,1.15c-1.99.67-3.98,1.34-5.97,2Z"/>
      <path class="cls-53" d="M101.48,145.16c-.56-1.63-4.77-.48-3.01-3.9,7.09-.32,13.98-1.94,20.95-3.1-.3,1.65-.6,3.3-.89,4.95-.02.68-.05,1.36-.07,2.04-3.72,1.15-7.59,1.88-10.98,3.95-1.74-1.7-2.73-4.53-5.99-3.95Z"/>
      <path class="cls-100" d="M118.52,143.11c.3-1.65.6-3.3.89-4.95,1.67-.31,3.34-.62,5.02-.93-.82,6.71-2.02,13.35-3.99,19.83-1.25.22-.41,2.81-1.99,2.12-1.5-.65-.28-1.81.19-2.86,1.98-4.39,3.59-8.84-.12-13.21Z"/>
      <path class="cls-6" d="M118.52,143.11c3.71,4.37,2.1,8.82.12,13.21-.47,1.04-1.68,2.2-.19,2.86,1.58.69.74-1.91,1.99-2.12-1.13,13.84-6.15,25.34-19.79,31.19-2.89,1.24-2.78,3.79-4.08,5.72-.04-1.01-.07-2.01-.11-3.02.33-1.33.66-2.66.99-3.99,6.57-1.08,11.49-6.71,13.18-15.08,1.96,1.27,2.16-.56,2.63-1.59,1.83-4.04,1.02-8.35,1.26-12.56.05-.91-1.17-3.18,1.3-2.56,2.85.71,2.58-1.1,2.63-2.65.09-2.45,0-4.91-.02-7.36.02-.68.05-1.36.07-2.04Z"/>
      <path class="cls-38" d="M126.38,170.01c-1.84,12.28-6.76,23.75-9.38,35.82-.28,1.29-.44,2.6-.66,3.89-1.64-.03-3.29-.06-4.93-.09,3.29-10.48,6.57-20.96,9.89-31.43,1-3.15,2.02-6.31,5.08-8.2Z"/>
      <path class="cls-45" d="M96.46,190.95c.03,1.01.07,2.01.11,3.02-.49,7.36-.93,14.71-.12,22.09.18,1.65.22,3.28,1.01,4.79-2.64.31-4.83-.91-7.04-2.05.67-8.28,1.33-16.56,2-24.84.05-.33.09-.66.14-.99,1.33-.63,2.19-2.15,3.92-2.02Z"/>
      <path class="cls-95" d="M111.41,209.64c1.64.03,3.29.06,4.93.09,3.04.44,6,1.6,9.16,1.1,0,0,0,0,0,0-.04,7.94-.62,6.91,6.97,7.02.32,0,.65.02.97.03-.05,1.25-.1,2.51-.15,3.76-3.01-.44-6.55,1.66-8.9-1.86.46-4.43-2.03-6.62-5.9-7.91-3.54-1.18-7.22-.69-11.19-1.09,1.33-1.39,2.9-.62,4.11-1.14Z"/>
      <path class="cls-8" d="M200.49,172.04c-2.86,3.77-7.16,5.55-11.02,7.94-2.92-.65-5.85-1.3-8.77-1.94.04-.76.83-1.8-.12-2.22-2.1-.91-2.43,1.72-3.89,2.21-5.4-1.07-10.39-3.84-16.03-3.98,1.45-2.93,3.83-5.46,3.92-8.98,4.12-1.93,7.67-.71,10.94,1.99-.73,1.58-2.86,2.6-2.1,5.19,2.76-.93,3.74-2.77,3.99-5.19,8.14-.42,15.74,1.66,23.07,4.98Z"/>
      <path class="cls-98" d="M164.59,165.07c-.1,3.52-2.47,6.05-3.93,8.98-1.05.62-2.1,1.24-3.14,1.86-.05-.61-.1-1.22-.15-1.83,1.36-3.01,2.73-6.02,4.09-9.02,1.05-.4,2.09-1.59,3.13.02Z"/>
      <path class="cls-7" d="M177.42,167.06c-.24,2.42-1.23,4.26-3.99,5.19-.76-2.59,1.37-3.61,2.1-5.19.63,0,1.26,0,1.89,0Z"/>
      <path class="cls-33" d="M19.28,58.77c-3.72-1.6-.5,3.71-3.61,2.9-2.42-3.38-.4-7.37-.22-11.47-1.73,1.14-1.19,3.46-2.9,4.26-3.26-9.3-2.54-18.75-.71-28.12,1.19-6.06,2.68-12.11,5.4-17.75,2.69-.17,4.63,1.01,6.56,2.87,6.6,6.36,10.42,14.33,14.14,22.42-1.74,1.21-2.51-1.98-4.1-.48-.14,2.08,1.87,3.97.62,6.15-.33.29-.66.59-.99.88-3.35-1.56-5.18.89-7.27,2.32.61,2.13,5.22,1.98,3.11,4.07-3.76,3.72-5.92,8.65-10.04,11.96Z"/>
      <path class="cls-76" d="M34.47,39.54c1.25-2.19-.76-4.07-.62-6.15,1.6-1.5,2.37,1.69,4.1.48-3.72-8.08-7.55-16.06-14.14-22.42-1.93-1.86-3.87-3.04-6.56-2.87.34-1.76.4-3.93,2.37-4.52,2.1-.62,3.14,1.49,4.27,2.76,5.77,6.5,11.01,13.4,15.55,20.81,1.27,3.28,2.55,6.56,3.82,9.85-2.93.68-5.86,1.36-8.79,2.04Z"/>
      <path class="cls-40" d="M43.26,37.5c-1.27-3.28-2.55-6.56-3.82-9.85,4.54,1.15,6.25,5.84,10.02,7.95-1.66.7-3.33,1.4-4.99,2.1-.4-.07-.8-.14-1.21-.2Z"/>
      <path class="cls-4" d="M157.52,175.91c1.05-.62,2.09-1.24,3.14-1.86,5.64.14,10.62,2.91,16.02,3.98,1.33,3.81,2.67,1.41,4.01,0,2.92.65,5.85,1.3,8.77,1.94-1.33.99-2.66,1.99-4,2.98-6.11,2.01-11.6,5.62-17.98,6.94-2.04-4.54-6.66-3.38-10.21-4.45-5.52-1.66-5.69-1.78-1.93-5.84,1.01-1.09,2.16-2.06,2.17-3.72Z"/>
      <path class="cls-49" d="M167.49,189.91c6.38-1.32,11.87-4.93,17.98-6.94-.69,6.04-5.48,9.79-8.26,14.66-1.43,2.5-4.07,4.22-4.72,7.23-3.52-1.51-7.37-1.16-11.04-1.9-3.5-.71-4.69-1.88-2.54-5.2,1.14-1.76,2.33-3.58,2.52-5.79,2.02-.69,4.03-1.38,6.05-2.07Z"/>
      <path class="cls-73" d="M39.53,87.52c-.29-.73.06-2.3-1.61-1.14-2.81,1.96-3.77,4.75-3.7,8.01-1.32-3.31-1.1-6.6.13-9.88.1-.35.19-.71.29-1.06,2.63-.12,2.9-2.77,4.39-4.11,1.84-1.67,3.75-2.76,6.31-2.18-.29.41-.57.81-.86,1.22-.92,1.8-1.82,3.61-1.85,5.71-1.04,1.14-2.08,2.29-3.11,3.43Z"/>
      <path class="cls-97" d="M126.4,96.69c-.43.25-.85.51-1.28.76.49-2.45.75-4.74-.99-7.01-1.99-2.59-2.61-.66-3.54.74-.15-1.6.05-3.3-1.33-4.54,1.24-.6,1.09-1.37.26-2.21-.11-3.12-2.6-4.79-4.28-6.94,3.53-.27,5.9,1.68,7.82,4.26.88,1.18,1.31,2.76,3.29,1.94.3.26.59.52.88.78.13,4.1.16,8.19-.84,12.22Z"/>
      <path class="cls-110" d="M144.52,62.37c-.48-1.49-.76-3.08-1.5-4.43-.84-1.53-1.35-.44-1.71.5-3.37-3.36-5.4-7.86-9.24-10.84-.59-.46-1.29-1.02-.84-2.07,1.95-4.5,1.12-5.52-4.73-5.89-.83-.08-1.65-.17-2.15-.97.76-1.88,1.51-3.75,2.29-5.68-1.75-.15-2.15,2.11-4.18,1.75,4.28-8.43,7.81-16.99,14.3-23.82,2.06-2.17,4.3-3.64,7.41-2.09.35.65.71,1.3,1.06,1.96,2.21,7.74,3.79,15.61,4.92,23.57.94,6.65-.28,13.08-1.71,19.49-1.91,0-1.23-2.25-2.83-2.64-.14,3.78,1.95,7.77-1.1,11.15Z"/>
      <path class="cls-25" d="M144.18,8.84c-3.11-1.55-5.35-.08-7.41,2.09-6.49,6.84-10.02,15.39-14.3,23.82,2.03.36,2.43-1.91,4.18-1.75-.78,1.93-1.53,3.8-2.29,5.68-2.44-.13-4.67-.93-6.78-2.11,1.24-2.2,2.98-4.18,3.07-6.89,4.92-8.01,9.38-16.3,16.7-22.62,4.65-4.01,4.43-4.27,6.83,1.77Z"/>
      <path class="cls-80" d="M167.49,189.91c-2.01.69-4.03,1.38-6.05,2.07-7.32,1.33-14.65,2.66-21.97,3.98-1.12-1.87,3.1-4.44-.78-5.94,1.54-3.85,3.28-7.66,2.93-11.98,6.75,4.57,10.83-1.36,15.75-3.97.05.61.1,1.22.15,1.83,0,1.65-1.16,2.63-2.17,3.72-3.76,4.06-3.59,4.17,1.93,5.84,3.54,1.06,8.17-.1,10.21,4.45Z"/>
      <path class="cls-89" d="M138.58,182.13c0,4.61-1.74,8.52-4.88,11.85-2.72-.9-6.5-.5-6.24-5.05.1-5.39.59-10.72,1.99-15.95-.5,4.48.62,7.54,6.04,7.06,1.49-.13,2.47.8,3.1,2.09Z"/>
      <path class="cls-57" d="M126.36,83.69c-1.98.82-2.42-.76-3.29-1.94-1.92-2.58-4.29-4.53-7.82-4.26-4.39-2.56-8.81-1.38-13.23-.09,5.87-6.55,13.76-6.57,20.12-.01,1.22,1.26,2.27,2.69,3.4,4.04.9.53.92,1.38.82,2.27Z"/>
      <path class="cls-55" d="M92.4,193.96c-.66,8.28-1.33,16.56-1.99,24.84-4.99-.02-9.97-.03-14.96-.05-1.83-3.49-1.31-7.44-1.69-11.1-.51-4.87-1.06-9.78-1.31-14.7.03-1.01.06-2.02.09-3.03.68.64,1.37,1.29,2.05,1.93-1.42,1-1.46,2.37-.21,3.26,2.67,1.88,5.36,3.99,8.38,5.03,2.38.82,3.75-2.13,5.55-3.45,1.31-.97,2.72-1.82,4.08-2.72Z"/>
      <path class="cls-20" d="M133.44,217.87c-.32,0-.65-.02-.97-.03-7.59-.1-7.01.92-6.97-7.02,1.29.05,2.58.11,3.87.16,1.54,1.82,3.27,3.52,4.1,5.84-.01.35-.02.7-.03,1.05Z"/>
      <path class="cls-76" d="M19.28,58.77c4.12-3.31,6.28-8.25,10.04-11.96,2.11-2.09-2.49-1.94-3.11-4.07,2.09-1.43,3.92-3.88,7.27-2.32-1.06.32-2.46.53-2.49,1.82-.02,1.03,1.3,1.2,2.15,1.61,1.12.54,2.21,1.15,3.31,1.73-5.94,5.62-10.21,12.35-13.18,19.92-2.64-1.47-3.46-4.02-4-6.73Z"/>
      <path class="cls-58" d="M36.46,45.58c-1.1-.58-2.19-1.19-3.31-1.73-.85-.41-2.18-.58-2.15-1.61.03-1.3,1.43-1.5,2.49-1.82.33-.3.66-.59.99-.88,2.93-.68,5.86-1.36,8.79-2.04.4.07.8.13,1.21.2,1.44,2.12.43,3.22-1.55,4.19-2.22,1.09-4.31,2.45-6.46,3.69Z"/>
      <path class="cls-39" d="M32.41,217.77c1.12-1.62,1.36-4.09,4.08-4.15-1.06,2.77-2.11,5.55-3.17,8.32-.28-.02-.55-.09-.81-.22-.04-1.32-.07-2.63-.11-3.95Z"/>
      <path class="cls-1" d="M32.41,217.77c.03,1.32.07,2.63.11,3.95-1.7.16-3.73,1.01-3.89-1.92.96-1.24,1.98-2.35,3.78-2.03Z"/>
      <path class="cls-3" d="M74.6,191.84c-.68-.64-1.37-1.29-2.05-1.93-1.62-1.83-3.03-3.93-4.92-5.41-2.01-1.58-.78,1-1.35,1.38-1.93-1.63-3.86-3.25-5.8-4.88,2.26-2.3.09-4.61.07-6.92-.02-2.04-.51-4.15.73-7.13,3.76,7.64,7.61,14.42,14.15,19.07.08,1.4.76,2.39,2.04,2.98,4.74,5.71,4.83,5.77,9.74.71,4.39-4.52,8.09-9.6,11.4-14.95,1.86-3.01,2.65-6.02.63-9.31-1.12-1.83-.6-3.73-.18-5.75.51-2.45,2.35-4.95.44-7.57.67-.38,1.33-.76,2-1.14,0,0-.03.22-.03.22.02,2.33.05,4.66.07,6.99.28.55.52,1.54.85,1.57,5.65.54,5.01,4.68,3.84,7.88-1.17,3.16-1.19,5.72.39,8.49-1.31,3.27-3.49,5.84-6.24,8.02-1.22.97-3.86-1.75-3.96,1.63-1.32,1.37-2.64,2.74-3.97,4.11-5.6,3.77-11,9.37-17.83,1.95Z"/>
      <path class="cls-36" d="M45.37,153.37c.74-.72,1.47-1.44,2.21-2.16.5.74,2.64-.05,1.82,1.93-1.08.71-1.19,2.64-2.79,2.57-1.36-.06-1.08-1.41-1.24-2.34Z"/>
      <path class="cls-83" d="M77.45,188.99c-1.27-.59-1.96-1.58-2.04-2.98.23-.92.48-2.28,1.73-1.46,1.77,1.17,1.89,2.84.31,4.44Z"/>
      <path class="cls-29" d="M66.27,185.88c.58-.38-.66-2.95,1.35-1.38,1.89,1.49,3.3,3.58,4.92,5.41-.03,1.01-.06,2.02-.09,3.03-1.73.14-2.58-1.44-3.96-2-1.39-1.41-.36-3.87-2.22-5.07Z"/>
      <path class="cls-67" d="M119.27,86.64c1.38,1.24,1.18,2.94,1.33,4.54-.58,4.02-3.53,6.42-6.2,9.01-4.39,1.89-8.6,1.23-12.71-.88-1.33-2.46-2.48-4.97-2.06-7.89.57,0,1.13.01,1.7.02.65,3.45,1.94,6.62,5.98,6.79,4.16.18,5.36-3.23,6.45-6.42.26-.76.31-1.6.46-2.4,1.03-2.11,3.27-2.03,5.05-2.78Z"/>
      <path class="cls-43" d="M49.27,78.6c5.33-1.14,8.4,2.04,11.16,5.8-.04,1.76-.08,3.52-.12,5.28-1.54-2.32-3.16-3.14-5.01-.3-3.87,1.03-7.83,1.14-11.8.99l-.12.09c.06-1.37.12-2.74.18-4.11,1.94,1.1,3.92,2.06,5.72-.15,2.03-2.5,1.92-5.07,0-7.61Z"/>
      <path class="cls-14" d="M102.02,77.39c4.42-1.29,8.84-2.47,13.23.09,1.69,2.15,4.17,3.82,4.28,6.94-3.89-2.38-6.31-7.85-12.3-5.82-4.38.29-5.08,3.24-4.94,6.79-.21-.01-.42-.03-.63-.04-.65-1.33-1.36-.11-2.04-.05-.06-1.63-.13-3.25-.19-4.88.69-1.63,1.37-3.26,2.06-4.89.18.62.35,1.24.53,1.86Z"/>
      <path class="cls-16" d="M55.29,89.38c1.85-2.84,3.47-2.01,5.01.3.4,2.7-.14,5.29-.91,7.85-.61.04-1.22.08-1.84.12,1.45-3.08-.22-4.04-2.94-4.27.23-1.33.45-2.67.68-4Z"/>
      <path class="cls-79" d="M99.62,85.3c.68-.06,1.4-1.27,2.04.05-.02,1.67-.03,3.33-.05,5-.09.37-.19.73-.28,1.1-.57,0-1.13-.01-1.7-.02,0-2.04-.01-4.09-.02-6.13Z"/>
      <path class="cls-41" d="M102.48,117.22c1.16-2.92-.77-6.43,1.74-9.09,3.62,6.12,2.93,13.61-1.73,18.58-5.52,5.9-11.57,7.24-18.32,3.79-3.06-1.56-5.6-2.11-9.25-.82-10.33,3.65-18.07-1.92-19.38-13.31-.27-2.36-.04-4.78-.04-8.32,2.81,3.38,3.08,6.2,2.95,9.14,1.91,7.87,9.38,11.29,17.98,7.66,3.21-1.36,5.52-1.28,8.64.13,7.92,3.59,16.04-.25,17.4-7.77Z"/>
      <path class="cls-82" d="M118.46,101.23c.99.03,1.99.13,2.98.09,3.64-.15,7.03.75,7.64,4.69.58,3.68-2.13,6.03-5.33,7.49-3.16,1.44-6.56,1.22-9.74.45-4.33-1.05-5.43-5.39-2.65-8.9,1.4-1.77,3.66-2.19,5.27-3.59.61-.08,1.22-.15,1.83-.23Z"/>
      <path class="cls-82" d="M39.56,101.14c.93.1,1.85.21,2.78.31,1.11,1.56,2.96,2.04,4.47,3.02,1.77,1.15,2.93,2.66,2.62,4.92-.27,2.03-1.58,3.1-3.38,3.87-4.55,1.95-8.75,1.15-12.61-1.64-1.77-1.28-3.17-3.13-2.74-5.46.43-2.34,2.22-3.52,4.54-3.96,1.45-.28,2.88-.71,4.31-1.07Z"/>
      <path class="cls-65" d="M74.47,113.35c-2.56-1.85-5.18-3.69-6.69-6.53-.9-1.69-2.05-3.58-.18-5.45.23.23.54.42.69.69,3.18,5.78,8.38,6.72,14.39,6.3,4.95-.35,6.75-3.27,7.46-7.55.04-.22.88-.31,1.35-.46,2.94,2.1,2.02,4.66.52,6.92-2.44,3.68-5.78,6.31-10.24,7.28-.79-.04-1.59-.09-2.38-.13-1.64-.35-3.28-.71-4.92-1.06Z"/>
      <path class="cls-84" d="M91.49,100.34c-.47.15-1.31.24-1.35.46-.71,4.28-2.51,7.2-7.46,7.55-6.02.42-11.21-.52-14.39-6.3-.15-.27-.45-.47-.69-.69,4.92-4.47,17.41-5,23.89-1.02ZM79.49,100.34c-2.64,0-5.28-.01-7.92.03-.85.01-1.8.3-1.8,1.27,0,.91.86,1.36,1.73,1.44.98.09,1.96.06,2.95.08,1.34,1.81,3.33,1.25,4.99,1.04,2.01-.25,5.42-.45,5.31-2.43-.17-2.86-3.43-.86-5.24-1.44Z"/>
      <path class="cls-94" d="M79.39,114.41c.79.04,1.59.09,2.38.13-.98,4.3,1.13,6.97,4.82,8.61,4.57,2.03,9.64,1,12.85-2.24,1.14-1.15,1.3-3.07,3.03-3.7-1.35,7.52-9.48,11.36-17.4,7.77-3.12-1.41-5.43-1.48-8.64-.13-8.6,3.63-16.07.2-17.98-7.66,2.08.63,2.11,3.24,3.96,4.09,3.65,4.41,8.07,3.32,12.62,1.85,4.5-1.45,4.81-4.86,4.35-8.71Z"/>
      <path class="cls-60" d="M54.61,93.38c2.72.24,4.39,1.19,2.94,4.27-3.56,3.1-7.55,4.3-12.18,2.83-2.69-2.41-5.04-5-4.86-8.95.96-.36,1.91-.71,2.87-1.07,0,0,.12-.09.12-.09.68,3.08,1.13,6.38,5.06,7.06,3.21.55,4.86-1.47,6.06-4.05Z"/>
      <path class="cls-68" d="M79.39,114.41c.47,3.85.16,7.26-4.35,8.71-4.55,1.47-8.97,2.57-12.62-1.85,2.73-.28,5.47,1.37,8.2-.16,3.09-1.73,5.42-3.77,3.85-7.77,1.64.35,3.28.71,4.92,1.06Z"/>
      <path class="cls-115" d="M101.48,145.16c3.26-.59,4.25,2.25,5.99,3.95-.02.38-.03.75-.05,1.13-2.08-.26-4.12-.24-5.97.96,0,0,.03-.22.03-.22,0-1.94,0-3.88,0-5.82Z"/>
      <path class="cls-63" d="M107.42,150.23c.02-.38.03-.75.05-1.13,3.38-2.07,7.25-2.81,10.98-3.95.02,2.45.11,4.91.02,7.36-.06,1.55.22,3.36-2.63,2.65-2.47-.61-1.25,1.65-1.3,2.56-.24,4.21.57,8.53-1.26,12.56-.47,1.03-.67,2.86-2.63,1.59-.14-1.32-.27-2.64-.48-4.64-2.18,3.19-1.56,6.54-3.56,8.89-1.58-2.77-1.55-5.34-.39-8.49,1.18-3.19,1.81-7.34-3.84-7.88-.33-.03-.57-1.02-.85-1.57,2.31-2.39,7.75-2.49,5.9-7.95Z"/>
      <path class="cls-31" d="M106.6,176.13c2-2.35,1.38-5.7,3.56-8.89.21,2,.34,3.32.48,4.64-1.69,8.38-6.61,14.01-13.18,15.08-.35-.39-.71-.79-1.06-1.18.11-3.38,2.75-.66,3.96-1.63,2.76-2.19,4.94-4.75,6.24-8.02Z"/>
      <path class="cls-23" d="M96.39,185.78c.35.39.71.79,1.06,1.18-.33,1.33-.66,2.66-.99,3.99-1.73-.13-2.59,1.39-3.92,2.02-.04-1.03-.08-2.05-.12-3.08,1.32-1.37,2.64-2.74,3.97-4.11Z"/>
      <path class="cls-105" d="M92.43,189.89c.04,1.03.08,2.05.12,3.08-.05.33-.09.66-.14.99-1.37.9-2.77,1.75-4.09,2.72-1.79,1.33-3.17,4.27-5.55,3.45-3.02-1.04-5.71-3.15-8.38-5.03-1.26-.89-1.22-2.25.21-3.26,6.83,7.42,12.23,1.82,17.83-1.95Z"/>
      <path class="cls-15" d="M180.7,178.04c-1.34,1.41-2.68,3.81-4.01,0,1.46-.48,1.79-3.12,3.89-2.21.95.41.16,1.46.12,2.22Z"/>
      <path class="cls-48" d="M43.37,90.46c-.96.36-1.91.71-2.87,1.07-1.21-1.12-1.18-2.55-.98-4.01,1.04-1.14,2.08-2.29,3.11-3.43.96.49.81,1.43.91,2.26-.06,1.37-.12,2.74-.18,4.11Z"/>
      <path class="cls-85" d="M101.61,90.35c.02-1.67.03-3.33.05-5,.21.01.42.03.63.04,1.37,1.99,3.35,3.17,5.24,1.31,2.56-2.52,2.33-5.49-.3-8.1,5.99-2.03,8.41,3.45,12.3,5.82.83.84.99,1.61-.26,2.21-1.78.75-4.02.67-5.05,2.78-4.09,1.9-8.41.57-12.62.93Z"/>
      <path class="cls-59" d="M107.42,150.23c1.85,5.46-3.58,5.56-5.9,7.95-.02-2.33-.05-4.66-.07-6.99,1.85-1.2,3.88-1.22,5.97-.96Z"/>
      <path class="cls-22" d="M101.61,90.35c4.2-.36,8.53.97,12.62-.93-.15.8-.2,1.64-.46,2.4-1.1,3.19-2.29,6.6-6.45,6.42-4.04-.18-5.33-3.34-5.98-6.79.09-.37.19-.73.28-1.1Z"/>
      <path class="cls-106" d="M54.61,93.38c-1.2,2.58-2.85,4.61-6.06,4.05-3.93-.68-4.38-3.98-5.06-7.06,3.98.15,7.93.04,11.8-.99-.23,1.33-.45,2.67-.68,4Z"/>
      <path class="cls-10" d="M107.23,78.61c2.63,2.61,2.86,5.58.3,8.1-1.89,1.86-3.87.68-5.24-1.31-.14-3.55.56-6.5,4.94-6.79Z"/>
      <path class="cls-30" d="M79.49,100.34c1.81.58,5.07-1.42,5.24,1.44.12,1.98-3.29,2.17-5.31,2.43-1.66.21-3.65.77-4.99-1.04,1.35-1.54,4.65.39,5.05-2.83Z"/>
      <path class="cls-35" d="M79.49,100.34c-.4,3.22-3.7,1.29-5.05,2.83-.98-.02-1.97,0-2.95-.08-.87-.08-1.73-.54-1.73-1.44,0-.97.95-1.26,1.8-1.27,2.64-.04,5.28-.02,7.92-.03Z"/>
    </g>
  </g>
</svg>