<?xml version="1.0" encoding="UTF-8"?>
<svg id="Layer_2" xmlns="http://www.w3.org/2000/svg" viewBox="0 0 222.88 229.07">
  <defs>
    <style>
      .cls-1 {
        fill: #50789d;
      }

      .cls-2 {
        fill: #3c5d8d;
      }

      .cls-3 {
        fill: #547094;
      }

      .cls-4 {
        fill: #48587b;
      }

      .cls-5 {
        fill: #2d2b40;
      }

      .cls-6 {
        fill: #8df1fa;
      }

      .cls-7 {
        fill: #742d1a;
      }

      .cls-8 {
        fill: #86bcd7;
      }

      .cls-9 {
        fill: #686479;
      }

      .cls-10 {
        fill: #25718d;
      }

      .cls-11 {
        fill: #56241d;
      }

      .cls-12 {
        fill: #8bbccc;
      }

      .cls-13 {
        fill: #a4d4df;
      }

      .cls-14 {
        fill: #a8d6e0;
      }

      .cls-15 {
        fill: #3d8eb4;
      }

      .cls-16 {
        fill: #8dc0da;
      }

      .cls-17 {
        fill: #5b89ae;
      }

      .cls-18 {
        fill: #97cbe0;
      }

      .cls-19 {
        fill: #f28550;
      }

      .cls-20 {
        fill: #567496;
      }

      .cls-21 {
        fill: #7c849c;
      }

      .cls-22 {
        fill: #c1bcbd;
      }

      .cls-23 {
        fill: #2c6496;
      }

      .cls-24 {
        fill: #77a5be;
      }

      .cls-25 {
        fill: #a6d4df;
      }

      .cls-26 {
        fill: #506e92;
      }

      .cls-27 {
        fill: #2c3e68;
      }

      .cls-28 {
        fill: #517196;
      }

      .cls-29 {
        fill: #48445c;
      }

      .cls-30 {
        fill: #c1b9bb;
      }

      .cls-31 {
        fill: #313045;
      }

      .cls-32 {
        fill: #f5d60d;
      }

      .cls-33 {
        fill: #b3aeb2;
      }

      .cls-34 {
        fill: #f66c5e;
      }

      .cls-35 {
        fill: #5f84a7;
      }

      .cls-36 {
        fill: #27b1e9;
      }

      .cls-37 {
        fill: #aed9e3;
      }

      .cls-38 {
        fill: #6e97b6;
      }

      .cls-39 {
        fill: #f7f5f7;
      }

      .cls-40 {
        fill: #3d5d8c;
      }

      .cls-41 {
        fill: #f6980a;
      }

      .cls-42 {
        fill: #8fc3dc;
      }

      .cls-43 {
        fill: #f1eedf;
      }

      .cls-44 {
        fill: #5985ab;
      }

      .cls-45 {
        fill: #848ca1;
      }

      .cls-46 {
        fill: #c5bebe;
      }

      .cls-47 {
        fill: #afccdc;
      }

      .cls-48 {
        fill: #76a6be;
      }

      .cls-49 {
        fill: #8bbed8;
      }

      .cls-50 {
        fill: #384970;
      }

      .cls-51 {
        fill: #a8a1ab;
      }

      .cls-52 {
        fill: #4e6980;
      }

      .cls-53 {
        fill: #6e6a7d;
      }

      .cls-54 {
        fill: #4e5879;
      }

      .cls-55 {
        fill: #3f5075;
      }

      .cls-56 {
        fill: #ba6853;
      }

      .cls-57 {
        fill: #4c5b7e;
      }

      .cls-58 {
        fill: #b04a1d;
      }

      .cls-59 {
        fill: #608fb0;
      }

      .cls-60 {
        fill: #28263b;
      }

      .cls-61 {
        fill: #d4d2d4;
      }

      .cls-62 {
        fill: #7ad7f3;
      }

      .cls-63 {
        fill: #8becf7;
      }

      .cls-64 {
        fill: #2c3f69;
      }

      .cls-65 {
        fill: #535e7c;
      }

      .cls-66 {
        fill: #58799c;
      }

      .cls-67 {
        fill: #4e5c7d;
      }

      .cls-68 {
        fill: #84b5c8;
      }

      .cls-69 {
        fill: #9b94a1;
      }

      .cls-70 {
        fill: #f5d60f;
      }

      .cls-71 {
        fill: #4393c0;
      }

      .cls-72 {
        fill: #6190b2;
      }

      .cls-73 {
        fill: #adcadb;
      }

      .cls-74 {
        fill: #82889c;
      }

      .cls-75 {
        fill: #4c5a7c;
      }

      .cls-76 {
        fill: #4a597c;
      }

      .cls-77 {
        fill: #6e9db9;
      }

      .cls-78 {
        fill: #3a4b6f;
      }

      .cls-79 {
        fill: #a29ba5;
      }

      .cls-80 {
        fill: #bb6853;
      }

      .cls-81 {
        fill: #7ad8f4;
      }

      .cls-82 {
        fill: #41618f;
      }

      .cls-83 {
        fill: #3a3a50;
      }

      .cls-84 {
        fill: #4b5878;
      }

      .cls-85 {
        fill: #757187;
      }

      .cls-86 {
        fill: #87bcd7;
      }

      .cls-87 {
        fill: #5e5362;
      }

      .cls-88 {
        fill: #a8d5df;
      }

      .cls-89 {
        fill: #fcb87b;
      }

      .cls-90 {
        fill: #44668e;
      }

      .cls-91 {
        fill: #78a8c0;
      }

      .cls-92 {
        fill: #625563;
      }

      .cls-93 {
        fill: #5986ab;
      }

      .cls-94 {
        fill: #d63c3c;
      }

      .cls-95 {
        fill: #2d2c3f;
      }

      .cls-96 {
        fill: #37537d;
      }

      .cls-97 {
        fill: #2d3f67;
      }

      .cls-98 {
        fill: #2b3e68;
      }

      .cls-99 {
        fill: #a8a0aa;
      }

      .cls-100 {
        fill: #7f889f;
      }

      .cls-101 {
        fill: #557194;
      }

      .cls-102 {
        fill: #3e4f75;
      }

      .cls-103 {
        fill: #8ceff9;
      }

      .cls-104 {
        fill: #2b3d66;
      }

      .cls-105 {
        fill: #5f8eb0;
      }

      .cls-106 {
        fill: #6c9bb8;
      }

      .cls-107 {
        fill: #a2d0dc;
      }

      .cls-108 {
        fill: #c6d6dd;
      }

      .cls-109 {
        fill: #5a5d76;
      }

      .cls-110 {
        fill: #4f5c7c;
      }

      .cls-111 {
        fill: #f18550;
      }

      .cls-112 {
        fill: #9bc7d3;
      }

      .cls-113 {
        fill: #82b2c6;
      }

      .cls-114 {
        fill: #162a49;
      }

      .cls-115 {
        fill: #35476f;
      }

      .cls-116 {
        fill: #382a36;
      }

      .cls-117 {
        fill: #3f83ab;
      }

      .cls-118 {
        fill: #43739d;
      }

      .cls-119 {
        fill: #c1e6ed;
      }

      .cls-120 {
        fill: #517195;
      }

      .cls-121 {
        fill: #c5bdbc;
      }

      .cls-122 {
        fill: #b4adb5;
      }

      .cls-123 {
        fill: #658dae;
      }

      .cls-124 {
        fill: #343347;
      }

      .cls-125 {
        fill: #1c578e;
      }

      .cls-126 {
        fill: #2e2d40;
      }

      .cls-127 {
        fill: #152948;
      }

      .cls-128 {
        fill: #a29aa6;
      }

      .cls-129 {
        fill: #76a3be;
      }

      .cls-130 {
        fill: #89bacb;
      }

      .cls-131 {
        fill: #a9c5d7;
      }

      .cls-132 {
        fill: #8a8293;
      }

      .cls-133 {
        fill: #b8dfe8;
      }

      .cls-134 {
        fill: #706c7f;
      }

      .cls-135 {
        fill: #858093;
      }

      .cls-136 {
        fill: #c8cfdb;
      }

      .cls-137 {
        fill: #666277;
      }

      .cls-138 {
        fill: #742e1b;
      }

      .cls-139 {
        fill: #8d97ad;
      }

      .cls-140 {
        fill: #9ecddb;
      }

      .cls-141 {
        fill: #1c588f;
      }

      .cls-142 {
        fill: #2d436f;
      }

      .cls-143 {
        fill: #618eb0;
      }

      .cls-144 {
        fill: #5782a6;
      }

      .cls-145 {
        fill: #030815;
      }

      .cls-146 {
        fill: #7ba8c1;
      }

      .cls-147 {
        fill: #49597c;
      }

      .cls-148 {
        fill: #34456c;
      }

      .cls-149 {
        fill: #6c9ab7;
      }

      .cls-150 {
        fill: #f69a0c;
      }

      .cls-151 {
        fill: #3185af;
      }

      .cls-152 {
        fill: #8d97ac;
      }

      .cls-153 {
        fill: #787d94;
      }

      .cls-154 {
        fill: #102241;
      }

      .cls-155 {
        fill: #82adc4;
      }

      .cls-156 {
        fill: #608db0;
      }

      .cls-157 {
        fill: #6793b4;
      }

      .cls-158 {
        fill: #5a88ad;
      }

      .cls-159 {
        fill: #c8561e;
      }

      .cls-160 {
        fill: #4d5c7d;
      }

      .cls-161 {
        fill: #4b465e;
      }

      .cls-162 {
        fill: #aca4ac;
      }

      .cls-163 {
        fill: #516e92;
      }

      .cls-164 {
        fill: #a8d7e1;
      }

      .cls-165 {
        fill: #a19aa5;
      }

      .cls-166 {
        fill: #4d7399;
      }

      .cls-167 {
        fill: #7dadc3;
      }

      .cls-168 {
        fill: #612a37;
      }

      .cls-169 {
        fill: #c8c2c3;
      }

      .cls-170 {
        fill: #3d5e8d;
      }

      .cls-171 {
        fill: #76758c;
      }

      .cls-172 {
        fill: #38384a;
      }

      .cls-173 {
        fill: #ea8012;
      }

      .cls-174 {
        fill: #342f40;
      }

      .cls-175 {
        fill: #3f4f74;
      }

      .cls-176 {
        fill: #682935;
      }

      .cls-177 {
        fill: #374870;
      }

      .cls-178 {
        fill: #7199b2;
      }

      .cls-179 {
        fill: #2c3d67;
      }

      .cls-180 {
        fill: #93c4d1;
      }

      .cls-181 {
        fill: #9fcedb;
      }
    </style>
  </defs>
  <g id="Layer_1-2" data-name="Layer_1">
    <g>
      <path class="cls-43" d="M161.69,131.42c2.65-4.55,6.74-7.52,11.07-10.3,4.28-2.74,8.39-5.76,12.57-8.66,5.8-3.13,10.06-7.83,13.11-13.55,2.01-3.76,3.37-7.81,1.63-12.17.76-3.46,2.11-1.22,3.25-.31,4.44,3.58,7.04,8.69,10.68,12.93-1.32.37-1.25,1.38-.93,2.32,2.59,7.42,2.16,15.06,1.8,22.71-2.25.35-.98-4.25-3.98-2.84-1.33,2.85-1.09,6.06-1.95,8.99-2.17,7.4-5.6,13.98-12.79,17.82.15-5.3,1.33-10.64-.65-16.6-2.02,8.29-7.32,13.24-13.68,17.37-2.62,1.7-5.11,3.6-7.66,5.41-1.93-3.05,1.76-5.11,1.39-8.06-4.35-1.05-6.31,3.93-10.29,4.45,0-4,1.13-7.35,2.65-10.6,7.72-.78,15.44-1.57,21.57-6.89-.14-.44-.28-.89-.42-1.33-6.86,2.11-13.72,4.22-20.58,6.33.55-1.47,1.1-2.95,2.11-5.66-1.81,1.55-2.62,2.24-3.43,2.93-5.25,4.49-7.98,10.8-11.82,16.31.51-7.28,2.95-14,5.91-20.58l.43-.02Z"/>
      <path class="cls-38" d="M121.26,147.28c-.03,3.37-.07,6.73-.1,10.09-1.87,9.95-4.09,19.81-6.68,29.6-2.01,7.58-4.7,15.03-4.96,22.99-2.62.58-5.45-.66-7.95.92-2.36,1.97-5.64,2.54-7.58,5.21-1.04,1.42-1.99,2.61-.61,4.34,2.46,3.08,11.13,2.17,12.75-1.39.82.86,1.32,1.84,1.29,3.05-1.03,4.46-4.05,5.35-8.2,5.09-2.48-.15-5.19-1.04-7.57.66-2.05-.32-2.91-2.07-4.13-3.41-.02-.46-.04-.93-.07-1.39.07-2.96.13-5.92.2-8.89,1.48-11.26,6.93-20.19,15.05-28.09,6.2-6.04,9.96-13.89,12.07-22.42,1.02-4.15,2.35-8.23,3.54-12.34.62-3.08-.82-6.46,1.01-9.65,1.94,1.78.25,4.22,1.94,5.64ZM106.01,191.57c-.79.13-1.6,1.41-1.48,2.27.12.81.66,1.19,1.34,1,1.04-.3,1.56-1.11,1.46-2.23-.07-.81-.59-1.07-1.32-1.04Z"/>
      <path class="cls-38" d="M35.68,156.23c.5-3.63-1.1-7.3.26-10.91,2.75,1.73,1.43,4.6,1.96,6.95,3.36,14.73,9.28,28.06,20.78,38.4,4.72,4.25,6.85,9.78,8.21,15.93.71,3.19-.17,6.61,1.61,9.57.04,2.63.09,5.26.13,7.88.16,1.53-2.84,1.07-1.94,3.08-.5.74-1.2.97-2.06.82-2.81-2.05-5.99-.88-8.95-.82-3.91.07-5.53-1.32-4.77-5.22,2.81.08,5.63.15,8.44.23,2.11.06,4.29-.3,4.9-2.51.59-2.15-1.15-3.75-2.74-4.9-4.04-2.91-8.66-3.92-13.59-3.62-.9.04-1.75-.03-2.03-1.12,1.57-1.73,1.04-3.86.62-5.66-3.72-16.01-9-31.67-10.83-48.1ZM49.61,192.04c1.19-.37,2.11-1.07,1.66-2.49-.44-1.38-.85-3.06-2.8-2.93-.88.06-1.71,1.09-.87,1.69,1.38.99-1.01,3.78,2.02,3.73Z"/>
      <path class="cls-79" d="M151.35,118.35c1.25.28,3.83.09,1.17,2.17-2.96,2.31-6.06,4.54-9.38,6.26-7.21,3.73-14.59,7.11-21.9,10.63-1.98-1.89-3.86.01-5.79.17-9.59,1.56-18.74,4.33-26.93,9.76-4.96-.17-6.97,4.09-10.06,6.72-.91.77-.84,1.67.19,2.4-.92,1.06-1.85.78-3.05.33-4.46-1.66-7.33-5.1-10.18-8.61-3.47-2.69-6.98-5.28-11.57-5.69-3.46-1.32-6.93-2.64-10.39-3.97-2.6.27-4.89-1.74-7.55-1.01-6.02-1.58-11.4-4.76-17.2-6.9-2.12-.78-4.32-1.48-4.96-4.07.81.03,1.61.05,2.42.08.66,1.1,1.8,1.47,2.91,1.64,13.9,2.12,27.15,6.5,40.29,11.34,2.99,1.1,6.18,2.38,9.54,1.08,5.85,1.3,11.69,1.16,17.52-.15,2.33.38,4.53-.04,6.7-.92,8.54-3.47,17.22-6.48,26.27-8.39,4.17-.88,8.28-2.12,12.36-3.38,3.09-.95,5.46-2.55,3.68-6.41,1.72.36,3.45,1.01,5.17,1.02,2.85,0,6.38,1.32,7.67-2.92.43-1.95,2.46.31,3.07-1.17Z"/>
      <path class="cls-155" d="M97.62,33.03c4.27-.54,6.68-3.86,8.62-6.91,7.17-11.26,18.28-17.86,28.77-25.2,3.09-2.16,5.42-.23,6.52,2.83,4.07,11.36,6.69,23.02,6.53,35.18-3.22-2.59-2.65-6.4-2.7-9.75-.13-7.54-1.97-14.66-4.43-21.67-.58-1.65-1.22-3.58-3.64-3.43-3.87,2.87-6.36,6.87-8.97,10.79-4.26,4.92-7.46,10.55-10.7,16.16-.35.57-.87,1.09-1.01,1.7-1.2,5.29-3.94,5.21-8.1,2.9-1.99-1.11-4.52-3.28-7.15-.7-1.41-.31-3.5.73-3.73-1.9Z"/>
      <path class="cls-2" d="M23.67,211.08c5.64-3.36,2.35-6.79.18-10.35-2.69-4.43-4.61-9.13-3.95-14.5,2.31,4.16,5.19,7.93,8.74,11.05,1.64,1.44,3.71,3.9,5.85,3.04,2.51-1.01,1.06-4.12,1.25-6.31.11-1.27-.36-2.58-.47-3.88-.7-7.97-4.62-15.48-3.44-23.72.24-.19.51-.3.81-.33.38.73.97,1.43,1.12,2.21,2.01,10.52,5.32,20.69,7.89,31.06,1.35,5.44,3.89,11.55-3.21,15.41.11.12.23.24.34.36-1.06,1.29-2.13,2.58-3.19,3.87-.26.02-.52.06-.78.1-.28-.02-.56-.07-.84-.04-.08,0-.17.25-.19.4-.5,5.61-4.66,4.58-8.27,4.6-3.11.02-2.63-2.16-2.59-4.1.16.02.33.07.49.07,3.69.04,8.33,1.27,8.34-4.67.02-5.97-4.91-3.72-8.09-4.27Z"/>
      <path class="cls-44" d="M137.28,4.08c2.42-.15,3.06,1.78,3.64,3.42,2.46,7.01,4.3,14.13,4.43,21.67.06,3.36-.52,7.16,2.7,9.75,3.73,8.42,1.6,16.6-1.37,24.58-2.17,5.82-4.99,11.41-7.52,17.09-3.14-2.55-2.77-6.8-4.8-9.89.08-1.4-.24-2.68-1.07-3.82,3.03-2.77,4.61-6.25,5.06-10.29.31-.88.62-1.77.93-2.65,1.25-.82,1.39-2.29,1.63-3.48,2.78-14.06,1.71-27.91-2.55-41.56-.36-1.61-.72-3.22-1.08-4.83Z"/>
      <path class="cls-2" d="M122.36,163.29c.72.95,1.44,1.9,2.16,2.85-2.66,7.75-1.69,15.97-2.93,23.93-.49,3.12-2.01,8.46,1.17,9.43,3.24.99,6.41-3.16,8.62-6.34,1.12.02,1.43-1.84,2.93-1.22-.15,2.61-1.74,4.57-2.95,6.66-2.06,3.57-4.43,6.96-6.39,10.57-1.34,2.46.54,1.22,1.42.99.72,1.16,1.88.9,2.95.94-.39.53-.76,1.08-1.16,1.6-1.17,1.52-3.29,2.95-2.16,5.07,1.08,2.02,3.42,2.41,5.68,2.3.83-.04,1.65-.11,2.48-.17-.41,3.35-2.34,3.93-5.58,4.38-4.8.67-4.93-2.72-6.28-5.31-.29-.3-.58-.6-.87-.9-2.02-1.64-4.05-3.28-6.07-4.91-2.44-2.8-2.33-5.87-1.39-9.28,1.8-6.5,3.66-13.02,4.8-19.64.95-5.53,4.07-10.9,1.83-16.79.44-1.44.36-3.1,1.74-4.15Z"/>
      <path class="cls-146" d="M13.86,6.99C14.3.06,16.18-.89,22.03,2.94c7.44,4.87,15.23,9.55,20.49,16.81,3.53,4.86,7.39,9.42,11,14.19-5.17-.07-9.22,3.03-13.73,4.86-2.35-4.94-4.04-10.2-7.13-14.78l-2.82-4.12c-3.78-5.73-7.34-11.65-12.96-15.88-2.22-.23-1.39,2.63-3.02,2.99Z"/>
      <path class="cls-128" d="M219.02,149.44c-.33,4.17-2.24,7.77-4.02,11.45-1.43,2.95-3.69,5.68-1.18,9.49,1.21,1.84-.81,4-2.27,5.6-3.33,3.67-6.96,7.06-11.08,9.8-1.45.96-2.26,2.29-3.36,3.46-3.54-2.07-6.41,1.84-9.81,1.08-.12-.12-.27-.22-.34-.36-.06-.13-.07-.42-.01-.44,3.71-1.62,7.76-2.73,11.06-4.95,3.99-2.68,9.55-4.26,9.95-10.48.56-1.18,2.96-.31,2.66-2.18-.12-.79-1.08-1.66-1.87-2.08-1.49-.79-1.76.91-2.54,1.57-.73.62-1.47,1.24-2.2,1.86-2.71-.07-5.26-1.47-8.04-1.01.39-.64.78-1.27,1.16-1.91,1.71-1.09,3.15-2.36,3.16-5.24h-12.23c2.56-2.31,4.88-3.44,6.04-5.75,2.31-2,4.62-4,6.93-6,3.88,1.74,7.85,2.46,12.01,1.01-.79,1.15-1.57,2.29-2.36,3.44,2.46-1.3,4.9-2.46,5.29-5.39.01-.29.02-.58.03-.88.99-1.04,1.98-2.08,2.98-3.11.01.34.03.68.04,1.02Z"/>
      <path class="cls-180" d="M52.55,35.72c-.29,4.12,2.36-.03,3.13,1.12.32.07.65.11.95.23.11.04.27.33.24.37-1.21,1.55-3.97,1.4-4.6,4.97,8.87-6.32,17.61-11.1,27.74-12.95,3.1-.56,2.18-3.45,1.46-5.67,1.91-.76,2.27.89,2.48,1.94.59,3.03,2.25,5.52,3.71,8.12-2.31-.03-4.2.55-4.72,3.23q10.78-.75,14.27,2.21c-4.16-.45-6.22,3.09-9.63,3.56-.2-1.7-1.33-2.03-2.8-2.02-3.75.03-7.52-.31-11.15,1-2.6-1.13-4.07,1.08-5.96,2.02-2.6-2.3-4.62-.58-6.68.94-1.59-2.56-3.79-3.08-6.67-2.4-1.87.44-4.29,1-5.77.22-2.85-1.52-4.54-.17-6.39,1.36-3.82,3.15-1.91-.81-2.35-1.86.34-.4.68-.79,1.02-1.19,4.15-1.19,6.86-5.63,11.72-5.2Z"/>
      <path class="cls-156" d="M138.34,84.65c3.9,6.56,6.77,13.84,13.09,18.72.26.2.66.41.69.66.55,4.16-.14,8.44,1.11,12.54-1.67-.38-3.33-.75-5-1.13-.17-2.23-1.75-3.61-3.09-5.14.46-.54.92-1.09,1.38-1.63,1.19-1.55-.47-2.03-1.16-2.54-3.64-2.73-7.31-5.46-11.8-6.7-3.13-2.19-6.72-1.97-10.26-1.93-.57-4.36,1.18-8.52,1.17-12.83,4.62,0,9.25-.01,13.87-.02Z"/>
      <path class="cls-51" d="M213.04,154.36c-4.15,1.44-8.12.72-12.01-1.01-.14-.55,1.56-1.95-.59-1.54-1.49.28-2.9,1.04-4.34,1.58-.16-1.97,1.31-3.01,2.57-3.94,9.49-6.95,13.13-16.41,12.22-27.88,3.01-1.41,1.73,3.19,3.98,2.84.4,1.32-.41,2.83.61,4.14,2.77-4.35,1.67-9.54,3.4-14.05.08,1.31.16,2.62.23,3.92-.19,10.88.35,21.83-3.57,32.3-.07.19.29.54.44.82,0,.29-.02.58-.03.88-.98.65-1.96,1.3-2.93,1.95Z"/>
      <path class="cls-17" d="M131.38,193.15c-2.21,3.18-5.38,7.34-8.62,6.34-3.18-.98-1.66-6.31-1.17-9.43,1.24-7.95.27-16.17,2.93-23.93.94.03,1.88.06,2.82.08,6.41,2.71,8.01,5.32,8.08,12.36.05,5.28-2.66,9.73-4.04,14.57Z"/>
      <path class="cls-158" d="M31.83,166.4c-1.18,8.24,2.74,15.75,3.44,23.72.11,1.3.58,2.61.47,3.88-.19,2.19,1.26,5.3-1.25,6.31-2.15.86-4.21-1.6-5.85-3.04-3.55-3.12-6.43-6.89-8.74-11.05,1.58-3.03.7-6.35,1.08-9.52.92-7.61,3.56-10.19,10.85-10.3ZM27.27,171.04c-.33,2.49-1.4,4.02-.63,6.19,2.52-1.56,2.82-3.17.63-6.19Z"/>
      <path class="cls-142" d="M129.34,211.09c-1.07-.04-2.24.22-2.95-.94,3.49-4.01,6.47-8.37,9.11-12.97,5.26-3.02,11.34-1.07,16.82-2.78.98-.08,1.95-.15,2.93-.23.76.39.98,1.06.97,1.85-.71.24-1.68-.21-2.22.94,2.43.44,4.79.88,7.15,1.31-4.7,1.46-9.39,2.91-14.12,4.38.6,1.39,1.76,1.11,2.63,1.47,4.01,1.65,8.5.04,12.47,1.88-6.47,1.96-13.34-.04-19.83,1.99-2.42.76-3.45,1.73-1.83,4.09-2.23.81-3.84-1.59-6-1.14-1.75-1.45-3.44-.83-5.11.15Z"/>
      <path class="cls-93" d="M13.86,6.99c1.64-.36.81-3.22,3.02-2.99,0,1.68.02,3.36.03,5.04-.38,1.62-.77,3.23-1.15,4.85-3.97,11.52-4.78,23.32-2.51,35.22.77,4.05,1.17,8.5,4.46,11.71.36.72.72,1.43,1.08,2.15.5,1.62.61,3.56,2.96,3.69l-.83,2.06c-.48,1.73-.75,3.55-1.94,5.01-1.12-1.99-4.23-1.44-4.86-4.46-1.48-7.02-5.59-13.39-5.22-20.89.06-1.28-.31-2.28-1.75-2.53-1.47-6.29,1.85-12.07,1.87-18.33.02-6.97,1.85-14,4.83-20.52Z"/>
      <path class="cls-143" d="M.87,110.56c-.63-2.78-.81-5.3,2.1-7.18,5.69-3.67,9.57-9,12.95-14.74,5-.74,10.71,2.1,14.83-2.98-.06,4.07-.04,8.13,1.08,12.09-3.09-.32-6.29-.91-9.13.76-6.68,3.93-13.27,8.02-19.89,12.05-.65-.09-1.3-1.13-1.95,0Z"/>
      <path class="cls-165" d="M162.12,206c-3.97-1.85-8.46-.23-12.47-1.88-.87-.36-2.02-.07-2.63-1.47,4.73-1.47,9.43-2.92,14.12-4.38.06-.65.12-1.29.19-1.94,1.24-.09,2.47-.17,3.71-.26,6.12,1.92,12.3,1.38,18.47.4,3.25-.52,6.45-1.34,8.59-4.22.69-.01,1.38-.02,2.07-.03-.48,3.53-3.72,3.68-6.06,4.77-2.3,1.07-5,1.28-6.95,3.14-3.59-1.99-7.24-.34-10.87-.63,2.12,1.81,4.46,2.48,6.94,2.67-4.5,3.39-9.47,4.88-15.09,3.82Z"/>
      <path class="cls-77" d="M138.34,84.65c-4.62,0-9.25.01-13.87.02-.37-.35-.73-.69-1.1-1.04.57-2.35-1.23-4.02-1.75-6.06,1.77-1.97-1.1-2.47-1.22-3.84,1.14-2.37,3.06-3.17,5.62-3.05,2.78.13,5.57.03,8.36.03,2.02,3.09,1.66,7.34,4.8,9.89-.28,1.35-.55,2.7-.83,4.05Z"/>
      <path class="cls-73" d="M135.5,197.18c-2.64,4.6-5.62,8.96-9.11,12.97-.88.23-2.76,1.48-1.42-.99,1.96-3.62,4.33-7.01,6.39-10.57,1.21-2.09,2.8-4.05,2.95-6.66-1.5-.62-1.81,1.24-2.93,1.22,1.38-4.85,4.1-9.29,4.04-14.57-.07-7.04-1.68-9.65-8.08-12.36,5.8-1.9,6.91,3.17,9.64,6.49.49-3.23,2.1-3.27,4.23-1.49.68,3.09-.83,6.04-.59,9.1-.37,6.03-2.8,11.43-5.12,16.87Z"/>
      <path class="cls-166" d="M140.62,180.32c-.24-3.06,1.27-6.01.59-9.1.5-3.3-1.12-6.61.03-9.91.37-.32.74-.64,1.12-.96,2.4.28,4.66-.44,6.93-1.02.46.45,1.34.93,1.31,1.34-.58,7.3-.76,14.75-6.34,20.51-.97-1.34-2.37-.82-3.65-.85Z"/>
      <path class="cls-149" d="M30.76,85.66c-4.12,5.08-9.84,2.24-14.83,2.98.53-3.24,3.45-6.29.82-9.79,1.45-.6.88-2.46,2.04-3.25,1.39,1.68,3.31.85,5.01,1.09,2.33.33,4.88-.89,7.01.95-.04,1.02-1.73,2.07.05,3.07-.01.72-.03,1.44-.04,2.16-.01.93-.03,1.86-.04,2.79Z"/>
      <path class="cls-164" d="M87.57,42.86c3.42-.47,5.47-4,9.63-3.56q-3.48-2.96-14.27-2.21c.52-2.68,2.41-3.26,4.72-3.23,3.33-.15,6.76.83,9.96-.82.23,2.63,2.33,1.58,3.73,1.9,3.08,1.29,6.31,2.26,9.07,4.22-.13,3.57,5.35,2.96,4.99,6.7-5.33-2.63-9.68-7.38-16.48-7.79,1.61,2.45,3,4.57,4.39,6.69-4.33-3.91-8.41-4.11-12.65-.13-.44.41-1.35.29-1.83.67-1.13.9-2.28,1.73-3.24.04-1.24-2.18,1.86-1.17,1.96-2.45Z"/>
      <path class="cls-24" d="M23.67,211.08c3.18.55,8.11-1.71,8.09,4.27-.02,5.93-4.65,4.71-8.34,4.67-.16,0-.33-.05-.49-.07-.1-.77-.21-1.54-.31-2.31-.18,0-.36,0-.53,0l-.37,2.32c-2.52-1.01-4.87-2.32-6.94-4.1,2.72-2.05,5.17-4.6,8.9-4.77Z"/>
      <path class="cls-64" d="M38.78,215.12c-.11-.12-.23-.24-.34-.36,7.1-3.86,4.56-9.97,3.21-15.41-2.57-10.37-5.88-20.54-7.89-31.06-.15-.78-.74-1.47-1.12-2.21.42-.59.84-1.18,1.26-1.76,3.57,1.34,1.69,4.59,2.14,6.86,2.59,13.13,7.76,25.59,9.85,38.83.28,1.09,1.12,1.16,2.03,1.12-3.05,1.33-6.09,2.67-9.14,4Z"/>
      <path class="cls-76" d="M18.78,75.6c-1.15.79-.58,2.65-2.03,3.25-6.57-10.02-11.15-20.62-9.59-33,1.44.25,1.82,1.24,1.75,2.52-.38,7.5,3.74,13.87,5.22,20.89.64,3.02,3.74,2.47,4.86,4.46-.07.63-.14,1.25-.2,1.88Z"/>
      <path class="cls-16" d="M45.9,209.99c-2.09-13.24-7.26-25.7-9.85-38.83-.45-2.26,1.43-5.51-2.14-6.86,2.04-2.37-.05-5.66,1.78-8.08,1.84,16.44,7.11,32.09,10.83,48.1.42,1.8.95,3.93-.62,5.66Z"/>
      <path class="cls-37" d="M81.47,23.79c.72,2.23,1.64,5.11-1.46,5.67-10.12,1.84-18.86,6.63-27.74,12.95.63-3.57,3.38-3.43,4.6-4.97.03-.04-.12-.33-.24-.37-.3-.11-.63-.16-.95-.23,1.22-1.93,3.98-.04,5.2-2.06-.14-1.67-2.73-.21-2.63-2.28.13-.11.34-.41.61-.47,5.45-1.21,10.62-3.65,16.42-3.28,3.39.22,3.4-4.21,6.2-4.98Z"/>
      <path class="cls-49" d="M122.36,163.29c-1.38,1.05-1.31,2.7-1.74,4.15-1.31,9.8-3.91,19.31-6.7,28.75-1.36,4.62-1.28,9.73-4.41,13.78.26-7.96,2.95-15.41,4.96-22.99,2.59-9.79,4.82-19.65,6.68-29.6.68,1.91-.16,4.14,1.2,5.91Z"/>
      <path class="cls-46" d="M8.71,123.61c-4.95-.52-7-4.15-8.71-8.14,2.31.1,4.63.2,6.94.31-.4,1.05-2.3.71-2.12,2.61,1.88.16,3.67.02,5.59-.51,3.03-.83,6.13-.58,9.09.64,2.6,1.07,3.01,2.38.41,3.99-3.01-2.16-6.05-.37-9.07-.07-.94-.03-1.69.29-2.12,1.17Z"/>
      <path class="cls-57" d="M218.89,114.5c-1.73,4.51-.63,9.7-3.4,14.05-1.02-1.31-.21-2.82-.61-4.14.35-7.64.78-15.29-1.8-22.71-.33-.94-.4-1.95.93-2.32,3.68,4.38,3.53,10,4.89,15.12Z"/>
      <path class="cls-136" d="M142.36,160.34c-.37.32-.74.64-1.12.96-2-2.09-.2-4.25.36-5.98,3.11-9.56,8.62-17.72,15.33-25.19,3.01-3.35,3.93-1.95,4.76,1.28,0,0-.43.02-.43.02-5.13.73-6.67,5.24-9.21,8.72-4.48,6.13-9.44,12.02-9.7,20.18Z"/>
      <path class="cls-45" d="M200.07,86.75c1.74,4.36.38,8.41-1.63,12.17-3.05,5.72-7.31,10.41-13.11,13.55-.21-1.53.8-2.45,1.77-3.31,5.66-5.02,9.94-10.8,11.06-18.55.2-1.35,1.25-2.57,1.9-3.86Z"/>
      <path class="cls-61" d="M216,151.54c-.16-.28-.52-.63-.44-.82,3.92-10.47,3.38-21.43,3.57-32.3,1.54.93,2.06,2.58,2.85,4.04-1.14.77-1.03,1.97-1,3.11.14,7.69.23,15.37-2,22.86-.99,1.04-1.98,2.08-2.98,3.11Z"/>
      <path class="cls-179" d="M115.45,137.57c1.93-.15,3.8-2.06,5.79-.17,0,3.29.02,6.58.03,9.88-1.69-1.42,0-3.86-1.94-5.64-1.83,3.19-.39,6.57-1.01,9.65-.98.36-1.96.72-2.94,1.08-.68-1.91-1.12-3.87-1.01-5.91.78-2.23,1.25-4.51.97-6.89.04-.67.08-1.33.12-2Z"/>
      <path class="cls-104" d="M35.91,137.51c2.66-.73,4.95,1.28,7.55,1.01-4.84,3.07-1.95,7.91-2.73,11.91-.52,1.26-1.42,1.96-2.83,1.85-.54-2.35.79-5.23-1.96-6.95-.01-2.6-.02-5.21-.04-7.81Z"/>
      <path class="cls-3" d="M14.76,215.84c2.07,1.78,4.42,3.09,6.94,4.1-1.08,4.25.47,5.8,4.85,5.2,2.76-.38,5.62-.09,8.43-.1.24.45.49.9.73,1.35-4.57-1.28-9.2-.02-13.79-.37-1.76-.13-3.66.54-5.2-.88-.35-3.08-2.77-5.74-1.85-9.08l-.11-.23Z"/>
      <path class="cls-115" d="M91.65,227.83c2.38-1.7,5.09-.81,7.57-.66,4.15.26,7.17-.63,8.2-5.09,0,0,.03,0,.03,0-.82,4.34,1.32,5.24,5.2,5,4.42-.27,3.57-3.35,3.79-6l.03.04c1.73,1.57.35,4.67,2.89,5.84-9.17,2.3-18.4,2.89-27.7.88Z"/>
      <path class="cls-101" d="M142.35,224.08c-5.53,3.28-11.33,2.16-17.14,1.1,1.64-.04,3.32-.33,4.92-.08,4.14.64,5.76-1.11,5.35-5.12,1.71.22,3.35.03,4.84-.92.64.31,1.28.61,1.92.92.55,1.35-1.03,2.76.1,4.1Z"/>
      <path class="cls-102" d="M50.92,221.91c-.76,3.89.86,5.29,4.77,5.22,2.97-.05,6.15-1.23,8.95.82-7.63,1.59-15.26,1.43-22.88-.08.03-.36.07-.73.1-1.09q7.82.64,7.69-4.85c.44-.81.89-.86,1.36-.03Z"/>
      <path class="cls-122" d="M218.98,148.43c2.23-7.48,2.14-15.17,2-22.86-.02-1.14-.14-2.33,1-3.11,1.4,9.25,1.7,18.39-2.96,26.98-.01-.34-.03-.68-.04-1.02Z"/>
      <path class="cls-147" d="M6.94,115.78c-2.31-.1-4.63-.2-6.94-.31.52-1.6,1.2-3.17.87-4.92.65-1.13,1.3-.09,1.95,0,2.61,1.75,5.98,1,9.39,2.55-2.19,1.11-3.73,1.89-5.28,2.67Z"/>
      <path class="cls-131" d="M142.25,219.98c-.64-.31-1.28-.61-1.92-.92-.95-4.44-4.8-5.74-8.54-7.61,1.11-.21,1.89-.36,2.67-.51,2.16-.45,3.77,1.95,6,1.14,1.81.79,1.86,2.4,1.87,4.03-.02,1.29-.05,2.58-.07,3.87Z"/>
      <path class="cls-100" d="M119.36,226.95c-2.54-1.17-1.16-4.27-2.89-5.84,1.3-1.6,3.93-1.04,4.98-3.05.29.3.58.6.87.9.71,2.5-.81,4.72-.86,7.13-.51.76-1.21,1.04-2.11.86Z"/>
      <path class="cls-27" d="M121.46,226.09c.05-2.4,1.57-4.63.86-7.13,1.35,2.59,1.48,5.98,6.28,5.31,3.24-.45,5.17-1.03,5.58-4.38.17-.39.34-.78.51-1.18.27.42.53.84.8,1.26.42,4-1.2,5.75-5.35,5.12-1.6-.25-3.28.04-4.92.08-1.25.31-2.5.61-3.75.92Z"/>
      <path class="cls-22" d="M148.23,115.44c1.67.38,3.33.75,5,1.13-.63.59-1.26,1.19-1.88,1.78-.61,1.48-2.64-.78-3.07,1.17-2.66.11-5.17,1.5-7.91.91,1.32-.99,2.65-1.97,3.97-2.96,1.48.07,2.47-.61,2.98-2l.46.02.46-.05Z"/>
      <path class="cls-21" d="M35.72,226.39c-.24-.45-.49-.9-.74-1.35-.06-1.99-.12-3.98-.18-5.97.26-.04.52-.07.78-.1.99,1.59,2.75,1.75,4.29,2.31.08,2.46-.3,4.67-3.03,5.61-.38-.17-.76-.34-1.13-.52Z"/>
      <path class="cls-20" d="M52.55,35.72c-4.87-.43-7.57,4.01-11.72,5.2-.34-.71-.69-1.42-1.03-2.14,4.5-1.82,8.56-4.92,13.73-4.85.36.97-.8,1.11-.98,1.79Z"/>
      <path class="cls-9" d="M177.21,202.18c-2.49-.2-4.82-.87-6.94-2.67,3.63.3,7.28-1.35,10.87.63-1.31.68-2.62,1.36-3.92,2.04Z"/>
      <path class="cls-78" d="M66.7,227.13c-.91-2,2.09-1.55,1.94-3.08.63-.33,1.27-.67,1.9-1,2.77.53,5.53.86,8.13-.65,2.86,1.15,5.86.36,8.79.63.02.46.04.93.07,1.39-7.17-.84-14.44-2.51-20.83,2.71Z"/>
      <path class="cls-171" d="M194.15,192.23c-.69.01-1.38.02-2.07.03-1.67-.47-3.44-.69-4.78-1.94,3.39.76,6.27-3.15,9.81-1.08-.98,1-1.97,1.99-2.95,2.99Z"/>
      <path class="cls-74" d="M8.71,123.61c.44-.88,1.18-1.2,2.12-1.17,2.39,2.12,5.23.66,7.84.99-.84,1.06-1.67,2.12-2.51,3.18-.81-.03-1.61-.05-2.42-.08-1.68-.98-3.36-1.95-5.04-2.93Z"/>
      <path class="cls-55" d="M14.87,216.07c-.91,3.34,1.5,6,1.85,9.08-1.9-.85-3.79-1.7-6.04-2.7,3.88-.75,1.73-4.91,4.19-6.38Z"/>
      <path class="cls-177" d="M142.25,219.98c.02-1.29.05-2.58.07-3.87,2.01.7,2.03,2.51,1.95,4.07-.11,2.09,1.52,1.69,2.89,2.33-1.78.58-3.29,1.07-4.81,1.56-1.13-1.34.45-2.74-.1-4.1Z"/>
      <path class="cls-175" d="M36.86,226.91c2.73-.94,3.11-3.15,3.03-5.61.28-.09.56-.13.86-.11-.13,1.97.35,3.81,1.13,5.6-.03.36-.07.73-.1,1.09-1.64-.32-3.27-.64-4.91-.96Z"/>
      <path class="cls-59" d="M142.36,160.34c.26-8.16,5.21-14.05,9.7-20.18,2.54-3.48,4.08-7.98,9.21-8.72-2.95,6.58-5.4,13.3-5.91,20.58-.03.77-.07,1.54-.1,2.32-1.66-.09-3.16.18-3.97,1.89-.66,1.03-1.33,2.06-1.99,3.09-2.28.58-4.53,1.3-6.93,1.02Z"/>
      <path class="cls-105" d="M174.17,154.56c2.55-1.81,5.04-3.71,7.66-5.41,6.35-4.12,11.66-9.08,13.68-17.37,1.98,5.97.8,11.3.65,16.6-.89,1.99-1.98,3.9-2.12,6.15-.31.32-.62.63-.93.95-.16-2.26-1.6-3.66-3.58-3.01-3.9,1.28-8.68-.81-11.89,3.25-.88,1.11-2.4.86-3.46-.33,0-.28,0-.55,0-.83Z"/>
      <path class="cls-72" d="M174.17,154.56c0,.28,0,.55,0,.83-6.15-3.01-12.5-2.62-18.91-1.04.03-.77.07-1.54.1-2.32,3.84-5.51,6.57-11.82,11.82-16.31.81-.69,1.62-1.39,3.43-2.93-1.01,2.72-1.56,4.19-2.11,5.66-.19.63-.38,1.26-.57,1.89-1.52,3.25-2.64,6.6-2.65,10.6,3.98-.52,5.94-5.5,10.29-4.45.37,2.96-3.32,5.01-1.39,8.06Z"/>
      <path class="cls-170" d="M115.38,152.38c.98-.36,1.96-.72,2.94-1.08-1.19,4.11-2.52,8.19-3.54,12.34-2.11,8.53-5.87,16.38-12.07,22.42-8.12,7.9-13.57,16.83-15.05,28.09-.06-2-.13-4-.19-6,.23-5.32,1.52-10.56,1.14-15.92,6.13-4.62,12.97-8.54,16.33-15.96.73-1.62,2.74-3.27.46-5.22.62-1.18,1.25-2.36,1.87-3.54,2.25,1.33,1.79-.78,2.23-1.75,1.8-3.99.44-8.47,1.59-12.79,1.98,1.31.95,3.89,2.95,4.64.45-1.75.89-3.49,1.33-5.22Z"/>
      <path class="cls-47" d="M121.45,218.06c-1.05,2.01-3.68,1.45-4.98,3.05,0,0-.03-.04-.03-.04-3.01.24-5.91,1.4-8.99,1,0,0-.03,0-.03,0,.03-1.21-.47-2.19-1.29-3.05-1.62,3.56-10.29,4.47-12.75,1.39-1.38-1.73-.42-2.91.61-4.34,1.94-2.66,5.22-3.24,7.58-5.21,4.72.04,9.36.61,13.81,2.27,2.02,1.64,4.05,3.28,6.07,4.91Z"/>
      <path class="cls-98" d="M115.38,213.15c-4.46-1.66-9.09-2.22-13.81-2.27,2.5-1.58,5.33-.34,7.95-.92,3.13-4.05,3.05-9.16,4.41-13.78,2.79-9.44,5.38-18.95,6.7-28.75,2.24,5.89-.88,11.27-1.83,16.79-1.14,6.63-3,13.15-4.8,19.64-.94,3.41-1.05,6.48,1.39,9.28Z"/>
      <path class="cls-31" d="M87.47,208.14c.06,2,.13,4,.19,6-.06,2.96-.13,5.92-.2,8.88-2.93-.27-5.93.52-8.79-.63q7.97-.99,7.84-9.31c-.02-1.31-.1-2.63-.15-3.94.1-.34.2-.68.3-1.02,0,0,.4,0,.4,0h.4Z"/>
      <path class="cls-164" d="M106.01,191.57c.74-.03,1.26.23,1.32,1.04.09,1.12-.42,1.94-1.46,2.23-.67.19-1.22-.18-1.34-1-.12-.86.68-2.14,1.48-2.27Z"/>
      <path class="cls-40" d="M37.91,152.27c1.42.11,2.31-.59,2.83-1.85.24.04.48.05.72.05.22,2.5.44,5,.68,7.63,2.28-.61,1.01-3.7,3.46-3.63v7.89c-2.04,2.5-.2,4.81.44,7.14.15.54.99.82.97-.32,0-.31-.14-.62-.22-.92.58-.41,1.17-.82,1.75-1.24.25,5.01,2.64,8.91,6.25,12.2,0,0-.04-.05-.04-.05.41,3.53,3.29,5.39,5.66,7.14,4.21,3.12,7.78,6.35,8.19,11.94-.03,5.98-.06,11.95-.08,17.93-1.78-2.96-.91-6.38-1.61-9.57-1.36-6.15-3.48-11.68-8.21-15.93-11.5-10.34-17.42-23.67-20.78-38.4Z"/>
      <path class="cls-108" d="M40.74,221.18c-.29-.01-.58.02-.86.11-1.54-.56-3.3-.73-4.29-2.31,1.06-1.29,2.13-2.58,3.19-3.87,3.05-1.33,6.09-2.67,9.14-4,4.93-.3,9.55.71,13.59,3.62,1.59,1.15,3.33,2.75,2.74,4.9-.61,2.21-2.79,2.58-4.9,2.51-2.81-.08-5.63-.16-8.44-.23-.47-.84-.92-.79-1.36.03-2.97.17-5.93.14-8.81-.75Z"/>
      <path class="cls-60" d="M68.51,216.17c.03-5.98.06-11.95.08-17.93.31-.67.61-1.34.92-2,.76,5.61-.74,11.37,1.09,16.92-.02,3.3-.04,6.6-.06,9.89-.63.33-1.27.67-1.9,1-.04-2.63-.09-5.26-.13-7.88Z"/>
      <path class="cls-181" d="M49.61,192.04c-3.03.05-.64-2.73-2.02-3.73-.84-.6-.01-1.63.87-1.69,1.95-.13,2.36,1.55,2.8,2.93.46,1.42-.46,2.12-1.66,2.49Z"/>
      <path class="cls-43" d="M16.17,126.62c.84-1.06,1.67-2.12,2.51-3.18.41-.31.82-.61,1.23-.92,2.6-1.61,2.18-2.92-.41-3.99-2.96-1.22-6.06-1.47-9.09-.64-1.92.52-3.71.67-5.59.51-.17-1.9,1.72-1.56,2.12-2.61,1.54-.78,3.09-1.56,5.28-2.67-3.41-1.55-6.79-.8-9.39-2.55,6.62-4.03,13.21-8.12,19.89-12.05,2.84-1.67,6.03-1.08,9.13-.76.74.98,1.48,1.97,2.22,2.95-1.45.95-3.04,1.75-4.32,2.89-1.4,1.24-3.4,2.48-1.86,4.93-.04.31-.06.61-.06.92-1.25,4.47,2.19,5.47,5.09,6.86,4.19.65,7.74.15,8.87-4.82.28-.61.55-1.21.83-1.82.41-1.67.83-3.35,1.24-5.02,6.38-4.04,13.84-2.71,20.74-4.18-2.19,3.46-.52,6.3,1.61,8.91,2.68,3.3,6.4,5.01,10.4,6.18.01,2.29.41,4.78-1.57,6.46-1.42,1.2-3.43,2.71-4.93.34-1.83-2.88-3.08-3.95-6.5-4.06-3.45,2.03-5.29,5.18-6.12,8.98-1.17,5.32.05,7.4,5.17,9.02,4.37.73,8.59-.48,12.87-1.02,1.36,0,2.73.01,4.09.02,3.67.06,7.21,1.62,10.94,1.01,4.44-.16,5.89-2.99,5.99-6.88.13-4.77-2.93-10.24-6.08-10.91-.77-.16-1.67-.09-1.92,1-.62.19-1.41.19-1.83.59-1.88,1.78-3.94,3.39-6.54,1.94-2.42-1.35-2.69-3.94-2.58-6.5,2.62-1.03,5.19-2.2,7.33-4.05,3.38-2.92,6.3-6.07,3.57-11.01,4.96.68,9.88,1.91,14.96,1.23.35.19.71.38,1.06.57,3.03,2.72,2.15,7.06,4.23,10.18,1.41,3.35,4.15,4.52,7.49,4.06,3.37-.46,6.2-1.89,6.84-5.76,1.67-5.33-2.96-6.7-5.79-9.2,1.97-1.39,3.54-3.38,5.99-4.06,3.55-.04,7.13-.26,10.26,1.93-.76.63-.37.99.27,1.38,4.24,2.61,8.47,5.24,12.7,7.86-.46.54-.92,1.09-1.38,1.63-1.45.12-2.9.24-5.16.42,2.83,1.84,5.08,3.3,7.33,4.76-.51,1.39-1.49,2.07-2.98,2-4.32-.97-7.12-.11-9.51,2.94.2.34.4.68.6,1.02,1.77,3.86-.59,5.45-3.68,6.41-4.08,1.26-8.19,2.5-12.36,3.38-9.05,1.91-17.73,4.92-26.27,8.39-2.18.88-4.37,1.3-6.7.92-5.84-.35-11.69-.89-17.52.15-3.36,1.3-6.55.02-9.54-1.08-13.14-4.84-26.39-9.22-40.29-11.34-1.11-.17-2.26-.54-2.91-1.64ZM105.98,110.43c-1.22,3.05-4.18,4.81-5.64,7.61,3.11-1.66,5.56-3.81,5.64-7.61ZM46.27,106.44c-.83,3.55.5,6.24,3.74,9.76-1.15-4.32-3.55-6.67-3.74-9.76Z"/>
      <path class="cls-132" d="M41.45,150.47c-.24,0-.48-.01-.72-.05.78-4-2.11-8.84,2.73-11.91,3.46,1.32,6.92,2.64,10.39,3.97,3.74,2.14,7.08,5.07,11.57,5.69,2.85,3.51,5.72,6.95,10.18,8.61,1.2.45,2.13.73,3.05-.33.96-.69,1.93-1.38,2.89-2.07,1.88,0,2.87-1.51,4.15-2.5,8.76-6.81,18.12-12.14,29.64-12.31.28,2.38-.19,4.66-.97,6.89-12.29,1.61-22.59,7.89-32.75,14.32-3.25,2.06-5.67,2-8.89.03-8.57-5.25-17.28-10.28-27.11-12.98-2.65-.73-4.21-.5-4.16,2.65Z"/>
      <path class="cls-29" d="M115.33,139.57c-11.51.17-20.88,5.5-29.64,12.31-1.28,1-2.27,2.5-4.15,2.5,1.67-3,4.71-4.65,6.98-7.05,8.19-5.43,17.34-8.21,26.93-9.76-.04.67-.08,1.33-.12,2Z"/>
      <path class="cls-30" d="M88.52,147.33c-2.27,2.41-5.31,4.06-6.98,7.05-.96.69-1.93,1.38-2.89,2.07-1.03-.72-1.1-1.62-.19-2.4,3.08-2.63,5.1-6.89,10.06-6.72Z"/>
      <path class="cls-137" d="M135.44,121.43c-.2-.34-.4-.68-.6-1.02,1.85,0,3.69.01,5.54.02,2.74.59,5.25-.79,7.91-.91-1.3,4.24-4.82,2.93-7.67,2.92-1.72,0-3.45-.65-5.17-1.02Z"/>
      <path class="cls-161" d="M68.91,140.68c5.83-1.04,11.67-.5,17.52-.15-5.83,1.3-11.67,1.45-17.52.15Z"/>
      <path class="cls-54" d="M65.42,148.17c-4.48-.62-7.83-3.55-11.57-5.69,4.59.41,8.1,3,11.57,5.69Z"/>
      <path class="cls-26" d="M117.61,31.02c3.24-5.6,6.44-11.23,10.7-16.16.86,1.81,2.35-1.75,3.17.37-3,5.8-5.99,11.6-9,17.39-2.94,5.65-2.61,6.18,3.85,6.16.12.11.36.26.34.33-.08.24-.24.46-.37.69-.74.3-1.5.57-2.22.92-1.67.8-2.31,4.19-5.13,2.07-2.8-2.11-3.2-4.72-1.62-7.81.63-1.23,1.82-2.54.28-3.97Z"/>
      <path class="cls-75" d="M117.61,31.02c1.53,1.43.35,2.75-.28,3.97-1.58,3.08-1.18,5.7,1.62,7.81,2.82,2.12,3.46-1.27,5.13-2.07.72-.35,1.48-.62,2.22-.92-.9,1.17-1.72,2.41-2.71,3.5-1.18,1.3-1.49,2.56-.2,3.91,4.5,4.68,7.7,10.2,10.06,16.4,2.99-1.76,2.82-5.16,4.9-7.02-.45,4.04-2.02,7.52-5.05,10.29-1.66-3.38-3.33-6.75-4.99-10.13-.67-1.56-1.33-3.13-2.78-4.16-3.79-5.88-8.77-10.43-15.1-13.46-2.77-1.96-6-2.93-9.07-4.22,2.63-2.58,5.16-.41,7.15.7,4.16,2.31,6.9,2.39,8.1-2.9.14-.61.66-1.14,1.01-1.7Z"/>
      <path class="cls-110" d="M131.48,15.23c-.83-2.12-2.31,1.44-3.17-.37,2.61-3.91,5.1-7.92,8.97-10.79.36,1.61.72,3.22,1.08,4.83,0,0-.15.19-.15.19-.76-.06-.67-2.88-2.11-.69-1.51,2.3-2.5,4.94-4.62,6.83Z"/>
      <path class="cls-50" d="M34.81,219.08c.06,1.99.12,3.98.18,5.97-2.81,0-5.67-.28-8.43.1-4.38.6-5.93-.95-4.85-5.2.12-.77.25-1.54.37-2.32.18,0,.36,0,.53,0,.1.77.21,1.54.31,2.31-.04,1.93-.52,4.11,2.59,4.1,3.61-.02,7.78,1.01,8.27-4.6.01-.14.11-.39.19-.4.27-.03.56.02.84.04Z"/>
      <path class="cls-91" d="M128.31,56.76c1.66,3.38,3.33,6.75,4.99,10.13.83,1.14,1.16,2.42,1.07,3.82-2.79,0-5.58.11-8.36-.03-2.56-.12-4.48.68-5.62,3.05-8.33-7.99-12.66-5.62-18.33-2.72-1.69.87-3.01,2.48-4.5,3.75-4.4-3.84-11.51-2.34-13.97,2.93.12-1.99.25-4.03-.84-5.79-.76-1.22.12-4.25-3.07-3.05-2.91,3.96-6.89,5.3-11.66,4.87-1.48-.13-2.97-.07-4.46,0-2.61.1-5.24-.19-6.05,3.55-.37,1.74-1.3.06-1.83-.54,1.07-.63,1.14-1.57.67-2.55-3.6-7.52-15.19-8.87-20.56-2.42-.2-2.61-1.94-3.06-4.12-3.03-3.58.04-7.17,0-10.76,0,.28-.69.56-1.37.83-2.06.5-2.26,1.48-4.29,2.91-6.1,2.47,3.11,5.96,1.96,9.12,2.19-.07,1.29-2.48,1.92-1.14,3.8,2.8-1.31,5.04-3.5,8.17-3.68.75,1.21,1.5,2.61,3.11,2.52.8-.05,1.94-.71,2.25-1.39.45-1.02-.73-1.08-1.45-1.26,1.12-1.33,2.62-.89,4.03-.88,1.24,3.56,4.41,3.35,6.91,2.72,4.76-1.2,9.32-.8,13.96.17,1.24-.66.99-1.87,1.08-2.96,1.72-.47,4.23,1.12,4.94-1.93,1.27-1.05,1.74-2.5,2-4.06,1.36.11,2.61-.23,3.77-.94,1.65,2.57.59,5.84,2.27,9.48.44-2.52.71-4.04.98-5.55,1.97,0,3.96.1,5.92-.05,3.65-.28,7.65,1.23,10.75-2.01.09,2.85,1.35,4.49,4.33,5.1,5.37,1.09,10.99,1.02,16.13,4.19-.2-3.73-3.15-4.84-4.37-7.11,3.29-2.45,7.52-.16,10.9-2.15Z"/>
      <path class="cls-80" d="M138.35,56.59c-2.08,1.86-1.91,5.26-4.9,7.02-2.36-6.2-5.56-11.72-10.06-16.4-1.3-1.35-.99-2.61.2-3.91.99-1.09,1.81-2.33,2.71-3.5.13-.23.29-.45.37-.69.02-.07-.22-.22-.34-.33.77-1.71,2.55-2.04,3.96-2.88-5.02,6.7-4.72,12.04,2.65,17.41,3.47,2.53,3.79,1.55,4.66-1.22,1.27-4.04,2.39-8.13,3.58-12.2.57,4.84-1.94,9.27-1.9,14.04-.31.88-.62,1.77-.93,2.65Z"/>
      <path class="cls-109" d="M139.28,53.94c-.04-4.77,2.46-9.2,1.9-14.04.64-6.41-.41-12.7-1.23-19.01-.58-3.93-1.16-7.86-1.75-11.79,0,0,.15-.19.15-.19,4.26,13.64,5.33,27.49,2.55,41.56-.24,1.19-.38,2.66-1.63,3.48Z"/>
      <path class="cls-38" d="M135.49,219.98c-.27-.42-.53-.84-.8-1.26-.17.39-.34.78-.51,1.18-.83.06-1.65.13-2.48.17-2.26.11-4.6-.28-5.68-2.3-1.13-2.12.99-3.55,2.16-5.07.4-.52.78-1.07,1.16-1.6,1.68-.98,3.37-1.6,5.11-.15-.78.15-1.56.3-2.67.51,3.75,1.87,7.59,3.17,8.54,7.61-1.49.95-3.13,1.14-4.84.92Z"/>
      <path class="cls-163" d="M29.84,19.89c.94,1.37,1.88,2.75,2.82,4.12-.52,4.66,3.01,7.9,4.28,11.96,1.65,5.28.35,7.36-5.22,6.88-.29-.04-.59-.08-.88-.11-.56-1.53-2.53-2.13-2.69-3.97,6.26-.37,6.63-1.02,3.86-6.71-2.45-5.03-4.94-10.05-7.41-15.07,2.29-.01,2.45,3.82,5.24,2.9Z"/>
      <path class="cls-160" d="M31.73,42.85c5.57.48,6.87-1.59,5.22-6.88-1.27-4.06-4.8-7.3-4.28-11.96,3.09,4.59,4.78,9.84,7.13,14.78.34.71.69,1.42,1.03,2.13-.34.4-.68.79-1.02,1.19-3.61,2.27-6.48,5.3-8.98,8.71-2.56,2.92-4.78,6.06-6.16,9.73-1.43,1.81-2.41,3.84-2.91,6.1-2.35-.13-2.46-2.07-2.96-3.69,2.71,1.35,3.37-.75,4.25-2.52,2.28-4.59,4.48-9.25,8.32-12.79,1.75-1.61,1.43-3.11.36-4.8Z"/>
      <path class="cls-65" d="M29.84,19.89c-2.79.92-2.95-2.91-5.24-2.9-1.49-2.69-3.05-5.36-4.46-8.09-1.26-2.44-2.23-1.55-3.23.15,0-1.68-.02-3.36-.03-5.04,5.63,4.23,9.18,10.15,12.96,15.88Z"/>
      <path class="cls-90" d="M197.13,170.34c-.39.64-.78,1.27-1.16,1.91-6.84,5.44-15.13,8.11-22.85,11.86-1.09-2.27-3.19-1.98-5.08-1.84-2.88.21-5.75.66-8.62,1.01-2.41-1.2-3.4,1.37-5.15,1.94-2.02-3.47-5.48-1.34-8.2-2.12,1.76-3.93,3.52-7.87,5.28-11.8,7.41-.05,14.74-1.5,22.19-1.08,3.5.2,7.01-.07,10.58-.63,4.16-.65,8.81-1.52,13.02.76Z"/>
      <path class="cls-69" d="M173.11,184.11c7.73-3.74,16.01-6.41,22.85-11.86,2.78-.46,5.33.93,8.04,1.01.01.64-1.39,1.97.73,1.6,1.08-.19,2.14-.51,3.22-.77-.4,6.22-5.96,7.79-9.95,10.48-3.3,2.22-7.35,3.33-11.06,4.95-.05.02-.04.31.01.44.06.14.22.24.34.36,1.35,1.26,3.12,1.48,4.78,1.94-2.14,2.87-5.33,3.7-8.59,4.22-6.17.98-12.35,1.52-18.47-.4,5.44-3.08,11.74-4.66,16.99-9.68-3.22,0-5.75-.04-8.26.03-.71.02-1.61,1.05-2.07-.07-.46-1.12.64-1.68,1.43-2.24Z"/>
      <path class="cls-1" d="M197.13,170.34c-4.2-2.28-8.85-1.41-13.02-.76-3.58.56-7.08.83-10.58.63-7.45-.42-14.78,1.03-22.2,1.08.36-2.98.73-5.97,1.09-8.95,2.23-.01,4.46,0,6.69-.05,1.43-.03,1.65.57,1.07,1.73-1.32,1.55,1.46,2.55.51,4.35-.41.78,1.48,1.21,2.22.73,2.18-1.39,1.61-3.16.31-4.88-.86-1.55-.4-2.61,1.33-2.8,3.06-.34,6.17-.35,9.22-.78,5.1-.73,10.38.76,15.34-1.33,1.65.73,3.33-1.81,4.97.04-1.16,2.31-3.47,3.44-6.04,5.75h12.23c-.01,2.88-1.45,4.15-3.16,5.24Z"/>
      <path class="cls-82" d="M194.1,159.34c-1.64-1.85-3.32.69-4.97-.04.7-1.92,2.65-2.55,3.97-3.83.31-.32.62-.63.93-.95.69-.38,1.38-.76,2.07-1.14,1.44-.54,2.85-1.29,4.34-1.58,2.15-.41.44.99.59,1.54-2.31,2-4.62,4-6.93,6Z"/>
      <path class="cls-67" d="M207.96,174.09c-1.07.26-2.13.58-3.22.77-2.12.37-.72-.96-.73-1.6.73-.62,1.47-1.24,2.2-1.86.78-.66,1.05-2.35,2.54-1.57.79.42,1.75,1.29,1.87,2.08.3,1.87-2.1,1-2.66,2.18Z"/>
      <path class="cls-134" d="M213.04,154.36c.98-.65,1.96-1.3,2.93-1.95-.39,2.93-2.83,4.1-5.29,5.39.79-1.15,1.57-2.29,2.36-3.44Z"/>
      <path class="cls-12" d="M81.39,54.85c-1.16.71-2.41,1.05-3.77.94-.21-1.38.47-2.98-1.03-4.03-3.82-2.01-7.92-.49-11.87-.95,1.3-4.64,5.89-6.02,8.89-8.98,3.63-1.31,7.41-.97,11.15-1,1.46-.01,2.6.32,2.8,2.02-.1,1.28-3.2.27-1.96,2.45.96,1.69,2.11.87,3.24-.04.48-.38,1.39-.26,1.83-.67,4.24-3.98,8.32-3.78,12.65.13-1.39-2.12-2.78-4.23-4.39-6.69,6.8.41,11.15,5.16,16.48,7.79,0,.32.02.65.02.97-4.89,2.2-10.33,1.68-14.98.66-4.94-1.09-8.28,5.65-13.2,1.57-.93-.77-3.16-.42-3.01,1.87.09,1.37-.5,1.76-1.63,1.87-.57-.07-1.15-.14-1.72-.21.17.76.33,1.52.5,2.28Z"/>
      <path class="cls-130" d="M30.83,50.83c2.5-3.42,5.37-6.45,8.98-8.71.44,1.05-1.47,5.01,2.35,1.86,1.85-1.52,3.54-2.87,6.39-1.36,1.48.79,3.89.23,5.77-.22,2.88-.68,5.08-.16,6.67,2.4,2.05-1.52,4.08-3.25,6.68-.94-1.99,2.98-3.99,5.95-5.98,8.93-1.78-1.11-3.77-1.09-5.75-.99-6.66.32-13.32.69-19.98.97-1.94.08-4.06.39-5.13-1.95Z"/>
      <path class="cls-119" d="M61.68,52.79c1.99-2.98,3.99-5.96,5.98-8.93,1.9-.94,3.36-3.15,5.96-2.02-3.01,2.95-7.59,4.33-8.89,8.98-.46.87-.81,1.83-1.42,2.59-.38.48-.24,1.87-1.39,1.25-.32-.17-.17-1.22-.24-1.87Z"/>
      <path class="cls-62" d="M123.29,97.49c-2.45.68-4.02,2.67-5.99,4.06-.33,0-.65,0-.97-.03,0-.97,0-1.93,0-2.9.06-.67.12-1.34.18-2.01,3.86-11.81.38-18.57-11.74-22.81,9-2.03,14.25,3.03,18.59,9.82.37.35.73.69,1.1,1.04,0,4.31-1.74,8.47-1.17,12.83Z"/>
      <path class="cls-4" d="M147.32,115.47c-2.25-1.46-4.5-2.92-7.33-4.76,2.26-.18,3.71-.3,5.16-.42,1.34,1.53,2.92,2.91,3.09,5.14,0,0-.46.05-.46.05l-.46-.02Z"/>
      <path class="cls-140" d="M27.27,171.04c2.19,3.02,1.89,4.62-.63,6.19-.78-2.17.3-3.69.63-6.19Z"/>
      <path class="cls-96" d="M173.11,184.11c-.79.56-1.88,1.12-1.43,2.24.45,1.11,1.35.09,2.07.07,2.52-.07,5.04-.03,8.26-.03-5.25,5.02-11.55,6.6-16.99,9.68-1.24.09-2.47.17-3.71.26-1.7-.1-3.41-.21-5.11-.31,0-.79-.21-1.46-.97-1.85.72-.55,1.45-1.09,2.32-1.75-2.4-.73-4.41.15-6.25,1.02-.63.3.53.72,1,.96-5.48,1.71-11.56-.24-16.82,2.78,2.32-5.44,4.75-10.84,5.12-16.87,1.28.03,2.68-.48,3.65.85-.12,1.08-1.73,2.15-.58,3.12.88.74,1.56-.77,2.37-1.19,2.72.77,6.18-1.35,8.2,2.12-.4,1.17-2.43,1-2.19,3.02,3.09-.86,5.52-2.44,7.34-4.96,2.87-.35,5.74-.8,8.62-1.01,1.9-.14,4-.43,5.08,1.84Z"/>
      <path class="cls-153" d="M156.21,196.02c1.7.1,3.41.21,5.11.31-.06.65-.12,1.29-.18,1.94-2.36-.43-4.72-.86-7.15-1.31.54-1.15,1.51-.7,2.22-.94Z"/>
      <path class="cls-35" d="M152.32,194.4c-.47-.24-1.63-.67-1-.96,1.84-.87,3.85-1.75,6.25-1.02-.87.66-1.6,1.2-2.32,1.75-.98.08-1.95.15-2.93.23Z"/>
      <path class="cls-111" d="M16.91,9.04c1-1.69,1.97-2.59,3.23-.15,1.42,2.73,2.97,5.4,4.46,8.09,2.47,5.02,4.95,10.04,7.41,15.07,2.78,5.69,2.41,6.34-3.86,6.71.16,1.84,2.13,2.44,2.69,3.97-.22,1.36.5,2.97-1.06,3.98-1.07-7.39-7.76-11.77-10.32-18.33,2.21-1.18,3.01,1.81,5.01.83-.66-5.3-3.81-8.46-8.6-10.28-.04-1.68-.08-3.36-.12-5.04.38-1.62.77-3.23,1.15-4.85Z"/>
      <path class="cls-48" d="M20.92,68.71c3.59,0,7.17.04,10.76,0,2.18-.02,3.92.42,4.12,3.03-1.67,1.97-3.34,3.93-5.01,5.9-2.13-1.83-4.67-.62-7.01-.95-1.7-.24-3.62.58-5.01-1.09.07-.63.14-1.25.2-1.88,1.19-1.46,1.45-3.27,1.94-5.01Z"/>
      <path class="cls-56" d="M29.79,46.71c1.56-1,.84-2.61,1.06-3.98.3.03.59.07.88.11,1.07,1.69,1.38,3.19-.36,4.8-3.84,3.54-6.05,8.21-8.32,12.79-.88,1.77-1.54,3.87-4.25,2.52-.36-.71-.72-1.43-1.08-2.15-.65-4.73-3.51-9.01-2.86-14.01,1.54,1.62,1.51,3.88,2.38,5.78,1.21,2.64,2.35,4.64,4.85.8,1.88-2.89,4.55-5.13,7.7-6.68Z"/>
      <path class="cls-84" d="M14.85,46.81c-.66,5,2.21,9.27,2.86,14.01-3.29-3.2-3.69-7.66-4.46-11.71-2.27-11.9-1.46-23.7,2.51-35.22.04,1.68.08,3.36.12,5.04-2.05,9.23-3,18.5-1.02,27.88Z"/>
      <path class="cls-81" d="M34.06,100.7c-.74-.98-1.48-1.97-2.22-2.95-1.12-3.96-1.15-8.02-1.08-12.09.01-.93.03-1.86.04-2.79,3.1-2.98,5.6-6.68,9.84-8.3.37.37.75.74,1.12,1.12-2.72,2.79-4.39,6.08-4.76,9.99-.19,3.32-1.36,6.7.71,9.86-.41,2.2.72,3.33,2.7,3.88.46.14.92.27,1.38.41-1.68.58-3.35,1.16-5.03,1.75-.52-1.47-1.67-.95-2.69-.87Z"/>
      <path class="cls-127" d="M123.37,83.63c-4.34-6.79-9.59-11.86-18.59-9.82-3.08.98-4.24,4.03-6.43,5.98-.49.34-.99.67-1.48,1.01-.02-.42-.19-.91-.04-1.26.43-1.02.99-1.98,1.51-2.97,7.65-8.37,15.28-8.04,23.28,1,.52,2.04,2.32,3.71,1.75,6.06Z"/>
      <path class="cls-14" d="M121.61,77.57c-8-9.04-15.63-9.37-23.28-1-.76-.39-.81-1.08-.77-1.81,1.49-1.27,2.8-2.88,4.5-3.75,5.67-2.9,10-5.27,18.33,2.72.12,1.37,2.98,1.87,1.22,3.84Z"/>
      <path class="cls-86" d="M146.06,183.1c-.81.42-1.5,1.93-2.37,1.19-1.15-.97.46-2.03.58-3.12,5.58-5.76,5.75-13.21,6.34-20.51.03-.41-.85-.89-1.31-1.34.67-1.03,1.33-2.06,1.99-3.09,1.79,1.77.6,4.11,1.14,6.11-.36,2.98-.73,5.97-1.09,8.95-1.76,3.93-3.52,7.87-5.28,11.8Z"/>
      <path class="cls-88" d="M30.79,77.64c1.67-1.97,3.34-3.93,5.01-5.9,5.37-6.45,16.96-5.09,20.56,2.42.47.98.41,1.93-.67,2.55-.28-.36-.55-.72-.83-1.08-1.61-3.63-4.79-4.72-8.35-5-7.73-.61-11.87,4.49-15.67,10.06-1.78-.99-.09-2.04-.05-3.07Z"/>
      <path class="cls-114" d="M30.84,80.71c3.8-5.57,7.94-10.68,15.67-10.06,3.56.28,6.74,1.37,8.35,5-.14.41-.27.82-.41,1.23-.27-.05-.54-.09-.82-.1-3.69-4.75-7.08-5.33-12.99-2.21-4.24,1.63-6.74,5.33-9.84,8.3.01-.72.03-1.44.04-2.16Z"/>
      <path class="cls-18" d="M115.43,46.81c0-.32,0-.65-.02-.97.35-3.74-5.13-3.12-4.99-6.7,6.33,3.03,11.31,7.57,15.1,13.46-.44,2.7-1.51,1.25-2.45.36-2.38-2.25-4.39-4.97-7.63-6.15Z"/>
      <path class="cls-53" d="M19.91,122.51c-.41.31-.82.61-1.23.92-2.61-.33-5.46,1.13-7.84-.99,3.03-.29,6.07-2.09,9.07.07Z"/>
      <path class="cls-43" d="M41.45,150.47c-.05-3.15,1.51-3.38,4.16-2.65,9.83,2.71,18.54,7.73,27.11,12.98,3.22,1.97,5.63,2.03,8.89-.03,10.16-6.43,20.45-12.71,32.75-14.32-.11,2.05.34,4,1.01,5.91-.44,1.74-.89,3.47-1.33,5.22-2.01-.74-.98-3.33-2.95-4.64-1.15,4.31.22,8.8-1.59,12.79-.44.97.02,3.08-2.23,1.75-.48-1.1-.46-2.62-2.31-2.69-1.17,4.03-1.88,8.24-5.38,11.13-2.05-2.23.17-5.41-2.4-7.6-1.75,6.98-5.57,12.1-10.97,16.28-1.58-2.25.4-5.21-2.07-7.05-2.48,1.96-3.23,5.89-6.22,6.77-4.06,1.2-3.67-4.77-7.16-5.58-.1,2.01-.19,3.78-.31,6.15-6.54-4.77-11.02-10.24-11.96-18.69-2.09,3.43-1.48,6.49-1.96,9.75-1.53-1.06-2.71-1.86-3.88-2.67-1.99-2.52-1.93-5.9-3.4-8.74-.93.8-.75,1.63-.73,2.43-.58.41-1.17.82-1.75,1.24-.4-1.96-.79-3.93-1.19-5.89v-7.89c-2.45-.07-1.18,3.03-3.46,3.63-.23-2.63-.46-5.13-.68-7.63ZM68.77,165.84c.4,4.41,2.93,7.31,6.01,9.83,1.13.93,2.59.88,3.69-.07,3.15-2.73,6.39-5.43,8.2-10.56-3.67,3.08-5.01,7.01-8.42,8.54-1.52-.87-.28-3.71-1.21-3.24-5.13,2.57-5.09-3.42-8.27-4.5Z"/>
      <path class="cls-152" d="M107.45,222.07c3.08.4,5.98-.76,8.99-1-.21,2.65.64,5.73-3.79,6-3.88.24-6.02-.66-5.2-5Z"/>
      <path class="cls-139" d="M40.74,221.18c2.88.9,5.84.92,8.81.75q.13,5.49-7.69,4.85c-.78-1.79-1.25-3.63-1.12-5.6Z"/>
      <path class="cls-99" d="M140.37,120.43c-1.84,0-3.69-.01-5.54-.02,2.39-3.05,5.19-3.91,9.5-2.94-1.32.99-2.64,1.97-3.97,2.96Z"/>
      <path class="cls-135" d="M70.54,223.05c.02-3.3.04-6.6.06-9.89-.21-2.79.65-4.31,3.88-4.1,3.95.25,7.93.08,11.89.1.05,1.31.12,2.63.15,3.94q.14,8.31-7.84,9.31c-2.61,1.52-5.36,1.18-8.13.65Z"/>
      <path class="cls-144" d="M152.43,162.35c-.54-2.01.65-4.34-1.14-6.11.81-1.71,2.31-1.98,3.97-1.89,6.41-1.58,12.75-1.97,18.91,1.04,1.06,1.19,2.58,1.45,3.46.33,3.21-4.06,7.99-1.97,11.89-3.25,1.98-.65,3.43.75,3.58,3.01-1.32,1.28-3.27,1.91-3.97,3.83-4.97,2.09-10.25.6-15.34,1.33-3.05.43-6.15.44-9.22.78-1.73.19-2.19,1.25-1.33,2.81-1.02-.07-2.03-.13-3.05-.2.58-1.15.36-1.76-1.07-1.73-2.23.05-4.46.04-6.69.05Z"/>
      <path class="cls-79" d="M52.66,173.31c1.17.81,2.34,1.61,3.88,2.67.48-3.26-.13-6.33,1.96-9.75.93,8.45,5.42,13.92,11.96,18.69.12-2.36.21-4.14.31-6.15,3.48.8,3.1,6.78,7.16,5.58,2.98-.88,3.74-4.81,6.22-6.77,2.46,1.83.48,4.8,2.07,7.05,5.4-4.18,9.22-9.3,10.97-16.28,2.57,2.19.35,5.37,2.4,7.6,3.5-2.89,4.21-7.1,5.38-11.13,1.85.07,1.84,1.59,2.31,2.69-.62,1.18-1.25,2.36-1.87,3.54-1.75,2.72-3.31,5.56-5.09,8.27-3.83,5.84-9.9,8.82-15.08,12.94-1.45.94-2.89,1.87-4.34,2.81-2.28.82-4.08.24-6.21-1.06-7.11-4.35-14.26-8.59-19.95-14.84,0,0,.04.05.04.05-.71-1.97-1.41-3.93-2.12-5.9Z"/>
      <path class="cls-5" d="M85.23,192.25c5.18-4.12,11.25-7.11,15.08-12.94,1.78-2.72,3.34-5.55,5.09-8.27,2.27,1.94.27,3.6-.46,5.22-3.36,7.42-10.19,11.35-16.33,15.96-.76.04-1.53.09-2.29.13-.36-.03-.73-.07-1.09-.1Z"/>
      <path class="cls-83" d="M86.32,192.35c.76-.04,1.53-.09,2.29-.13.37,5.36-.92,10.6-1.14,15.92,0,0-.4-.01-.4-.01,0,0-.4,0-.4,0-.11-5.26-.23-10.52-.34-15.79Z"/>
      <path class="cls-85" d="M86.32,192.35c.11,5.26.23,10.52.34,15.79-.1.34-.2.68-.3,1.02-3.97-.01-7.94.16-11.89-.1-3.22-.21-4.09,1.32-3.88,4.1-1.83-5.55-.33-11.3-1.09-16.92.24-4.76,2.57-2.31,4.39-1.23,2.35,1.41,4.63,3.81,7,.05,1.45-.94,2.9-1.87,4.34-2.81.36.03.72.07,1.09.1Z"/>
      <path class="cls-124" d="M80.89,195.06c-2.36,3.76-4.64,1.36-7-.05-1.82-1.08-4.15-3.53-4.39,1.23-.31.67-.61,1.34-.92,2-.4-5.59-3.98-8.82-8.19-11.94-2.37-1.76-5.25-3.61-5.66-7.14,5.68,6.25,12.84,10.48,19.95,14.84,2.12,1.3,3.93,1.88,6.21,1.06Z"/>
      <path class="cls-148" d="M52.66,173.31c.71,1.97,1.41,3.93,2.12,5.9-3.6-3.29-6-7.2-6.25-12.2-.02-.8-.19-1.63.73-2.43,1.46,2.84,1.41,6.21,3.4,8.74Z"/>
      <path class="cls-97" d="M45.59,162.35c.4,1.96.79,3.93,1.19,5.89.08.31.21.61.22.92.02,1.14-.82.86-.97.32-.64-2.33-2.47-4.64-.44-7.14Z"/>
      <path class="cls-106" d="M54.45,76.88c.14-.41.27-.82.41-1.24.28.36.55.72.83,1.08.54.61,1.46,2.28,1.83.54.81-3.74,3.43-3.45,6.05-3.55,1.48-.06,2.98-.12,4.46,0,4.76.43,8.75-.91,11.66-4.87-.31,1.92-.89,3.84-.88,5.75.03,3.17,1.16,5.23,4.79,3.09,2.45-5.27,9.57-6.77,13.97-2.93-.04.73,0,1.42.77,1.81-.51.99-1.07,1.95-1.51,2.97-.15.35.02.83.04,1.26.49-.34.99-.67,1.48-1.01.04.96.07,1.91.11,2.87-2.09,2.74-.4,5.98-1.17,8.9-2.74,1.72-3.54-2.76-6.02-1.88-6.66-3.05-13.34-5.89-20.69-2.12-1.83-1.67-3.02.18-4.21.95-4.17,2.69-5.3,8.59-10.6,10.16-.07.02,0,.47,0,1.03,3.83-1.37,6.77-3.96,10.04-5.96,1.36,1.72,2.53-.56,3.82-.19,3.12,2.18,6.66.6,9.96,1.08,0,.29,0,.59.01.88-1.78.03-3.56,0-5.33.11-2.38.14-5-.08-5.77,3.1-1.63-.12-2.56,1.3-3.92,1.76-6.9,1.46-14.36.14-20.75,4.18.41-1.5,1.53-2.34,2.79-3.05,3.04-1.93,6.08-3.86,9.12-5.79,1.32-.34,2.79-.88,2.44-2.48-.85-3.92.18-8.18-2.16-11.81-.53-1.54-1.05-3.09-1.58-4.63Z"/>
      <path class="cls-154" d="M64.59,100.46c1.36-.46,2.29-1.88,3.92-1.76,0,0,.07-.07.07-.07-.28.67-.56,1.33-.83,2-1.74,2.11-.71,2.88,1.49,2.94,2.46.07,4.93.01,7.39.01l.03-.69c-2.29-.23-4.59-.46-7.79-.79,5.81-1.17,10.85.26,15.66-1.35.4-.35.81-.69,1.21-1.04.93.25,1.85.51,2.78.76,2.73,4.94-.19,8.09-3.57,11.01-2.14,1.85-4.71,3.02-7.33,4.05-.34,0-.67.02-1.01.03-4-1.17-7.72-2.88-10.4-6.18-2.12-2.61-3.8-5.45-1.61-8.91ZM73.43,108.49c-.71-1.69-1.11-3.78-3.66-3.86-1.43-.04-2.31.68-1.88,2.09.52,1.69,1.13,3.54,3.35,3.75,1.29.12,2.28-.29,2.19-1.99ZM80.97,111.23c1.38-.83,3.1-1.82,3.13-3.45.03-1.72-1.84-2.18-3.33-1.99-1.81.23-2.28,1.69-2.08,3.32.15,1.26.79,2.13,2.28,2.12Z"/>
      <path class="cls-121" d="M76.59,115.56c.34,0,.67-.02,1.01-.03-.11,2.56.16,5.15,2.58,6.5,2.6,1.45,4.65-.16,6.54-1.94.42-.4,1.21-.4,1.83-.59,4.35,1.89,7.19,7.7,5.81,11.84-.91,2.73-1.8,1.22-2.72.03-3.39-6.31-9.19-7.57-15.55-7.03-5.93.5-12,1.18-14.47,8.08-4.64-.73-2.57-3.75-2.19-6.26.48-3.13,4.34-4.42,4.16-7.86,3.42.11,4.67,1.18,6.5,4.06,1.5,2.37,3.51.87,4.93-.34,1.98-1.68,1.58-4.17,1.57-6.46Z"/>
      <path class="cls-6" d="M116.33,101.52c.32.03.65.04.98.03,2.83,2.5,7.46,3.86,5.79,9.2-3.49,2.35-6.53,6.48-11.53,2.98,2.11-.76,4.95,1.03,6.68-1.83-6.64-.65-7.23-1.08-10.3-7.05-.75-1.46-1.61-2.87-2.42-4.3.28-.97-1.43-2.22.41-2.97.94,1.16,2.23.98,3.49.92,1.87,1.99,4.47,2.31,6.9,3.03Z"/>
      <path class="cls-94" d="M79.6,135.29c-1.36,0-2.73-.01-4.09-.02-2.43-1.6-5.13-.36-7.67-.75-1.63-.25-4.17,1.12-4.65-1.26-.39-1.93,1.3-3.68,3.14-4.66,6.4-3.39,13.11-3.16,19.55-.6,2.75,1.09,5.24,3.6,4.61,7.41l.02-.03c-3.64.25-7.25-2.47-10.91-.1ZM87.93,132.31c-4.07-5.12-14.93-5.25-20.85-.38,7.01-.64,13.82-.94,20.85.38Z"/>
      <path class="cls-103" d="M46.63,101.59c-1.26.71-2.38,1.55-2.79,3.05-.41,1.67-.83,3.35-1.24,5.02-.97.01-2.1-.3-2.87.1-3.52,1.82-6.86,3-10.16-.49-.31-.33-.77.73-.78,1.37-.33-.4-.65-.79-.98-1.19,0-.31.02-.62.06-.92,1.6-4.06,4.99-5.82,8.88-6.95,1.68-.58,3.35-1.16,5.03-1.75,1.75.23,4.25-1.61,4.85,1.77Z"/>
      <path class="cls-176" d="M90.5,135.41c.63-3.81-1.86-6.32-4.61-7.41-6.44-2.57-13.15-2.79-19.55.6-1.84.98-3.53,2.73-3.14,4.66.48,2.39,3.02,1.01,4.65,1.26,2.54.39,5.24-.85,7.67.75-4.27.54-8.49,1.75-12.87,1.02-.86-1.16-1.07-2.48-1.03-3.88,2.47-6.9,8.54-7.58,14.47-8.08,6.36-.54,12.16.72,15.55,7.03-.33,1.36.56,3.07-1.14,4.05Z"/>
      <path class="cls-157" d="M88.5,100.47c-.93-.25-1.85-.51-2.78-.76-.63-1.42-2.25-1.32-3.29-2.12.02-2-1.48-1.95-2.83-2.1,0-.29-.01-.59-.01-.88,3.82-.23,7.05,1.51,10.29,3.15,1.64.83,3.18,1.84,4.66-.18,1.64-.29,3.24,2.22,4.92.09,1.71.97,3.19,2.17,4,4.03-5.08.67-9.99-.56-14.96-1.23Z"/>
      <path class="cls-36" d="M28.79,110.63c.01-.64.47-1.7.78-1.37,3.29,3.49,6.63,2.31,10.16.49.77-.4,1.91-.08,2.87-.1-.28.61-.55,1.21-.83,1.82-2.01,1.77-4.03,3.53-6.99,3.25-2.83-.15-5.5-.54-5.99-4.1Z"/>
      <path class="cls-141" d="M105.52,100.54c.81,1.43,1.67,2.84,2.42,4.3,3.08,5.97,3.67,6.4,10.3,7.05-1.73,2.87-4.58,1.07-6.68,1.83-.56-1.25-1.25-2.22-2.81-1.28-2.08-3.11-1.21-7.46-4.23-10.18.04-.75.12-1.47,1-1.73Z"/>
      <path class="cls-92" d="M90.5,135.41c1.7-.98.81-2.68,1.14-4.05.92,1.19,1.81,2.7,2.72-.03,1.38-4.13-1.45-9.94-5.81-11.84.25-1.08,1.14-1.16,1.92-1,3.15.67,6.2,6.14,6.08,10.91-.1,3.89-1.55,6.72-5.99,6.88.03-.3.02-.61-.03-.91l-.02.03Z"/>
      <path class="cls-87" d="M61.62,132.41c-.04,1.39.16,2.72,1.03,3.88-5.12-1.62-6.34-3.7-5.17-9.02.83-3.8,2.67-6.95,6.12-8.98.18,3.45-3.69,4.74-4.16,7.86-.38,2.51-2.46,5.53,2.19,6.26Z"/>
      <path class="cls-23" d="M108.76,112.45c1.56-.94,2.25.02,2.81,1.28,5,3.5,8.04-.63,11.53-2.98-.64,3.87-3.48,5.3-6.84,5.76-3.34.46-6.08-.71-7.49-4.06Z"/>
      <path class="cls-15" d="M105.52,100.54c-.88.26-.96.99-1,1.73-.35-.19-.71-.38-1.06-.57-.81-1.86-2.29-3.07-4-4.04-.63-.65-1.27-1.31-1.9-1.96,1.01-.07,2.02-.14,3.03-.21,1.78.69,3.56,1.39,5.34,2.08-1.85.75-.14,2-.42,2.97Z"/>
      <path class="cls-71" d="M36.75,101.56c-3.88,1.14-7.28,2.9-8.88,6.95-1.54-2.45.46-3.68,1.86-4.93,1.28-1.14,2.87-1.94,4.32-2.89,1.02-.08,2.17-.6,2.69.87Z"/>
      <path class="cls-125" d="M34.78,114.73c2.96.27,4.98-1.48,6.99-3.25-1.13,4.97-4.68,5.48-8.87,4.82.63-.52,1.25-1.04,1.88-1.57Z"/>
      <path class="cls-169" d="M105.98,110.43c-.08,3.8-2.53,5.95-5.64,7.61,1.47-2.8,4.42-4.57,5.64-7.61Z"/>
      <path class="cls-118" d="M34.78,114.73c-.63.52-1.25,1.04-1.88,1.57-2.9-1.39-6.34-2.39-5.09-6.86.33.4.65.79.98,1.19.49,3.56,3.16,3.95,5.99,4.1Z"/>
      <path class="cls-33" d="M46.27,106.44c.19,3.09,2.59,5.44,3.74,9.76-3.24-3.52-4.57-6.21-3.74-9.76Z"/>
      <path class="cls-168" d="M90.52,135.39c.05.3.06.61.03.91-3.73.61-7.27-.94-10.94-1.01,3.66-2.37,7.27.35,10.91.1Z"/>
      <path class="cls-19" d="M138.21,9.1c.58,3.93,1.16,7.86,1.75,11.79-5.85-.17-7.97,3.97-10.07,8.37,2.01.91,3.25-2.07,5.26-.44-1.05,2.75-2.37,5.3-4.85,7.09-1.41.84-3.19,1.17-3.96,2.88-6.47.02-6.79-.51-3.85-6.16,3.01-5.79,6-11.6,9-17.39,2.12-1.88,3.11-4.53,4.62-6.83,1.44-2.19,1.34.63,2.11.69Z"/>
      <path class="cls-68" d="M115.43,46.81c3.24,1.18,5.25,3.9,7.63,6.15.94.89,2.02,2.34,2.45-.36,1.46,1.03,2.12,2.6,2.78,4.16-3.38,1.99-7.61-.29-10.9,2.15-1.76-.8-3.51-1.6-5.27-2.41-3.65-1.69-7.28-3.03-10.82.23-3.1,3.24-7.1,1.73-10.75,2.01-1.96.15-3.95.04-5.92.05-.68-2-1.35-4-2.03-6,1.13-.11,1.72-.5,1.63-1.87-.15-2.29,2.08-2.64,3.01-1.87,4.93,4.07,8.26-2.66,13.2-1.57,4.65,1.03,10.09,1.54,14.98-.66Z"/>
      <path class="cls-113" d="M61.68,52.79c.07.65-.08,1.7.24,1.87,1.15.61,1.01-.77,1.39-1.25.61-.76.96-1.72,1.42-2.59,3.94.46,8.05-1.06,11.87.95-.48,2.68-1.72,5.26-.97,8.09-.7,3.05-3.22,1.47-4.94,1.93-.02-1.16-.01-2.32-.08-3.48-.05-.78.11-2.01-.97-1.92-1.33.11-.86,1.5-1.03,2.39-4.93,0-9.86-.01-14.79-.02-.84-3.57-3.47-4.05-6.5-3.7-5.59.64-9.64,4.03-13.53,7.69-3.16-.22-6.65.92-9.12-2.19,1.38-3.67,3.6-6.81,6.16-9.73,1.06,2.34,3.18,2.03,5.13,1.95,6.66-.29,13.32-.66,19.98-.97,1.98-.09,3.97-.11,5.75.99Z"/>
      <path class="cls-28" d="M101.32,56.73c3.54-3.26,7.17-1.92,10.82-.23,1.75.81,3.51,1.61,5.27,2.41,1.23,2.27,4.17,3.39,4.37,7.11-5.14-3.18-10.76-3.11-16.13-4.19-2.98-.6-4.23-2.25-4.33-5.1Z"/>
      <path class="cls-120" d="M33.79,62.74c3.89-3.66,7.94-7.04,13.53-7.69,3.03-.35,5.66.13,6.5,3.7-1.12,1.96-3,2.68-5.07,3.1-1.41-.01-2.91-.45-4.03.88-1.3.04-2.61.09-3.91.13-3.12.18-5.37,2.37-8.17,3.68-1.34-1.88,1.07-2.51,1.14-3.8Z"/>
      <path class="cls-167" d="M48.75,61.85c2.07-.41,3.95-1.13,5.07-3.1,4.93,0,9.86.01,14.79.02.34,1.99.67,3.98,1.01,5.97-4.64-.98-9.2-1.37-13.96-.17-2.49.63-5.67.84-6.91-2.72Z"/>
      <path class="cls-63" d="M83.6,77.69c-3.63,2.14-4.76.08-4.79-3.09-.02-1.92.56-3.84.88-5.75,3.19-1.19,2.31,1.83,3.07,3.05,1.09,1.76.96,3.8.84,5.79Z"/>
      <path class="cls-133" d="M82.61,52.78c.68,2,1.35,4,2.03,6-.27,1.51-.53,3.03-.98,5.55-1.68-3.65-.63-6.92-2.27-9.48-.17-.76-.34-1.52-.5-2.28.57.07,1.15.14,1.72.21Z"/>
      <path class="cls-12" d="M69.62,64.74c-.34-1.99-.67-3.98-1.01-5.97.18-.89-.29-2.28,1.03-2.39,1.08-.09.93,1.14.97,1.92.07,1.16.06,2.32.08,3.48-.09,1.09.17,2.29-1.08,2.96Z"/>
      <path class="cls-167" d="M40.81,62.86c1.3-.04,2.61-.09,3.91-.13.73.18,1.91.24,1.45,1.26-.31.69-1.44,1.35-2.25,1.39-1.61.09-2.36-1.31-3.11-2.52Z"/>
      <path class="cls-13" d="M75.63,59.85c-.75-2.82.49-5.41.97-8.09,1.5,1.05.82,2.65,1.03,4.03-.26,1.55-.72,3-2,4.06Z"/>
      <path class="cls-89" d="M130.29,35.91c2.48-1.79,3.8-4.33,4.85-7.09-2.01-1.63-3.25,1.35-5.26.44,2.1-4.41,4.23-8.54,10.07-8.37.81,6.31,1.87,12.61,1.23,19.01-1.19,4.07-2.31,8.16-3.58,12.2-.87,2.77-1.19,3.75-4.66,1.22-7.36-5.37-7.67-10.71-2.65-17.41Z"/>
      <path class="cls-123" d="M159.41,183.28c-1.83,2.52-4.25,4.1-7.34,4.96-.24-2.02,1.8-1.86,2.19-3.02,1.75-.57,2.74-3.14,5.15-1.94Z"/>
      <path class="cls-8" d="M160.19,164.03c1.02.07,2.03.13,3.05.2,1.3,1.72,1.87,3.5-.31,4.88-.74.47-2.63.04-2.22-.73.94-1.8-1.83-2.8-.51-4.35Z"/>
      <path class="cls-95" d="M98.46,82.65c-.04-.96-.07-1.91-.11-2.87,2.18-1.95,3.35-4.99,6.43-5.98,12.12,4.23,15.6,11,11.74,22.81-.07-2.28-.14-4.57-.21-6.85.14-4.54-1.1-8.65-4.87-11.33-2.38-1.69-5.34-3.74-7.93.08-2.17.61-3.36,2.22-4.23,4.15-.27,0-.54,0-.81,0Z"/>
      <path class="cls-159" d="M116.3,89.76c.07,2.28.14,4.57.21,6.85-.06.67-.12,1.34-.18,2.01-1.31.32-2.63.88-3.88-.18,1.07-1.59,2.74-3.09,1.68-5.24-1.1-2.22-3.35-1.58-5.22-1.59-3.08-.03-6.17.08-9.25.13-.12-.36-.24-.73-.36-1.09,5.58-1.97,11.22-2.79,17.01-.88Z"/>
      <path class="cls-117" d="M112.45,98.44c1.25,1.06,2.57.5,3.88.18,0,.97,0,1.94,0,2.9-2.43-.72-5.03-1.03-6.9-3.03.68-.04,1.36-.07,2.04-.11l.99.06Z"/>
      <path class="cls-89" d="M14.85,46.81c-1.98-9.38-1.03-18.65,1.02-27.88,4.79,1.83,7.94,4.99,8.6,10.28-2,.97-2.8-2.01-5.01-.83,2.56,6.56,9.25,10.95,10.32,18.33-3.16,1.55-5.82,3.79-7.7,6.68-2.5,3.84-3.64,1.84-4.85-.8-.87-1.89-.85-4.16-2.38-5.78Z"/>
      <path class="cls-151" d="M46.63,101.59c-.6-3.38-3.1-1.54-4.85-1.77-.46-.14-.92-.27-1.38-.41,1.1-.35,2.21-.71,3.31-1.06,3.16-.53,6.44-.63,9.11-2.77.59-.06,1.18-.13,1.77-.19.39.14.77.27,1.16.41-3.04,1.93-6.08,3.86-9.12,5.79Z"/>
      <path class="cls-173" d="M43.72,98.35c-1.1.35-2.21.71-3.31,1.06-1.98-.54-3.11-1.67-2.7-3.88.05-.95.11-1.9.16-2.85.65,0,1.3.01,1.95.02.68,1.01,1.36,2.01,2.05,3.02.62.88,1.23,1.76,1.85,2.63Z"/>
      <path class="cls-178" d="M40.64,74.56c5.91-3.12,9.31-2.55,13,2.21-3.2-1.07-6.25-3.53-9.85-1.12-.68,0-1.35.02-2.03.03l-1.12-1.12Z"/>
      <path class="cls-172" d="M41.76,75.68c.68,0,1.35-.02,2.03-.03.01,1.18-2.35,1.5-1.12,3.11-1.49,1.75-2.98,3.49-3.27,5.91-.75.03-1.36.28-1.66,1.03-.25,0-.49-.02-.74-.03.37-3.91,2.05-7.2,4.76-9.99Z"/>
      <path class="cls-116" d="M37,85.67c.25.01.49.02.74.03.03,1.33.06,2.66.09,3.98.02,1,.03,2,.05,3-.05.95-.11,1.9-.16,2.85-2.07-3.15-.9-6.54-.71-9.86Z"/>
      <path class="cls-11" d="M42.67,78.76c-1.22-1.61,1.13-1.94,1.12-3.11,3.6-2.42,6.64.05,9.85,1.12.27.02.55.05.82.11.53,1.55,1.05,3.09,1.58,4.64-.21.04-.42.1-.62.15-2.99-1.08-5.77-.31-8.48.98-.51-2.3-1.3-4.29-4.26-3.89Z"/>
      <path class="cls-162" d="M68.77,165.84c3.18,1.08,3.13,7.07,8.27,4.5.94-.47-.3,2.37,1.21,3.24,3.4-1.52,4.74-5.46,8.42-8.54-1.81,5.12-5.05,7.83-8.2,10.56-1.09.95-2.55,1-3.69.07-3.07-2.52-5.61-5.42-6.01-9.83Z"/>
      <path class="cls-66" d="M65.81,93.72c-3.27,2-6.21,4.59-10.04,5.96,0-.56-.06-1.01,0-1.03,5.3-1.57,6.43-7.47,10.6-10.16,1.19-.77,2.37-2.62,4.21-.95-1.17.8-2.88.87-3.56,2.91,3.94-1.14,7.63-2.15,11.58-2.03,4.17.13,8.15.65,11.95,2.48.8.38.86-.59.73-1.24,2.48-.88,3.28,3.6,6.02,1.88.37,1.38.05,2.65-.59,3.88-2.37.65-4.26-.56-5.99-1.79-8.36-5.96-16.63-5.46-24.91.09Z"/>
      <path class="cls-129" d="M94.54,97.58c-1.48,2.02-3.02,1.01-4.66.18-3.24-1.64-6.47-3.39-10.29-3.15-3.31-.49-6.84,1.1-9.96-1.08,4.33-3.31,9.1-3.83,14-1.73,3.78,1.62,7.63,3.18,10.91,5.78Z"/>
      <path class="cls-42" d="M94.54,97.58c-3.28-2.6-7.13-4.16-10.91-5.78-4.9-2.1-9.67-1.57-14,1.73-1.3-.37-2.46,1.9-3.82.19,8.29-5.55,16.55-6.05,24.91-.09,1.72,1.23,3.62,2.44,5.99,1.79.29.06.58.16.86.28.63.65,1.27,1.31,1.9,1.96-1.68,2.13-3.27-.38-4.92-.09Z"/>
      <path class="cls-107" d="M91.27,89.67c.13.66.07,1.63-.73,1.24-3.8-1.83-7.77-2.35-11.95-2.48-3.95-.12-7.64.89-11.58,2.03.68-2.04,2.4-2.11,3.56-2.91,7.36-3.77,14.03-.93,20.69,2.12Z"/>
      <path class="cls-174" d="M97.56,95.71c-.28-.12-.56-.22-.86-.28.63-1.23.95-2.5.59-3.88.77-2.92-.92-6.16,1.17-8.9.27,0,.54,0,.81,0-.04.71-.08,1.42-.12,2.12-.98,1.98-1.08,3.94.14,5.87.12.36.24.73.36,1.09-.13,1.09-.31,2.2.86,2.9-.02.29,0,.57.07.86-1.01.07-2.02.14-3.03.21Z"/>
      <path class="cls-126" d="M55.75,95.8c-.39-.14-.77-.27-1.16-.41,1.32-2.02,2.45-4.09,1.98-6.65-.39-2.36-.77-4.72-1.16-7.08.21-.06.41-.11.62-.15,2.34,3.63,1.32,7.89,2.16,11.81.34,1.6-1.12,2.14-2.44,2.48Z"/>
      <path class="cls-25" d="M79.6,95.49c1.35.16,2.85.11,2.83,2.1-.21-.02-.42-.03-.63-.03-3.4-1.79-6.79-1.32-10.18.02-1.02.34-2.03.69-3.05,1.03,0,0-.07.07-.07.07.77-3.17,3.39-2.96,5.77-3.1,1.77-.1,3.56-.08,5.33-.11Z"/>
      <path class="cls-112" d="M81.8,97.57c.21,0,.42,0,.63.03,1.04.79,2.65.69,3.28,2.12-.4.35-.81.69-1.21,1.04-5.59-.04-11.18-.08-16.77-.13.28-.67.56-1.33.83-2,1.02-.34,2.03-.69,3.05-1.03,3.4,1.3,6.79,1.45,10.18-.02Z"/>
      <path class="cls-10" d="M67.74,100.63c5.59.04,11.18.08,16.77.13-4.81,1.61-9.85.18-15.66,1.35,3.2.32,5.49.55,7.79.79l-.03.69c-2.46,0-4.93.05-7.39-.01-2.2-.06-3.23-.83-1.49-2.94Z"/>
      <path class="cls-145" d="M73.43,108.49c.09,1.69-.9,2.11-2.19,1.99-2.22-.21-2.83-2.06-3.35-3.75-.44-1.41.45-2.14,1.88-2.09,2.55.08,2.96,2.17,3.66,3.86Z"/>
      <path class="cls-145" d="M80.97,111.23c-1.49,0-2.13-.86-2.28-2.12-.19-1.64.27-3.09,2.08-3.32,1.48-.19,3.35.27,3.33,1.99-.03,1.63-1.75,2.62-3.13,3.45Z"/>
      <path class="cls-70" d="M100.59,95.49c-.07-.28-.09-.57-.07-.86,1.75-.22,3.54-.27,5.25-.68,3.84-.92,6.08,0,5.7,4.43-.68.04-1.36.07-2.04.11-1.26.06-2.55.24-3.49-.92-1.78-.69-3.56-1.39-5.34-2.08Z"/>
      <path class="cls-34" d="M87.93,132.31c-7.02-1.32-13.83-1.02-20.85-.38,5.91-4.87,16.78-4.74,20.85.38Z"/>
      <path class="cls-7" d="M99.3,90.64c-1.22-1.93-1.12-3.89-.14-5.87,1.46,2.87,3.95,2.86,5.5.82,1.7-2.23,2.16-5.21-1.16-7.09,2.59-3.82,5.55-1.77,7.93-.08,3.77,2.68,5.01,6.79,4.87,11.33-5.78-1.91-11.42-1.09-17.01.88Z"/>
      <path class="cls-41" d="M111.46,98.38c.39-4.42-1.85-5.35-5.7-4.43-1.71.41-3.5.47-5.25.68-1.17-.71-.99-1.81-.86-2.9,3.08-.05,6.17-.16,9.25-.13,1.87.02,4.12-.62,5.22,1.59,1.06,2.14-.61,3.65-1.68,5.24-.33-.02-.66-.04-.99-.06Z"/>
      <path class="cls-58" d="M56.57,88.75c.47,2.55-.66,4.63-1.98,6.65-.59.06-1.18.13-1.77.19.23-.62.46-1.25.69-1.87,1.83-3.36.83-4.15-2.7-3.25-3.62.92-7.32,1.5-10.99,2.24-.65,0-1.3-.01-1.95-.02-.02-1-.03-2-.05-3,6.29.57,12.45-1.65,18.75-.94Z"/>
      <path class="cls-32" d="M53.52,93.71c-.23.62-.46,1.25-.69,1.87-2.67,2.14-5.95,2.24-9.11,2.77-.62-.88-1.23-1.76-1.85-2.63,4.03.19,7.92-.42,11.65-2Z"/>
      <path class="cls-150" d="M53.52,93.71c-3.73,1.58-7.62,2.19-11.65,2-.68-1.01-1.36-2.01-2.05-3.02,3.67-.73,7.37-1.31,10.99-2.23,3.53-.9,4.53-.1,2.7,3.25Z"/>
      <path class="cls-138" d="M56.57,88.75c-6.3-.71-12.46,1.51-18.75.94-.03-1.33-.06-2.66-.09-3.98.3-.75.91-1,1.66-1.03.48,2.69,2.37,3.47,4.69,3.03,2.72-.52,2.63-2.94,2.84-5.05,2.72-1.29,5.49-2.07,8.48-.98.38,2.36.77,4.72,1.16,7.08Z"/>
      <path class="cls-39" d="M46.93,82.65c-.21,2.1-.12,4.53-2.84,5.05-2.32.44-4.21-.34-4.69-3.03.29-2.41,1.79-4.16,3.27-5.91,2.97-.4,3.75,1.59,4.26,3.89Z"/>
      <path class="cls-52" d="M81.8,97.57c-3.39,1.47-6.79,1.32-10.18.02,3.39-1.34,6.78-1.82,10.18-.02Z"/>
    </g>
  </g>
</svg>