<?xml version="1.0" encoding="UTF-8"?>
<svg id="Layer_2" xmlns="http://www.w3.org/2000/svg" viewBox="0 0 225 231">
  <defs>
    <style>
      .cls-1 {
        fill: #f18b85;
      }

      .cls-2 {
        fill: #6a91a6;
      }

      .cls-3 {
        fill: #7da5b8;
      }

      .cls-4 {
        fill: #1485ce;
      }

      .cls-5 {
        fill: #dadbe2;
      }

      .cls-6 {
        fill: #3ed9fa;
      }

      .cls-7 {
        fill: #ec5069;
      }

      .cls-8 {
        fill: #6c1b25;
      }

      .cls-9 {
        fill: #d43a55;
      }

      .cls-10 {
        fill: #6890a6;
      }

      .cls-11 {
        fill: #e3dad6;
      }

      .cls-12 {
        fill: #e4d8d1;
      }

      .cls-13 {
        fill: #1c1d20;
      }

      .cls-14 {
        fill: #c5b8b9;
      }

      .cls-15 {
        fill: #09bff0;
      }

      .cls-16 {
        fill: #b3afb7;
      }

      .cls-17 {
        fill: #aea4a6;
      }

      .cls-18 {
        fill: #5970ad;
      }

      .cls-19 {
        fill: #de7671;
      }

      .cls-20 {
        fill: #567c93;
      }

      .cls-21 {
        fill: #92b2c4;
      }

      .cls-22 {
        fill: #6891a6;
      }

      .cls-23 {
        fill: #846d6f;
      }

      .cls-24 {
        fill: #e6dad1;
      }

      .cls-25 {
        fill: #4b6a7f;
      }

      .cls-26 {
        fill: #c4b6b6;
      }

      .cls-27 {
        fill: #978384;
      }

      .cls-28 {
        fill: #465e70;
      }
    </style>
  </defs>
  <g id="Layer_1-2" data-name="Layer_1">
    <g>
      <path class="cls-5" d="M35.22,14.8c1.3.63,2.84,1,3.87,1.94,5.72,5.19,11.42,10.42,16.91,15.85,2.33,2.31,4.48,2.74,7.59,1.77,5.25-1.64,9.54-4.44,13.12-8.56,2.73-3.14,5.51-4.58,8.02.41.42.83,1.85,1.08,2.64,1.79,1.28,1.15,2.99,2.25,3.51,3.73,1.27,3.57,3.14,4.35,6.09,1.77,8.56-7.49,17.15-14.94,25.55-22.61C126.25,7.52,129.52,3.65,133,0c2.67,0,5.33,0,8,0,2.18,5.7,4.57,11.33,6.49,17.11,5.32,16.09,6.41,32.49,2.2,48.96-1.17,4.59-4.11,8.7-5.76,13.21-.89,2.42-1.76,5.6-.9,7.75,2.17,5.43,4.64,11.01,8.26,15.52,5.14,6.41,5.63,6.02-.4,11.3,1.35,1.85,4.18,4.71,3.77,5.31-2.06,2.96-4.99,5.32-7.61,7.89,1.14-1.66,2.59-3.2,3.32-5.03.44-1.11-.21-2.66-.37-4.01-1.61-.92-3.21-1.85-4.92-2.83.79-1.28,1.37-2.23,1.96-3.19l-.05.03c1.11-.35,2.21-.69,3.32-1.04.97-.96,1.94-1.91,2.91-2.87-2.01-2.21-4.22-4.28-6-6.67-6.09-8.17-11.69-16.49-3.65-26.64.3-.37.36-.92.57-1.38,9.65-21.54,5.64-42.81-1.32-64.01-.41-1.24-1.15-2.41-1.88-3.51-2.52-3.82-4.67-4.04-8.06-1.04-5.48,4.84-11.18,9.45-16.47,14.48-5.99,5.69-11.63,11.75-17.42,17.64-.32,1-.65,2.01-.97,3.01-3.34-.42-6.68-.83-9.83-1.22-.27-2.63-.46-4.52-.67-6.63-1.97.64-3.54,1.15-5.5,1.79,0-2.35,0-4.15,0-5.95-1.34-4.25-2.71-.57-3.57.17-6.13,5.28-12.65,9.59-21.13,9.7-.33-.35-.67-.7-1-1.05-1.22-1.53-2.3-3.2-3.69-4.56-5.88-5.74-11.85-11.39-17.79-17.07.13-.13.26-.25.4-.38Z"/>
      <path class="cls-5" d="M0,105c5.05-1.22,7.32-5.35,9.59-9.36,1.3-2.3,2.62-4.75,3.1-7.29.49-2.56.96-5.94-.27-7.9C1.69,63.27.68,44.89,5.69,25.98,8.03,17.12,11.85,8.65,15,0,17.67,0,20.33,0,23,0c3.09,3.54,6.22,7.05,9.26,10.64,1.1,1.29,1.97,2.77,2.95,4.17-.13.12-.27.25-.4.37-3.81-3.21-7.56-6.5-11.44-9.63-4.97-4-6.53-3.65-9.33,2.07-7.78,15.91-9.29,32.88-7.72,50.16.8,8.85,3.69,17.22,10.62,23.53-.04.29.03.55.21.78-1.76,8.62-5.01,16.46-11.36,22.83-.98.99-1.2,2.73-1.78,4.12,2.15,1.01,4.28,2.06,6.46,3,2.49,1.07,4.05,2.17.51,3.97-3.21,1.31-6.42,2.62-9.63,3.93-.45.02-.9.04-1.35.05v-15Z"/>
      <path class="cls-11" d="M225,138c-.67,1.26-1.59,2.45-1.97,3.79-1.72,6.02-3.29,12.08-4.92,18.12-.52-.15-1.03-.3-1.55-.45,1.61-5.75,3.54-11.43,4.7-17.26.64-3.22-.04-6.71-.13-10.08,1.54-9.91-1.5-18.75-6.34-27.16-.3-2.28-.61-4.55-.92-6.83l.2-.18c1.17,1.71,2.54,3.32,3.46,5.15,1.61,3.22,2.95,6.59,4.4,9.89.35,2.63.55,5.29,1.12,7.86.33,1.46,1.28,2.77,1.95,4.15v13Z"/>
      <path class="cls-27" d="M45,231c-2.92-.83-5.85-1.65-8.77-2.47-1.3-3.7-3.96-4.81-7.75-4.58-4.34.26-8.27-.86-10.61-5.05.07-.32.18-.62.34-.9,5.98,5.02,7.26-1.74,10.23-4.97-.4,3-.7,5.17-.99,7.33,1.19-.07,2.38-.14,3.57-.2.65-.04,1.3-.07,1.96-.11.98-.01,1.96-.03,2.94-.04.07.64.14,1.27.21,1.91-.07,4.61,2.84,5.83,6.74,5.93,2.73.32,5.46.64,8.19.97,3.01-.01,6.01-.02,9.02-.04-.04.37-.09.74-.13,1.11-1.32.37-2.64.74-3.96,1.12h-11Z"/>
      <path class="cls-27" d="M99,231c-2.58-.66-5.23-1.16-7.73-2.05-1.62-.57-3.03-1.72-4.54-2.61.73-.12,1.46-.24,2.19-.37,3.29.93,6.53,2.11,9.88,2.73,3.08.58,6.55,1.37,8.21-2.73-.76,4.32,3.64,2.1,4.9,3.87-1.63.38-3.27.77-4.9,1.15h-8Z"/>
      <path class="cls-11" d="M192.14,103.09c1.51-5.47,2.93-10.97,4.6-16.4.49-1.61,1.87-4.32,2.55-4.24,2.11.27,4.23,1.41,6.07,2.63,2.07,1.39,3.84,3.23,5.73,4.88,0,0-.06,0-.06,0,.35,1.1.71,2.21,1.07,3.31.66,1.55,1.32,3.11,1.98,4.66,0,0-.2.18-.2.18-1.42-1.17-2.83-2.34-5.14-4.24,2.28,6.67,4.21,12.31,6.13,17.94.14,11.84.09,23.64-6.71,34.11-.24-1.24-.47-2.47-.71-3.71-4.54,9.7-9.6,18.2-17.9,24.47,2.54-9.95,6.7-19.33,6.53-29.41-5.63,5.2-11.18,10.33-16.73,15.45-.39-.36-.79-.72-1.18-1.08,1.82-6.2,3.64-12.41,5.71-19.48-4.12,3.26-7,5.54-9.88,7.82h0c.65-2.8,1.3-5.6,2.1-9.03-5.34,4.74-10.14,8.99-14.94,13.25-.29-.27-.57-.55-.86-.82,1.87-4.47,3.74-8.93,5.62-13.4,1.7-2.01,3.4-4.01,5.11-6.02l-.05.04c.41-.35.82-.71,1.22-1.06,1.6-1.31,3.19-2.61,4.79-3.92.34-.35.68-.7,1.02-1.06l-.02.02c.67-.35,1.33-.7,2-1.06,0,0-.03.03-.03.03.34-.34.68-.68,1.02-1.02,0,0-.01,0-.01,0,.67-.34,1.34-.67,2.02-1.01,0,0-.03.02-.03.02,4.66-3.08,9.46-6.05,11.08-11.96.33-.34.65-.68.98-1.01.12-.06.26-.09.35-.18.06-.05.04-.18.06-.28-.14.15-.29.29-.43.44-.34.33-.67.65-1.01.98-.61.04-1.23.08-1.84.12ZM198,96c-.26.37-.51.73-.77,1.1.13.09.26.17.4.26.12-.45.25-.91.37-1.36.08-.14.15-.28.23-.42-.08.14-.15.28-.23.42Z"/>
      <path class="cls-14" d="M149.99,118c.16,1.35.82,2.9.37,4.01-.73,1.83-2.18,3.37-3.32,5.03,0,0,0,0,0,0-2.66,1.67-5.33,3.34-7.99,5.01,0,0,0,0,0,0-2.64.81-5.47,1.26-7.88,2.52-2.85,1.49-5.34,3.69-7.98,5.57,0,.63,0,1.25.01,1.88-.66,0-1.32.01-1.98.02-.1-.66-.19-1.32-.29-1.98-1.18-.56-2.47-1.77-3.51-1.58-5.49,1.03-11.02,2.08-16.32,3.77-4.55,1.45-8.82,3.77-13.21,5.71-9.13,6.48-12.66,6.45-20.59-.17-.38-.31-.82-.55-1.23-.82-1.32-.94-2.52-2.42-3.98-2.73-8.84-1.89-17.74-3.52-26.61-5.24-1.41-.3-2.89-.43-4.23-.93-5.13-1.93-10.21-3.98-15.31-5.99,0,0,0-.02,0-.02-.32-.64-.63-1.28-.95-1.92-.67-.38-1.35-.76-2.02-1.13,0,0,.03.02.03.02-.7-.33-1.4-.65-2.09-.98,0,0,.07.04.07.04-.34-.36-.68-.72-1.02-1.08,0,0,.04.03.04.03-.34-.34-.69-.68-1.03-1.03,0,0,.03.04.03.04-1.08-.66-2.17-1.32-3.25-1.98-.6-.6-1.21-1.2-1.81-1.8-.27-3.11,1.65-3.49,4.06-3.28.3.71.54,1.99.92,2.04,3.17.4,6.36.57,9.78.82-.47,1.11-1,2.37-1.64,3.9,1.51.86,2.7,1.88,4.07,2.27,9.67,2.74,19.33,5.49,29.09,7.88,2.26.55,6.01,3.26,6.29-2.34,6.44,6.49,11.22,15.47,21.16,14.72,9.05-.68,16.04-6.47,19.62-13.2,10.28,1.29,19.04-1.36,27.71-3.72,4.83-1.31,9.36-3.7,14.13-5.65-1.1-2.01-1.73-3.17-2.45-4.48,4.06-.92,8.68,3.19,11.35-2.27.66-.32,1.32-.64,1.98-.96Z"/>
      <path class="cls-5" d="M121.21,142.05c.66,0,1.32-.01,1.98-.02.59,4.47,1.62,8.94,1.65,13.42.03,4.19.86,6.86,5.42,7.92,2.24.52,4.16,2.44,6.79,4.07,2.06-5.65,3.77-11.06,6.02-16.24,1.24-2.86,3.38-5.32,5.12-7.97-.76,1.99-1.66,3.94-2.24,5.98-.54,1.88-.74,3.85-1.09,5.79-.26,1.69-.52,3.37-.78,5.06l-6.15,14.9c-1.67-2.26-3.33-4.52-5-6.77-2.99-1.34-5.99-2.69-8.98-4.03-.65-.05-1.3-.09-1.95-.14.35-2.34.7-4.68,1.05-7.02-.01-2.73.14-5.48-.13-8.18-.1-.98-1.2-1.87-1.85-2.8.04-1.32.09-2.64.13-3.96Z"/>
      <path class="cls-14" d="M214.07,97.95c-.66-1.55-1.32-3.11-1.98-4.66-.36-1.11-.71-2.21-1.06-3.31,0,0,.05,0,.06,0-1.4-3.94-2.81-7.88-4.21-11.81l.19-.23c9.51,9.76,13.62,21.8,14.87,35.06-1.45-3.3-2.79-6.67-4.4-9.89-.92-1.83-2.29-3.44-3.46-5.15Z"/>
      <path class="cls-14" d="M192.14,103.09l1.84-.12.05.05c-1.62,5.91-6.41,8.87-11.08,11.96,3.06-3.96,6.12-7.93,9.18-11.89Z"/>
      <path class="cls-16" d="M144.87,155c.35-1.93.55-3.91,1.09-5.79.58-2.04,1.48-3.99,2.24-5.98.57-.44,1.15-.88,1.72-1.32,1-.31,2-.62,2.99-.93-2.68,4.67-5.36,9.35-8.04,14.02Z"/>
      <path class="cls-5" d="M123.19,140.15c2.65-1.89,5.13-4.08,7.98-5.57,2.41-1.26,5.24-1.71,7.88-2.52-.88,1.06-1.55,2.6-2.67,3.09-4.32,1.85-8.78,3.37-13.19,5.01Z"/>
      <path class="cls-5" d="M176.99,119.04c-1.6,1.31-3.19,2.61-4.79,3.92-.41.35-.81.71-1.22,1.06,0,0,.05-.04.05-.04-1.03-.02-2.05-.04-3.08-.06,1.65-4.71,5.61-6.14,9.97-7,.03.36.05.72.08,1.08,0,0,.02-.02.02-.02-.34.35-.68.7-1.02,1.06Z"/>
      <path class="cls-16" d="M167.95,123.93c1.03.02,2.05.04,3.08.06-1.7,2.01-3.4,4.01-5.11,6.02-.64-.02-1.29-.03-1.93-.05.34-.98.67-1.97,1.01-2.95l2.95-3.07Z"/>
      <path class="cls-16" d="M155,136c1.67-1.67,3.33-3.33,5-5,.98-.01,1.95-.03,2.93-.04-2.65,2.65-5.31,5.29-7.96,7.94,0-.97.02-1.94.03-2.91Z"/>
      <path class="cls-5" d="M155,136c0,.97-.02,1.94-.03,2.91-.69.69-1.37,1.38-2.06,2.07-1,.31-2,.62-2.99.93,1.69-1.97,3.39-3.94,5.08-5.91Z"/>
      <path class="cls-5" d="M139.05,132.05c2.66-1.67,5.33-3.34,7.99-5.01-.94,4.42-4.73,4.29-7.99,5.01Z"/>
      <path class="cls-5" d="M162.93,130.96c-.98.01-1.95.03-2.93.04,1.67-1.34,3.33-2.67,5-4.01-.34.98-.67,1.97-1.01,2.95-.35.34-.71.68-1.06,1.02Z"/>
      <path class="cls-14" d="M206.87,78.15c-.4-.14-.8-.29-1.2-.43.13-.17.36-.5.38-.49.35.2.68.45,1.01.69,0,0-.19.23-.19.23Z"/>
      <path class="cls-14" d="M177.99,118.01c-.03-.36-.05-.72-.08-1.08.69,0,1.38.02,2.08.03-.67.35-1.33.7-2,1.06Z"/>
      <path class="cls-14" d="M182.99,114.96c-.67.34-1.34.67-2.02,1.01.67-.34,1.34-.67,2.02-1.01Z"/>
      <path class="cls-14" d="M180.98,115.97c-.34.34-.68.68-1.02,1.02.34-.34.68-.68,1.02-1.02Z"/>
      <path class="cls-25" d="M210.39,160.43c-1.07,3.18-2.14,6.36-3.21,9.54.92.59,1.91,1.76,2.76,1.67,1.99-.21,3.91-1.03,5.85-1.61-5.25,9.86-14.08,14.96-23.04,19.94,2.01.12,4.01.24,6.35.38-13.02,17.32-45.66,23.26-68.42,12.92,1.07-1.85,2.13-3.7,3.2-5.55,5.04-1.24,10.08-2.47,15.11-3.71l.02.02c-2.53,2.32-5.05,4.63-7.59,6.96,12.25,4.04,33.32-2.58,38.71-11.99-1.28,0-2.44.03-3.59,0-1.13-.03-2.25-.12-4.76-.27,17.72-5.81,28.13-17.01,33.57-33.14.42-1.25,1.52-2.26,2.31-3.39-.15,1.99-.3,3.98-.45,5.96-.31.84-.62,1.67-1.18,3.17,1.69-.59,2.8-.98,3.92-1.38.15.16.29.32.44.48Z"/>
      <path class="cls-11" d="M130.68,203.26c22.76,10.34,55.4,4.4,68.42-12.92-2.33-.14-4.34-.26-6.35-.38,8.96-4.98,17.8-10.08,23.04-19.94-1.95.57-3.87,1.39-5.85,1.61-.85.09-1.83-1.07-2.76-1.67,2.75-2.4,5.49-4.8,7.66-6.7.78,1.15,2.36,2.55,2.71,4.21.44,2.1.62,4.88-.43,6.51-1.83,2.87-4.55,5.22-7.12,7.54-3.82,3.43-7.33,6.47-9.87,11.6-2.47,4.99-9.03,8.6-14.53,11.31-13.91,6.85-28.62,9.08-43.89,4.67-.47-.13-.99-.11-1.49-.08-.48.03-.95.18-.81.15.9,3.27,1.79,6.5,2.67,9.73-.3.05-.61.06-.91.04-.37-.35-.74-.69-1.11-1.03-1.83-2.37-3.26-5.33-5.61-6.96-2.43-1.67-5.75-2.05-8.68-2.99.76-1.28,1.53-2.56,2.29-3.84.87-.28,1.75-.57,2.62-.85Z"/>
      <path class="cls-14" d="M207.21,158.15c.15-1.99.3-3.98.45-5.96.16-2.09.33-4.17.49-6.25,6.8-10.47,6.85-22.27,6.71-34.11-.03-2.29-.05-4.58-.08-6.87,4.85,8.42,7.88,17.26,6.34,27.16-2.75,7.18-5.25,14.46-8.39,21.47-.88,1.95-3.63,3.07-5.53,4.56Z"/>
      <path class="cls-14" d="M141.18,218.93c.31.02.61,0,.91-.04,1.26,1.31,2.53,2.62,3.79,3.93-1.39,1.04-2.65,2.72-4.18,2.99-6.59,1.18-13.25,1.94-19.88,2.85,1.18-3.63,3.62-4.96,7.44-4.68,4.72.35,9.21-.4,11.91-5.06Z"/>
      <path class="cls-27" d="M141.18,218.93c-2.7,4.66-7.19,5.41-11.91,5.06-3.83-.28-6.26,1.05-7.44,4.68-2.6.35-5.2.71-7.8,1.06.3-.93.61-1.86.91-2.79,5.13,2.17,6.26-1.87,7.91-5.09,0-.22.04-.43.09-.64.35-.39.69-.79,1.04-1.18,1.01,0,2.01,0,3.02-.01,4.35-.71,8.71-1.41,13.06-2.12.37.35.74.69,1.11,1.04Z"/>
      <path class="cls-17" d="M122.85,221.85c-1.66,3.22-2.79,7.26-7.91,5.09-.3.93-.61,1.86-.91,2.79-.71.04-1.42.08-2.12.13-1.26-1.77-5.66.45-4.9-3.87-.32-.63-.64-1.25-.96-1.88,0,0,.07-.05.07-.05.62-.01,1.24-.02,1.85-.04,4.96-.72,9.93-1.44,14.89-2.17Z"/>
      <path class="cls-25" d="M209.95,159.94c.25-.2.5-.4.75-.6-.11.36-.21.72-.32,1.09-.14-.16-.29-.32-.44-.48Z"/>
      <path class="cls-3" d="M31.03,220.16c-1.19.07-2.38.14-3.57.2.29-2.17.58-4.33.99-7.33-2.97,3.23-4.25,9.99-10.23,4.97-.09-.67-.18-1.34-.26-2,1.31-2.03,2.62-4.06,3.93-6.09,0,0,.04-.03.04-.03,2.69-.92,5.39-1.83,8.24-2.8-2.86-6.56-5.39-12.4-7.97-18.22-.17-.38-.75-.58-1.14-.87-.07-.64-.14-1.28-.21-1.91.87-5.11-1.51-10.87,3.04-15.24-3.02,14.7,2.41,26.92,11.16,38.17l-4.02,11.16Z"/>
      <path class="cls-5" d="M15.94,132.08c5.1,2.01,10.18,4.06,15.31,5.99,1.34.5,2.81.63,4.23.93.1.54.2,1.08.29,1.63-.09.74-.18,1.47-.28,2.21-.1.14-.28.28-.27.4.03.31.15.6.24.91.02.56.04,1.11.06,1.67-.19,2.09-.28,4.2-.61,6.27-.62,3.93-1.39,7.84-2.09,11.75-1.54.47-3.08.94-4.62,1.41-.13-.16-.26-.31-.39-.47,6.54-6.27,5.16-14.43,4.88-22.15-.05-1.3-2.85-2.68-4.56-3.71-4-2.39-8.13-4.58-12.2-6.86Z"/>
      <path class="cls-26" d="M17.87,218.9c2.34,4.19,6.27,5.31,10.61,5.05,3.78-.23,6.45.87,7.75,4.58-6.24-.96-12.52-1.74-18.7-3.01-1.36-.28-2.36-2.28-3.53-3.48,1.29-1.05,2.58-2.09,3.88-3.14Z"/>
      <path class="cls-5" d="M21.06,187.98c.39.28.97.48,1.14.87,2.58,5.82,5.11,11.66,7.97,18.22-2.85.97-5.55,1.89-8.24,2.8,1.6-1.57,3.21-3.14,5.03-4.93-1.91-3.85-4.02-7.63-5.64-11.6-.64-1.56-.2-3.56-.25-5.36Z"/>
      <path class="cls-5" d="M23.89,170.82c-4.55,4.38-2.17,10.13-3.04,15.24-4.97-7.44-.48-20.52,6.98-21.27.13.15.26.31.38.47-1.44,1.85-2.88,3.71-4.32,5.56Z"/>
      <path class="cls-16" d="M7.98,118.99c-2.4-.21-4.33.18-4.06,3.28-.86-.77-1.73-1.55-2.59-2.32,3.21-1.31,6.42-2.62,9.63-3.93-1,.99-1.99,1.98-2.99,2.98Z"/>
      <path class="cls-5" d="M21.88,209.9c-1.31,2.03-2.62,4.06-3.93,6.09-1.69-3.97.33-5.54,3.93-6.09Z"/>
      <path class="cls-5" d="M14.98,130.15c.32.64.63,1.28.95,1.92-1.65-1.01-3.3-2.02-4.96-3.04.67,0,1.35,0,2.02,0,0,0-.03-.02-.03-.02.67.38,1.35.76,2.02,1.13Z"/>
      <path class="cls-5" d="M9.87,128.08c-.97-.68-1.93-1.37-2.9-2.05.67,0,1.34.01,2.01.02,0,0-.03-.04-.03-.04.34.34.69.68,1.03,1.03,0,0-.04-.03-.04-.03-.03.36-.05.71-.08,1.07Z"/>
      <path class="cls-16" d="M8.99,126.05c-.67,0-1.34-.01-2.01-.02-.41-.65-.82-1.31-1.24-1.96,1.08.66,2.16,1.32,3.25,1.98Z"/>
      <path class="cls-16" d="M13,129.04c-.67,0-1.35,0-2.02,0-.04-.32-.06-.65-.07-.97.7.33,1.39.65,2.09.98Z"/>
      <path class="cls-16" d="M9.87,128.08c.03-.36.05-.71.08-1.07.34.36.68.72,1.02,1.08-.37,0-.73,0-1.1-.01Z"/>
      <path class="cls-10" d="M4.01,109.04c.57-1.39.8-3.14,1.78-4.12,6.35-6.37,9.6-14.21,11.36-22.83,1.94-3.51,4.15-6.9,5.77-10.55,5.92-13.34,15.38-23.12,28.91-28.57,10.47-4.22,22.44-5.29,30.18-14.97v5.95c1.96-.64,3.53-1.15,5.5-1.79.21,2.11.4,4,.67,6.63,3.15.39,6.49.81,9.83,1.22,5.31,2.02,10.62,4.04,15.92,6.06,1.38,1,2.76,1.99,4.13,2.99,5.6,6.69,11.2,13.38,16.79,20.07.82,1.7,1.65,3.39,2.78,5.72,5.22-12.65,8.03-24.57,6.18-36.92-1.24-8.26-3.6-16.4-6.17-24.37-1.33-4.12-3.39-4-5.72-.38-1.43,2.23-2.68,4.58-4.01,6.88l-.89,2s.05-.04.05-.04c-2.35,2.33-4.71,4.66-7.06,6.99-.78.6-1.73,1.06-2.31,1.81-4.85,6.36-10.42,10.39-18.74,6.16,5.79-5.9,11.43-11.95,17.42-17.64,5.29-5.04,10.99-9.65,16.47-14.48,3.4-3,5.54-2.77,8.06,1.04.73,1.11,1.47,2.27,1.88,3.51,6.95,21.19,10.97,42.46,1.32,64.01-.2.45-.27,1-.57,1.38-8.04,10.15-2.44,18.47,3.65,26.64,1.78,2.39,3.99,4.45,6,6.67-5.99,1.43-10.96-1.02-15.77-4.11-5.63-3.62-11.42-6.82-18.51-5.8-.99-1.05-1.97-2.1-2.96-3.15.34-1.68.68-3.37,1.03-5.05-.17-8.36-6.57-13.63-12.68-10.44-4.39,2.29-7.16,10.42-5.32,15.58.32.96.64,1.91.96,2.87-.7,4.05-2.71.96-3.76.48-11.46-5.2-23.06-4.78-34.73-1.01-2.14.69-4.05,2.07-7.06,3.65.91-1.69,1.21-2.25,1.51-2.81.05-.83.1-1.66.16-2.49,0-2.84.42-5.76-.09-8.51-1.12-6.1-4.61-8.86-9.79-8.41-4.61.4-7.89,4.56-8.22,10.39.06,2.35.12,4.7.18,7.05-.42.58-.84,1.15-1.26,1.73-5.91,1.8-11.86,3.49-17.72,5.43-5.11,1.7-10.12,3.68-15.17,5.54ZM121.9,82.11c.21.23.41.46.62.68-.05-.39-.09-.79-.14-1.18-2.99-7.27-8.84-10.7-16.56-9.72-4.33.55-7.89,4.24-8.3,8.61,7.33-5.7,12.87-6.25,19.52-1.86,1.66,1.09,3.24,2.31,4.86,3.47ZM33.12,82.13c1.09-.73,2.22-1.41,3.28-2.2,7.45-5.52,12.9-5.54,20.36-.09.42.3.97.42,2.2.92-2.64-6.05-6.36-8.91-12.24-8.95-7.11-.05-11.37,3.72-14.02,9.88-.06.37-.12.74-.19,1.12.2-.23.41-.45.61-.68ZM34.01,67.02c5.18-.94,10.42-1.63,15.49-2.98,1.38-.37,2.21-2.77,3.3-4.23-1.66-.9-3.5-2.79-4.95-2.53-5.97,1.09-11.43,3.38-13.86,9.72-.13.14-.27.28-.4.42l.43-.39ZM120.25,66.4c.18-.58.37-1.17.55-1.75-3.63-4.64-8.23-7.69-14.44-7.63-1.41.02-2.82.96-4.23,1.48,1,1.53,1.71,3.99,3.06,4.41,4.9,1.53,10.02,2.38,15.05,3.48ZM68.06,89.62c6.89-.29,8.14-2.65,4.84-8.92-1.76,3.24-3.1,5.71-4.84,8.92Z"/>
      <path class="cls-12" d="M4.01,109.04c5.05-1.86,10.06-3.84,15.17-5.54,5.86-1.95,11.81-3.63,17.72-5.43.03.65.06,1.3.08,1.95,0,0,.06-.03.06-.03-.35.35-.7.7-1.05,1.06l.05-.05c-.5.36-1.01.72-1.51,1.08l-2.55,5.84c-2.73,5.98-.77,9.41,5.85,10.21,4.52,1.17,6.55-1.84,6.96-5.26.46-3.91-.36-7.98-.63-11.98.32-1.35.65-2.7.97-4.05,3.6.49,7.19.98,10.79,1.48-.3.56-.6,1.12-1.51,2.81,3.01-1.58,4.92-2.96,7.06-3.65,11.67-3.77,23.27-4.19,34.73,1.01,1.05.48,3.06,3.57,3.76-.48,3.37-.55,6.74-1.1,10.1-1.65.14,1.57.28,3.14.41,4.7-.18,3.28-.61,6.57-.5,9.84.2,6.18,3.92,8.36,10.09,6.17,4.71-2.47,5.34-4.73,2.03-7.31-1.06-3.85-2.12-7.71-3.18-11.56,7.09-1.02,12.88,2.18,18.51,5.8,4.82,3.1,9.78,5.54,15.77,4.11-.97.96-1.94,1.92-2.91,2.87-1.11.35-2.21.69-3.32,1.04,0,0,.05-.03.05-.03-2.13.39-4.26.77-6.39,1.16-.11.42-.22.84-.33,1.26,2.57,1.52,5.14,3.04,7.71,4.56-2.67,5.46-7.3,1.35-11.35,2.27.72,1.31,1.35,2.47,2.45,4.48-4.77,1.95-9.3,4.34-14.13,5.65-8.67,2.36-17.43,5.01-27.71,3.72-3.58,6.74-10.56,12.52-19.62,13.2-9.94.75-14.72-8.24-21.16-14.72-.28,5.6-4.03,2.89-6.29,2.34-9.76-2.39-19.42-5.15-29.09-7.88-1.37-.39-2.56-1.41-4.07-2.27.64-1.52,1.18-2.79,1.64-3.9-3.41-.26-6.61-.42-9.78-.82-.39-.05-.62-1.33-.92-2.04,1-.99,1.99-1.98,2.99-2.98,3.55-1.8,1.99-2.89-.51-3.97-2.18-.94-4.31-2-6.46-3ZM95.62,126.44c6.22-4.98,8.87-10.17,7.6-15.4-1.46,1.8-2.77,3.43-4.08,5.05-4.59.07-7.52-2.31-9.3-6.35,2.11-4.29.84-7.59-3.45-9.2-6.01-2.26-12.15-2.71-18.07.6-.4.21-.8.41-1.2.62-5.07,2.69-2.63,5.95-.71,9.17-3.31,1.98-6.09,5.31-10.61,4.25l-4.01-5.58c.04,6.95,1.87,12.83,7.97,16.46,2.36,3.68,4.73,7.36,7.1,11.04,8.22,9.51,15.55,9.24,22.23-.84,2.18-3.27,4.36-6.55,6.54-9.82Z"/>
      <path class="cls-2" d="M16.94,81.3c-6.92-6.31-9.81-14.68-10.62-23.53-1.57-17.27-.06-34.25,7.72-50.16,2.8-5.71,4.36-6.07,9.33-2.07,3.88,3.13,7.63,6.41,11.44,9.63,5.94,5.68,11.91,11.33,17.79,17.07,1.39,1.36,2.47,3.03,3.69,4.56-1.27.3-2.64.4-3.81.92-4.56,2.05-7.91,1.49-10.76-3.2-1.28-2.11-4.4-3.09-6.69-4.59-2.38-2.97-4.75-5.95-7.13-8.92l.05.04c-.34-.36-.68-.72-1.02-1.08-.74-1.46-1.32-3.04-2.28-4.35-1.21-1.65-2.72-3.08-4.1-4.61-1.33,1.56-3.23,2.9-3.89,4.7-4.5,12.26-7.27,24.88-4.67,37.94,1.5,7.51,3.98,14.83,6.02,22.24-.36,1.8-.72,3.6-1.08,5.4Z"/>
      <path class="cls-21" d="M16.94,81.3c.36-1.8.72-3.6,1.08-5.4,4.81-10.6,11.05-20.19,19.98-27.83,1.4-1,2.8-1.99,4.21-2.99,5.03-2.41,10.06-4.81,15.1-7.22,8.48-.12,15-4.43,21.13-9.7.86-.74,2.23-4.42,3.57-.17-7.74,9.68-19.71,10.75-30.18,14.97-13.53,5.45-22.99,15.23-28.91,28.57-1.62,3.65-3.83,7.04-5.77,10.55-.18-.23-.25-.49-.21-.78Z"/>
      <path class="cls-20" d="M113.93,46.06c-5.31-2.02-10.62-4.04-15.92-6.06.32-1,.65-2.01.97-3.01,8.32,4.23,13.89.2,18.74-6.16.57-.75,1.53-1.21,2.31-1.81-.58,1.5-1.2,2.99-1.73,4.5-1.47,4.17-2.91,8.36-4.36,12.54Z"/>
      <path class="cls-20" d="M57.31,37.87c-5.03,2.41-10.06,4.81-15.1,7.22-2.39-5.05-4.77-10.09-7.16-15.14,2.28,1.49,5.4,2.48,6.68,4.59,2.85,4.69,6.2,5.25,10.76,3.2,1.17-.53,2.53-.63,3.81-.92.34.35.67.7,1,1.05Z"/>
      <path class="cls-16" d="M148.01,118.96c-2.57-1.52-5.14-3.04-7.71-4.56.11-.42.22-.84.33-1.26,2.13-.39,4.26-.77,6.39-1.16-.59.95-1.17,1.91-1.96,3.19,1.71.98,3.31,1.9,4.92,2.83-.66.32-1.32.64-1.98.96Z"/>
      <path class="cls-16" d="M146.97,112.02c1.1-.35,2.21-.69,3.32-1.04-1.1.35-2.21.69-3.32,1.04Z"/>
      <path class="cls-12" d="M36.14,221.92c-.07-.64-.14-1.27-.21-1.91.75-1.63,1.5-3.25,2.25-4.88,0,0-.06.05-.06.05,3.28-1.41,6.56-2.82,9.84-4.24,7.15.22,14.39.18,19.07,7.07-1.35,1.5-2.46,3.87-4.1,4.33-3.85,1.07-7.95,1.22-11.95,1.74-2.64-.05-5.27-.11-7.91-.16-.2-1.17-.41-2.35-.86-4.95-.72,2.26-.97,3.08-1.25,3.96-1.68-.35-3.25-.68-4.82-1.01Z"/>
      <path class="cls-20" d="M31.03,220.16c1.34-3.72,2.68-7.44,4.02-11.16.51-5.93,1.33-11.86,1.41-17.8.05-4.06-.94-8.13-1.46-12.2,3.16,9.3,6.41,18.57,9.33,27.95.31,1.01-1.22,2.74-2.16,3.94-1.21,1.54-2.68,2.87-4.04,4.29,0,0,.06-.05.05-.05-1.73,1.64-3.46,3.28-5.19,4.93-.65.04-1.3.07-1.96.11Z"/>
      <path class="cls-16" d="M50.98,224.08c4-.52,8.1-.67,11.95-1.74,1.64-.46,2.75-2.83,4.1-4.33.88.04,1.75.08,2.63.12-.26,2.62-.53,5.25-.79,7.87-2.93.92-5.85,1.85-8.78,2.77-3.01.01-6.01.02-9.02.04-.03-1.58-.06-3.15-.09-4.73Z"/>
      <path class="cls-17" d="M50.98,224.08c.03,1.58.06,3.16.09,4.73-2.73-.32-5.46-.65-8.19-.97.06-1.31.13-2.62.19-3.92,2.64.05,5.27.11,7.91.16Z"/>
      <path class="cls-26" d="M43.07,223.92c-.06,1.31-.13,2.62-.19,3.92-3.9-.09-6.81-1.32-6.74-5.93,1.57.33,3.14.66,4.82,1.01.28-.88.54-1.7,1.25-3.96.45,2.6.65,3.77.86,4.95Z"/>
      <path class="cls-17" d="M60.09,228.77c2.93-.92,5.85-1.85,8.78-2.77.77.13,1.55.26,2.32.39-3.74,1.16-7.49,2.32-11.23,3.49.04-.37.09-.74.13-1.11Z"/>
      <path class="cls-25" d="M32.98,220.05c1.73-1.64,3.46-3.29,5.19-4.93-.75,1.63-1.5,3.26-2.25,4.88-.98.02-1.96.03-2.94.04Z"/>
      <path class="cls-28" d="M71.19,226.4c-.77-.13-1.55-.26-2.32-.39.26-2.62.53-5.25.79-7.87.08-7.32.16-14.64.24-21.97-.91-1.36-1.72-2.81-2.76-4.07-1.3-1.58-2.78-3-4.18-4.49,5.65,2.47,11.47,7.18,16.92,6.79,5.85-.42,11.36-5.64,17.02-8.76-2.55,2.4-5.19,4.71-7.61,7.23-.72.75-.84,2.09-1.23,3.16.12,7.72.25,15.43.37,23.15.16,2.26.32,4.53.48,6.79-.73.12-1.46.24-2.19.37-5.18.02-10.36.04-15.54.05ZM72.51,198v24.62c4.72-.32,8.91-.61,12.75-.87v-22.65c-4.47-.39-8.14-.7-12.75-1.1Z"/>
      <path class="cls-16" d="M88.92,225.98c-.16-2.26-.32-4.53-.48-6.79.78-.09,1.56-.18,2.35-.27,3.69,5.82,9.68,4.89,15.25,5.19.32.63.64,1.25.96,1.88-1.66,4.1-5.13,3.31-8.21,2.73-3.35-.63-6.59-1.8-9.88-2.73Z"/>
      <path class="cls-22" d="M208.15,145.93c-.16,2.08-.33,4.17-.49,6.25-.79,1.12-1.89,2.14-2.31,3.39-5.44,16.13-15.84,27.33-33.57,33.14,2.5.15,3.63.24,4.76.27,1.16.03,2.31,0,3.59,0-5.4,9.41-26.46,16.03-38.71,11.99,2.54-2.33,5.06-4.64,7.59-6.96.44-.13.88-.26,1.32-.38l-.25-.39c-.36.25-.73.51-1.09.76-5.04,1.24-10.08,2.47-15.11,3.71.39-1.6.79-3.2,1.18-4.8.31-.31.63-.63.94-.94l-.04.02c9.67-2.93,12.87-24.09,8.13-31.93.26-1.69.52-3.37.78-5.06,2.68-4.67,5.36-9.35,8.04-14.02.69-.69,1.37-1.38,2.06-2.07,2.65-2.65,5.31-5.3,7.96-7.94.35-.34.71-.68,1.06-1.02.64.02,1.29.03,1.93.05-1.87,4.47-3.74,8.93-5.62,13.4.29.27.57.55.86.82,4.8-4.26,9.6-8.51,14.94-13.25-.8,3.43-1.45,6.24-2.1,9.04-.13.05-.27.07-.37.15-.06.05-.03.19-.05.3l.41-.45c2.88-2.28,5.76-4.56,9.88-7.82-2.07,7.07-3.89,13.27-5.71,19.48.39.36.79.72,1.18,1.08,5.55-5.12,11.09-10.25,16.73-15.45.17,10.08-3.99,19.46-6.53,29.41,8.29-6.27,13.35-14.77,17.9-24.47.24,1.24.47,2.47.71,3.71ZM173.63,180.41c-5.68,4.4-11.57,8.97-17.11,13.26,8.87-.67,15.05-5.44,17.11-13.26ZM163.34,175.01c.23.37.46.74.7,1.11,3.66-1.76,7.31-3.53,10.97-5.29-.16-.44-.31-.88-.47-1.32h-4.16v-4.67c-2.66,3.85-4.85,7.01-7.03,10.17ZM153.5,174.33l-1.99-.4c-.39,2.15-.88,4.3-1.04,6.47-.02.25,2.18,1.2,2.62.87,1.88-1.41,3.48-3.18,5.18-4.82-.44-.42-.87-.85-1.31-1.27-.85,1.33-1.71,2.66-2.56,3.98-.4-.31-.8-.61-1.2-.92.1-1.31.2-2.61.3-3.92Z"/>
      <path class="cls-14" d="M198,96c-.12.45-.25.91-.37,1.36-.13-.09-.26-.17-.4-.26.26-.37.51-.73.77-1.1h0Z"/>
      <path class="cls-16" d="M170.98,124.02c.41-.35.81-.71,1.22-1.06-.41.35-.81.71-1.22,1.06Z"/>
      <path class="cls-14" d="M176.99,119.04c.34-.35.68-.7,1.02-1.06-.34.35-.68.7-1.02,1.06Z"/>
      <path class="cls-14" d="M198,96c.08-.14.15-.28.23-.42-.08.14-.15.28-.23.42,0,0,0,0,0,0Z"/>
      <path class="cls-14" d="M194.99,101.99c.14-.15.29-.29.43-.44-.02.1,0,.22-.06.28-.09.09-.23.12-.35.18,0,0-.02-.02-.02-.02Z"/>
      <path class="cls-14" d="M193.98,102.97c.34-.33.67-.65,1.01-.98,0,0,.02.02.02.02-.33.34-.65.68-.98,1.01,0,0-.05-.05-.05-.05Z"/>
      <path class="cls-28" d="M121.21,142.05c-.04,1.32-.09,2.64-.13,3.96-.34.33-.68.65-1.02.98-.63,1.25-1.62,2.46-1.78,3.78-.19,1.55.99,3.46.46,4.75-3.37,8.25-7.05,16.38-10.62,24.55-2.11-.11-4.23-.21-6.34-.32.91-2.11,1.83-4.22,3-6.94.9,1.64,1.57,2.86,2.49,4.56,5.32-7.96,5.36-15.42,3.72-23.44,1.97.83,3.35,1.41,4.73,1.99.37-.26.75-.52,1.12-.78-1.21-2.95-2.42-5.9-3.62-8.85-.11-1.42-.23-2.84-.34-4.27,2.69-.65,5.38-1.31,8.07-1.96.1.66.19,1.32.29,1.98Z"/>
      <path class="cls-27" d="M120.92,140.07c-2.69.65-5.38,1.31-8.06,1.96-2.59.37-5.28.43-7.76,1.19-4.45,1.36-8.77,3.14-13.15,4.74-.97.38-1.95.76-2.92,1.14-.38-.37-.76-.75-1.14-1.12,4.39-1.94,8.66-4.26,13.21-5.71,5.31-1.69,10.84-2.74,16.32-3.77,1.03-.19,2.33,1.01,3.51,1.58Z"/>
      <path class="cls-27" d="M35.77,140.63c-.1-.54-.2-1.08-.29-1.63,8.88,1.72,17.77,3.35,26.61,5.24,1.45.31,2.66,1.79,3.98,2.73,0,.74-.02,1.48-.03,2.22-.35-.06-.7-.12-1.06-.18-1.44-.98-2.75-2.46-4.33-2.84-5.21-1.26-10.52-2.13-15.79-3.15l-9.09-2.39Z"/>
      <path class="cls-17" d="M66.04,149.2c0-.74.02-1.48.02-2.22.41.27.86.51,1.23.82,7.93,6.62,11.46,6.65,20.59.17.38.37.76.74,1.14,1.12-7.11,7.94-14.19,7.97-22.99.11Z"/>
      <path class="cls-16" d="M14.98,130.15c-.67-.38-1.35-.76-2.02-1.13.67.38,1.35.76,2.02,1.13Z"/>
      <path class="cls-16" d="M9.99,127.04c-.34-.34-.69-.68-1.03-1.03.34.34.69.68,1.03,1.03Z"/>
      <path class="cls-3" d="M108.11,180.06c3.58-8.17,7.25-16.3,10.62-24.55.53-1.3-.65-3.2-.46-4.75.16-1.31,1.16-2.52,1.78-3.77.65,1.29,1.52,2.51,1.89,3.87.55,1.99.76,4.08,1.11,6.13-.35,2.34-.7,4.68-1.05,7.02-.53,3.76-.66,7.62-1.66,11.25-3.3,11.97-6.92,23.85-10.41,35.77-1.63,0-3.34-.35-4.88.03-5.42,1.35-12.05.65-14.28,7.85-.78.09-1.57.18-2.35.27-.12-7.71-.24-15.43-.37-23.15,9.19-2.17,15.04-8.54,20.03-15.97Z"/>
      <path class="cls-22" d="M128.06,204.11c-.76,1.28-1.53,2.56-2.29,3.84-.9.36-1.8.71-2.7,1.07-.55-5.6-1.5-11.2-1.52-16.8-.02-5.07.98-10.15,1.52-15.22,2.03-4.16,2.66-8.42.89-12.85,2.99,1.34,5.99,2.69,8.98,4.03,2.45,7.37,3.01,14.72.13,22.15-1.77,4.56-3.34,9.19-5.01,13.79Z"/>
      <path class="cls-25" d="M144.09,160.06c4.74,7.84,1.55,29-8.13,31.93.66-5.68,1.32-11.36,1.98-17.04l6.15-14.9Z"/>
      <path class="cls-25" d="M123.96,164.15c1.77,4.43,1.14,8.69-.89,12.85-2.64,8.3-5.27,16.6-7.92,24.9-1.31,4.12-3.88,8.5,2.49,10.9.21.08.13.92.19,1.41-2.63-1.06-5.26-2.11-7.89-3.17,3.49-11.92,7.11-23.8,10.41-35.77,1-3.63,1.13-7.49,1.66-11.25.65.05,1.3.09,1.95.14Z"/>
      <path class="cls-3" d="M137.94,174.95c-.66,5.68-1.32,11.36-1.98,17.04,0,0,.04-.02.04-.02-.31.31-.63.63-.94.94-.39,1.6-.79,3.2-1.18,4.8-1.07,1.85-2.13,3.7-3.2,5.55-.87.28-1.75.57-2.62.85,1.66-4.6,3.24-9.23,5.01-13.79,2.88-7.42,2.32-14.78-.13-22.15,1.67,2.26,3.33,4.52,5,6.78Z"/>
      <path class="cls-14" d="M123.06,156.99c-.35-2.05-.55-4.14-1.11-6.13-.38-1.36-1.25-2.59-1.89-3.87.34-.33.68-.65,1.02-.98.65.93,1.75,1.81,1.85,2.8.27,2.7.12,5.45.13,8.18Z"/>
      <path class="cls-3" d="M123.07,209.02c.9-.36,1.8-.71,2.7-1.07,2.93.94,6.26,1.31,8.68,2.99,2.35,1.62,3.78,4.58,5.61,6.96-4.35.71-8.71,1.41-13.06,2.12-1.31-3.67-2.63-7.33-3.94-11Z"/>
      <path class="cls-12" d="M109.94,211.03c2.63,1.06,5.26,2.11,7.89,3.17,0,0,.04-.11.04-.11,1.69,2.37,3.38,4.74,5.07,7.11-.05.21-.08.42-.09.64-4.96.72-9.93,1.44-14.89,2.17-.25-1.14-.5-2.28-.76-3.42l-.94.14c-.05,1.11-.11,2.21-.16,3.32,0,0-.07.05-.07.05-5.57-.29-11.56.64-15.25-5.18,2.23-7.19,8.85-6.5,14.27-7.85,1.53-.38,3.25-.04,4.88-.03Z"/>
      <path class="cls-20" d="M123.07,209.02c1.31,3.67,2.63,7.33,3.94,11-1.01,0-2.01,0-3.02.01-.77-3.29-1.85-6.25-6.11-5.93,0,0-.04.11-.04.11-.06-.49.02-1.33-.19-1.41-6.37-2.39-3.8-6.78-2.49-10.9,2.65-8.3,5.28-16.6,7.92-24.9-.55,5.07-1.54,10.15-1.52,15.22.02,5.6.97,11.2,1.52,16.8Z"/>
      <path class="cls-25" d="M117.87,214.09c4.26-.31,5.35,2.64,6.11,5.93-.35.39-.69.79-1.04,1.18-1.69-2.37-3.38-4.74-5.07-7.11Z"/>
      <path class="cls-16" d="M106.11,224.05c.05-1.11.11-2.21.16-3.32l.94-.14c.25,1.14.5,2.28.76,3.42-.62.01-1.24.02-1.85.04Z"/>
      <path class="cls-10" d="M34.99,179c.52,4.07,1.51,8.14,1.46,12.2-.08,5.94-.9,11.87-1.41,17.8-8.74-11.25-14.18-23.48-11.16-38.17,1.44-1.86,2.88-3.71,4.32-5.56,1.54-.47,3.08-.94,4.62-1.41.4.35.8.69,1.2,1.04-.24.87-.77,1.77-.67,2.6.45,3.85,1.07,7.67,1.63,11.5Z"/>
      <path class="cls-3" d="M34.03,164.89c-.4-.35-.8-.69-1.2-1.04.7-3.92,1.47-7.83,2.09-11.76.33-2.07.41-4.18.61-6.27,1.15,2.17,3.22,4.31,3.31,6.53.43,10.39,5.13,19.05,10.25,27.62,5.48,7.27,12.15,13.01,20.82,16.19-.08,7.32-.16,14.64-.24,21.97-.88-.04-1.76-.08-2.63-.12-4.68-6.89-11.92-6.85-19.07-7.07-4.04-14.86-8.07-29.72-12.18-44.56-.17-.61-1.14-.99-1.74-1.48Z"/>
      <path class="cls-28" d="M49.08,179.98c-5.11-8.57-9.82-17.23-10.25-27.62-.09-2.22-2.16-4.36-3.31-6.53-.02-.56-.04-1.11-.06-1.67,0-.44.02-.87.03-1.31.09-.74.18-1.47.28-2.21,3.03.8,6.06,1.59,9.09,2.39-.4,1.18-.8,2.36-1.2,3.53-1,2.91-2,5.83-3.32,9.67,2.79-1.08,4.23-1.64,5.68-2.2l-.06-.06c-1.18,7.77-.74,15.24,3.61,22.54,1.26-1.43,2.1-2.39,3.29-3.76.9,2.52,1.57,4.38,2.23,6.23-2.01.33-4.01.66-6.02.99Z"/>
      <path class="cls-3" d="M35.5,142.84c-.01.44-.02.87-.03,1.31-.08-.3-.2-.6-.23-.91-.01-.12.17-.27.27-.4Z"/>
      <path class="cls-19" d="M127.91,20.06c1.33-2.3,2.57-4.65,4.01-6.88,2.33-3.62,4.4-3.74,5.72.38,2.57,7.97,4.94,16.12,6.17,24.37,1.85,12.35-.96,24.27-6.18,36.92-1.13-2.33-1.96-4.03-2.78-5.72,0,0,.18-.16.18-.16.97-1.16,2.71-2.27,2.78-3.49.55-9.04,1.57-18.17.86-27.15-.8-10.15-5.07-13.18-12.85-11.38l1.25-4.93s-.05.04-.05.04c.3-.67.59-1.33.89-2Z"/>
      <path class="cls-19" d="M134.85,69.12c-5.6-6.69-11.2-13.38-16.79-20.07,1.02-3.69,2.05-7.38,3.08-11.07h7.35c-1.69,3.39-3.09,6.2-4.49,9.01-.43.13-.87.25-1.3.38.08.13.17.25.25.38.36-.25.71-.5,1.07-.74,2.14-.58,4.28-1.15,6.42-1.73.15.25.3.51.45.76-1.79,1.71-3.58,3.42-5.67,5.41,2.24.61,4.03.88,5.6,1.6,1.18.54,2.84,1.55,2.99,2.55.67,4.41.86,8.9,1.23,13.36l-.18.16Z"/>
      <path class="cls-18" d="M55.92,98.31c-3.6-.49-7.19-.98-10.79-1.48-.11-.62-.21-1.24-.32-1.86-.11-2.79-1.31-2.36-2.84-.96l.04-.02c-1.28.78-2.57,1.57-3.85,2.35-.06-2.35-.12-4.7-.18-7.05,5.99-5.46,11.78-4.91,15.87,1.61.95,1.51,1.49,3.27,2.23,4.91-.05.83-.1,1.66-.16,2.49Z"/>
      <path class="cls-18" d="M110.06,96.34c-3.37.55-6.74,1.1-10.1,1.65-.32-.96-.64-1.91-.96-2.87,1.23-1.74,2.29-3.64,3.72-5.2,5.53-6.01,9.77-5.94,14.27.06-.34,1.68-.68,3.37-1.03,5.05-1.13-.67-2.21-1.54-3.43-1.92-.56-.17-1.42.65-2.14,1.02-.11.73-.22,1.46-.33,2.2Z"/>
      <path class="cls-13" d="M116.98,89.98c-4.5-6-8.74-6.07-14.27-.06-1.43,1.56-2.49,3.45-3.72,5.2-1.85-5.15.93-13.29,5.32-15.58,6.11-3.19,12.51,2.08,12.68,10.44Z"/>
      <path class="cls-13" d="M56.07,95.81c-.73-1.64-1.28-3.4-2.23-4.91-4.08-6.52-9.88-7.07-15.87-1.61.33-5.83,3.61-9.98,8.22-10.39,5.18-.45,8.67,2.31,9.79,8.41.51,2.75.09,5.66.09,8.51Z"/>
      <path class="cls-6" d="M110.39,94.14c.72-.37,1.58-1.19,2.14-1.02,1.22.37,2.3,1.25,3.43,1.92.99,1.05,1.97,2.1,2.96,3.15,1.06,3.85,2.12,7.71,3.18,11.56-.76.96-1.49,2.7-2.28,2.72-1.39.04-3.5-.59-4.06-1.62-1.05-1.95-1.09-4.42-1.79-6.6-1.09-3.4-2.38-6.74-3.59-10.1Z"/>
      <path class="cls-25" d="M121.14,37.98c-1.03,3.69-2.05,7.38-3.08,11.07-1.38-1-2.75-1.99-4.13-2.99,1.45-4.18,2.88-8.37,4.36-12.54.53-1.52,1.15-3,1.73-4.5,2.35-2.33,4.71-4.66,7.06-6.99-.42,1.64-.83,3.28-1.25,4.93-1.56,3.68-3.13,7.35-4.69,11.03Z"/>
      <path class="cls-25" d="M33.98,66.99c2.44-6.34,7.89-8.63,13.86-9.72,1.45-.26,3.29,1.63,4.95,2.53-1.08,1.47-1.92,3.86-3.3,4.23-5.06,1.36-10.31,2.05-15.49,2.98l-.03-.03Z"/>
      <path class="cls-25" d="M120.25,66.4c-5.04-1.1-10.15-1.95-15.05-3.48-1.35-.42-2.06-2.89-3.06-4.41,1.41-.52,2.81-1.47,4.23-1.48,6.21-.07,10.81,2.99,14.44,7.63-.18.58-.37,1.17-.55,1.75Z"/>
      <path class="cls-13" d="M32.69,81.68c2.66-6.15,6.92-9.92,14.03-9.87,5.88.04,9.6,2.9,12.24,8.95-1.23-.51-1.78-.62-2.2-.92-7.46-5.45-12.91-5.43-20.36.09-1.05.78-2.18,1.47-3.28,2.2-.14-.15-.29-.3-.43-.44Z"/>
      <path class="cls-13" d="M121.9,82.11c-1.62-1.16-3.2-2.38-4.86-3.47-6.65-4.38-12.2-3.84-19.52,1.86.41-4.37,3.97-8.06,8.3-8.61,7.72-.99,13.57,2.45,16.56,9.72-.16.16-.32.33-.48.5Z"/>
      <path class="cls-6" d="M38.16,96.34c1.28-.78,2.57-1.57,3.85-2.35-.36,4.42-.22,8.96-1.29,13.2-.56,2.2-3.26,3.85-5,5.75-1.12-1.47-2.25-2.93-3.37-4.4,4.75-.92,6.35-3.86,4.63-8.52-.03-.65-.06-1.3-.08-1.95.42-.58.84-1.15,1.26-1.73Z"/>
      <path class="cls-5" d="M68.06,89.62c1.74-3.21,3.08-5.67,4.84-8.92,3.3,6.27,2.05,8.63-4.84,8.92Z"/>
      <path class="cls-25" d="M127.91,20.06c-.3.67-.59,1.33-.89,2,.3-.67.59-1.33.89-2Z"/>
      <path class="cls-13" d="M122.38,81.61c.05.39.09.79.14,1.18-.21-.23-.41-.46-.62-.68.16-.17.32-.33.48-.5Z"/>
      <path class="cls-13" d="M33.12,82.13c-.2.23-.41.45-.61.68.06-.37.12-.74.18-1.12.14.14.29.29.43.44Z"/>
      <path class="cls-25" d="M34.01,67.02l-.43.39c.13-.14.27-.28.4-.42,0,0,.03.03.03.03Z"/>
      <path class="cls-26" d="M55.78,115.17c4.53,1.06,7.3-2.27,10.62-4.25,10.07,7.19,14.44,6.97,23.43-1.18,1.78,4.05,4.71,6.42,9.3,6.35-1.39,2.51-2.79,5.01-4.18,7.52-8.89,4.25-14.04,2.54-17.43-5.78-2.68,6.65-5.42,8.37-12.3,7.71-3.15-3.46-6.29-6.91-9.44-10.37Z"/>
      <path class="cls-13" d="M89.83,109.73c-8.99,8.16-13.36,8.38-23.43,1.18-1.92-3.22-4.37-6.49.71-9.17.58,1.1,1.1,3.09,1.75,3.14,2.24.15,4.52-.39,6.78-.66l-.13-1.56c-2.4-.51-4.81-1.02-7.21-1.53,5.92-3.31,12.06-2.86,18.07-.6,4.29,1.62,5.56,4.91,3.45,9.2Z"/>
      <path class="cls-8" d="M65.22,125.54c6.88.66,9.62-1.06,12.3-7.71,3.39,8.33,8.54,10.04,17.43,5.78.22.94.45,1.88.67,2.82-2.18,3.27-4.36,6.55-6.54,9.82-.99-.47-1.97-.94-2.96-1.41-4.51-3.56-9.24-3.97-14.21-1.01-1.69,1.08-3.38,2.17-5.07,3.25-2.36-3.68-4.73-7.36-7.09-11.04,1.82-.17,3.65-.34,5.47-.51Z"/>
      <path class="cls-15" d="M32.36,108.54c1.12,1.47,2.25,2.93,3.37,4.4,1.74-1.9,4.44-3.55,5-5.75,1.07-4.24.93-8.78,1.29-13.2,0,0-.04.02-.04.02.95.32,1.89.64,2.84.96.1.62.21,1.24.32,1.86-.32,1.35-.65,2.7-.97,4.05-.35,6.39.18,13.11-6.33,17.24-6.61-.8-8.57-4.22-5.85-10.21.14.2.27.41.37.63Z"/>
      <path class="cls-15" d="M110.39,94.14c1.21,3.36,2.5,6.7,3.59,10.1.7,2.18.74,4.65,1.79,6.6.55,1.03,2.67,1.65,4.06,1.62.78-.02,1.52-1.75,2.28-2.72,3.31,2.57,2.68,4.84-2.03,7.31-5.16.28-8.08-1.74-8.21-7.32-.07-2.91-.89-5.79-1.38-8.69-.14-1.57-.28-3.13-.41-4.7.11-.73.22-1.47.33-2.2Z"/>
      <path class="cls-9" d="M86.12,134.85c.99.47,1.97.94,2.96,1.41-6.68,10.07-14.01,10.35-22.24.84,1.69-1.08,3.38-2.17,5.07-3.25-1.17,5.66,1.71,8.52,7.18,6.45,2.65-1,4.7-3.58,7.02-5.44Z"/>
      <path class="cls-23" d="M65.22,125.54c-1.82.17-3.65.34-5.47.51-6.11-3.63-7.94-9.51-7.97-16.46,1.34,1.86,2.68,3.72,4.01,5.58,3.14,3.46,6.29,6.92,9.44,10.37Z"/>
      <path class="cls-23" d="M95.62,126.44c-.22-.94-.45-1.88-.67-2.82,1.39-2.51,2.79-5.02,4.18-7.52,1.31-1.62,2.63-3.25,4.08-5.05,1.27,5.23-1.38,10.41-7.6,15.4Z"/>
      <path class="cls-4" d="M110.47,101.05c.48,2.9,1.31,5.78,1.38,8.69.13,5.58,3.05,7.6,8.21,7.32-6.16,2.19-9.89,0-10.09-6.17-.11-3.27.32-6.56.5-9.84Z"/>
      <path class="cls-4" d="M37.83,118.12c6.51-4.13,5.98-10.85,6.33-17.24.27,4,1.09,8.07.63,11.98-.4,3.43-2.43,6.44-6.96,5.26Z"/>
      <path class="cls-5" d="M68.3,101.13c2.4.51,4.81,1.02,7.21,1.53l.13,1.56c-2.27.27-4.55.81-6.78.66-.65-.04-1.17-2.04-1.75-3.14.4-.21.8-.41,1.2-.62Z"/>
      <path class="cls-6" d="M36.05,100.99c-.5.36-1.01.72-1.51,1.08.5-.36,1.01-.72,1.51-1.08Z"/>
      <path class="cls-6" d="M37.05,99.99c-.35.35-.7.7-1.05,1.06.35-.35.7-.7,1.05-1.06Z"/>
      <path class="cls-19" d="M38,48.07c-8.93,7.65-15.17,17.23-19.98,27.83-2.04-7.41-4.52-14.72-6.02-22.24-2.6-13.06.18-25.68,4.67-37.94.66-1.8,2.56-3.14,3.89-4.7,1.38,1.53,2.9,2.96,4.1,4.61.95,1.31,1.53,2.89,2.28,4.35.34.36.68.72,1.02,1.08,0,0-.05-.04-.05-.04.42,1.92.84,3.84,1.26,5.76-4.4-.91-8.79-1.44-10.55,4.08-3.96,12.42-4.01,24.79.81,38.19q2.02-16.09,10.8-17.62c-.68-1.23-1.35-2.42-2.22-3.99,2.06.19,3.61.33,6.13.55-1.69-1.84-3.02-2.87-3.76-4.22-1.08-1.96-1.72-4.15-2.55-6.24,1.76-.18,3.52-.37,5.29-.55.33-.03.66-.02.99-.02,1.3,3.7,2.59,7.4,3.89,11.11Z"/>
      <path class="cls-25" d="M29.18,26.79c-.42-1.92-.84-3.84-1.26-5.76,2.38,2.97,4.75,5.95,7.13,8.92,2.39,5.04,4.77,10.09,7.16,15.13-1.4,1-2.8,1.99-4.21,2.99-1.3-3.7-2.59-7.4-3.89-11.1-1.37-3-2.73-5.99-4.1-8.99-.31-.37-.61-.74-.92-1.11l.08-.08Z"/>
      <path class="cls-25" d="M27.97,21.07c-.34-.36-.68-.72-1.02-1.08.34.36.68.72,1.02,1.08Z"/>
      <path class="cls-25" d="M34.03,164.89c.6.49,1.57.87,1.74,1.48,4.11,14.84,8.14,29.7,12.18,44.56-3.28,1.41-6.56,2.82-9.84,4.24,1.36-1.42,2.83-2.75,4.04-4.29.94-1.19,2.47-2.93,2.16-3.94-2.91-9.38-6.17-18.65-9.33-27.95-.56-3.83-1.18-7.66-1.63-11.5-.1-.83.43-1.73.67-2.6Z"/>
      <path class="cls-24" d="M55.1,178.98c-.66-1.86-1.33-3.71-2.23-6.23-1.19,1.36-2.04,2.32-3.29,3.76-4.35-7.3-4.79-14.77-3.61-22.54.16-.12.31-.23.47-.35-.1,0-.26-.02-.29.03-.07.1-.08.25-.12.38-1.44.56-2.89,1.12-5.68,2.2,1.32-3.84,2.32-6.76,3.32-9.67.78.48,1.56.96,2.33,1.44,9.18,4.24,18.24,8.76,27.61,12.54,2.71,1.09,6.66.95,9.38-.19,8.84-3.72,17.37-8.17,26.02-12.34,1.4-.57,2.8-1.15,4.2-1.72,1.21,2.95,2.42,5.9,3.62,8.85-.37.26-.75.52-1.12.78-1.38-.58-2.75-1.16-4.73-1.99,1.64,8.02,1.6,15.48-3.72,23.44-.93-1.69-1.6-2.92-2.49-4.56-1.18,2.72-2.09,4.83-3,6.94,0,0,.08.08.08.08-.77,1.02-1.54,2.04-2.31,3.06-.88.92-1.75,1.83-2.63,2.75-5.66,3.12-11.17,8.34-17.02,8.76-5.45.39-11.27-4.32-16.92-6.79-2.62-2.87-5.24-5.75-7.87-8.63Z"/>
      <path class="cls-17" d="M72.51,198c4.61.4,8.28.72,12.75,1.1v22.65c-3.84.26-8.03.55-12.75.87v-24.62Z"/>
      <path class="cls-25" d="M55.1,178.98c2.62,2.88,5.24,5.75,7.87,8.63,1.4,1.49,2.88,2.91,4.18,4.49,1.04,1.26,1.85,2.7,2.76,4.07-8.67-3.17-15.34-8.91-20.82-16.19,2.01-.33,4.01-.66,6.02-.99Z"/>
      <path class="cls-25" d="M96.91,185.64c.88-.92,1.75-1.83,2.63-2.75.77-1.02,1.54-2.04,2.31-3.06,0,0-.08-.08-.08-.08,2.11.1,4.23.21,6.34.31-5,7.43-10.84,13.8-20.03,15.97.39-1.07.51-2.41,1.23-3.16,2.42-2.52,5.06-4.84,7.61-7.23Z"/>
      <path class="cls-25" d="M173.63,180.41c-2.06,7.82-8.23,12.59-17.11,13.26,5.54-4.29,11.42-8.85,17.11-13.26Z"/>
      <path class="cls-20" d="M163.34,175.01c2.19-3.16,4.37-6.33,7.03-10.17v4.67h4.16c.16.44.31.88.47,1.32-3.66,1.76-7.31,3.53-10.97,5.29-.23-.37-.46-.74-.7-1.11Z"/>
      <path class="cls-20" d="M153.5,174.33c-.1,1.31-.2,2.61-.3,3.92.4.31.8.61,1.2.92.85-1.33,1.71-2.66,2.56-3.98.44.42.87.85,1.31,1.27-1.7,1.64-3.3,3.41-5.18,4.82-.45.34-2.64-.61-2.62-.87.16-2.17.65-4.32,1.04-6.47l1.99.4Z"/>
      <path class="cls-25" d="M148.99,193.99c.36-.25.73-.51,1.09-.76l.25.39c-.44.13-.88.26-1.32.38,0,0-.02-.02-.02-.02Z"/>
      <path class="cls-11" d="M174,140l-.41.45c.01-.1-.01-.25.05-.3.1-.08.24-.1.37-.15,0,0,0,0,0,0Z"/>
      <path class="cls-25" d="M135.06,192.91c.31-.31.63-.63.94-.94-.31.31-.63.63-.94.94Z"/>
      <path class="cls-17" d="M113.2,146.29c-1.4.57-2.8,1.15-4.2,1.72-1.51-.34-3.03-1.01-4.53-.96-4.18.14-8.35.58-12.52.9,4.38-1.6,8.7-3.38,13.15-4.74,2.48-.76,5.17-.81,7.76-1.19.11,1.42.23,2.84.34,4.27Z"/>
      <path class="cls-14" d="M91.95,147.95c4.17-.32,8.34-.76,12.52-.9,1.5-.05,3.02.62,4.53.96-8.65,4.17-17.18,8.62-26.02,12.34-2.72,1.14-6.67,1.28-9.38.19-9.36-3.78-18.43-8.3-27.61-12.54,1.51-.24,3.05-.78,4.53-.65,4.83.42,9.64,1.09,14.46,1.66.35.06.7.12,1.06.18,8.8,7.87,15.88,7.84,22.99-.11.97-.38,1.95-.76,2.92-1.14Z"/>
      <path class="cls-17" d="M64.98,149.02c-4.82-.57-9.63-1.24-14.46-1.66-1.48-.13-3.02.41-4.53.65-.78-.48-1.55-.96-2.33-1.44.4-1.18.8-2.36,1.2-3.54,5.27,1.02,10.58,1.89,15.79,3.15,1.58.38,2.89,1.86,4.33,2.84Z"/>
      <path class="cls-1" d="M121.14,37.98c1.56-3.68,3.13-7.35,4.69-11.03,7.78-1.8,12.05,1.23,12.85,11.38.71,8.98-.32,18.1-.86,27.15-.07,1.21-1.82,2.33-2.78,3.49-.37-4.46-.57-8.94-1.23-13.36-.15-1-1.81-2.01-2.99-2.55-1.58-.72-3.37-.99-5.6-1.6,2.09-1.99,3.88-3.7,5.67-5.41-.15-.25-.3-.51-.45-.76-2.14.58-4.28,1.15-6.42,1.73,0,0-.02-.02-.02-.02,1.4-2.81,2.8-5.62,4.49-9.01h-7.35Z"/>
      <path class="cls-1" d="M124.01,47.01c-.36.25-.71.5-1.07.74-.08-.13-.17-.25-.25-.38.44-.13.87-.25,1.3-.38,0,0,.02.02.02.02Z"/>
      <path class="cls-6" d="M44.81,94.97c-.95-.32-1.89-.64-2.84-.96,1.53-1.4,2.73-1.83,2.84.96Z"/>
      <path class="cls-7" d="M86.12,134.85c-2.32,1.86-4.38,4.44-7.02,5.44-5.47,2.07-8.36-.79-7.18-6.45,4.97-2.96,9.7-2.55,14.21,1.01Z"/>
      <path class="cls-1" d="M30.02,27.98c1.37,3,2.73,5.99,4.1,8.99-.33,0-.67,0-.99.02-1.76.18-3.53.37-5.29.55.83,2.09,1.47,4.28,2.55,6.24.74,1.35,2.08,2.37,3.76,4.22-2.52-.23-4.06-.37-6.13-.55.87,1.57,1.54,2.76,2.22,3.99q-8.78,1.53-10.8,17.62c-4.82-13.4-4.77-25.77-.81-38.19,1.76-5.52,6.15-4.99,10.55-4.08,0,0-.08.08-.08.08.31.37.61.74.92,1.11ZM25.97,46.76c.14-.07.27-.15.41-.22-.12-.1-.23-.26-.36-.27-.13-.01-.27.13-.4.2.12.1.24.19.35.29Z"/>
      <path class="cls-19" d="M30.02,27.98c-.31-.37-.61-.74-.92-1.11.31.37.61.74.92,1.11Z"/>
      <path class="cls-28" d="M101.85,179.83c-.77,1.02-1.54,2.04-2.31,3.06.77-1.02,1.54-2.04,2.31-3.06Z"/>
      <path class="cls-28" d="M46.02,154.03c.04-.13.04-.28.12-.38.04-.05.19-.02.29-.03-.16.12-.31.23-.47.35,0,0,.06.06.06.06Z"/>
      <path class="cls-19" d="M25.97,46.76c-.12-.1-.24-.19-.35-.29.14-.07.28-.21.4-.2.13.01.24.17.36.27-.14.07-.27.15-.41.22Z"/>
    </g>
  </g>
</svg>