<?xml version="1.0" encoding="UTF-8"?>
<svg id="Layer_2" xmlns="http://www.w3.org/2000/svg" viewBox="0 0 223.35 229.51">
  <defs>
    <style>
      .cls-1 {
        fill: #c4a18e;
      }

      .cls-2 {
        fill: #c9a793;
      }

      .cls-3 {
        fill: #5d7e96;
      }

      .cls-4 {
        fill: #85b5c3;
      }

      .cls-5 {
        fill: #6e95ae;
      }

      .cls-6 {
        fill: #205552;
      }

      .cls-7 {
        fill: #8fc6cf;
      }

      .cls-8 {
        fill: #d4bbac;
      }

      .cls-9 {
        fill: #84b1c3;
      }

      .cls-10 {
        fill: #35120e;
      }

      .cls-11 {
        fill: #aadadc;
      }

      .cls-12 {
        fill: #39596e;
      }

      .cls-13 {
        fill: #5c2c27;
      }

      .cls-14 {
        fill: #a9d9db;
      }

      .cls-15 {
        fill: #6c92aa;
      }

      .cls-16 {
        fill: #f5a999;
      }

      .cls-17 {
        fill: #5c839b;
      }

      .cls-18 {
        fill: #f7e5d1;
      }

      .cls-19 {
        fill: #7299b1;
      }

      .cls-20 {
        fill: #592924;
      }

      .cls-21 {
        fill: #537991;
      }

      .cls-22 {
        fill: #90bfcc;
      }

      .cls-23 {
        fill: #a5d1d4;
      }

      .cls-24 {
        fill: #46998c;
      }

      .cls-25 {
        fill: #5d839c;
      }

      .cls-26 {
        fill: #657c88;
      }

      .cls-27 {
        fill: #80adbe;
      }

      .cls-28 {
        fill: #cfe4eb;
      }

      .cls-29 {
        fill: #4e6d87;
      }

      .cls-30 {
        fill: #85b6c4;
      }

      .cls-31 {
        fill: #dccbbb;
      }

      .cls-32 {
        fill: #80acbd;
      }

      .cls-33 {
        fill: #b7a396;
      }

      .cls-34 {
        fill: #a2c9ce;
      }

      .cls-35 {
        fill: #778e9e;
      }

      .cls-36 {
        fill: #4f6f89;
      }

      .cls-37 {
        fill: #37586d;
      }

      .cls-38 {
        fill: #aad8db;
      }

      .cls-39 {
        fill: #82afc0;
      }

      .cls-40 {
        fill: #ee974c;
      }

      .cls-41 {
        fill: #466781;
      }

      .cls-42 {
        fill: #6f96af;
      }

      .cls-43 {
        fill: #4d738d;
      }

      .cls-44 {
        fill: #35130f;
      }

      .cls-45 {
        fill: #a6d1d7;
      }

      .cls-46 {
        fill: #557c9b;
      }

      .cls-47 {
        fill: #88bbc8;
      }

      .cls-48 {
        fill: #dcccbb;
      }

      .cls-49 {
        fill: #46988b;
      }

      .cls-50 {
        fill: #677d88;
      }

      .cls-51 {
        fill: #592a24;
      }

      .cls-52 {
        fill: #cee3eb;
      }

      .cls-53 {
        fill: #56758e;
      }

      .cls-54 {
        fill: #b18171;
      }

      .cls-55 {
        fill: #f6ac5c;
      }

      .cls-56 {
        fill: #6e96ae;
      }

      .cls-57 {
        fill: #dccab9;
      }

      .cls-58 {
        fill: #a3d1d7;
      }

      .cls-59 {
        fill: #5c839c;
      }

      .cls-60 {
        fill: #7197af;
      }

      .cls-61 {
        fill: #ee974b;
      }

      .cls-62 {
        fill: #5f88a3;
      }

      .cls-63 {
        fill: #dccbba;
      }
    </style>
  </defs>
  <g id="Layer_1-2" data-name="Layer_1">
    <g>
      <path class="cls-9" d="M101.67,32.85c.79-3,2.93-5.11,4.84-7.37,8.58-10.18,18.47-18.82,30.03-25.47h1.99c9.08,19.64,15.27,39.76,9.96,61.72-.42,1.73-1.25,3.36-1.88,5.03-2.64-1.03-4.76-2.42-3.97-5.81,3.01-12.87,2.06-25.74-.23-38.57-.83-4.67-1.89-9.3-2.89-13.93-.25-1.16-.75-2.33-2.23-2.12-.77.11-1.65.58-.79,1.67-.64.66-1.28,1.32-1.91,1.98-.93-.36-1.81-.73-2.65.27-7.28,8.65-14.35,17.43-17.43,28.64-4.28-2.01-8.55-4.01-12.83-6.02Z"/>
      <path class="cls-9" d="M20.06,0c13.42,9.04,24.97,20.06,34.91,32.8-3.52,4.39-9.3,4.41-13.71,7.09-4.27-12.75-10.69-24.12-21.19-32.85-2.85-1.8-3.46.36-3.91,2.35-.95,4.17-1.93,8.35-2.56,12.58-1.34,8.91-3.32,17.63-1.85,26.95.97,6.09,3.6,13.14-1.79,18.95-4.94-10.26-4.73-21.27-3.48-32.04C7.93,23.39,11.18,11.24,17.07,0h2.99Z"/>
      <path class="cls-5" d="M139.38,171.17c1.81-8.23,4.06-16.3,8.37-23.64,4.37-7.43,10.79-12.34,18.75-15.36,2.05,1.92-.41,2.85-1.01,4.07-1.51,3.08-4.28,5.47-5.4,8.82,2.61,1.04,4.65-1.76,6.93-.18.06,2.22-2.46,3.44-2.23,5.93,5.03-1.09,8.97-4.16,13.2-6.84.68,2.51-.96,4.22-.8,6.2-1.92,3.71-3.85,7.41-6,11.57,7.09-.77,12.69-4.03,18.71-5.84.64,1.69,0,2.91-.27,4.19-1,4.95-.18,5.69,4.57,4.36,10.63-2.99,19.5-8.79,26.96-16.85,1.93,2.1,0,4.01-.56,5.77-3.02,9.33-8.43,17.4-14.64,26.2,5.1-2,7.51-6.14,12.74-8.37-4.63,8-10.26,13.36-17.3,17.38-.04-.5-.06-1-.12-1.49-1.13-8.05-6.59-11.12-13.29-7.07-6.44,3.89-13.14,6.74-20.73,7.51,1.92,3.26,6.65.01,8.48,3.85-6.07,2.7-12.25,1.56-18.29,1.83-6.38.56-12.4-2.38-18.77-1.95,1.6-6.64.71-13.37.71-20.06Z"/>
      <path class="cls-18" d="M177.21,150.15c-.15-1.98,1.48-3.68.8-6.2-4.24,2.68-8.17,5.75-13.2,6.84-.23-2.48,2.28-3.7,2.23-5.93-2.28-1.57-4.32,1.22-6.93.18,1.12-3.36,3.89-5.75,5.4-8.82.6-1.22,3.06-2.15,1.01-4.07,6.95-2.62,11.47-7.92,15.41-13.89.91-1.38.98-4.23,4.01-2.41.29.18,1.61-.98,2.19-1.72,6.11-7.71,10.82-16.1,12.14-26.04.16-1.18.18-2.48,1.38-2.96,1.59-.65,2.4.74,3.14,1.77,2.88,4,5.9,7.92,7.37,12.73-1.3.99-1.18,2.47-.78,3.64,1.45,4.22.9,8.54.77,12.79-.39,12.13-5.29,22.47-13.01,31.92-3.15-4.16-.92-8.94-2.43-13.13-1.98.67-2.54,2.29-3.41,3.58-3.33,4.93-7.13,9.48-11.31,13.69-1.08,1.09-2.02,3.32-3.8,2.55-1.7-.73-.46-3.02-.98-4.53Z"/>
      <path class="cls-9" d="M123.56,139.38c1.96,6.32,2.8,12.97,1.58,19.31-.94,4.87.61,6.51,4.67,7.42-1.41.07-2.83.13-4.24.2-2.73,1.58-1.05,5.02-2.95,6.95-.22-.36-.45-.72-.67-1.08-.13.26-.32.5-.39.78-3.23,11.77-7.76,23.06-12.35,34.34-1.11,2.73-2.42,3.67-5.32,3.94-2.94.27-6.25.49-8.42,3.48,4.2-1.94,8.59-1.65,12.97-1.68,1.75-.01,3.66.63,5.2-.84.31-.07.62-.14.93-.21,2.76.27,4.47,2.08,6.05,4.09.79,1.87-1.53,4.76,1.9,5.76,1.1.12,2.21.24,3.31.36-1.26,1.06-2.85.43-4.24.83-4.27-1.89-8.56,1.01-12.84-.03-.47-1.92-1.06-3.77-2.64-5.3-1,2,.65,3.56.55,5.31-2.32,0-4.66.21-6.96-.02-5.36-.54-8.72-4.12-7.77-9.38,1.08-5.96-.98-12.57,1.34-17.61,2.4-5.2,8.13-8.87,12.4-13.21.81-.83,1.72-1.58,2.44-2.48,4.83-5.97,7.86-12.29,3.73-19.94-.2-2.12-.41-4.23-.62-6.4,2,.42,1.97,3,4.23,2.92.86-3.49,2.1-6.92.26-10.49,0-.32.05-.63.12-.94,4.15,0,6.2-2.71,7.75-6.05Z"/>
      <path class="cls-48" d="M153.76,104.46c5.08,7.15,3.4,16.13-3.79,20.2-7.45,4.22-15.36,7.45-23.32,10.55-1.25.49-2.51.8-3.1,2.16-3.21-1.73-5.9.74-8.85,1.09-5.59,1.24-11.12,2.94-16.77,3.61-9.71,1.14-19.3,3.02-29.33,1.6-7.92-1.12-15.82-2.62-23.81-3.3-2.87-2.03-6.44-1.75-9.58-2.91-10.28-3.05-20.23-6.9-29.3-12.67-3.38-2.14-7.59-4.03-5.18-9.95.59-1.44.91-4.59-.23-7.04-.96-2.06-.03-3.88,2.58-4.24-1.56,2.58-.08,3.07,2.11,3.05.97,3.05,6.81,2.76,5.28,7.64-.07.23,1.32.84,1.93,1.38.96.84,2.68.4,3.24,1.92-.87,1.54-3.24.84-4.07,3.35,19.38,11.41,40.82,17.02,62.89,18.13,24.94,1.26,47.59-8.39,69.77-19.35-1.57-2.02-3.57-.3-4.56-1.89,2.67-1.07,6.26-.7,7.42-4.09.65-1.89-1.94-1.72-2.75-2.86,2.12-1.9,5.67-1.3,7.09-4.24,1.41-.04,2.13-.82,2.34-2.16Z"/>
      <path class="cls-9" d="M33.97,159.31c-1.5-6.43-.97-12.78.84-19.07.88,4.48,4.54,4.62,7.97,5.11.07.3.1.61.11.92-1.63,4.42-1.52,8.71.96,12.82.82,12.22,4.69,22.75,15.3,30.14,2.4,1.67,6.04,3.23,6.47,6.42.89,6.51,1.94,13.1,1.12,19.7-.47,3.77-2.98,6.61-6.58,7.26-2.63.48-6.19,2.42-8.24-1.55-.06-.77.37-1.62-.41-2.26-.44.59-1.02,1.13-1.28,1.79-.29.73-.3,1.57-.43,2.37-2.29-.07-4.83.46-6.81-.36-2.5-1.04,1.43-4.06-1.02-6-1.65,2.65-1.58,6.3-5,7.47-.33-.66-.66-1.32-.98-1.99.01-.82.2-1.56.93-2.05.43,2.1,1.49,1.77,1.82.18.62-2.94,2.77-4.82,4.22-7.17.38-.28.75-.56,1.13-.84,6.2,1.9,12.82.13,19.05,2.28-2.53-2.14-5.34-3.43-8.55-3.33-2.69.09-4.12-.78-5.06-3.52-2.29-6.72-5.05-13.28-7.55-19.93-3.47-9.23-5.95-18.74-8.01-28.37Z"/>
      <path class="cls-63" d="M177.21,150.15c.53,1.51-.72,3.8.98,4.53,1.78.76,2.72-1.46,3.8-2.55,4.18-4.22,7.98-8.76,11.31-13.69.87-1.29,1.44-2.92,3.41-3.58,1.51,4.19-.73,8.97,2.43,13.13,7.72-9.44,12.62-19.79,13.01-31.92.14-4.25.69-8.58-.77-12.79-.4-1.17-.52-2.65.78-3.64,2.28,5.11,2.43,10.79,4.15,16.6,1.72-2.85,1.29-5.94,3.44-8.1,4.53,10.71,4.34,21.51,1.93,32.52-.48,2.19-2.67,4.46-.51,6.91-7.46,8.06-16.33,13.86-26.96,16.85-4.75,1.33-5.57.6-4.57-4.36.26-1.28.91-2.5.27-4.19-6.01,1.81-11.61,5.07-18.71,5.84,2.16-4.15,4.08-7.86,6-11.57Z"/>
      <path class="cls-30" d="M139.43,80.6c-.04,1.33-.07,2.66-.11,4-1.57-1.06-3.35-.89-5.12-.98-2.84-.15-5.82.72-8.48-.98-1.58-6.5-5.18-11.45-11.78-13.2-4.21-1.12-9.04-2.88-12.26,2.34-.59.67-1.17,1.33-1.76,2-15.29.26-30.54-1.76-45.84-1.08-1.51-2.2-3.31-3.99-6.16-4.26-4.98-2.77-9.4-2.06-13.31,2.1-.98,1.04-1.88,2.26-3.75,1.65-3.2-1.05-6.54-.27-9.81-.49,1.31-2.33,2.01-5,3.91-7,3.41.11,6.83.21,10.12-.99,2.29-.33,4.58-.66,6.87-1,.18,1.73,1.35,2.07,2.82,2.02,4.95-.19,9.87.89,14.73.86,18.23-.12,36.39,1.01,54.58,1.78,2.42.1,3.7-1.08,3.54-3.6.81-.13,1.7-.11,2.14-1.03.68,3.62,3.41,4.62,6.52,4.89,2.4.21,4.83.08,7.25.1,1.05,3.43,1.19,7.22,4,9.95.63.98,1.27,1.96,1.9,2.93Z"/>
      <path class="cls-5" d="M125.57,166.31c1.41-.07,2.83-.13,4.24-.2,4.16.15,5.93,3.18,7.61,6.31,1.77,9.35.62,18.33-3.42,26.96-.3.65-.24,1.27.5,1.65-1.73,2.08-3.01,4.4-3.96,6.93-.39,1.75,1.26,2.04,2.08,2.95,3.73,4.12,2.41,8.57-3.01,10.19-.31-2.74.86-5.75-1.72-8.06,1.08,2.59-.22,5.63,1.73,8.06-.99,1.35-2.47,1-3.82,1.1-1.1-.12-2.2-.24-3.31-.35.08-2.43.6-4.9-.65-7.2-.2-.37-.54-1.05-.98-.43-.32.46-.2,1.24-.27,1.88-1.58-2.01-3.29-3.82-6.05-4.09.06-.29.1-.58.12-.87,3.23-3.8,8.23-2.46,12.21-3.61-.44-3.36-5.81-2.1-4.47-6.81,3.18-11.21,3.57-22.79,3.15-34.39Z"/>
      <path class="cls-62" d="M157.44,193.18c6.04-.27,12.22.87,18.29-1.83-1.82-3.84-6.56-.59-8.48-3.85,7.58-.78,14.29-3.62,20.73-7.51,6.7-4.05,12.16-.97,13.29,7.07.07.49.08.99.12,1.49-1.48.89-2.96,1.77-4.44,2.66-9.09,7.87-18.84,14.24-31.55,13.9.22-1.82-.68-3.08-1.84-4.39-2.15-2.42-4.09-5.01-6.12-7.53Z"/>
      <path class="cls-46" d="M157.44,193.18c2.03,2.52,3.97,5.12,6.12,7.53,1.16,1.31,2.06,2.57,1.84,4.39-6.04,2.93-12.23,5.05-19.11,3.97-.95-.15-1.96.07-2.94.12-4.27-.41-8.54-.82-12.81-1.23.94-2.52,2.23-4.85,3.96-6.93,1.61-3.17,3.45-6.25,4.17-9.8,6.37-.43,12.39,2.51,18.77,1.95Z"/>
      <path class="cls-56" d="M51.92,221.05c2.05,3.98,5.61,2.03,8.24,1.55,3.59-.65,6.11-3.49,6.58-7.26.82-6.6-.23-13.19-1.12-19.7-.43-3.19-4.07-4.74-6.47-6.42-10.61-7.39-14.48-17.92-15.3-30.14,1.14-1.65,1.6-3.82,3.67-4.97-1.24,6.12-.59,11.79,2.45,17.11,5.06,6.52,9.61,13.52,16.88,17.97,1.58,3.54.54,8.03,3.94,10.91.02,5.64.05,11.28.07,16.93.34,1.04.68,2.08,1.03,3.12-.14,7.83-2.09,9.45-11.65,9.34-2.79-.03-5.58-.43-8.37-.66.88-2.59-2.37-5.21.04-7.79Z"/>
      <path class="cls-56" d="M111.81,160.35c4.13,7.65,1.1,13.97-3.73,19.94-.73.9-1.63,1.65-2.44,2.48-4.27,4.34-10,8.01-12.4,13.21-2.32,5.04-.26,11.65-1.34,17.61-.95,5.26,2.42,8.84,7.77,9.38,2.3.23,4.64.03,6.96.02.02,1.66.04,3.32.06,4.98,0,.26-.01.52-.02.78-4.23.36-8.38,1.17-12.72.47-6.9-1.11-7.46-1.54-7.32-8.82.04-1.45.08-2.9.12-4.35,2.2-6.18.41-12.6,1.12-18.87,1.86,1.66.07,4.2,1.9,6.7-.87-5.6,3-9.73,1.95-14.72,4.84-3.59,10.02-6.81,12.51-12.74.81-1.93,1.52-4.01,3.43-5.26,3.71-2.71,3.61-6.88,4.14-10.81Z"/>
      <path class="cls-56" d="M33.13,208.08c-6.49-9.27-11.78-18.99-11.18-30.82.27-5.17,1.74-9.73,7.11-11.91,1.73.44,4.32-1.42,4.99,1.86-1.43,1.09-.96,2.67-1.06,4.1-.45,6.95.66,13.7,2.27,20.44,1.24,5.16,1.61,10.39-1.24,15.28-.3.34-.61.69-.91,1.03Z"/>
      <path class="cls-32" d="M5.18,106.62c-2.19.01-3.67-.47-2.11-3.05,7.65-5.45,10.35-13.98,13.74-22.08,4.2,2.17,8.7.75,13.05,1.13,1.19,3.91-1.96,8.62,2.23,11.98,1.69.91,2.98,2.22,3.91,3.89-6.1-1.83-11.88-1.18-17.54,1.82-4.32,2.3-8.85,4.22-13.28,6.31Z"/>
      <path class="cls-27" d="M125.73,82.63c2.66,1.71,5.64.84,8.48.98,1.77.09,3.55-.08,5.12.98,3.21,7.79,8.97,13.72,14.44,19.87-.21,1.34-.93,2.12-2.33,2.16-6.11-1.43-11.66-4.21-17.17-7.08-4.8-2.5-9.63-3.97-14.74-.86.31-2.38,3.75-1.74,4.02-4.15,1.17-1.48.92-3.3,1.24-4.99,1.3-2.17.57-4.61.95-6.91Z"/>
      <path class="cls-56" d="M9.97,67.87c5.39-5.82,2.76-12.86,1.79-18.95-1.48-9.32.51-18.04,1.85-26.95.63-4.23,1.61-8.41,2.56-12.58.45-1.99,1.06-4.15,3.91-2.35-.04.28-.05.56-.03.85-3.27.19-2.68,2.74-2.88,4.77-.62,6.22-1.44,12.42-1.76,18.66-.41,8.2-1.14,16.47,1.67,24.47.25,4.06,2.12,7.54,4.02,11-2.07,3.88-1.94,8.87-5.91,11.8-2.38-3.26-4.15-6.81-5.22-10.71Z"/>
      <path class="cls-56" d="M139.43,80.6c-.63-.98-1.27-1.96-1.9-2.93-.68-3.32-1.37-6.64-2.05-9.95,2.12-4.76,4.11-9.55,4.14-14.89.24-.43.62-.83.7-1.29,2.27-13.27-.07-26.36-1.62-39.47-.19-1.6-.19-3.41-2.2-4.07-.86-1.09.03-1.56.79-1.67,1.48-.21,1.98.96,2.23,2.12,1,4.64,2.06,9.26,2.89,13.93,2.29,12.84,3.24,25.7.23,38.57-.79,3.39,1.33,4.77,3.97,5.81-1.31,5.18-4.41,9.42-7.18,13.84Z"/>
      <path class="cls-14" d="M15.18,78.58c3.97-2.93,3.83-7.92,5.91-11.8,3.9-6.98,6.38-14.8,12.08-20.74,2.7-2.05,5.39-4.1,8.09-6.15,4.41-2.68,10.19-2.7,13.71-7.09,3.95,2.52,7.91-.14,11.86.01-1.04,3.51-4.53,2.79-6.91,3.8-6.49,2.74-13.58,4.18-18.98,9.18-7.28,4.65-12.95,10.65-15.97,18.9-1.9,2-2.6,4.67-3.91,7-1.34,2.66-2.69,5.31-4.03,7.97-.77-.1-1.52-.23-1.85-1.08Z"/>
      <path class="cls-4" d="M17.04,79.66c1.34-2.66,2.69-5.31,4.03-7.97,3.27.21,6.61-.56,9.81.49,1.87.61,2.77-.6,3.75-1.65,3.91-4.17,8.32-4.87,13.31-2.1-3.47.09-7-.08-9.95,2.29-4.7,2.61-7.02,6.85-8.13,11.91-4.35-.38-8.86,1.04-13.05-1.13.07-.61.15-1.22.23-1.83Z"/>
      <path class="cls-42" d="M33.13,208.08c.3-.34.61-.69.91-1.03,3.75-.45,6.61,1.98,9.87,3.1.01.62.03,1.23.04,1.85,0,0,.15.17.15.17-.38.28-.75.56-1.13.84-4.19.45-5.39,3.49-6.05,7-.74.49-.92,1.23-.93,2.05-3.81-.16-7.85-.43-9.37-4.6-1.09-3,.38-5.76,3.1-7.57,1.07-.71,2.27-1.21,3.41-1.81Z"/>
      <path class="cls-19" d="M143.36,209.19c.98-.05,1.99-.27,2.94-.12,6.88,1.08,13.07-1.04,19.11-3.97,12.71.34,22.46-6.03,31.55-13.9.95.49,1.91.97,3.24,1.66-7.23,6.34-15.15,10.93-24.18,13.5-10.69,3.04-21.51,5-32.67,2.84Z"/>
      <path class="cls-38" d="M34.06,167.22c-.67-3.28-3.26-1.42-4.99-1.86,2.62-1.21,6.04-1.78,4.9-6.05,2.06,9.63,4.54,19.14,8.01,28.37,2.5,6.65,5.26,13.21,7.55,19.93.93,2.74,2.37,3.61,5.06,3.52,3.21-.11,6.02,1.19,8.55,3.33-6.23-2.15-12.84-.39-19.05-2.28,0,0-.15-.17-.15-.17,4.18.24,5.17-1.49,3.42-5.24-1.3-2.79-2.33-5.72-3.48-8.58-4.22-10.02-7.29-20.4-9.82-30.96Z"/>
      <path class="cls-15" d="M36.97,224.04c3.42-1.17,3.35-4.82,5-7.47,2.45,1.94-1.48,4.96,1.02,6,1.98.82,4.52.29,6.81.36-.01,1.8-.03,3.6-.04,5.39-4.51-.69-9.86,1.12-12.79-4.29Z"/>
      <path class="cls-60" d="M106.67,228.75c0-.26.01-.52.02-.78,2.4-.96,1.88-3.11,2.03-4.98,4.28,1.04,8.56-1.86,12.84.03-.55,3.48-3.34,4.26-6.1,4.76-2.89.53-5.85.66-8.79.97Z"/>
      <path class="cls-26" d="M114.69,138.46c2.95-.35,5.65-2.82,8.85-1.09,0,.67,0,1.34.01,2.01-1.55,3.34-3.6,6.04-7.76,6.05-.37-2.32-.74-4.65-1.11-6.97Z"/>
      <path class="cls-50" d="M42.78,145.35c-3.43-.5-7.1-.63-7.97-5.11.13-.93.26-1.85.39-2.78,3.14,1.16,6.71.87,9.58,2.91-1.43,1.35-1.78,3.15-2,4.99Z"/>
      <path class="cls-45" d="M138.67,191.23c-.72,3.55-2.56,6.63-4.17,9.8-.74-.38-.8-1.01-.5-1.65,4.03-8.62,5.19-17.6,3.42-26.96.65-.42,1.31-.84,1.96-1.26,0,6.7.89,13.42-.71,20.06Z"/>
      <path class="cls-35" d="M86.75,216.05c-.04,1.45-.08,2.9-.12,4.35-4.92-.08-9.83-.16-14.75-.24-.34-1.04-.68-2.08-1.03-3.12,5.41,1.46,10.64.07,15.89-.99Z"/>
      <path class="cls-53" d="M49.76,228.33c.02-1.8.03-3.59.04-5.39.13-.8.14-1.64.43-2.37.27-.66.84-1.2,1.28-1.79.78.64.34,1.5.41,2.26-2.41,2.58.84,5.2-.04,7.79-.79.16-1.55.22-2.12-.51Z"/>
      <path class="cls-7" d="M40.94,45.79c5.4-5,12.49-6.44,18.98-9.18,2.38-1,5.87-.29,6.91-3.8,2.11-3.32,4.92-5.7,8.78-6.82,1.75-.51,3.26-1.51,4.62-2.8.71-.68,1.19-2.42,2.62-1.45,1.01.68.93,2.04.78,3.22-1.57,1.43-3.14,2.86-4.7,4.3-1.52,1.4-2.78,2.93-1.68,5.13.69,1.38,2.08,1.77,3.37,1.27,2.22-.85,3.91-2.31,4.14-4.96.11-1.31-1.75-2.76.26-3.94,1.42,1.56,4.39,1.26,4.81,4.01-.74,3.1-.71,5.55,3.65,5.24,1.41-.1,2.9.45,4.3.87,8.62,2.62,17.44,4.84,23.86,11.89-10.52-3.81-21.64-2.29-32.34-2.57-16.08-.42-32.23-2.56-48.35-.42Z"/>
      <path class="cls-11" d="M121.63,48.78c-6.41-7.05-15.24-9.27-23.86-11.89-1.4-.43-2.89-.97-4.3-.87-4.36.31-4.39-2.13-3.65-5.24,3.75,1.86,7.76,2.18,11.85,2.07,4.28,2.01,8.55,4.01,12.83,6.02,2.37,1.88,4.75,3.75,7.12,5.63,5.04,5.29,9.54,10.91,11.28,18.24-3.93-4.51-5.73-10.74-11.27-13.96Z"/>
      <path class="cls-47" d="M85.01,26.76c-2.01,1.17-.15,2.62-.26,3.94-.23,2.65-1.92,4.11-4.14,4.96-1.29.49-2.68.11-3.37-1.27-1.1-2.21.17-3.74,1.68-5.13,1.56-1.44,3.13-2.87,4.7-4.3.46.6.93,1.21,1.39,1.81Z"/>
      <path class="cls-55" d="M136.49,7.99c2.01.66,2.01,2.48,2.2,4.07,1.55,13.11,3.89,26.2,1.62,39.47-.08.46-.46.86-.7,1.29-4.74.24-7.73-2.22-9.67-6.28-2.41-5.03-1.25-10.28-.95-15.5.27-4.74,2.96-9.22,1.55-14.14.59-2.75,2.68-4.64,4.04-6.95.64-.66,1.28-1.32,1.91-1.98Z"/>
      <path class="cls-54" d="M134.57,9.96c-1.36,2.31-3.45,4.19-4.04,6.95-5.66,8.33-8.15,17.68-8.92,27.59-2.37-1.88-4.75-3.75-7.12-5.63,3.08-11.21,10.15-19.98,17.43-28.64.84-.99,1.72-.63,2.65-.27Z"/>
      <path class="cls-54" d="M41.26,39.89c-2.7,2.05-5.39,4.1-8.09,6.15-.06-1.97.06-3.96-.2-5.91-1.08-8.28-2.35-16.52-7.85-23.32-.7-3.54-3.56-5.86-5.08-8.93-.01-.28,0-.57.03-.85,10.49,8.74,16.92,20.1,21.19,32.85Z"/>
      <path class="cls-18" d="M111.81,160.35c-.53,3.93-.43,8.1-4.14,10.81-1.92-2.35-.19-5.62-1.83-8.74-2.25,4.23-2.87,8.66-6.93,11.43-.17-2.58-.3-4.59-.45-6.88-1.73,1.35-1.43,2.93-1.81,4.33-1.24,4.53-2.86,9.63-7.69,10.7-2.7.6-3.49,1.96-4.74,3.48-1.04,1.27-1.77,2.78-2.69,4.16-1.81,2.72-3.38,3.05-4.61-.46-1.29-3.68-2.87-7.21-5.46-10.66-.8,1.65,1.56,3.56-.66,4.19-1.39.39-2.25-1.23-3.04-2.21-2.72-3.4-4.48-7.39-6.46-11.51-1.4,3.04,1.31,5.21,1.13,8.15-6.06-2.69-7.48-8.27-9.41-13.61-2.5,2.49-1.31,5.61-3.05,7.69-3.05-5.32-3.69-11-2.45-17.11-2.07,1.15-2.52,3.32-3.67,4.97-2.48-4.11-2.59-8.4-.96-12.82,1.37.3,2.95-.2,4.08,1.03.36.32.67.75,1.1.94,7.63,3.32,16.02,4.84,22.63,10.74,1.04.93,4.02,4.93,7.69,2.31,7.96-5.7,16.95-9.22,26.32-11.85,3.66-1.02,7.32-2.04,10.98-3.07,1.84,3.57.6,7-.26,10.49-2.26.09-2.23-2.49-4.23-2.92.21,2.17.42,4.29.62,6.4Z"/>
      <path class="cls-2" d="M46.98,147.3c-1.14-1.23-2.71-.73-4.08-1.03-.01-.31-.05-.62-.11-.92.22-1.84.56-3.63,2-4.99,7.99.68,15.89,2.18,23.81,3.3,10.03,1.42,19.62-.46,29.33-1.6,5.65-.66,11.19-2.37,16.77-3.61.37,2.32.74,4.65,1.11,6.97-.07.31-.11.62-.12.94-3.66,1.02-7.32,2.05-10.98,3.07-1.82-1.56-3.89-2.04-6.33-2.16-6.94-.34-12.83,2.51-18.61,5.66-2.67,1.46-5.71,2.03-7.87.59-7.65-5.1-16.38-5.12-24.92-6.23Z"/>
      <path class="cls-17" d="M125.57,166.31c.42,11.6.03,23.18-3.15,34.39-1.34,4.71,4.03,3.45,4.47,6.81-3.98,1.15-8.98-.19-12.21,3.61.5-3.04,1.28-6.06,1.44-9.12.23-4.29,3.34-8.16,1.72-12.67,1.5-5.38,4.95-10.18,4.78-16.06,1.9-1.93.22-5.38,2.95-6.95Z"/>
      <path class="cls-22" d="M122.62,173.27c.17,5.88-3.28,10.68-4.78,16.06-2.27,5.99-4.24,12.12-6.91,17.93-1.61,3.52-.12,4.34,2.69,4.95-1.53,1.48-3.45.83-5.2.84-4.38.03-8.78-.25-12.97,1.68,2.18-2.99,5.48-3.21,8.42-3.48,2.9-.27,4.21-1.21,5.32-3.94,4.59-11.28,9.12-22.58,12.35-34.34.08-.27.26-.52.39-.78.22.36.45.72.67,1.08Z"/>
      <path class="cls-43" d="M113.62,212.2c-2.81-.6-4.31-1.43-2.69-4.95,2.66-5.81,4.64-11.94,6.91-17.93,1.63,4.51-1.49,8.39-1.72,12.67-.16,3.06-.94,6.08-1.44,9.12-.03.29-.07.58-.12.87-.31.07-.62.14-.93.21Z"/>
      <path class="cls-3" d="M108.72,222.99c-.15,1.87.37,4.02-2.03,4.98-.02-1.66-.04-3.32-.06-4.98.1-1.74-1.55-3.31-.55-5.31,1.58,1.53,2.17,3.39,2.64,5.3Z"/>
      <path class="cls-3" d="M120.6,216.08c.07-.64-.05-1.41.27-1.88.43-.62.77.06.98.43,1.25,2.3.72,4.78.65,7.2-3.43-1-1.11-3.89-1.9-5.76Z"/>
      <path class="cls-18" d="M119.51,98.68c5.11-3.11,9.94-1.64,14.75.86,5.51,2.87,11.06,5.65,17.17,7.08-1.41,2.94-4.97,2.35-7.09,4.25.81,1.13,3.4.97,2.75,2.86-1.17,3.39-4.75,3.01-7.42,4.09.99,1.59,2.99-.13,4.56,1.89-22.19,10.96-44.84,20.6-69.77,19.35-22.06-1.11-43.51-6.73-62.89-18.13.83-2.51,3.2-1.81,4.07-3.35-.56-1.53-2.28-1.09-3.24-1.92-.62-.54-2-1.15-1.93-1.38,1.53-4.88-4.31-4.58-5.28-7.64,4.43-2.09,8.96-4.01,13.28-6.31,5.66-3,11.44-3.65,17.54-1.82,1.25.04,2.5.07,3.76.11,2.4.99,4.8,1.98,7.2,2.97,2.27,2.24,4.93.26,7.9.57-2.64,3.73-2.1,7.7-1.9,11.54.46,8.76,9.56,16.47,16.43,13.16,5.9-2.84,10.95-2.27,16.58-.27,5.49,1.95,10.15.09,13.67-4.95,3.73-5.32,4.32-12.83,1.34-16.89-.01,12.57-4.06,18.55-12.59,18.61.28-4.12-2.78-2.33-4.66-2.63-3.44-.97-5.79-2.72-4.84-6.81,5.15-.75,8.84-3.43,10.92-8.24,1.8-1.72.78-3.41-.06-5.1-7.71-5.3-16.68-5.28-22.91.07-2.89.82-2.12,2.98-1.56,4.79,1.56,5.01,5.6,7.09,10.31,8.25,3.78,4.18.13,5.34-2.76,6.82-3.02.58-6.24-.72-9.14.96-1.7,1.4-2.85.45-4.17-.78-6.15-5.72-6.71-12.87-1.64-22.86,11.56-6.54,23.43-8.5,35.73-2.15,1.89.97,2.95.56,4.01-.93,3.12,6.88,8.98,6.6,15.05,5.76.97.02,1.93.03,2.9.05-1.43.73-2.93,1.37-4.29,2.22-4.48,2.78-4.34,8.07.24,10.67,4.63,2.63,12.55,1.04,15.78-3.16,2.78-3.61,1.47-7.36-2.89-8.8-2.89-.95-5.84-.81-8.79-.98,1.3-.6,2.59-1.21,3.89-1.81ZM36.92,114.52c6.28.02,10.59-2.31,10.74-5.79.21-4.91-3.87-5.97-7.46-7.23-1.23-.43-2.55-.81-3.83-.86-3.88-.14-7.94-.16-9.28,4.57-1.03,3.64,2.08,7.41,6.92,8.81,1.25.36,2.58.45,2.92.51ZM78.17,126.41c-3.11-.08-7.28.37-7.35,3.35-.07,2.66,4.14,3.55,7.19,3.65,3.14.1,7.05-.65,7.05-3.78,0-2.62-4.06-3.09-6.89-3.22Z"/>
      <path class="cls-58" d="M36.92,220c.65-3.51,1.86-6.54,6.05-7-1.45,2.35-3.61,4.23-4.22,7.17-.34,1.6-1.4,1.93-1.82-.18Z"/>
      <path class="cls-47" d="M121.63,48.78c5.53,3.22,7.33,9.45,11.26,13.96.78.72.75,1.68.78,2.63-.05.78-.09,1.57-.14,2.35-2.42-.02-4.85.11-7.25-.1-3.11-.27-5.84-1.27-6.52-4.89-2.2-4.92-6.42-7.32-11.29-8.69-2.39-.67-4.9-.07-5.66,2.55-.75,2.58,1.78,3.26,3.55,3.86,3.7,1.25,7.5,2.22,11.25,3.31.16,2.52-1.13,3.7-3.54,3.6-18.19-.77-36.35-1.9-54.58-1.78-4.86.03-9.78-1.05-14.73-.86-1.47.06-2.63-.29-2.82-2.02,2.65-.86,5.32-1.65,7.94-2.59,1.59-.57,3.11-1.42,2.95-3.46-.18-2.24-2.29-2.1-3.71-2.63-1.6-.59-3.21-.1-4.78.59-4.26,1.86-7.41,4.81-9.28,9.09-3.29,1.2-6.7,1.1-10.12.99,3.02-8.25,8.69-14.25,15.97-18.9,16.12-2.14,32.27,0,48.35.42,10.7.28,21.82-1.24,32.34,2.57Z"/>
      <path class="cls-4" d="M54.09,72.68c15.3-.68,30.55,1.34,45.84,1.08-1.22,2.29-2.97,4.35-3.14,7.11-.22,0-.44,0-.66-.02-10.06-.59-20.17.38-30.21-1.13-2.14-.32-4.78-.8-6.1,2-3.02-1.97-3.52-5.79-6-8.15.07-.3.16-.6.27-.9Z"/>
      <path class="cls-52" d="M96.8,80.87c.16-2.76,1.91-4.82,3.14-7.11.59-.66,1.17-1.33,1.76-2,9.05-3.51,13.28-2.38,18.64,4.95-3.13,1.52.28,5.71-2.94,7.19-4.64-6.96-9.3-8.29-15.63-4.46-1.45,1.18-3.7-.41-4.97,1.41Z"/>
      <path class="cls-41" d="M35.09,63.69c1.87-4.28,5.01-7.23,9.28-9.09,1.57-.68,3.18-1.17,4.78-.59,1.42.52,3.53.39,3.71,2.63.16,2.04-1.36,2.9-2.95,3.46-2.62.94-5.29,1.73-7.94,2.59-2.29.33-4.58.66-6.87,1Z"/>
      <path class="cls-41" d="M117.63,63.75c-3.76-1.09-7.55-2.06-11.25-3.31-1.77-.6-4.3-1.28-3.55-3.86.76-2.62,3.27-3.22,5.66-2.55,4.87,1.37,9.08,3.77,11.29,8.69-.44.91-1.33.89-2.14,1.03Z"/>
      <path class="cls-37" d="M120.33,76.72c-5.36-7.34-9.59-8.46-18.64-4.95,3.22-5.22,8.05-3.46,12.26-2.34,6.6,1.75,10.19,6.71,11.78,13.2-.38,2.29.36,4.74-.95,6.91.11-4.82-1.54-9.04-4.45-12.81Z"/>
      <path class="cls-12" d="M54.09,72.68c-.1.3-.19.6-.27.9-5.82-4.72-8.29-4.84-15.83-.78,0-.7,0-1.39,0-2.09,2.95-2.37,6.48-2.2,9.95-2.29,2.85.26,4.64,2.06,6.16,4.26Z"/>
      <path class="cls-23" d="M133.53,67.71c.05-.78.09-1.57.14-2.35.6.78,1.2,1.56,1.8,2.34.68,3.32,1.37,6.64,2.05,9.95-2.81-2.72-2.94-6.52-4-9.95Z"/>
      <path class="cls-36" d="M129.62,221.09c-1.95-2.42-.65-5.47-1.73-8.06,2.58,2.3,1.41,5.32,1.72,8.06,0,0,0,0,0,0Z"/>
      <path class="cls-31" d="M49.97,171.23c1.74-2.08.55-5.21,3.05-7.69,1.93,5.33,3.35,10.92,9.41,13.61.19-2.94-2.53-5.1-1.13-8.15,1.98,4.11,3.74,8.1,6.46,11.51.79.99,1.64,2.61,3.04,2.21,2.22-.63-.14-2.54.66-4.19,2.59,3.44,4.18,6.98,5.46,10.66,1.23,3.52,2.8,3.18,4.61.46.91-1.38,1.65-2.89,2.69-4.16,1.24-1.52,2.04-2.89,4.74-3.48,4.83-1.07,6.45-6.17,7.69-10.7.38-1.39.09-2.97,1.81-4.33.15,2.28.28,4.29.45,6.88,4.07-2.77,4.68-7.21,6.93-11.43,1.64,3.12-.09,6.39,1.83,8.74-1.91,1.25-2.62,3.33-3.43,5.26-2.5,5.93-7.68,9.15-12.51,12.74-1.29.72-2.58,1.44-3.87,2.16-5.49,5.84-11,5.63-16.54.06-.11-.11-.3-.13-.45-.19-1.33-.68-2.33-2.02-4.02-1.97-7.27-4.45-11.82-11.45-16.88-17.97Z"/>
      <path class="cls-33" d="M70.87,191.17c.15.06.34.09.45.19,5.53,5.57,11.04,5.78,16.54-.06,0,1.95,0,3.91.01,5.87-.71,6.27,1.09,12.69-1.12,18.87-5.25,1.06-10.48,2.45-15.89.99-.02-5.64-.05-11.28-.07-16.93.03-2.98.05-5.96.08-8.94Z"/>
      <path class="cls-25" d="M70.87,191.17c-.03,2.98-.05,5.96-.08,8.94-3.4-2.88-2.36-7.37-3.94-10.91,1.69-.05,2.69,1.29,4.02,1.97Z"/>
      <path class="cls-25" d="M87.87,197.18c0-1.96,0-3.91-.01-5.87,1.29-.72,2.58-1.44,3.87-2.16,1.05,4.99-2.82,9.12-1.95,14.72-1.84-2.5-.04-5.04-1.9-6.7Z"/>
      <path class="cls-59" d="M34.06,167.22c2.53,10.56,5.61,20.94,9.83,30.96-2.61,3.99,1.18,7.98.02,11.97-3.26-1.12-6.11-3.55-9.87-3.1,2.85-4.89,2.48-10.12,1.24-15.28-1.62-6.74-2.73-13.49-2.27-20.44.09-1.43-.37-3.01,1.06-4.1Z"/>
      <path class="cls-52" d="M38,72.8c7.54-4.06,10.01-3.94,15.83.78,2.48,2.36,2.98,6.18,6,8.15-.3,1.3-.6,2.61-.89,3.91-.32,0-.63-.01-.94-.06-3.78-8.97-9.3-10.98-16.95-6.16-.47,1.54-2.22,2.46-2.11,4.29-3.54,5.17-2.41,10.09.82,14.89-1.25-.04-2.51-.07-3.76-.11-.93-1.67-2.21-2.99-3.91-3.89-3.17-8.66.54-15.45,5.91-21.8Z"/>
      <path class="cls-29" d="M38,72.8c-5.38,6.34-9.08,13.14-5.91,21.8-4.19-3.35-1.04-8.07-2.23-11.98,1.11-5.06,3.43-9.3,8.13-11.91,0,.7,0,1.39,0,2.09Z"/>
      <path class="cls-28" d="M118.61,90.61c.91-1.84,1.83-3.67,2.93-5.89,1.6,2.03,1.2,3.94.59,5.72-.63,1.85-.46,3.2,1.4,4.09-.28,2.41-3.71,1.77-4.02,4.15-1.3.61-2.6,1.21-3.89,1.81,0,0-.05.05-.05.05-.97-.02-1.93-.03-2.9-.05,3.77-2.22,4.48-6.28,5.94-9.89Z"/>
      <path class="cls-55" d="M20.04,7.88c1.52,3.07,4.38,5.39,5.08,8.93-.3,9.05,1.54,18.02.96,27.1-.38,6.02-3.72,10.72-9.01,11.86-2.81-8-2.08-16.27-1.67-24.47.31-6.23,1.14-12.44,1.76-18.66.2-2.03-.38-4.58,2.88-4.77Z"/>
      <path class="cls-61" d="M17.07,55.78c5.29-1.14,8.63-5.84,9.01-11.86.58-9.08-1.26-18.05-.96-27.1,5.5,6.8,6.77,15.04,7.85,23.32.25,1.94.14,3.94.2,5.91-5.7,5.94-8.17,13.75-12.08,20.74-1.9-3.46-3.77-6.94-4.02-11Z"/>
      <path class="cls-40" d="M135.48,67.71c-.6-.78-1.2-1.56-1.8-2.34-.03-.95,0-1.91-.78-2.63-1.74-7.33-6.24-12.95-11.28-18.24.76-9.91,3.26-19.26,8.92-27.59,1.41,4.92-1.28,9.39-1.55,14.14-.29,5.21-1.46,10.46.95,15.5,1.94,4.06,4.94,6.51,9.67,6.28-.03,5.34-2.01,10.13-4.14,14.89Z"/>
      <path class="cls-21" d="M43.9,210.15c1.16-3.99-2.63-7.97-.02-11.97,1.15,2.87,2.17,5.79,3.48,8.58,1.75,3.75.77,5.48-3.42,5.24-.01-.62-.03-1.23-.04-1.85Z"/>
      <path class="cls-63" d="M46.98,147.3c8.54,1.11,17.27,1.13,24.92,6.23,2.16,1.44,5.2.87,7.87-.59,5.78-3.15,11.67-6,18.61-5.66,2.44.12,4.5.59,6.33,2.16-9.37,2.63-18.36,6.16-26.32,11.85-3.66,2.62-6.65-1.38-7.69-2.31-6.61-5.9-15-7.43-22.63-10.74-.42-.18-.73-.62-1.1-.94Z"/>
      <path class="cls-39" d="M58.94,85.64c.3-1.3.6-2.61.89-3.91,1.32-2.81,3.95-2.33,6.1-2,10.04,1.51,20.15.54,30.21,1.12.14,2.55-1.6,5.23.5,7.65,0,2.13.12,4.24.99,6.23-1.07,1.48-2.13,1.9-4.01.93-12.3-6.34-24.17-4.39-35.73,2.15-.35-.43-.71-.87-1.06-1.3l.02.06c3.38-3.12,3.98-6.78,2.1-10.92Z"/>
      <path class="cls-57" d="M56.82,96.51c.35.43.71.87,1.06,1.3-5.07,9.99-4.51,17.14,1.64,22.86,1.32,1.23,2.46,2.17,4.17.78.13,2.84,2.21,2.33,3.8,1.95,2.15-.51,4.2-1.43,6.29-2.18,2.93.12,5.87.24,8.8.35,1.94.59,3.87,1.18,5.81,1.77,8.53-.05,12.58-6.04,12.59-18.61,2.98,4.06,2.39,11.57-1.34,16.89-3.52,5.04-8.19,6.9-13.67,4.95-5.63-2-10.68-2.57-16.58.27-6.87,3.3-15.96-4.41-16.43-13.16-.2-3.85-.74-7.82,1.9-11.54-2.97-.31-5.63,1.67-7.9-.57,3.66-.96,7.32-1.92,9.87-5.06Z"/>
      <path class="cls-16" d="M115.62,100.49c2.95.17,5.9.03,8.79.98,4.37,1.43,5.67,5.19,2.89,8.8-3.23,4.2-11.15,5.79-15.78,3.16-4.58-2.6-4.72-7.89-.24-10.67,1.36-.85,2.86-1.48,4.29-2.22,0,0,.05-.05.05-.05Z"/>
      <path class="cls-16" d="M36.92,114.52c-.34-.06-1.67-.15-2.92-.51-4.85-1.39-7.96-5.17-6.92-8.81,1.34-4.73,5.4-4.71,9.28-4.57,1.29.05,2.6.43,3.83.86,3.59,1.26,7.67,2.32,7.46,7.23-.15,3.48-4.45,5.81-10.74,5.79Z"/>
      <path class="cls-49" d="M56.82,96.51c-2.54,3.14-6.2,4.11-9.87,5.06-2.4-.99-4.8-1.98-7.2-2.97-3.23-4.8-4.36-9.72-.82-14.89-.28,2.28,1.65,2.85,2.99,3.88-1.39.18-1.86.97-1.97,2.36-.3,3.97,2.38,7.82,6.1,8.54,3.4.67,8-2.56,9.18-6.45,1.2-3.95-.71-8.97-3.93-10.17-1.32-.49-2.62-.5-3.53.87-1.03-3.56-3.93-3.35-6.73-3.33,7.65-4.81,13.17-2.81,16.95,6.16-.11,3.69.25,7.43-1.15,10.98l-.02-.06Z"/>
      <path class="cls-24" d="M97.62,94.73c-.87-1.99-.99-4.1-.99-6.23.21-1.54.21-3.36,1.65-4.14.6-.33,1.35,1.08,1.47,2.09-.03,1.82-.19,3.65-.07,5.46.18,2.83,1.54,5.37,4.05,6.37,3.57,1.42,7.43-.02,9.72-2.45,2.26-2.39,3.12-6.21,1.37-9.73-1.64-3.3-3.97-5.58-8.1-4.58-1.42-1.25-3.01-2.1-4.97-2.06,6.33-3.83,10.99-2.5,15.63,4.46.41,2.23.81,4.46,1.22,6.7-1.46,3.61-2.17,7.67-5.94,9.89-6.07.83-11.93,1.11-15.05-5.76Z"/>
      <path class="cls-51" d="M82.58,121.57c-2.93-.12-5.87-.24-8.8-.35-.32-.24-.63-.49-.95-.73,2.89-1.48,6.54-2.64,2.76-6.82,1.91-1.58,1.37-3.46.6-5.31-1.55-3.75-4.68-5.55-8.38-6.62,5.68-2.3,11.5-2.55,17.33-.86,1.72.5,3.13.66,4.61-.32.84,1.69,1.86,3.38.06,5.1-.32-4.85-3.73-3.46-6-2.46-4.52,2-5.27,6.21-4.92,10.7-.95,4.09,1.4,5.84,4.84,6.81l-1.15.85Z"/>
      <path class="cls-44" d="M67.82,101.73c3.69,1.07,6.82,2.87,8.38,6.62.77,1.85,1.31,3.73-.6,5.31-4.71-1.17-8.75-3.24-10.31-8.25-.56-1.81-1.34-3.97,1.56-4.79.32.37.65.74.97,1.11Z"/>
      <path class="cls-10" d="M78.89,113.9c-.35-4.49.4-8.7,4.92-10.7,2.27-1,5.68-2.38,6,2.46-2.09,4.81-5.77,7.49-10.92,8.24Z"/>
      <path class="cls-8" d="M78.17,126.41c2.83.13,6.89.6,6.89,3.22,0,3.13-3.92,3.88-7.05,3.78-3.04-.1-7.26-.99-7.19-3.65.08-2.99,4.24-3.44,7.35-3.35Z"/>
      <path class="cls-1" d="M67.82,101.73c-.32-.37-.65-.74-.97-1.11,6.23-5.34,15.2-5.37,22.91-.07-1.48.99-2.89.82-4.61.32-5.83-1.69-11.65-1.44-17.33.86Z"/>
      <path class="cls-20" d="M72.83,120.48c.32.24.63.49.95.73-2.09.75-4.14,1.67-6.29,2.18-1.6.38-3.67.89-3.8-1.95,2.9-1.68,6.12-.38,9.14-.96Z"/>
      <path class="cls-13" d="M82.58,121.57l1.15-.85c1.88.3,4.94-1.5,4.66,2.63-1.94-.59-3.87-1.18-5.81-1.77Z"/>
      <path class="cls-34" d="M56.84,96.56c1.4-3.55,1.05-7.29,1.15-10.98.31.05.63.07.94.06,1.88,4.14,1.29,7.8-2.1,10.92Z"/>
      <path class="cls-6" d="M41.92,87.59c3.58.35,5.47-1.33,5.85-4.84.91-1.37,2.21-1.36,3.53-.87,3.22,1.2,5.13,6.22,3.93,10.17-1.18,3.88-5.77,7.11-9.18,6.45-3.72-.73-6.4-4.58-6.1-8.54.1-1.38.58-2.18,1.97-2.36Z"/>
      <path class="cls-6" d="M99.76,86.45c5.03,2.08,6.69.91,6.98-4.93,4.13-1,6.45,1.27,8.1,4.58,1.75,3.52.88,7.33-1.37,9.73-2.29,2.43-6.15,3.87-9.72,2.45-2.51-1-3.87-3.54-4.05-6.37-.11-1.81.04-3.64.07-5.46Z"/>
    </g>
  </g>
</svg>