<?xml version="1.0" encoding="UTF-8"?>
<svg id="Layer_2" xmlns="http://www.w3.org/2000/svg" viewBox="0 0 219.81 224.43">
  <defs>
    <style>
      .cls-1 {
        fill: #406180;
      }

      .cls-2 {
        fill: #3e5e7e;
      }

      .cls-3 {
        fill: #203b5e;
      }

      .cls-4 {
        fill: #ca9785;
      }

      .cls-5 {
        fill: #6b90aa;
      }

      .cls-6 {
        fill: #6b3320;
      }

      .cls-7 {
        fill: #d3a99a;
      }

      .cls-8 {
        fill: #a2becd;
      }

      .cls-9 {
        fill: #1f4b76;
      }

      .cls-10 {
        fill: #23354c;
      }

      .cls-11 {
        fill: #22334a;
      }

      .cls-12 {
        fill: #dfbdac;
      }

      .cls-13 {
        fill: #2f4968;
      }

      .cls-14 {
        fill: #ecf2f4;
      }

      .cls-15 {
        fill: #c0b8b6;
      }

      .cls-16 {
        fill: #759fb6;
      }

      .cls-17 {
        fill: #dbc6bb;
      }

      .cls-18 {
        fill: #840b07;
      }

      .cls-19 {
        fill: #25374e;
      }

      .cls-20 {
        fill: #bc7b6e;
      }

      .cls-21 {
        fill: #214d77;
      }

      .cls-22 {
        fill: #b87b5c;
      }

      .cls-23 {
        fill: #e48356;
      }

      .cls-24 {
        fill: #fce0ce;
      }

      .cls-25 {
        fill: #8dbbcf;
      }

      .cls-26 {
        fill: #586b82;
      }

      .cls-27 {
        fill: #b1d1e0;
      }

      .cls-28 {
        fill: #c8cdcb;
      }

      .cls-29 {
        fill: #d65938;
      }

      .cls-30 {
        fill: #283950;
      }

      .cls-31 {
        fill: #fcbebc;
      }

      .cls-32 {
        fill: #53819f;
      }

      .cls-33 {
        fill: #cd4230;
      }

      .cls-34 {
        fill: #aec1ce;
      }

      .cls-35 {
        fill: #213248;
      }

      .cls-36 {
        fill: #8f201c;
      }

      .cls-37 {
        fill: #5f748a;
      }

      .cls-38 {
        fill: #58839f;
      }

      .cls-39 {
        fill: #44afd2;
      }

      .cls-40 {
        fill: #f1f7f9;
      }

      .cls-41 {
        fill: #7698ae;
      }

      .cls-42 {
        fill: #558baa;
      }

      .cls-43 {
        fill: #3e5f7e;
      }

      .cls-44 {
        fill: #42536f;
      }

      .cls-45 {
        fill: #7b4128;
      }

      .cls-46 {
        fill: #75a8c1;
      }

      .cls-47 {
        fill: #f3efed;
      }

      .cls-48 {
        fill: #55819e;
      }

      .cls-49 {
        fill: #cb9785;
      }

      .cls-50 {
        fill: #213249;
      }

      .cls-51 {
        fill: #596d85;
      }

      .cls-52 {
        fill: #3e5e7d;
      }

      .cls-53 {
        fill: #e3cbbd;
      }

      .cls-54 {
        fill: #d3a89a;
      }

      .cls-55 {
        fill: #febc71;
      }

      .cls-56 {
        fill: #9099a4;
      }

      .cls-57 {
        fill: #fbede2;
      }

      .cls-58 {
        fill: #214d78;
      }

      .cls-59 {
        fill: #200201;
      }

      .cls-60 {
        fill: #a74029;
      }

      .cls-61 {
        fill: #3f5f7e;
      }

      .cls-62 {
        fill: #5a6e85;
      }

      .cls-63 {
        fill: #f7b2ad;
      }

      .cls-64 {
        fill: #63819d;
      }

      .cls-65 {
        fill: #7fb2c9;
      }

      .cls-66 {
        fill: #3d5e7e;
      }

      .cls-67 {
        fill: #608ba7;
      }

      .cls-68 {
        fill: #f77d5c;
      }

      .cls-69 {
        fill: #76a2bb;
      }

      .cls-70 {
        fill: #be7768;
      }

      .cls-71 {
        fill: #2f4868;
      }

      .cls-72 {
        fill: #fce9dc;
      }

      .cls-73 {
        fill: #f4f6f7;
      }

      .cls-74 {
        fill: #bf7a6c;
      }

      .cls-75 {
        fill: #d4aa9b;
      }

      .cls-76 {
        fill: #adc3d0;
      }

      .cls-77 {
        fill: #f5f7f9;
      }

      .cls-78 {
        fill: #6b8ea8;
      }

      .cls-79 {
        fill: #396fa4;
      }

      .cls-80 {
        fill: #3469a0;
      }

      .cls-81 {
        fill: #bd7869;
      }

      .cls-82 {
        fill: #265079;
      }

      .cls-83 {
        fill: #507f9d;
      }

      .cls-84 {
        fill: #9ed2e4;
      }

      .cls-85 {
        fill: #749eb7;
      }

      .cls-86 {
        fill: #a0bccc;
      }

      .cls-87 {
        fill: #a1b9c8;
      }

      .cls-88 {
        fill: #a6bfce;
      }

      .cls-89 {
        fill: #f88e8d;
      }

      .cls-90 {
        fill: #7b95a9;
      }

      .cls-91 {
        fill: #3f5e7c;
      }

      .cls-92 {
        fill: #6d92ac;
      }

      .cls-93 {
        fill: #f1dad0;
      }

      .cls-94 {
        fill: #e38356;
      }

      .cls-95 {
        fill: #eaf1f4;
      }

      .cls-96 {
        fill: #c6cad0;
      }

      .cls-97 {
        fill: #3d5c7b;
      }

      .cls-98 {
        fill: #3d5e7d;
      }

      .cls-99 {
        fill: #5683a1;
      }

      .cls-100 {
        fill: #52809f;
      }

      .cls-101 {
        fill: #233d60;
      }

      .cls-102 {
        fill: #faf6f5;
      }

      .cls-103 {
        fill: #517f9d;
      }

      .cls-104 {
        fill: #a3c0cf;
      }

      .cls-105 {
        fill: #507e9d;
      }

      .cls-106 {
        fill: #344459;
      }

      .cls-107 {
        fill: #a73f29;
      }

      .cls-108 {
        fill: #223d5f;
      }

      .cls-109 {
        fill: #8ebbcb;
      }

      .cls-110 {
        fill: #a36942;
      }

      .cls-111 {
        fill: #4aafd0;
      }

      .cls-112 {
        fill: #9fb8c8;
      }

      .cls-113 {
        fill: #e6e9ec;
      }

      .cls-114 {
        fill: #8aa7ba;
      }

      .cls-115 {
        fill: #d7ae9f;
      }
    </style>
  </defs>
  <g id="Layer_1-2" data-name="Layer_1">
    <g>
      <path class="cls-19" d="M120.83,222.21c-2.96.47-5.92.94-8.87,1.4-4.35.34-8.81-1.17-13.06.81h-1c-3.29-2.38-7.99-.84-11.04-3.91,0-.69.02-1.37.02-2.06,4.56,1.92,9.18,3.25,14.26,3.07,4.18-.15,6.15-1.74,5.76-5.95.38.25.77.51,1.15.76-.57,2.85.32,4.73,3.51,4.05,3.45-.74,6.41.07,9.27,1.83Z"/>
      <path class="cls-10" d="M45.83,223.5c-2.29-.41-4.59-.81-6.88-1.22,3.3-.89,3.12-3.4,2.8-5.97.92-.39.34-2.51,2.16-1.85-1.3,4.98.1,7.71,3.56,6.51,3.06-1.06,5.56-.98,8.39.4,1.56.76,3.45.38,5.25.34,3.82-.09,6.94-3.22,10.88-2.14-.15.54-.29,1.08-.44,1.62-3.88,2.4-8.71,1.15-12.67,3.24h-3c-3.21-1.89-6.68-.93-10.06-.92Z"/>
      <path class="cls-96" d="M98.89,224.43c4.25-1.98,8.71-.47,13.06-.81,0,.27-.03.54-.06.81h-13Z"/>
      <path class="cls-56" d="M45.83,223.5c3.38,0,6.85-.97,10.06.92h-10c.19-.32.17-.63-.06-.92Z"/>
      <path class="cls-65" d="M90.69,30.45c.07.6.14,1.2.22,1.8-1.15,6.98-1.01,7.31,5.04,7.92,13.99,1.41,24.32,8.52,31.93,19.99-2.87,1.64-6.02.72-9.04,1-3.98-3.17-8.27-5.61-13.6-4.93-3.18.41-5.32,1.65-2.36,5.06-.41,2.46-2.73,2.45-4.26,2.63-9.96,1.21-19.98,1.95-29.93,3.26-6.33.83-12.87.51-18.93,3-3.67-.32-6.81,1.17-9.87,2.89-1.68-.95-3.31-.92-5.24-.49-3.51.79-7.15.94-10.77.47,2.84-16.55,19.65-31.44,37.07-32.82,1.62-.13,3.85.45,4.45-1.37,2.37-7.09,9.24-10.12,13.52-15.45,1.26-.31,2.48-.81,1.12-2.21-.95-.98-2.29-1.6-4.25-2.91,5.03.38,8.63,1.52,11.15,4.99,0,.67-.01,1.34-.02,2.01-3.77,3.42.88,3.58,2,5.11.57,1.12,1.19.07,1.79.04ZM36.26,66.19c3.03-1.11,5.45-2.2,7.99-2.88,2.54-.69,5.22-.88,7.79-1.47,1.59-.36,3.4-.81,3.65-2.84.21-1.68-1.24-2.2-2.48-2.63-6.03-2.04-14.87,2.88-16.95,9.82Z"/>
      <path class="cls-24" d="M192.91,89.01c-.2-3.73.07-7.41,1.22-10.99.03-.09.28-.17.4-.14.15.03.27.17.4.27,7.8,8.67,12.66,18.86,15.52,30.05,2.45,9.61,1.83,18.6-5.52,26.26-1.68,1.75-2.7,4.12-4.02,6.21-.43.67-.86,1.34-1.29,2-3.04-2.34-3.98,2.66-6.58,1.87,2.51-4.59-1.4-7.96-1.93-12.33-1.69,1.29-1.59,2.89-2.23,4.11-.69,1.31-1.33,2.67-2.23,3.83-2.85,3.66-4.25,3.5-6.47-.87-1.31,3.44-2.83,6.54-6.05,8.33-.52-1.71.39-3.61-.72-5.35-3.24.7-5.58,3.51-9.01,3.84-.97-1.57,1.22-3.19-.18-4.8-.62.11-1.24.3-1.87.33-1.44.06-3.26.83-4.18-.56-1-1.52.77-2.63,1.44-3.89,1.1-2.06,3.46-3.33,4.32-6.48-3.46,1.22-6.23,2.19-9,3.16-1.22-2,1.42-3.17,1.07-4.98.64-.67,1.27-1.33,1.91-2,.6.84,1.35.9,2.1.28,6.07-5.09,13.01-9.09,19.01-14.18,6.48-5.5,13.27-11.14,15.13-20.26.33-1.6,1.57-3.24-1.23-3.71Z"/>
      <path class="cls-83" d="M28.87,158.71c6.21-.5,7.49-4.08,6.25-9.53-.34-1.51.13-3.21.22-4.81.21-1.24.42-2.48.62-3.72,2.8.05,5.35,1.02,7.88,2.08.5,2.31-.7,4.83.83,7.02,4.32,2.26,3.02,6.32,3.22,9.91.04.66.12,1.31.18,1.97-.37,3.26,2.69,4.27,3.95,6.29,4.18,6.71,9.87,11.71,15.7,16.71-.28.75-.6,1.49-.82,2.25-2.12,7.2.74,14.42-.08,21.63-5.17-2.06-10.16-4.85-16.07-3.94-1.26-.16-2.69.21-2.37-2.09.52-3.81-.45-7.55-1.75-11.08-2.68-7.3-5.09-14.62-6.24-22.37-.3-2.01.48-4.91-2.37-6.11-.25-1.25-.38-2.57-1.89-3.34-1.13,10.61.92,20.79,2.39,30.98.55,3.78-.45,3.97-3.44,3.05-3.97-1.22-6.97-3.6-9.17-7.07,1.56-.93.33-1.97.14-2.99-.71-3.85-1.98-7.72-1.95-11.57.06-6.53,4.02-10.63,10.65-12.23-2.24-2.11-4.3,1.14-5.9-1.05Z"/>
      <path class="cls-9" d="M199.61,142.67c.43-.67.86-1.34,1.29-2,2.09,4.24,1.24,8.52.02,12.74-.86,2.95-.33,3.77,2.89,2.94,5.76-1.48,8.23-6.17,11.18-10.48.59-.08,1.18-.17,1.76-.25-1.47,7.57-5.77,13.26-12.46,17.52,3.11,1.58,5.23-.16,7.5-.72.13,1.76-.81,3.11-1.68,4.5-3.77,6.06-9.2,10.13-15.68,12.89-2.23.95-3.64,2.12-2.54,4.74,1.33,2.06,3.6.27,5.57,1.76-2.02,1.45-4.06,2.92-6.1,4.38-7.76,2.81-15.77,3.79-23.9,2.47-2.91-.47-5.26-.54-8.03.9-5.32,2.78-11.09,4.2-17.16,2.39-2.88-.86-5.68-1.9-3.4-5.81,1.1-.09,2.3.1,3.03-1.05,2.88-.36,4.91-2.21,7-3.95.9.22,2.6-3.4,2.69.46.05,2.14,1.44,1.5,2.35,1.36,2.63-.41,4.97-1.35,7.04-3.26,3.66-3.38,7.62-6.45,11.45-9.64-.29-.32-.59-.64-.88-.95-.59,2.02-1.17,4.03-1.76,6.05-2.1,2.8-4.2,5.6-6.77,9.04,5.19-.78,9.52-1.44,13.25-4.02,1.17-.81,3.3-1.23,3.14-2.81-.22-2.11-2.37-1-3.67-1.23-1.23-.22-2.2-.63-2.65-1.86,8.6-.83,14.91-5.78,20.7-11.55,1.94-1.94,5.08-4.49,4.38-6.57-.74-2.19-4.72-.48-7.23-1.02,2.27-4.36,7.08-7.4,6.83-13.06.61-1.29,1.22-2.58,1.84-3.88Z"/>
      <path class="cls-9" d="M122.98,138.67c1.62,5.88.52,11.92,1.04,17.87-1.01,12.31-2.03,24.62-3.04,36.93q-.32,7.57,6.89,10.05l.09-.06c0,3.31.01,6.63.02,9.94.29,2.3-.64,4.2-1.98,5.96-.41-.41-.82-.82-1.24-1.22-.73-3.68-2.21-7.34-5.52-9-7.98-4.01-8.36-9.91-5.38-17.1.31-.75.45-1.57.61-2.37,1.4-6.96,3.46-13.84,2.46-21.08.17-3.44-.14-6.8-1.91-11.16-2.81,14.1-10.29,23.8-22.11,30.15-1.14-1.65-1.15-3.3,0-4.96,4.84-4.07,9.69-8.13,11.4-14.97,1.22,1.43,2.03,2.39,3.01,3.54,2.88-6.49,2.94-12.99,2.54-20.02,2.68,1.42,4.13,1.42,4.31-2.11.12-2.38.61-4.85.87-7.29,3.14.21,5.75-.92,7.94-3.1Z"/>
      <path class="cls-41" d="M142.78,9.44c2.68,8.79,5.34,17.59,6.09,26.81-3.67,1.56-1.02,4.99-2.01,8.17-2.53-7.26-4.78-13.68-7.02-20.11-.67-3.64-1.34-7.29-4.34-9.92-.66-.82-.99-2.06-2.56-.88-2.42,1.82-4.68,3.7-6.08,6.44-4.33,4.04-7.01,9.22-9.93,14.23-2.44,1.3-2.71,4.07-4.12,6.06-1.56-2.34-3.49-4.26-6.25-5.15-3.07-.99-4-2.93-2.67-5.9,8.21-9.7,18.53-16.83,28.94-23.91,3.37-2.29,4.91-1.05,6.79,1.48.81,1.09.49,3.71,3.16,2.67Z"/>
      <path class="cls-3" d="M138.86,190.64c-2.29,3.91.52,4.95,3.4,5.81,6.06,1.81,11.83.39,17.16-2.39,2.77-1.45,5.13-1.38,8.03-.9,8.13,1.32,16.14.34,23.9-2.47-7.27,7.98-17.17,10.48-27.12,12.8-2.39.56-4.87.75-7.31,1.12-2.13,0-4.27,0-6.4,0-7.34,0-14.72.25-21.58-3.11l-.03.07c3.42-2.87,4.55-7.03,6.18-10.91,1.26,0,2.51-.02,3.77-.03Z"/>
      <path class="cls-7" d="M214.99,145.86c-2.94,4.31-5.42,9-11.18,10.48-3.23.83-3.75.01-2.89-2.94,1.23-4.22,2.07-8.49-.02-12.74,1.32-2.09,2.34-4.46,4.02-6.21,7.35-7.67,7.97-16.66,5.52-26.26-2.85-11.18-7.72-21.38-15.52-30.05,6.04,2.43,9.69,7.05,12,12.91.04.25.03.5-.04.74.27.93.39,1.94.82,2.79,4.12,8.16,6.59,16.68,7.56,25.85.5,4.68-.49,9.56,1.44,14.09-.57,3.78-1.14,7.56-1.71,11.34Z"/>
      <path class="cls-66" d="M25.93,186.53c2.19,3.47,5.2,5.85,9.17,7.07,2.99.92,3.98.73,3.44-3.05-1.47-10.18-3.52-20.37-2.39-30.98,1.51.77,1.65,2.09,1.89,3.34,1.62,12.02,4.86,23.67,8.31,35.27,1.1,3.7.32,6.24-3.23,8.2-2.38,1.31-4.75,3.04-5.23,6.14-.31.63-.63,1.25-.94,1.88-.36,1.06-.72,2.11-1.08,3.17q-8.25,2.62-10.87-3.97c.83-1.99,1.47-4.1,3.11-5.52,1.62,1.74-3.09,4.58,1.43,5.35,3.87.65,5.43-1.36,5.38-5.04-.03-2.14.11-4.29-1.22-6.16-5.11-6.51-10.57-12.85-10.88-21.75,1.87,1.59,1.94,4.11,3.13,6.04Z"/>
      <path class="cls-46" d="M8.8,38.09c-1.85-2.21-.19-4.45.12-6.58,1.34-9.28,3.49-18.36,7.78-26.8,3.03-5.97,3.9-6.1,9.18-1.33-2.03.04-3.73-2.58-6.13-.68,6.42,2.2,10.98,7.06,16.4,10.61,1.47.96,2.58,2.78,4.78,1.85,0,0-.08.23-.08.23.04.3.06.6.05.91-2.01,3.4-6.22,2.88-8.95,4.99-.32-.14-.64-.28-.97-.42-1.08-2.96-3.93-4.4-5.81-6.67-2.31-2.78-3.44-1.14-4.39,1.16-3.55,6.35-5.94,13.15-8.01,20.09-.5,1.69-.03,4.2-2.78,4.67-.06-.88-.24-1.68-1.2-2.03Z"/>
      <path class="cls-83" d="M120.97,193.47c1.01-12.31,2.02-24.62,3.04-36.93,5.39.97,9.53,3.88,12.85,8.1,0,0,.17.23.17.23-.04,1.61-.07,3.21-.11,4.82.28,1.02.56,2.05.85,3.07-.58-.09-1.15-.18-1.73-.27-.25-8.02-2.17-11.06-7.85-12.18.28,3.35,4.04,3.79,5.22,6.77,2,5.06.57,9.77.47,14.63-.67,1.3-1.09,2.84-2.06,3.86-3.12,3.26-5.03,8.29-10.85,7.91Z"/>
      <path class="cls-49" d="M35.97,140.64c-.21,1.24-.42,2.49-.62,3.72,1.33-8.1-2.99-11.39-10.25-13.49-7.66-2.22-14.67-6.22-20.55-11.8-1.54-1.46-3.31-2.83-3.66-5.17,2.69.37,5.37.73,8.06,1.1-1.16,1.64-1.17,3.01.92,3.88,3.08,2.6,6.65,4.12,10.52,5.3,13.27,4.03,26.85,7.01,39.92,11.74,1.97.71,3.42,1.26,4.49,3.11,1.36,2.35,3.68,3.68,6.14,4.72l-3.03,1.02c-1.02-.54-2.13-.96-3.04-1.65-8.3-6.22-18.25-6.97-27.97-8.47-1.84,1.77-.81,3.96-.91,5.99Z"/>
      <path class="cls-64" d="M139.76,87.01c2.47,6.25,6.55,11.19,12.14,14.92-1.94,2.8-5.78,1.79-8.03,3.97-6.94-4.22-13.59-9.1-22.33-9.22.6-1.85,1.06-3.26,1.52-4.66,1.42-.92.17-3.42,2.36-3.91,4.73-1.07,9.47-1.81,14.34-1.09Z"/>
      <path class="cls-61" d="M139.84,24.32c2.24,6.43,4.49,12.85,7.02,20.11.98-3.18-1.66-6.61,2.01-8.17,3.17,15.48-1.08,29.19-10.02,41.78-2.02-.83-2.4-2.71-2.89-4.51,2.13-2,2.63-4.81,3.65-7.35,3.46-9.93,3.16-19.92.43-29.95-.43-3.97-.86-7.95-1.28-11.92.36,0,.73,0,1.09.01Z"/>
      <path class="cls-4" d="M144.87,124.85c-6.81,4.57-14.75,6.64-22.16,9.87-2.78-.9-5.22.7-7.82,1.07-.39-.28-.9-.88-1.16-.79-8,2.84-17.45,1.78-23.9,8.78-.7-.39-1.41-.77-2.11-1.16,3.46-6.61,10.32-7.29,16.4-9.37,7.35-2.52,14.56-5.39,22.27-6.88,6.13-1.18,12.38-2.42,17.53-6.43-.04,1.7.19,3.36.95,4.91Z"/>
      <path class="cls-78" d="M.53,104.04c-.64-1.72,1.12-1.45,1.65-1.57,7.46-1.77,11.95-6.62,14.52-13.54,5.45.84,10.74-.99,16.15-.9.35,1.77.51,3.61,1.09,5.3.6,1.76.52,2.38-1.6,2.88-7.69,1.81-14.28,5.89-20.49,10.63-3.61-1.6-7.39-2.52-11.33-2.8Z"/>
      <path class="cls-85" d="M32.85,88.02c-5.4-.09-10.7,1.74-16.15.9.78-3.23,2.84-6.18,2.07-9.74,1.73-1.22,2.08-3.05,2.22-4.98.29-.04.58-.11.86-.21,1.4,1.22,1.11-1.11,2-.95,3.62.47,7.26.32,10.77-.47,1.93-.43,3.57-.47,5.24.49-.65,1.02-1.3,2.04-1.95,3.07-2.69,3.54-3.79,7.75-5.07,11.89Z"/>
      <path class="cls-104" d="M23.85,73.05c-.89-.16-.6,2.17-2,.95.39-1.61.77-3.22,1.16-4.83,3.19-7.04,5.23-15.19,11.69-19.77,7.17-5.09,8.99-10.16,4.16-17.46,2.95.58,2.53,3.7,4.06,5.34.18,3.29,1.63,4.53,4.76,2.85,3.75-2.01,8.04-3.01,11.29-5.94,3.28.44,5.81,0,8.04-3.2,2.76-3.97,7.04-6.4,11.88-7.57-4.28,5.33-11.15,8.37-13.52,15.45-.61,1.82-2.84,1.24-4.45,1.37-17.42,1.37-34.23,16.26-37.07,32.82Z"/>
      <path class="cls-92" d="M135.95,73.53c.49,1.8.88,3.68,2.89,4.51-2.25,3.25.72,5.97.92,8.98-4.86-.72-9.61.02-14.34,1.09-2.2.5-.95,2.99-2.36,3.91.14-3.51-.32-6.91-1.95-10.09,1.14-2.95-1.97-4.37-2.44-6.75,5.44-.71,10.88-1.41,16.31-2.12.32.15.64.31.97.46Z"/>
      <path class="cls-2" d="M20.99,74.21c-.14,1.92-.5,3.75-2.22,4.97-9.64-12.18-13.08-25.85-9.97-41.1.96.35,1.14,1.16,1.2,2.03,0,2.12,0,4.23,0,6.21,2.55.24,2.96-2.23,4.78-2.12.19,7.73-.64,15.61,3.2,22.83.2,2.72,1.85,4.84,3.01,7.16Z"/>
      <path class="cls-104" d="M112.81,40.25c1.41-1.99,1.68-4.76,4.12-6.06-.71,2-1.43,3.99-2.13,5.99-.5,1.41-1.08,2.81.69,3.86,9.06,5.43,13.92,14.11,18.15,23.27.11.94.22,1.88.33,2.82-2.03-3.33-4.06-6.65-6.09-9.98-7.6-11.47-17.94-18.58-31.93-19.99-6.05-.61-6.18-.94-5.04-7.92,2.01,3.11,5.08,1.89,7.85,1.9,3.2,3.73,8.1,4.51,12.08,6.88.75.45,1.57.12,1.97-.79Z"/>
      <path class="cls-72" d="M192.91,89.01c2.8.47,1.55,2.11,1.23,3.71-1.86,9.12-8.65,14.76-15.13,20.26-6,5.09-12.94,9.08-19.01,14.18-.75.63-1.5.56-2.1-.28,1.01-1.37,2.01-2.73,3.02-4.1,4.01-5.66,10.12-8.87,15.67-12.54,8.03-5.3,13.62-12.07,16.33-21.24Z"/>
      <path class="cls-103" d="M33.68,202.24c1.34,1.87,1.2,4.02,1.22,6.16.05,3.68-1.51,5.69-5.38,5.04-4.52-.77.19-3.61-1.43-5.35-1.64,1.42-2.28,3.53-3.11,5.52-.05.27-.1.55-.16.82-2.23.05-4.64.38-4.89-2.9.32-1.17,1.97-1.9,1.29-3.95-1.36,1.52-2.41,2.7-3.45,3.87-1.43.02-2.35-.69-2.87-1.97,5.3-4.88,11.94-6.34,18.79-7.24Z"/>
      <path class="cls-81" d="M144.87,124.85c-.76-1.55-.99-3.2-.95-4.91.07-.15.18-.3.18-.45,0-.11-.13-.31-.22-.33-3.56-.57-7.58.62-11.41-2.97,4.35-.4,8.14,1.73,11.2-1.29-.55-2.18-3.78-2.29-3.7-4.85,4.92,1.44,9.82,3.23,14.99,1.01,3.2,0,2.57,1.62,1.44,3.42-2.86,4.53-6.7,7.98-11.52,10.36Z"/>
      <path class="cls-101" d="M191.88,184.55c-1.1-2.62.3-3.79,2.54-4.74,6.48-2.76,11.91-6.83,15.68-12.89.87-1.4,1.81-2.75,1.68-4.5,1.44-1.51,2.89-3.01,4.8-5.01.6,3.51-.31,6.11-1.54,8.46-4.99,9.53-11.85,16.88-23.16,18.69Z"/>
      <path class="cls-8" d="M142.78,9.44c-2.67,1.04-2.35-1.58-3.16-2.67-1.88-2.54-3.42-3.78-6.79-1.48-10.41,7.09-20.73,14.22-28.94,23.91-.63.05-1.25.11-1.88.16,2.78-5.88,7.84-9.76,12.6-13.81,4.66-3.97,9.76-7.42,14.63-11.16,7.22-5.55,10.6-5.53,13.55,5.05Z"/>
      <path class="cls-16" d="M31.95,21.29c2.73-2.11,6.94-1.59,8.95-4.99,2.02,1.69,4.04,3.38,6.06,5.07.69.95,1.39,1.9,2.08,2.85-3.5,3.21-7.45,5.08-12.35,4.15-1.58-2.36-3.16-4.72-4.73-7.08Z"/>
      <path class="cls-74" d="M206.88,91.8c.07-.24.08-.49.04-.74,5.08,1.87,6.55,6.76,8.14,10.92,5.42,14.27,6.49,28.89,1.69,43.63-.59.08-1.18.16-1.76.25.57-3.78,1.14-7.56,1.71-11.34.06-5.63.6-11.3.08-16.88-.89-9.44-3.28-18.49-9.89-25.85Z"/>
      <path class="cls-90" d="M36.68,28.37c4.9.93,8.85-.95,12.35-4.15.96.99,1.92,1.97,2.88,2.96.25.76.28,1.73.78,2.24,3.19,3.24,2.68,4.61-1.96,5.13-2.67.3-5.21,1.78-7.81,2.73-1.53-1.65-1.11-4.76-4.06-5.34-1.32-.83-1.72-2.22-2.18-3.57Z"/>
      <path class="cls-105" d="M127.96,213.41c0-3.31-.01-6.63-.02-9.94,4.41.82,8.9,1.24,13.12,2.92.61.41,1.23.83,1.84,1.24-.03,1.38-.71,2.31-1.98,2.84-.75-.13-2.15-2.93-2.05.47.09,2.79-1.45,3.68-3.96,3.51v-.02c-2.1-1.87-4.66-.54-6.95-1.03Z"/>
      <path class="cls-104" d="M155.98,128.89c.35,1.81-2.29,2.99-1.07,4.98-3.45,3.02-5.98,6.81-8.81,10.38-3.41,4.3-4.09,9.87-7.11,14.31-.28-1.54.37-3.26-.9-4.62-.21-.89-.01-1.66.71-2.27.28.08.56.19.85.23.06,0,.17-.23.22-.37,3.25-9.05,8.33-16.8,16.11-22.64Z"/>
      <path class="cls-44" d="M154.95,111.07c-5.17,2.21-10.07.42-14.99-1.01-.04-.28-.2-.66-.08-.8.16-.19.54-.26.83-.28,1.63-.1,3.45,2.08,4.82.04.91-1.35-1.19-2-1.65-3.12,2.25-2.17,6.09-1.17,8.03-3.97,3.36.17,4.07,1.5,1.82,4.13-.94,1.1-1.83,2.24-2.74,3.36,1.03,1.39,2.6,1.27,3.97,1.64Z"/>
      <path class="cls-100" d="M42.92,37.28c2.6-.95,5.13-2.43,7.81-2.73,4.64-.52,5.16-1.89,1.96-5.13-.5-.51-.53-1.48-.78-2.24,4.8-.11,4.82,4.56,7.07,7.01-3.26,2.93-7.54,3.93-11.29,5.94-3.14,1.68-4.59.44-4.76-2.85Z"/>
      <path class="cls-52" d="M120.83,222.21c-2.86-1.76-5.82-2.57-9.27-1.83-3.19.68-4.08-1.19-3.51-4.05,2.97.15,6,.46,7.29-3.32,1.7,1.41,2.59,6.1,5.56,1.36,2,.73,1.41,3.29,3.03,4.29-.66,1.01-1.32,2.01-1.98,3.02-.37.17-.74.35-1.11.52Z"/>
      <path class="cls-86" d="M25.93,186.53c-1.19-1.94-1.26-4.45-3.13-6.04-3.07-8.67-.74-15.84,6.07-21.78,1.6,2.19,3.66-1.06,5.9,1.05-6.62,1.6-10.59,5.69-10.65,12.23-.03,3.85,1.24,7.71,1.95,11.57.19,1.02,1.41,2.06-.14,2.99Z"/>
      <path class="cls-48" d="M.53,104.04c3.94.28,7.72,1.2,11.33,2.8-1.04,1.17-1.87,2.15.55,2.81.86.23,2.98-1.11,2.58,1.47-4.95,2.31-9.91,2.06-14.86.02,1.31-2.1,3.62-.55,5.57-1.69-1.73-1.8-3.45-3.6-5.17-5.41Z"/>
      <path class="cls-67" d="M155.98,128.89c-7.78,5.84-12.86,13.6-16.11,22.64-.05.14-.16.38-.22.37-.29-.04-.57-.15-.85-.23,3.54-12.54,10.8-22.25,22.11-28.88-1.01,1.37-2.01,2.73-3.02,4.1-.64.67-1.27,1.33-1.91,2Z"/>
      <path class="cls-106" d="M121.94,221.69c.66-1.01,1.32-2.01,1.98-3.02.21-.27.49-.44.82-.52.41.41.82.82,1.24,1.22,4.17.49,7.93.25,8.92-4.94,0,0,0,.02,0,.02.09,1.89-.5,4.21,2.17,4.8,2.54.56,3.94-.93,4.78-3.16.22-.57.66-1.06,1-1.58.11,1.7.08,3.59,2.68,2.05,1.1-.65,2.17-1.36,3.25-2.04.76,3.58-2.19,4.13-4.38,4.8-5.24,1.6-10.7,1.94-16.16,1.72-2.16-.09-4.26.02-6.32.66Z"/>
      <path class="cls-32" d="M102.01,29.36c.63-.05,1.25-.11,1.88-.16-1.33,2.96-.4,4.9,2.67,5.9,2.76.89,4.69,2.81,6.25,5.15-.4.91-1.22,1.24-1.98.79-3.98-2.38-8.88-3.15-12.08-6.88,1.09-1.6,2.17-3.2,3.26-4.79Z"/>
      <path class="cls-108" d="M114.89,135.79c2.6-.38,5.04-1.97,7.82-1.07.09,1.32.18,2.63.26,3.95-2.19,2.19-4.8,3.31-7.94,3.11-.78-1.98-1.99-3.94-.15-5.98Z"/>
      <path class="cls-95" d="M40.93,15.16c-2.2.93-3.31-.89-4.78-1.85-5.42-3.55-9.98-8.41-16.4-10.61,2.4-1.9,4.1.72,6.13.68,5.66,3.11,10.7,7.01,15.05,11.78Z"/>
      <path class="cls-62" d="M148.8,214.51c-1.08.68-2.15,1.39-3.25,2.04-2.59,1.54-2.57-.34-2.68-2.05-.65-1.35-1.3-2.69-1.95-4.04,1.27-.52,1.95-1.46,1.98-2.84,2.61,1.74,5.56,3.2,5.9,6.88Z"/>
      <path class="cls-52" d="M19.93,211.52c.25,3.28,2.65,2.94,4.89,2.9.95,3.43-.89,5.03-3.88,5.88-1.16.2-2.27.15-3.18-.72.81-2.66-.91-6,2.18-8.05Z"/>
      <path class="cls-91" d="M35.85,217.57c.36-1.06.72-2.11,1.08-3.17,1.61.64,3.21,1.27,4.82,1.91.32,2.57.5,5.08-2.8,5.97-1.29.19-2.2-.55-3.11-1.28,0-1.14,0-2.29,0-3.43Z"/>
      <path class="cls-112" d="M141.06,206.39c-4.21-1.68-8.71-2.1-13.12-2.92,0,0-.09.06-.09.06.08-.82-.07-1.77,1.08-2.02,6.86,3.36,14.24,3.1,21.58,3.11,2.13,0,4.27,0,6.4,0-3.45,1.73-7.16.6-10.73,1.01-1.71.19-3.64-.87-5.13.77Z"/>
      <path class="cls-30" d="M19.93,211.52c-3.09,2.05-1.37,5.39-2.18,8.05-2.38-.24-4.52-.93-5.89-3.08.14-.44.29-.88.43-1.32,3.89,1.76,4.66-1.02,5.47-3.73,1.05-1.18,2.1-2.35,3.45-3.87.68,2.05-.97,2.78-1.29,3.95Z"/>
      <path class="cls-20" d="M.13,111.13c4.96,2.04,9.91,2.29,14.86-.02-.21,1.3-1.04,2.14-2.12,2.78-1.31.37-2.62.74-3.93,1.11-2.69-.37-5.37-.73-8.06-1.1-.88-.75-1.03-1.71-.76-2.77Z"/>
      <path class="cls-11" d="M35.85,217.57c0,1.14,0,2.29,0,3.43-4.97-.24-9.94-.47-14.91-.71,2.99-.85,4.83-2.45,3.88-5.88.06-.27.11-.54.16-.82q2.62,6.59,10.87,3.97Z"/>
      <path class="cls-26" d="M17.77,211.45c-.81,2.71-1.58,5.49-5.47,3.73-.14.44-.29.88-.43,1.32-2.2-3.72.9-5.16,3.03-7.02.52,1.28,1.45,1.99,2.87,1.97Z"/>
      <path class="cls-25" d="M88.97,24.41c1.56-1-1.22-1.85.11-3.03,3.12,1.91,4.09,5.11,5.45,8.43-2.32.12-2.77-1.47-3.63-2.53-.64-.95-1.29-1.91-1.93-2.86Z"/>
      <path class="cls-87" d="M46.96,21.37c-2.02-1.69-4.04-3.38-6.06-5.07.01-.3,0-.61-.05-.91,3.87-.18,5.39,2.83,7.3,5.32-.4.22-.8.44-1.2.66Z"/>
      <path class="cls-27" d="M88.97,24.41c.64.95,1.29,1.91,1.93,2.86-1.7.96-.11,2.12-.21,3.18-.6.03-1.22,1.08-1.79-.04-.39-1.81-.71-3.65-2-5.11,0-.67.01-1.34.02-2.01.68.37,1.37.75,2.05,1.12Z"/>
      <path class="cls-99" d="M138.09,153.94c1.26,1.35.62,3.07.9,4.62-.05,2.05-.09,4.1-.14,6.16-.61.05-1.21.11-1.82.16l-.17-.23c1.75-3.42.55-7.17,1.23-10.71Z"/>
      <path class="cls-98" d="M92.9,182.63c-1.15,1.65-1.14,3.3,0,4.96.01,6.65.03,13.29.04,19.94-.1,7.78,1.91,9.26,9.82,8.18,1.17-.16,2.79-2.79,4.13-.12.4,4.21-1.57,5.8-5.76,5.95-5.09.18-9.71-1.14-14.26-3.07-.36-.28-.71-.56-1.07-.84,3.01-10,2.6-20.1.85-30.24.95-3.05,3.7-3.76,6.23-4.75Z"/>
      <path class="cls-42" d="M106.9,215.58c-1.34-2.67-2.96-.04-4.13.12-7.91,1.08-9.92-.39-9.82-8.18,2.08.19,3.67-1.27,5.53-1.68,3.17-.7,6.14-3.52,9.69-1.22,4.61,2.78,10.45,3.96,12.73,9.75-2.96,4.74-3.86.05-5.56-1.36-1.29,3.78-4.33,3.47-7.29,3.32-.38-.25-.77-.51-1.15-.76Z"/>
      <path class="cls-84" d="M85.81,217.62c.36.28.71.56,1.07.84,0,.69-.02,1.37-.02,2.06-5.03,1.78-10.18.75-15.29.67.15-.54.29-1.08.44-1.62.32-.66.65-1.32.97-1.98,4.28.01,8.56.03,12.83.04Z"/>
      <path class="cls-98" d="M72.98,217.58c-.32.66-.65,1.32-.97,1.98-3.94-1.07-7.06,2.06-10.88,2.14-1.8.04-3.69.42-5.25-.34-2.83-1.38-5.33-1.47-8.39-.4-3.47,1.2-4.87-1.53-3.56-6.51,4.07,2.72,8.52-.27,12.88,1.01,7.28,2.14,8.91.67,10.04-6.96.81-7.21-2.04-14.43.08-21.63.23-.76.55-1.5.82-2.25,1.01.74,2.02,1.47,3.02,2.21.3,10.28-.78,20.66,2.22,30.74Z"/>
      <path class="cls-42" d="M66.83,208.5c-1.12,7.64-2.76,9.1-10.04,6.96-4.36-1.28-8.81,1.71-12.88-1.01-1.82-.65-1.24,1.46-2.16,1.85-1.61-.64-3.21-1.27-4.82-1.91.31-.63.63-1.25.94-1.88,3.48-3.96,8.26-5.84,12.89-7.95,5.91-.91,10.9,1.88,16.07,3.94Z"/>
      <path class="cls-69" d="M127.87,60.16c2.03,3.33,4.06,6.65,6.09,9.98,1.05.73.93,1.86,1.03,2.93-5.44.71-10.88,1.41-16.31,2.12-9.16-7.01-14.98-5.93-21.57,3.99-12.56-.18-24.86,2.22-37.27,3.57-.67-.61-1.35-1.22-2.02-1.83.24-1.99-.54-3.58-1.93-4.93-.21-3.87-3.8-4.18-6.15-5.8,6.07-2.49,12.61-2.17,18.93-3,9.95-1.31,19.97-2.04,29.93-3.26,1.53-.19,3.85-.17,4.26-2.63,5.99.96,11.87,2.37,17.56,4.73.57-2.31-1.19-3.34-1.6-4.87,3.02-.28,6.17.64,9.04-1Z"/>
      <path class="cls-58" d="M36.26,66.19c2.09-6.94,10.92-11.86,16.95-9.82,1.25.42,2.69.95,2.48,2.63-.25,2.03-2.06,2.48-3.65,2.84-2.58.59-5.25.78-7.79,1.47-2.54.68-4.96,1.77-7.99,2.88Z"/>
      <path class="cls-21" d="M118.83,61.16c.41,1.53,2.17,2.56,1.6,4.87-5.7-2.37-11.58-3.77-17.56-4.73-2.96-3.42-.82-4.66,2.36-5.06,5.33-.68,9.62,1.76,13.6,4.93Z"/>
      <path class="cls-13" d="M49.74,70.18c2.35,1.62,5.94,1.93,6.15,5.8-6.03-4.93-12.01-3.22-17.97.15.65-1.02,1.3-2.04,1.95-3.07,3.07-1.72,6.2-3.21,9.87-2.89Z"/>
      <path class="cls-40" d="M86.9,25.3c1.28,1.46,1.6,3.3,2,5.11-1.11-1.53-5.76-1.69-2-5.11Z"/>
      <path class="cls-41" d="M138.85,164.71c.04-2.05.09-4.1.14-6.16,3.02-4.44,3.7-10.01,7.11-14.31,2.82-3.56,5.35-7.35,8.81-10.38,2.77-.97,5.54-1.94,9-3.16-.86,3.15-3.22,4.42-4.32,6.48-.67,1.26-2.44,2.37-1.44,3.89.92,1.39,2.74.61,4.18.56.63-.02,1.25-.21,1.87-.33,1.41,1.6-.78,3.23.18,4.8,3.43-.33,5.77-3.14,9.01-3.84,1.11,1.75.21,3.65.72,5.35-.29,1.4.1,2.99-1.12,4.15-.39-1.72.6-3.66-.64-5.64-1.45,2.14-2.04,4.36-3.9,5.54-2.54,1.6,1.51,3.22-.07,5-.25.28,1.58-.25,2.42.03,6.41-.82,12.49-2.61,18.03-6.02.41,3.69-1.78,6.76-2.73,10.24,1.99.12,3.45-.48,4.85-1.32,2.5.54,6.48-1.16,7.23,1.02.71,2.08-2.43,4.64-4.38,6.57-5.8,5.78-12.1,10.72-20.7,11.55-1.1.29-2.2.59-3.29.88.59-2.02,1.17-4.03,1.76-6.05.29.32.59.64.88.95-3.83,3.2-7.79,6.27-11.45,9.64-2.07,1.91-4.41,2.85-7.04,3.26-.91.14-2.3.79-2.35-1.36-.09-3.86-1.79-.24-2.69-.46-4.32-3.17-3.2-7.59-2.55-11.77.7-4.45,1.74-8.85,2.72-13.71-2.54.96-4.05,2.16-5.62,3.37-1.27.98-2.52,2.96-4.6,1.18Z"/>
      <path class="cls-53" d="M188.83,150.69c-5.54,3.4-11.62,5.2-18.03,6.02.73-1.64,1.46-3.28,2.19-4.93,1.22-1.16.83-2.74,1.12-4.15,3.22-1.8,4.74-4.89,6.05-8.33,2.22,4.36,3.62,4.52,6.47.87.9-1.16,1.54-2.52,2.23-3.83.64-1.22.54-2.82,2.23-4.11.53,4.36,4.44,7.73,1.93,12.33,0,0-.21.31-.21.31-1.33,1.94-2.66,3.88-3.99,5.82Z"/>
      <path class="cls-17" d="M199.61,142.67c-.61,1.29-1.22,2.58-1.84,3.88-1.41.69-2.83,1.37-4.22,2.05-1.14-1.2-.35-2.57-.74-3.74,0,0,.21-.31.21-.31,2.6.79,3.54-4.21,6.58-1.88Z"/>
      <path class="cls-24" d="M48.08,161.62c-.06-.66-.14-1.31-.18-1.97-.2-3.59,1.1-7.65-3.22-9.91.36-6.73.97-7.25,7.2-4.34,6.31,2.95,12.64,6.01,18.52,9.7,5.64,3.53,10.49,2.68,15.81-.41,2.19-1.27,4.28-5.86,7.69-1.35.07.09.85-.32,1.28-.53,4.8-2.35,6.45-1.35,6.69,4.16.1,2.32.07,4.64.02,6.96-.03,1.44.49,3.4-1.18,4-1.71.62-2.01-1.89-3.41-2.39-2.09,7.58-6.76,13.1-13.42,17.07-.7-2.72,2.06-5.41.15-8.74-1.47,2.61-2.56,4.81-3.89,6.85-2.02,3.09-4.06,3.21-6.5.14-4.19-5.27-9.79-8.82-15.79-11.73-1.84-.9-3.51-1.98-4.16-3.99-.91-2.79-2.8-3.82-5.6-3.52Z"/>
      <path class="cls-54" d="M83.89,182.62c6.66-3.96,11.33-9.49,13.42-17.07,1.4.5,1.71,3.01,3.41,2.39,1.67-.61,1.15-2.56,1.18-4,.05-2.32.09-4.65-.02-6.96-.25-5.51-1.9-6.51-6.69-4.16-.43.21-1.21.62-1.28.53-3.41-4.51-5.5.08-7.69,1.35-5.32,3.09-10.17,3.94-15.81.41-5.89-3.69-12.21-6.74-18.52-9.7-6.23-2.91-6.84-2.4-7.2,4.34-1.53-2.19-.33-4.71-.83-7.02.8-3.95-.38-6.53-4.78-7.04-.76-.09-1.47-.68-2.2-1.03,9.73,1.5,19.68,2.25,27.97,8.47.91.68,2.02,1.1,3.04,1.65,5.62,4.86,16.38,4.37,21.94-1,6.45-7,15.9-5.94,23.9-8.78.26-.09.77.51,1.16.79-1.84,2.04-.63,4.01.15,5.98-.26,2.44-.75,4.91-.87,7.29-.18,3.53-1.63,3.54-4.31,2.11.4,7.03.33,13.52-2.54,20.02-.97-1.15-1.79-2.1-3.01-3.54-1.71,6.84-6.57,10.9-11.4,14.97-2.53.99-5.28,1.69-6.23,4.75-1.84.06-3.59.71-4.89,1.82-2.68,2.28-4.81,1.68-6.9-.67,3.01-1.96,7.56-1.6,9.01-5.91Z"/>
      <path class="cls-12" d="M83.89,182.62c-1.46,4.31-6.01,3.95-9.01,5.91-1.37-.56-2.75-1.13-4.12-1.69-1.01-.74-2.01-1.47-3.02-2.21-5.83-5-11.53-10-15.7-16.71-1.26-2.02-4.32-3.03-3.95-6.29,2.8-.3,4.69.73,5.6,3.52.66,2.01,2.32,3.1,4.16,3.99,6.01,2.92,11.6,6.46,15.79,11.73,2.44,3.07,4.48,2.95,6.5-.14,1.33-2.04,2.42-4.24,3.89-6.85,1.92,3.34-.84,6.02-.15,8.74Z"/>
      <path class="cls-34" d="M50.76,204.57c-4.63,2.11-9.41,3.99-12.89,7.95.48-3.11,2.85-4.83,5.23-6.14,3.55-1.96,4.33-4.5,3.23-8.2-3.45-11.59-6.69-23.24-8.31-35.27,2.85,1.21,2.07,4.11,2.37,6.11,1.15,7.75,3.56,15.07,6.24,22.37,1.3,3.53,2.28,7.27,1.75,11.08-.32,2.3,1.11,1.93,2.37,2.09Z"/>
      <path class="cls-51" d="M36.88,134.65c.73.36,1.43.94,2.2,1.03,4.4.51,5.58,3.08,4.78,7.04-2.53-1.06-5.09-2.03-7.88-2.08.1-2.03-.92-4.23.91-5.99Z"/>
      <path class="cls-51" d="M138.85,164.71c2.08,1.77,3.33-.21,4.6-1.18,1.57-1.21,3.08-2.41,5.62-3.37-.98,4.86-2.02,9.26-2.72,13.71-.65,4.18-1.77,8.6,2.55,11.77-2.09,1.74-4.12,3.59-7,3.95-3.03-.7-2.01-2.88-1.6-4.67,1-4.37.79-8.64-.29-12.98-.48-1.9-1.42-2.35-3.07-2.24.04-1.61.07-3.22.11-4.82.61-.05,1.21-.11,1.82-.16Z"/>
      <path class="cls-43" d="M192.82,144.86c.38,1.17-.41,2.54.74,3.74,1.39-.68,2.8-1.36,4.22-2.05.25,5.66-4.56,8.7-6.83,13.06-1.4.83-2.86,1.44-4.85,1.32.96-3.48,3.14-6.56,2.73-10.24,1.33-1.94,2.66-3.88,3.99-5.82Z"/>
      <path class="cls-105" d="M169.8,179.64c1.1-.29,2.19-.59,3.29-.88.45,1.23,1.42,1.64,2.65,1.86,1.3.23,3.46-.88,3.67,1.23.16,1.58-1.97,2-3.14,2.81-3.73,2.58-8.06,3.23-13.25,4.02,2.57-3.44,4.67-6.24,6.77-9.04Z"/>
      <path class="cls-1" d="M136.93,169.7c1.66-.11,2.6.34,3.07,2.24,1.09,4.34,1.29,8.61.29,12.98-.41,1.78-1.43,3.97,1.6,4.67-.73,1.15-1.93.96-3.03,1.05-1.26.01-2.51.02-3.77.03,1.56-5.87,3.52-11.68,2.68-17.9l-.84-3.07Z"/>
      <path class="cls-83" d="M108.17,204.63c-3.56-2.31-6.52.51-9.69,1.22-1.86.41-3.44,1.87-5.53,1.68-.01-6.65-.03-13.29-.04-19.94,11.83-6.35,19.3-16.05,22.11-30.15,1.77,4.35,2.08,7.72,1.91,11.16-.23.23-.66.47-.66.7.19,11.53-5.43,21.96-6.38,33.26-.1,1.16-.62,1.82-1.72,2.07Z"/>
      <path class="cls-66" d="M128.94,201.5c-1.15.25-1,1.2-1.08,2.02q-7.21-2.48-6.89-10.05c5.82.38,7.72-4.65,10.85-7.91.97-1.01,1.39-2.56,2.06-3.86.35-.67.71-1.33,1.06-1.99,1.55,1.21.54,2.62.37,4.01-.78,6.44-4.4,11.85-6.4,17.84l.03-.07Z"/>
      <path class="cls-88" d="M108.17,204.63c1.11-.25,1.63-.91,1.72-2.07.95-11.31,6.57-21.73,6.38-33.26,0-.23.43-.47.66-.7,1,7.24-1.07,14.12-2.46,21.08-.16.8-.3,1.62-.61,2.37-2.98,7.19-2.6,13.09,5.38,17.1,3.3,1.66,4.79,5.31,5.52,9-.33.08-.61.25-.82.52-1.62-1-1.02-3.55-3.03-4.29-2.28-5.79-8.12-6.97-12.73-9.75Z"/>
      <path class="cls-2" d="M134.9,214.43c-.99,5.19-4.76,5.43-8.92,4.94,1.34-1.77,2.27-3.66,1.98-5.97,2.29.49,4.86-.85,6.94,1.03Z"/>
      <path class="cls-29" d="M133.63,67.32c-4.24-9.16-9.09-17.85-18.15-23.27-1.76-1.06-1.18-2.45-.69-3.86.7-2,1.42-4,2.13-5.99,2.92-5.02,5.61-10.19,9.93-14.23-1.49,5.48-4.06,10.65-4.93,16.32-3.76,6.66,5.24,2.75,5.16,6.36-3.27,2.47-3.55,2.94-2.38,3.62,5.98,3.45,7.65,10.12,11.92,15.51,3.14-8.65,2.61-17.03,1.35-25.46.68-.02,1.37-.05,2.05-.07,2.73,10.02,3.03,20.01-.43,29.94-2.74-3.49-4.37-1.21-5.98,1.15Z"/>
      <path class="cls-94" d="M140.03,36.23c-.68.02-1.37.05-2.06.07-.35-1.1-.67-2.21-1.04-3.3-1.83-5.32-2.96-5.85-7.8-2.75-2.62,1.68-4.82,4-7.21,6.03.86-5.67,3.43-10.83,4.93-16.32,1.41-2.73,3.66-4.62,6.08-6.44,1.57-1.18,1.9.05,2.56.88,1.08,3.3,2.17,6.61,3.25,9.91.43,3.97.86,7.95,1.28,11.92Z"/>
      <path class="cls-37" d="M138.75,24.31c-1.08-3.3-2.16-6.61-3.25-9.91,3,2.63,3.67,6.28,4.34,9.92-.36,0-.73,0-1.09-.01Z"/>
      <path class="cls-114" d="M128.91,201.57c2-5.99,5.62-11.4,6.4-17.84.17-1.39,1.18-2.8-.37-4.02.86-2.33,1.76-4.66,1.1-7.22.58.09,1.16.18,1.73.27.84,6.22-1.11,12.03-2.68,17.9-1.63,3.88-2.76,8.04-6.18,10.91Z"/>
      <path class="cls-102" d="M206.88,91.8c6.61,7.35,9.01,16.41,9.89,25.85.52,5.57-.02,11.25-.08,16.88-1.93-4.53-.94-9.41-1.44-14.09-.97-9.17-3.44-17.69-7.56-25.85-.43-.85-.55-1.85-.82-2.79Z"/>
      <path class="cls-29" d="M36.68,28.37c.46,1.35.86,2.74,2.18,3.57,4.83,7.3,3.01,12.37-4.16,17.46-6.45,4.58-8.5,12.73-11.69,19.77-.66-1.87-.71-4.01-2.48-5.59-.91,1.23-1.73,2.36-2.56,3.48-3.84-7.23-3.01-15.1-3.2-22.83,1.84-4.46,1.07-9.5,3.05-13.93,1,0,2.01-.01,3.01-.02-2.71,10.09-2.99,20.15-.09,31.24,2.95-4.49,5.21-8.14,7.45-11.72,1.17-1.87,7.56-2.97,2.42-7.25-.36-.3.84-1.34,1.68-1.28,5.01.39,3.17-2.58,2.53-4.98.38-5.55-2.88-10.2-3.85-15.42.32.14.64.28.97.42,1.58,2.36,3.16,4.72,4.73,7.08Z"/>
      <path class="cls-23" d="M20.85,30.28c-1,0-2.01.01-3.01.02-.05-5.18,2.53-9.84,2.95-14.93.95-2.3,2.08-3.95,4.39-1.16,1.88,2.27,4.73,3.71,5.81,6.67.97,5.22,4.22,9.87,3.85,15.42-1.95-2.41-3.74-4.95-6.67-6.4-2.58-1.28-5.03-2.84-7.31.39Z"/>
      <path class="cls-38" d="M20.78,15.37c-.42,5.09-3,9.75-2.95,14.93-1.98,4.43-1.21,9.47-3.05,13.93-1.82-.12-2.23,2.36-4.78,2.12,0-1.98,0-4.1,0-6.21,2.74-.46,2.27-2.97,2.78-4.67,2.07-6.94,4.46-13.74,8.01-20.09Z"/>
      <path class="cls-76" d="M136.04,172.49c.66,2.56-.25,4.89-1.1,7.22-.35.66-.71,1.33-1.06,1.99.1-4.86,1.53-9.57-.47-14.62-1.18-2.98-4.94-3.42-5.22-6.77,5.68,1.12,7.6,4.16,7.85,12.18Z"/>
      <path class="cls-24" d="M37.91,76.14c5.96-3.37,11.94-5.08,17.97-.15,1.39,1.35,2.17,2.94,1.93,4.93-6.67-7.09-13.06-6.28-17.14,2.18-4.06,7.56-1.29,13.52,4.42,18.8-3.74-.56-7.48-2.07-11.22.02-4.24,3.68-3.95,7.26.82,9.98,4.62,2.63,9.69,1.23,14.25-3.97,1.05.04,2.1.08,3.15.12-2.11,1.73-.76,3.18.49,4.48,3.33,3.47,5.71,7.47,7.6,11.88,1.14,2.65,2.38,5.39,4.69,7.37,0,0-.07.11-.07.11,2.58,5.34,6.64,9.33,12.62,9.56,5.14.2,9.22-2.81,11.58-7.62,4.49-8.3,9.34-16.37,15.17-23.82,2.29-.42,4.15.63,6.05,1.65,3.41,1.84,6.98,1.97,10.44.31,2.52-1.21,4.36-3.34,3.87-6.26-.49-2.91-2.82-4.35-5.67-4.69-1.96-.23-3.95-.15-5.93-.21,5.1-4.93,6.43-10.55,3.08-17-3.28-8.56-9.78-9.91-17.22-3.58,2.34-7.52,11.42-9.16,16.65-5.12,2.4,1.86,4.34,4.09,5.67,6.82,1.62,3.18,2.09,6.57,1.95,10.09-.46,1.4-.91,2.81-1.52,4.66,8.74.12,15.39,5,22.33,9.22.46,1.12,2.56,1.77,1.65,3.12-1.37,2.03-3.18-.14-4.82-.04-.29.02-.67.09-.83.28-.12.15.04.53.08.8-.07,2.56,3.15,2.67,3.7,4.85-3.06,3.02-6.85.89-11.2,1.29,3.84,3.58,7.85,2.4,11.41,2.97.09.02.22.22.22.33,0,.15-.12.3-.18.45-5.14,4.02-11.4,5.25-17.53,6.43-7.71,1.49-14.92,4.36-22.27,6.88-6.07,2.08-12.94,2.76-16.4,9.37-5.46,2.36-11.05,2.91-16.8,1.13-2.46-1.05-4.78-2.38-6.14-4.72-1.06-1.84-2.52-2.39-4.49-3.11-13.07-4.73-26.65-7.71-39.92-11.74-3.87-1.17-7.44-2.69-10.52-5.3,1.41-1.66,2.97-.61,4.55-.34,3.49.6,6.91.69,9.86-2.18-3.89-1.65-8.41,1.64-11.4-2.47,1.08-.64,1.91-1.48,2.12-2.78.41-2.58-1.71-1.23-2.58-1.47-2.42-.65-1.59-1.64-.55-2.81,6.2-4.74,12.79-8.82,20.49-10.63,2.12-.5,2.2-1.13,1.6-2.88-.58-1.69-.75-3.53-1.09-5.3,1.28-4.14,2.37-8.35,5.07-11.89Z"/>
      <path class="cls-70" d="M70.92,143.75c5.75,1.77,11.34,1.23,16.8-1.13.7.38,1.41.77,2.11,1.16-5.56,5.37-16.32,5.86-21.94,1,1.01-.34,2.02-.68,3.03-1.02Z"/>
      <path class="cls-115" d="M12.87,113.9c2.98,4.11,7.5.82,11.4,2.47-2.94,2.87-6.37,2.79-9.86,2.18-1.58-.27-3.14-1.32-4.55.34-2.09-.88-2.08-2.24-.92-3.88,1.31-.37,2.62-.74,3.93-1.11Z"/>
      <path class="cls-60" d="M133.63,67.32c1.61-2.36,3.23-4.64,5.98-1.15-1.03,2.55-1.52,5.35-3.65,7.35-.32-.15-.64-.31-.97-.46-.1-1.06.02-2.2-1.03-2.93-.11-.94-.22-1.88-.33-2.82Z"/>
      <path class="cls-107" d="M17.98,67.06c.83-1.12,1.65-2.25,2.56-3.48,1.76,1.58,1.82,3.72,2.48,5.59-.39,1.61-.77,3.22-1.16,4.83-.28.1-.57.17-.86.21-1.16-2.32-2.81-4.44-3.01-7.16Z"/>
      <path class="cls-71" d="M121.12,81.93c-1.33-2.74-3.27-4.97-5.67-6.82-5.22-4.04-14.3-2.4-16.65,5.12-.3.3-.6.6-.9.9-.96-.37-.87-1.16-.79-1.95,6.59-9.92,12.4-11,21.57-3.99.47,2.37,3.58,3.8,2.44,6.75Z"/>
      <path class="cls-97" d="M140.92,210.47c.65,1.35,1.3,2.69,1.95,4.04-.34.53-.79,1.01-1,1.59-.84,2.23-2.25,3.72-4.78,3.16-2.68-.59-2.08-2.91-2.17-4.8,2.52.17,4.05-.72,3.96-3.51-.11-3.41,1.3-.6,2.05-.47Z"/>
      <path class="cls-22" d="M70.76,186.84c1.37.56,2.75,1.13,4.12,1.69,2.09,2.35,4.22,2.95,6.9.67,1.31-1.11,3.06-1.76,4.89-1.82,1.75,10.14,2.15,20.24-.86,30.24-4.28-.01-8.56-.02-12.83-.04-3-10.09-1.92-20.46-2.22-30.74Z"/>
      <path class="cls-5" d="M97.11,79.18c-.09.79-.17,1.58.79,1.95-.29.74-.99,1.5.09,2.18-.35.53-.69,1.06-1.04,1.58-2.35,4.01-1.11,7.71,1,11.33,2.25,4.61,6.21,6.03,11.02,5.88-.73.55-1.46,1.1-2.18,1.64-4.22.53-7.71-1.25-11.22-3.28-1.86-1.07-3.27-3.35-5.94-2.66-.52-.24-1.04-.48-1.56-.72-.93-1.71-3.12-.56-4.23-1.87-4.29-2.2-8.61-1.76-12.94-.12-.03.28-.1.55-.21.8-1.69-.07-2.97.63-3.9,2.01.03.36.07.72.1,1.07-1.68-3.29-3.66-1.36-5.53-.27-4.5,2.61-8.68,6.23-14.52,4.23,0,0,.06.03.06.03-.04-.23-.06-.46-.08-.69,2.95-.74,6.72.23,8.04-3.86.35-.81.7-1.63,1.06-2.45,2.18-1.42,1.77-3.75,2.07-5.83.32.27.64.54.95.81.1,1.09-.5,2.29.64,3.39.99-3.16,2.7-6.14.3-9.31,0-.77-.02-1.53-.03-2.3,12.41-1.35,24.72-3.75,37.27-3.57Z"/>
      <path class="cls-80" d="M59.84,82.75c0,.77.02,1.53.03,2.3-1.16,1.84,1.19,4.23-.94,5.92-.32-.27-.64-.54-.95-.82-.44-3.41-1.1-6.77-3.69-9.3-2.16-2.11-4.42-2.86-6.52.16-2.26-1-3.84-.71-4.11,2.12-.99-.28-2,1.16-2.98-.02,4.08-8.46,10.47-9.27,17.14-2.18.67.61,1.35,1.22,2.02,1.83Z"/>
      <path class="cls-82" d="M173,151.78c-.73,1.64-1.46,3.28-2.19,4.93-.84-.28-2.67.25-2.42-.03,1.58-1.78-2.47-3.4.07-5,1.86-1.17,2.45-3.39,3.9-5.54,1.24,1.98.25,3.92.64,5.64Z"/>
      <path class="cls-55" d="M121.93,36.28c2.39-2.03,4.59-4.35,7.21-6.03,4.84-3.09,5.96-2.57,7.8,2.75.38,1.09.7,2.2,1.04,3.3,1.26,8.43,1.79,16.81-1.35,25.46-4.27-5.39-5.94-12.06-11.92-15.51-1.17-.67-.89-1.15,2.38-3.62.08-3.61-8.92.31-5.16-6.36Z"/>
      <path class="cls-55" d="M20.85,30.28c2.28-3.22,4.73-1.67,7.31-.39,2.93,1.45,4.72,3.99,6.67,6.4.64,2.4,2.48,5.38-2.53,4.98-.83-.07-2.04.97-1.68,1.28,5.14,4.27-1.25,5.38-2.42,7.25-2.24,3.58-4.5,7.23-7.45,11.72-2.9-11.09-2.62-21.15.09-31.24Z"/>
      <path class="cls-18" d="M104.18,110c-5.83,7.45-10.68,15.52-15.17,23.82-.67,0-1.34-.01-2.01-.02-.02-1.48-.79-2.44-2.13-2.99-3.01-2.27-6.24-3.41-10-2.03-3.21-.19-5.33,1.59-7.14,3.93-.97-.28-1.94-.56-2.91-.84,0,0,.07-.11.07-.11-1.25-5.26-5.13-9.5-5.82-14.97,1.28.69,2.56,1.38,3.84,2.07,6.36,3.93,10.3,3.3,13.88-2.31,1.47-2.31,1.05,1.07,1.88.58,3.1,5.47,7.71,5.96,15.16,1.63,2.92-1.51,4.82-4.16,7.02-6.44.87-.9,2.37-2.22-.01-3.29-1.11-.42-1.05-.85-.01-1.29,1.44.27,2.8.66,3.36,2.25Z"/>
      <path class="cls-57" d="M62.91,118.87c-1.28-.69-2.56-1.38-3.84-2.07-1.48-2.44-5.97-4.1-4.87-6.67,1.82-4.25-1.3-1.6-2.09-2.09-1.05-.04-2.1-.08-3.15-.12.22-2.05-1.09-3.46-2.12-4.97,5.84,2,10.03-1.63,14.52-4.23,1.87-1.09,3.85-3.02,5.53.27,0,.56.01,1.12.02,1.68-1.64-.58-2.03.31-1.76,1.64.63,3.1,2.14,5.67,4.8,7.5.34,2.16,4.18,2.91,2.55,5.74-1.6,2.79-4.19,2.62-6.89,1.67-1.49-.52-1.8,1.07-2.69,1.65Z"/>
      <path class="cls-89" d="M104.18,110c-.55-1.59-1.92-1.97-3.36-2.25.68-.99,1.77-1.04,2.69-.77,3.22.96,3.71-.64,3.27-3.24.73-.55,1.46-1.1,2.18-1.65,1.33-.43,2.65-.86,3.98-1.29,1.98.06,3.97-.02,5.93.21,2.84.34,5.18,1.78,5.67,4.69.49,2.92-1.35,5.05-3.87,6.26-3.46,1.66-7.03,1.52-10.44-.31-1.9-1.03-3.77-2.07-6.05-1.65Z"/>
      <path class="cls-89" d="M46.83,102.95c1.04,1.52,2.34,2.92,2.12,4.97-4.56,5.19-9.62,6.6-14.25,3.97-4.77-2.72-5.06-6.3-.82-9.98q6.79,5.81,13,1.07l-.06-.03Z"/>
      <path class="cls-111" d="M112.94,100.81c-1.33.43-2.65.86-3.98,1.29-4.81.15-8.78-1.26-11.02-5.88-.33-3.78-.66-7.55-1-11.33.35-.53.69-1.06,1.04-1.59.61-.08,1.21-.15,1.82-.23.09.97.17,1.94.26,2.91-.08,2.1-.38,4.23-.18,6.3.52,5.28,3.05,7.5,8.14,7.47,2.08.41,3.14-.95,4.16-2.38.87-.57,1.79-1.1,1.92-2.29,1.85-3.55-.02-7.73,1.92-11.27,3.35,6.45,2.02,12.06-3.08,17Z"/>
      <path class="cls-39" d="M40.68,83.09c.98,1.19,1.99-.25,2.98.02.05.95.09,1.91.14,2.87-1.52,4.24-1.81,8.43,1.27,12.1,1.59,1.9,3.6,3.16,5.51.15,1.29,2.93,2.83.49,4.27.19-1.32,4.1-5.1,3.12-8.05,3.86-.57-.13-1.13-.26-1.7-.4-5.71-5.28-8.49-11.24-4.42-18.8Z"/>
      <path class="cls-33" d="M87,133.8c.67,0,1.34.01,2.01.02-2.36,4.81-6.44,7.82-11.58,7.62-5.98-.23-10.04-4.22-12.62-9.56.97.28,1.94.56,2.91.84,5.64,6.54,11.37,6.86,19.27,1.09Z"/>
      <path class="cls-79" d="M99.8,83.07c-.61.08-1.21.15-1.82.23-1.08-.68-.37-1.44-.09-2.18.3-.3.6-.6.9-.9,7.44-6.33,13.94-4.98,17.22,3.59-1.94,3.54-.07,7.72-1.92,11.27-.11-3.11.08-6.27-.39-9.33-.83-5.39-4.95-7.54-10.05-5.59-1.91.16-3.12,1.22-3.86,2.91Z"/>
      <path class="cls-36" d="M52.11,108.04c.79.49,3.91-2.16,2.09,2.09-1.1,2.57,3.39,4.23,4.87,6.67.69,5.47,4.57,9.71,5.82,14.97-2.31-1.98-3.55-4.72-4.69-7.37-1.89-4.41-4.27-8.41-7.6-11.88-1.25-1.3-2.6-2.75-.49-4.48Z"/>
      <path class="cls-31" d="M45.1,101.89c.57.13,1.13.26,1.7.4.02.23.05.47.08.7q-6.21,4.74-13-1.07c3.73-2.1,7.48-.59,11.22-.02Z"/>
      <path class="cls-57" d="M106.78,103.74c.44,2.61-.05,4.2-3.27,3.24-.91-.27-2-.22-2.69.77-1.04.44-1.09.87.01,1.29-1.19,5.3-6.41,5.51-9.99,7.76-2.91,1.83-5.56,1.39-7.87-1.32-2.63-3.08,1.79-3.56,1.94-5.58,2.42-2.94,6.12-5.25,4.97-9.95-.09-.72-.18-1.43-.27-2.15,2.68-.68,4.08,1.59,5.94,2.66,3.51,2.02,6.99,3.81,11.22,3.28Z"/>
      <path class="cls-35" d="M50.58,98.23c-1.91,3.01-3.92,1.75-5.51-.15-3.08-3.68-2.79-7.86-1.27-12.1,1.43.78,2.81,1.65,4.21-.17,1.32-1.73.88-3.26-.24-4.81,2.1-3.01,4.36-2.27,6.52-.16,2.59,2.53,3.25,5.89,3.69,9.3-.3,2.08.11,4.41-2.07,5.83-4.28-5.12-3.59,1.4-5.33,2.25Z"/>
      <path class="cls-6" d="M89.62,97.8c.09.72.18,1.43.27,2.15-6.94,4.95-16.4,5.48-21.95,1.22,2.4-.22,6.43,1.76,6.67-1.45.19-2.59-4.01-1.5-6.35-1.72-.49-.05-.98-.06-1.48-.09.93-1.38,2.21-2.08,3.9-2.01.37.02.74.05,1.1.07,5.34,1.65,10.81,1.33,16.27,1.11.52.24,1.04.48,1.56.72Z"/>
      <path class="cls-47" d="M66.78,97.91c.49.03.99.04,1.48.09,2.34.22,6.54-.87,6.35,1.72-.23,3.21-4.27,1.23-6.67,1.45-.35-.17-.7-.34-1.04-.51,0-.56-.01-1.12-.02-1.68-.03-.36-.07-.72-.1-1.07Z"/>
      <path class="cls-14" d="M50.58,98.23c1.73-.85,1.05-7.37,5.33-2.25-.35.82-.7,1.64-1.06,2.45-1.44.29-2.98,2.73-4.27-.2Z"/>
      <path class="cls-110" d="M88.06,97.08c-5.47.22-10.94.54-16.27-1.11,3.65-.5,7.43.92,11-.75.35,0,.69,0,1.04,0,1.11,1.3,3.3.16,4.23,1.87Z"/>
      <path class="cls-15" d="M83.83,95.22c-.35,0-.69,0-1.04,0-3.97-.04-7.93-.08-11.9-.12,4.33-1.64,8.65-2.09,12.94.12Z"/>
      <path class="cls-45" d="M70.88,95.1c3.97.04,7.93.08,11.9.12-3.57,1.67-7.35.26-11,.76-.37-.02-.74-.05-1.11-.07.11-.26.18-.53.21-.8Z"/>
      <path class="cls-28" d="M96.95,84.89c.33,3.77.66,7.55,1,11.33-2.1-3.62-3.34-7.32-1-11.33Z"/>
      <path class="cls-109" d="M58.93,90.96c2.13-1.69-.22-4.08.94-5.92,2.4,3.17.69,6.15-.3,9.31-1.14-1.11-.55-2.3-.64-3.39Z"/>
      <path class="cls-73" d="M47.76,81c1.12,1.55,1.56,3.08.24,4.81-1.39,1.82-2.77.95-4.21.17-.05-.96-.09-1.91-.14-2.87.27-2.83,1.85-3.12,4.11-2.12Z"/>
      <path class="cls-75" d="M84.92,109.9c-.15,2.02-4.57,2.5-1.94,5.58,2.31,2.71,4.96,3.15,7.87,1.32,3.58-2.25,8.8-2.47,9.99-7.76,2.38,1.07.89,2.38.01,3.29-2.2,2.28-4.1,4.93-7.02,6.44-5.12.1-10.41,1.73-15.16-1.63-.83.49-.4-2.88-1.88-.58-3.58,5.61-7.53,6.24-13.88,2.31.88-.58,1.2-2.18,2.69-1.65,2.7.95,5.29,1.11,6.89-1.67,1.62-2.83-2.21-3.58-2.55-5.74,4.98,2.44,9.97,3.06,14.98.1Z"/>
      <path class="cls-68" d="M87,133.8c-7.9,5.78-13.63,5.46-19.27-1.09,1.81-2.34,3.93-4.12,7.14-3.93-.83,3.83,2.55,2.06,3.65,2.24,2.01.33,4.44,3.47,6.35-.21,1.34.55,2.11,1.51,2.13,2.99Z"/>
      <path class="cls-63" d="M84.87,130.81c-1.9,3.68-4.34.54-6.35.21-1.1-.18-4.49,1.59-3.65-2.24,3.76-1.38,6.99-.24,10,2.03Z"/>
      <path class="cls-93" d="M78.67,117.14c4.75,3.36,10.04,1.73,15.16,1.63-7.45,4.33-12.06,3.84-15.16-1.63Z"/>
      <path class="cls-59" d="M84.92,109.9c-5.01,2.96-10,2.34-14.98-.1-2.66-1.83-4.17-4.4-4.8-7.5-.27-1.33.12-2.22,1.76-1.64.35.17.69.34,1.04.51,5.55,4.26,15.01,3.73,21.95-1.22,1.14,4.71-2.55,7.01-4.97,9.95Z"/>
      <path class="cls-50" d="M103.66,80.16c5.1-1.95,9.22.2,10.05,5.59.47,3.06.28,6.22.39,9.33-.13,1.19-1.05,1.72-1.92,2.29.9-1.39,1.34-2.95-.58-3.58-1.46-.48-2.33.91-2.74,2.2-.39,1.22-.57,2.51-.84,3.77-5.09.02-7.62-2.19-8.14-7.47-.21-2.07.1-4.2.18-6.3,1.35.9,2.9,2.05,4.22.36,1.63-2.08.68-4.22-.62-6.18Z"/>
      <path class="cls-77" d="M103.66,80.16c1.3,1.96,2.24,4.11.62,6.18-1.32,1.68-2.87.54-4.22-.36-.08-.97-.17-1.94-.26-2.91.74-1.69,1.95-2.76,3.86-2.91Z"/>
      <path class="cls-113" d="M108.02,99.76c.27-1.26.45-2.55.84-3.77.41-1.29,1.28-2.68,2.74-2.2,1.92.63,1.49,2.19.58,3.58-1.02,1.44-2.08,2.79-4.16,2.39Z"/>
    </g>
  </g>
</svg>